<svg width="36" height="36" viewBox="0 0 36 36" fill="none" xmlns="http://www.w3.org/2000/svg">
<path fill-rule="evenodd" clip-rule="evenodd" d="M34 18C34 26.8366 26.8366 34 18 34C9.16344 34 2 26.8366 2 18C2 9.16344 9.16344 2 18 2C26.8366 2 34 9.16344 34 18ZM32 18C32 25.732 25.732 32 18 32C10.268 32 4 25.732 4 18C4 10.268 10.268 4 18 4C25.732 4 32 10.268 32 18Z" fill="currentColor"/>
<path d="M24 22V20H22V18H24V16H26V18H28V20H26V22H24Z" fill="currentColor"/>
<path fill-rule="evenodd" clip-rule="evenodd" d="M13 20L11.5 26H9.5L13.1213 11.5149C13.3439 10.6246 14.1438 10 15.0616 10H15.9384C16.8562 10 17.6561 10.6246 17.8787 11.5149L21.5 26H19.5L18 20H13ZM13.5 18H17.5L16 12H15L13.5 18Z" fill="currentColor"/>
</svg>
