<svg width="36" height="36" viewBox="0 0 36 36" fill="none" xmlns="http://www.w3.org/2000/svg">
<path fill-rule="evenodd" clip-rule="evenodd" d="M10 18C8.89543 18 8 18.8954 8 20V22C8 23.1046 8.89543 24 10 24H12C13.1046 24 14 23.1046 14 22V20C14 18.8954 13.1046 18 12 18H10ZM10 20H12V22H10V20Z" fill="currentColor"/>
<path d="M18 22H28V20H18V22Z" fill="currentColor"/>
<path fill-rule="evenodd" clip-rule="evenodd" d="M7 6C4.23858 6 2 8.23858 2 11V25C2 27.7614 4.23858 30 7 30H29C31.7614 30 34 27.7614 34 25V11C34 8.23858 31.7614 6 29 6H7ZM4 11C4 9.34315 5.34315 8 7 8H29C30.6569 8 32 9.34315 32 11V12H4V11ZM4 14V25C4 26.6569 5.34315 28 7 28H29C30.6569 28 32 26.6569 32 25V14H4Z" fill="currentColor"/>
</svg>
