<svg width="36" height="36" viewBox="0 0 36 36" fill="none" xmlns="http://www.w3.org/2000/svg">
<path fill-rule="evenodd" clip-rule="evenodd" d="M20.5119 4.22723C17.2167 3.62625 13.8153 4.22659 10.925 5.9193C8.48815 7.34642 6.55079 9.47025 5.35084 12.0001L9.99999 12L10 14L2 14.0001V6.00003H4V10.254C5.38315 7.75417 7.41972 5.6544 9.91426 4.19348C13.2175 2.25896 17.1049 1.57285 20.8708 2.25968C24.6367 2.94651 28.0315 4.96077 30.4391 7.93685C32.8468 10.9129 34.1076 14.6536 33.9928 18.4799C33.878 22.3062 32.3951 25.9645 29.8134 28.7909C27.2317 31.6173 23.7222 33.4244 19.9219 33.8842C16.1215 34.344 12.2823 33.426 9.10101 31.2969C5.9197 29.1679 3.60716 25.9687 2.58312 22.2802L4.51023 21.7452C5.40627 24.9726 7.42974 27.7719 10.2134 29.6348C12.997 31.4978 16.3563 32.301 19.6816 31.8987C23.0069 31.4963 26.0777 29.9151 28.3367 27.4421C30.5958 24.969 31.8932 21.7679 31.9937 18.4199C32.0942 15.0719 30.9909 11.7988 28.8843 9.19475C26.7776 6.59068 23.8071 4.8282 20.5119 4.22723ZM17 8.00002L19 8.00002L19 17.5858L23.7071 22.293L22.2929 23.7072L17 18.4143L17 8.00002Z" fill="currentColor"/>
</svg>
