<svg width="36" height="36" viewBox="0 0 36 36" fill="none" xmlns="http://www.w3.org/2000/svg">
<path d="M18.4378 9.91128L28.0441 6.9555L27.4559 5.04395L17.8496 7.99972H8C7.07967 7.99972 6.17168 8.21147 5.34627 8.61852C4.52085 9.02557 3.80014 9.61704 3.23988 10.3472C2.67962 11.0773 2.29483 11.9266 2.11529 12.8292C1.93574 13.7319 1.96625 14.6637 2.20445 15.5527L4.1363 15.035C3.9775 14.4424 3.95716 13.8212 4.07686 13.2194C4.19656 12.6176 4.45308 12.0515 4.82659 11.5647C5.20009 11.0779 5.68057 10.6836 6.23085 10.4123C6.78112 10.1409 7.38645 9.99976 8 9.99976L17.8496 9.99972C18.049 9.99972 18.2472 9.96991 18.4378 9.91128Z" fill="currentColor"/>
<path d="M9.17157 17.1713C9.92172 16.4212 10.9391 15.9998 12 15.9998L19.8496 15.9997C20.049 15.9997 20.2472 15.9699 20.4378 15.9112L28.1177 13.5482C30.0469 12.9546 32 14.3971 32 16.4155V24.748C32 26.9374 29.7307 28.3894 27.7428 27.4719L20.6185 24.1838C20.3557 24.0625 20.0698 23.9997 19.7804 23.9997H18.3333V25.9997H19.7804L26.9047 29.2878C30.2178 30.817 34 28.397 34 24.748V16.4155C34 13.0515 30.7448 10.6473 27.5296 11.6366L19.8496 13.9997H12C10.4087 13.9997 8.88258 14.6319 7.75736 15.7571C6.63214 16.8823 6 18.4085 6 19.9998C6 21.5911 6.63214 23.1172 7.75736 24.2424C8.88258 25.3676 10.4087 25.9998 12 25.9998L12.382 25.9997L16.1056 33.4469L17.8944 32.5525L13.618 23.9997H12C10.9391 23.9997 9.92172 23.5783 9.17157 22.8282C8.42143 22.078 8 21.0606 8 19.9998C8 18.9389 8.42143 17.9215 9.17157 17.1713Z" fill="currentColor"/>
</svg>
