<svg width="36" height="36" viewBox="0 0 36 36" fill="none" xmlns="http://www.w3.org/2000/svg">
<path fill-rule="evenodd" clip-rule="evenodd" d="M9 2C6.23858 2 4 4.23858 4 7V29C4 31.7614 6.23858 34 9 34H18.0029V32H9C7.34315 32 6 30.6569 6 29V7C6 5.34315 7.34315 4 9 4H18V9C18 10.6569 19.3431 12 21 12H26V20H28V10.6569C28 9.33077 27.4732 8.059 26.5355 7.12132L22.8787 3.46447C21.941 2.52678 20.6692 2 19.3431 2H9ZM20 9V4.07278C20.5503 4.19628 21.0594 4.47357 21.4645 4.87868L25.1213 8.53553C25.5264 8.94065 25.8037 9.44969 25.9272 10H21C20.4477 10 20 9.55228 20 9Z" fill="currentColor"/>
<path d="M18.0029 20H10V22H18.0029V20Z" fill="currentColor"/>
<path d="M10 18H22V16H10V18Z" fill="currentColor"/>
<path d="M10 26H18V24H10V26Z" fill="currentColor"/>
<path fill-rule="evenodd" clip-rule="evenodd" d="M26 28V24H28V28H32V30H28V34H26V30H22V28H26Z" fill="currentColor"/>
</svg>
