<svg width="36" height="36" viewBox="0 0 36 36" fill="none" xmlns="http://www.w3.org/2000/svg">
<path fill-rule="evenodd" clip-rule="evenodd" d="M10 9C10 6.23858 12.2386 4 15 4H29C31.7614 4 34 6.23858 34 9V19C34 21.7614 31.7614 24 29 24H15C12.2386 24 10 21.7614 10 19V9ZM15 6C13.3431 6 12 7.34315 12 9V19C12 20.6569 13.3431 22 15 22H29C30.6569 22 32 20.6569 32 19V9C32 7.34315 30.6569 6 29 6H15ZM16.0778 14C16.1193 14.0929 16.1712 14.2029 16.2342 14.3261C16.4465 14.7416 16.7789 15.2949 17.2557 15.8451C18.1986 16.9331 19.6913 18 22 18C24.3087 18 25.8014 16.9331 26.7443 15.8451C27.2211 15.2949 27.5535 14.7416 27.7658 14.3261C27.8288 14.2029 27.8807 14.0929 27.9222 14C27.8807 13.9071 27.8288 13.7971 27.7658 13.6739C27.5535 13.2584 27.2211 12.7051 26.7443 12.1549C25.8014 11.0669 24.3087 10 22 10C19.6913 10 18.1986 11.0669 17.2557 12.1549C16.7789 12.7051 16.4465 13.2584 16.2342 13.6739C16.1712 13.7971 16.1193 13.9071 16.0778 14ZM30.0541 14L29.9484 13.6828L29.9472 13.6793L29.945 13.6729L29.9388 13.6549L29.9182 13.5978C29.9008 13.5507 29.8761 13.486 29.8434 13.4062C29.7781 13.2467 29.6806 13.0257 29.5467 12.7636C29.2799 12.2416 28.8622 11.5449 28.2557 10.8451C27.0319 9.43306 25.0246 8 22 8C18.9754 8 16.9681 9.43306 15.7443 10.8451C15.1378 11.5449 14.7201 12.2416 14.4533 12.7636C14.3194 13.0257 14.2219 13.2467 14.1566 13.4062C14.1239 13.486 14.0992 13.5507 14.0818 13.5978L14.0612 13.6549L14.055 13.6729L14.0528 13.6793L14.052 13.6818L13.9459 14L14.0513 14.3162L14.052 14.3182L14.0528 14.3207L14.055 14.3271L14.0612 14.3451L14.0818 14.4022C14.0992 14.4493 14.1239 14.514 14.1566 14.5938C14.2219 14.7533 14.3194 14.9743 14.4533 15.2364C14.7201 15.7584 15.1378 16.4551 15.7443 17.1549C16.9681 18.5669 18.9754 20 22 20C25.0246 20 27.0319 18.5669 28.2557 17.1549C28.8622 16.4551 29.2799 15.7584 29.5467 15.2364C29.6806 14.9743 29.7781 14.7533 29.8434 14.5938C29.8761 14.514 29.9008 14.4493 29.9182 14.4022L29.9388 14.3451L29.945 14.3271L29.9472 14.3207L29.948 14.3182L30.0541 14ZM20 14C20 12.8954 20.8954 12 22 12C23.1046 12 24 12.8954 24 14C24 15.1046 23.1046 16 22 16C20.8954 16 20 15.1046 20 14ZM6 18C4.89543 18 4 18.8954 4 20V27C4 28.6569 5.34315 30 7 30H18C19.1046 30 20 29.1046 20 28H22C22 30.2091 20.2091 32 18 32H7C4.23858 32 2 29.7614 2 27V20C2 17.7909 3.79086 16 6 16V18Z" fill="currentColor"/>
</svg>
