<svg width="36" height="36" viewBox="0 0 36 36" fill="none" xmlns="http://www.w3.org/2000/svg">
<path fill-rule="evenodd" clip-rule="evenodd" d="M14 6C14 3.79086 15.7909 2 18 2C20.2091 2 22 3.79086 22 6V14.5L28.8 19.6C29.5554 20.1666 30 21.0557 30 22V26.443L22 23.443V27.6972L23.4962 29.9415C23.8247 30.4343 24 31.0133 24 31.6056V34H12V31.6056C12 31.0133 12.1753 30.4343 12.5038 29.9415L14 27.6972V23.443L6 26.443V22C6 21.0557 6.44458 20.1666 7.2 19.6L14 14.5V6ZM18 4C16.8954 4 16 4.89543 16 6V15.5L8.4 21.2C8.14819 21.3889 8 21.6852 8 22V23.557L16 20.557V28.3028L14.1679 31.0509C14.0584 31.2151 14 31.4081 14 31.6056V32H22V31.6056C22 31.4081 21.9416 31.2151 21.8321 31.0509L20 28.3028V20.557L28 23.557V22C28 21.6852 27.8518 21.3889 27.6 21.2L20 15.5V6C20 4.89543 19.1046 4 18 4Z" fill="currentColor"/>
</svg>
