<svg width="36" height="36" viewBox="0 0 36 36" fill="none" xmlns="http://www.w3.org/2000/svg">
<path fill-rule="evenodd" clip-rule="evenodd" d="M10 4.14359C12.4323 2.7393 15.1914 2 18 2C20.8086 2 23.5677 2.7393 26 4.14359L25 5.87564C22.8717 4.64689 20.4575 4 18 4C15.5425 4 13.1283 4.64689 11 5.87564L10 4.14359ZM13 12H6V10H13C14.6569 10 16 11.3431 16 13V17C16 18.6569 14.6569 20 13 20H9C8.44772 20 8 20.4477 8 21V24H16V26H6V21C6 19.3431 7.34315 18 9 18H13C13.5523 18 14 17.5523 14 17V13C14 12.4477 13.5523 12 13 12ZM20 17V10H22V17C22 17.5523 22.4477 18 23 18H28V10H30V26H28V20H23C21.3431 20 20 18.6569 20 17ZM18 34C15.1914 34 12.4323 33.2607 10 31.8564L11 30.1244C13.1283 31.3531 15.5425 32 18 32C20.4575 32 22.8717 31.3531 25 30.1244L26 31.8564C23.5677 33.2607 20.8086 34 18 34Z" fill="currentColor"/>
</svg>
