<svg width="36" height="36" viewBox="0 0 36 36" fill="none" xmlns="http://www.w3.org/2000/svg">
<path fill-rule="evenodd" clip-rule="evenodd" d="M4 8C4 5.79086 5.79086 4 8 4C10.2091 4 12 5.79086 12 8C12 8.74191 11.798 9.43664 11.446 10.0322L14.5232 13.1094C15.5041 12.4109 16.7041 12 18 12C19.2959 12 20.4958 12.4108 21.4766 13.1093L24.5539 10.0321C24.202 9.43652 24 8.74185 24 8C24 5.79086 25.7909 4 28 4C30.2091 4 32 5.79086 32 8C32 10.2091 30.2091 12 28 12C27.2582 12 26.5636 11.7981 25.9681 11.4462L22.8908 14.5235C23.5892 15.5044 24 16.7042 24 18C24 19.2959 23.5892 20.4958 22.8906 21.4767L24.707 23.2929L23.2929 24.7072L21.4764 22.8909C20.4956 23.5892 19.2958 24 18 24C16.7042 24 15.5043 23.5892 14.5235 22.8908L11.4462 25.9681C11.7981 26.5636 12 27.2582 12 28C12 30.2091 10.2091 32 8 32C5.79086 32 4 30.2091 4 28C4 25.7909 5.79086 24 8 24C8.74184 24 9.43651 24.2019 10.032 24.5539L13.1093 21.4766C12.4108 20.4958 12 19.2959 12 18C12 16.7043 12.4107 15.5045 13.1091 14.5237L10.0317 11.4463C9.43627 11.7981 8.74171 12 8 12C5.79086 12 4 10.2091 4 8ZM8 6C6.89543 6 6 6.89543 6 8C6 9.10457 6.89543 10 8 10C9.10457 10 10 9.10457 10 8C10 6.89543 9.10457 6 8 6ZM22 18C22 20.2091 20.2091 22 18 22C15.7909 22 14 20.2091 14 18C14 15.7909 15.7909 14 18 14C20.2091 14 22 15.7909 22 18ZM6 28C6 26.8954 6.89543 26 8 26C9.10457 26 10 26.8954 10 28C10 29.1046 9.10457 30 8 30C6.89543 30 6 29.1046 6 28ZM28 6C26.8954 6 26 6.89543 26 8C26 9.10457 26.8954 10 28 10C29.1046 10 30 9.10457 30 8C30 6.89543 29.1046 6 28 6ZM30 24H28V28H24V30H28V34H30V30H34V28H30V24Z" fill="currentColor"/>
</svg>
