<svg width="36" height="36" viewBox="0 0 36 36" fill="none" xmlns="http://www.w3.org/2000/svg">
<g clip-path="url(#clip0_1812_185)">
<path d="M26.3412 4H9.65529C6.53018 4 4 6.5305 4 9.656V26.3475C4 29.4695 6.53018 32 9.65529 32H26.3447C29.4663 32 32 29.4695 32 26.344V9.656C31.9965 6.5305 29.4663 4 26.3412 4Z" fill="url(#paint0_linear_1812_185)"/>
<path d="M17.8792 10.4328L18.4461 9.45284C18.7961 8.84034 19.5765 8.63384 20.1889 8.98384C20.8013 9.33384 21.0078 10.1143 20.6579 10.7268L15.195 20.1838H19.146C20.4269 20.1838 21.1443 21.6888 20.5879 22.7318H9.00431C8.2974 22.7318 7.73047 22.1648 7.73047 21.4578C7.73047 20.7508 8.2974 20.1838 9.00431 20.1838H12.2519L16.4094 12.9773L15.111 10.7233C14.7611 10.1108 14.9676 9.33734 15.58 8.98034C16.1924 8.63034 16.9658 8.83684 17.3228 9.44934L17.8792 10.4328ZM12.9658 24.0443L11.741 26.1688C11.391 26.7813 10.6106 26.9878 9.99819 26.6378C9.38576 26.2878 9.17929 25.5073 9.52924 24.8948L10.4391 23.3198C11.468 23.0013 12.3044 23.2463 12.9658 24.0443ZM23.5135 20.1908H26.8276C27.5345 20.1908 28.1014 20.7578 28.1014 21.4648C28.1014 22.1718 27.5345 22.7388 26.8276 22.7388H24.9868L26.2292 24.8948C26.5791 25.5073 26.3726 26.2808 25.7602 26.6378C25.1478 26.9878 24.3744 26.7813 24.0174 26.1688C21.9247 22.5393 20.3534 19.8233 19.3105 18.0138C18.2432 16.1728 19.0061 14.3248 19.7585 13.6983C20.5949 15.1333 21.8442 17.2998 23.5135 20.1908Z" fill="#F9F9FA"/>
</g>
<defs>
<linearGradient id="paint0_linear_1812_185" x1="18" y1="4" x2="18" y2="32" gradientUnits="userSpaceOnUse">
<stop stop-color="#18BFFB"/>
<stop offset="1" stop-color="#2072F3"/>
</linearGradient>
<clipPath id="clip0_1812_185">
<rect width="18" height="18" fill="white" transform="scale(2)"/>
</clipPath>
</defs>
</svg>
