<svg width="36" height="36" viewBox="0 0 36 36" fill="none" xmlns="http://www.w3.org/2000/svg">
<path fill-rule="evenodd" clip-rule="evenodd" d="M10 2V4H9C6.23858 4 4 6.23858 4 9V27C4 29.7614 6.23858 32 9 32H16.0037V30H9C7.34315 30 6 28.6569 6 27V12H30V17.9922H32V9C32 6.23858 29.7614 4 27 4H26V2H24V4H12V2H10ZM10 6V8H12V6H24V8H26V6H27C28.6569 6 30 7.34315 30 9V10H6V9C6 7.34315 7.34315 6 9 6H10Z" fill="currentColor"/>
<path d="M30.6324 22.8784L24.3395 29.1715L21.4142 26.2462L20 27.6604L24.3395 31.9999L32.0466 24.2926L30.6324 22.8784Z" fill="currentColor"/>
</svg>
