<svg width="36" height="36" viewBox="0 0 36 36" fill="none" xmlns="http://www.w3.org/2000/svg">
<path fill-rule="evenodd" clip-rule="evenodd" d="M18 4C10.268 4 4 10.268 4 18C4 22.7973 5.43463 26.2704 7.70711 28.5429C9.98259 30.8184 13.2079 32 17 32H24V34H17C12.7921 34 9.01741 32.6816 6.29289 29.9571C3.56537 27.2296 2 23.2027 2 18C2 9.16344 9.16344 2 18 2C26.8366 2 34 9.16344 34 18V22C34 25.3137 31.3137 28 28 28C25.7188 28 23.7349 26.7269 22.7201 24.8524C21.4634 26.7446 19.3908 28 17 28C13.0701 28 10 24.608 10 20.5714V17.1111C10 13.2011 13.1168 10 17 10C18.9641 10 20.7322 10.8189 22 12.1344V10H24V22C24 24.2091 25.7909 26 28 26C30.2091 26 32 24.2091 32 22V18C32 10.268 25.732 4 18 4ZM22 17.1111C22 14.2709 19.7442 12 17 12C14.2558 12 12 14.2709 12 17.1111V20.5714C12 23.6356 14.3024 26 17 26C19.6976 26 22 23.6356 22 20.5714V17.1111Z" fill="currentColor"/>
</svg>
