<svg width="36" height="36" viewBox="0 0 36 36" fill="none" xmlns="http://www.w3.org/2000/svg">
<path d="M9 2.00037C7.14348 2.00037 5.36301 2.73786 4.05025 4.05062C2.7375 5.36337 2 7.14385 2 9.00037C2 10.8569 2.7375 12.6374 4.05025 13.9501L6.80761 16.7075L8.22183 15.2933L5.46447 12.5359C4.52678 11.5982 4 10.3264 4 9.00037C4 7.67428 4.52678 6.40251 5.46447 5.46483C6.40215 4.52715 7.67392 4.00037 9 4.00037C10.3261 4.00037 11.5979 4.52715 12.5355 5.46483L23.6547 16.584H26.4831L13.9497 4.05062C12.637 2.73786 10.8565 2.00037 9 2.00037Z" fill="currentColor"/>
<path d="M18 27.9724V25.1692L13.8757 21.1187C13.315 20.5564 13 19.7946 13 19.0004C13 18.2047 13.3161 17.4417 13.8787 16.879C14.4413 16.3164 15.2044 16.0004 16 16.0004C16.7956 16.0004 17.5587 16.3164 18.1213 16.879L21.8787 20.6364L23.2929 19.2222L19.5355 15.4648C18.5979 14.5272 17.3261 14.0004 16 14.0004C14.6739 14.0004 13.4021 14.5272 12.4645 15.4648C11.5268 16.4025 11 17.6743 11 19.0004C11 20.3264 11.5268 21.5982 12.4645 22.5359L12.4709 22.5423L18 27.9724Z" fill="currentColor"/>
<g clip-path="url(#clip0_17527_447)">
<path fill-rule="evenodd" clip-rule="evenodd" d="M32 26C33.1046 26 34 26.8954 34 28V32C34 33.1046 33.1046 34 32 34H24C22.8954 34 22 33.1046 22 32V28C22 26.8954 22.8954 26 24 26V24C24 21.7909 25.7909 20 28 20C30.2091 20 32 21.7909 32 24V26ZM30 26V24C30 22.8954 29.1046 22 28 22C26.8954 22 26 22.8954 26 24V26H30ZM32 32V28H24V32H32Z" fill="currentColor"/>
</g>
<defs>
<clipPath id="clip0_17527_447">
<rect width="6" height="7" fill="white" transform="matrix(2 0 0 2 22 20)"/>
</clipPath>
</defs>
</svg>
