<svg width="36" height="36" viewBox="0 0 36 36" fill="none" xmlns="http://www.w3.org/2000/svg">
<circle cx="18" cy="18" r="16" fill="#FFCC26"/>
<path fill-rule="evenodd" clip-rule="evenodd" d="M13 10H20C21.6569 10 23 11.3431 23 13V16.1716C23 16.8365 22.7793 17.4786 22.3784 18C22.7793 18.5214 23 19.1635 23 19.8284V23C23 24.6569 21.6569 26 20 26H13V10ZM20.5858 17L20.7071 16.8787C20.8946 16.6911 21 16.4368 21 16.1716V13C21 12.4477 20.5523 12 20 12H15V17H20.5858ZM20.5858 19H15V24H20C20.5523 24 21 23.5523 21 23V19.8284C21 19.5632 20.8946 19.3089 20.7071 19.1213L20.5858 19Z" fill="currentColor"/>
</svg>
