<svg width="36" height="36" viewBox="0 0 36 36" fill="none" xmlns="http://www.w3.org/2000/svg">
<path fill-rule="evenodd" clip-rule="evenodd" d="M18 4C10.268 4 4 10.268 4 18C4 21.5061 5.28882 24.7111 7.41853 27.1673L27.1673 7.41853C24.7111 5.28882 21.5061 4 18 4ZM28.5815 8.83274L8.83274 28.5815C11.2889 30.7112 14.4939 32 18 32C25.732 32 32 25.732 32 18C32 14.4939 30.7112 11.2889 28.5815 8.83274ZM2 18C2 9.16344 9.16344 2 18 2C26.8366 2 34 9.16344 34 18C34 26.8366 26.8366 34 18 34C9.16344 34 2 26.8366 2 18Z" fill="currentColor"/>
</svg>
