<svg width="36" height="36" viewBox="0 0 36 36" fill="none" xmlns="http://www.w3.org/2000/svg">
<path fill-rule="evenodd" clip-rule="evenodd" d="M13.9996 4H15.9996V8H19.9996V4H21.9996V11C22.4851 10.7411 22.9838 10.5054 23.494 10.294C25.5565 9.43972 27.7671 9 29.9996 9C30.8848 9 31.8993 9.06919 32.8092 9.20801C33.7659 9.35396 34.1118 10.4609 33.5582 11.1479C32.2759 12.739 31.3503 14.6148 31.0937 16.5642C30.9491 17.6629 30.9722 18.7693 31.1558 19.8474C31.2621 20.4713 30.8686 21.064 30.2651 21.2183C29.944 21.3004 29.6284 21.4054 29.3208 21.5328C28.4715 21.8846 27.6999 22.4002 27.0498 23.0503C26.3998 23.7003 25.8842 24.4719 25.5324 25.3212C25.4246 25.5815 25.3328 25.8476 25.2574 26.1178C25.1088 26.6503 24.62 27.0088 24.0753 27.0006C23.7237 26.9952 23.3713 27.027 23.0241 27.0961C22.2719 27.2457 21.5642 27.5664 20.9558 28.0332C20.3473 28.5001 19.8544 29.1007 19.5152 29.7886C19.2373 30.3522 18.6934 30.792 17.9996 30.792C17.3058 30.792 16.7619 30.3522 16.484 29.7886C16.1447 29.1007 15.6519 28.5001 15.0434 28.0332C14.4349 27.5664 13.7272 27.2457 12.975 27.0961C12.6279 27.027 12.2755 26.9952 11.9239 27.0006C11.3792 27.0088 10.8904 26.6503 10.7418 26.1178C10.6664 25.8476 10.5746 25.5815 10.4668 25.3212C10.115 24.4719 9.59935 23.7003 8.94934 23.0503C8.29933 22.4002 7.52766 21.8846 6.67838 21.5328C6.37078 21.4054 6.05518 21.3004 5.73405 21.2183C5.13063 21.064 4.73706 20.4713 4.84336 19.8474C5.02702 18.7693 5.05013 17.6629 4.90549 16.5642C4.64881 14.6146 3.72398 12.7388 2.44189 11.1478C1.88828 10.4609 2.2342 9.35399 3.19088 9.20801C4.10058 9.06919 5.1144 9 5.99959 9C8.23206 9 10.4427 9.43972 12.5052 10.294C13.0154 10.5054 13.5141 10.7411 13.9996 11V4ZM19.9996 10H15.9996V12.3933C15.9996 13.367 14.9245 13.9081 14.1418 13.4022C13.3827 12.9116 12.5789 12.4894 11.7398 12.1418C9.91996 11.388 7.96942 11 5.99959 11C5.63098 11 5.23662 11.0136 4.83964 11.0404C5.8761 12.6043 6.63724 14.3956 6.88838 16.3032C7.02823 17.3655 7.03538 18.4339 6.91449 19.4851C7.09273 19.5461 7.26924 19.6128 7.44374 19.6851C8.53567 20.1374 9.52783 20.8003 10.3636 21.636C11.1993 22.4718 11.8622 23.4639 12.3145 24.5558C12.3776 24.7082 12.4364 24.8621 12.491 25.0173C12.7838 25.0379 13.0758 25.0769 13.3652 25.1345C14.4183 25.344 15.4091 25.7929 16.2609 26.4465C16.9589 26.9821 17.5482 27.6433 17.9996 28.3945C18.451 27.6433 19.0403 26.9821 19.7383 26.4465C20.5901 25.7929 21.5809 25.344 22.634 25.1345C22.9234 25.0769 23.2154 25.0379 23.5082 25.0173C23.5627 24.8621 23.6216 24.7082 23.6847 24.5559C24.137 23.4639 24.7999 22.4718 25.6356 21.636C26.4714 20.8003 27.4635 20.1374 28.5554 19.6851C28.7299 19.6128 28.9065 19.5461 29.0847 19.4851C28.9638 18.4339 28.971 17.3655 29.1108 16.3032C29.362 14.3955 30.1237 12.6042 31.1603 11.0404C30.763 11.0136 30.3683 11 29.9996 11C28.0298 11 26.0792 11.388 24.2593 12.1418C23.4203 12.4894 22.6165 12.9116 21.8574 13.4022C21.0747 13.9081 19.9996 13.367 19.9996 12.3933V10Z" fill="currentColor"/>
</svg>
