<svg width="36" height="36" viewBox="0 0 36 36" fill="none" xmlns="http://www.w3.org/2000/svg">
<path fill-rule="evenodd" clip-rule="evenodd" d="M18 6C16.8954 6 16 6.89543 16 8C16 9.10457 16.8954 10 18 10C19.1046 10 20 9.10457 20 8C20 6.89543 19.1046 6 18 6ZM14 8C14 5.79086 15.7909 4 18 4C20.2091 4 22 5.79086 22 8C22 9.86384 20.7252 11.4299 19 11.874V14H25C28.866 14 32 17.134 32 21V25C32 28.866 28.866 32 25 32H11C7.13401 32 4 28.866 4 25V21C4 17.134 7.13401 14 11 14H17V11.874C15.2748 11.4299 14 9.86384 14 8ZM11 16C8.23858 16 6 18.2386 6 21V25C6 27.7614 8.23858 30 11 30H25C27.7614 30 30 27.7614 30 25V21C30 18.2386 27.7614 16 25 16H11ZM13 22C12.4477 22 12 22.4477 12 23C12 23.5523 12.4477 24 13 24C13.5523 24 14 23.5523 14 23C14 22.4477 13.5523 22 13 22ZM10 23C10 21.3431 11.3431 20 13 20C14.6569 20 16 21.3431 16 23C16 24.6569 14.6569 26 13 26C11.3431 26 10 24.6569 10 23ZM23 22C22.4477 22 22 22.4477 22 23C22 23.5523 22.4477 24 23 24C23.5523 24 24 23.5523 24 23C24 22.4477 23.5523 22 23 22ZM20 23C20 21.3431 21.3431 20 23 20C24.6569 20 26 21.3431 26 23C26 24.6569 24.6569 26 23 26C21.3431 26 20 24.6569 20 23Z" fill="currentColor"/>
</svg>
