<svg width="36" height="36" viewBox="0 0 36 36" fill="none" xmlns="http://www.w3.org/2000/svg">
<path d="M33.7179 22.9851C34.1173 23.5679 34.0374 24.3172 33.5581 24.7335C32.9988 25.1497 32.1999 25.0665 31.8004 24.567L29.0041 20.8204L26.2877 24.4837C25.8883 25.0665 25.0893 25.0665 24.5301 24.6502C23.9708 24.2339 23.8909 23.4846 24.2904 22.9018L27.4861 18.5725L24.2904 14.2432C23.8909 13.6605 24.0507 12.8279 24.5301 12.4116C25.0893 11.9953 25.8883 12.1619 26.2877 12.6614L29.0041 16.4079L31.8004 12.8279C32.1999 12.2451 32.9189 12.1619 33.5581 12.5781C34.1173 12.9944 34.1173 13.827 33.7179 14.4098L30.602 18.6558L33.7179 22.9851ZM19.1772 22.4856C17.0999 22.4856 15.4222 20.8204 15.4222 18.6558C15.4222 16.5744 17.0999 14.826 19.1772 14.826C21.2544 14.826 22.9322 16.5744 22.9322 18.6558C22.8523 20.8204 21.1745 22.4856 19.1772 22.4856ZM8.15183 22.4856C6.07459 22.4856 4.39682 20.8204 4.39682 18.6558C4.39682 16.5744 6.07459 14.826 8.15183 14.826C10.2291 14.826 11.9068 16.5744 11.9068 18.6558C11.9068 20.8204 10.2291 22.4856 8.15183 22.4856ZM19.1772 12.3284C16.8603 12.3284 14.783 13.6605 13.7444 15.6586C12.7058 13.6605 10.6285 12.3284 8.23172 12.3284C6.79363 12.3284 5.51533 12.8279 4.47671 13.5772V8.24884C4.47671 7.58279 3.91745 7 3.2783 7C2.55926 7 2 7.58279 2 8.24884V18.7391C2.07989 22.2358 4.79629 24.9832 8.15183 24.9832C10.5486 24.9832 12.6259 23.5679 13.6645 21.5697C14.7031 23.5679 16.7804 24.9832 19.0973 24.9832C22.5327 24.9832 25.329 22.1525 25.329 18.5725C25.4089 15.1591 22.6126 12.3284 19.1772 12.3284Z" fill="#0071F7"/>
</svg>
