<svg width="36" height="36" viewBox="0 0 36 36" fill="none" xmlns="http://www.w3.org/2000/svg">
<path fill-rule="evenodd" clip-rule="evenodd" d="M15.9998 4.20204V2H13.9998V4.83485C12.8548 5.33459 11.813 6.04472 10.9288 6.92893C10.0002 7.85752 9.26357 8.95991 8.76103 10.1732C8.55531 10.6698 8.39046 11.1811 8.26749 11.7018L3.31605 10.0513L2.68359 11.9487L8.00368 13.722C8.00111 13.8146 7.99982 13.9073 7.99982 14V19.1529L2.83542 20.0136L3.16422 21.9864L7.99982 21.1805V22C7.99982 23.3126 8.25825 24.6124 8.76037 25.8252L4.29271 30.2929L5.70693 31.7071L9.75506 27.659C10.1013 28.1635 10.494 28.6363 10.9288 29.0711C11.8573 29.9997 12.9597 30.7362 14.173 31.2388C15.3862 31.7413 16.6866 32 17.9998 32C19.313 32 20.6134 31.7413 21.8267 31.2388C23.0399 30.7362 24.1423 29.9997 25.0709 29.0711C25.5056 28.6363 25.8983 28.1635 26.2446 27.659L30.2927 31.7071L31.7069 30.2929L27.2393 25.8252C27.7414 24.6124 27.9998 23.3126 27.9998 22V21.1805L32.8354 21.9864L33.1642 20.0136L27.9998 19.1529V14C27.9998 13.9073 27.9985 13.8146 27.996 13.722L33.316 11.9487L32.6836 10.0513L27.7322 11.7018C27.6092 11.1811 27.4443 10.6698 27.2386 10.1732C26.7361 8.95991 25.9995 7.85752 25.0709 6.92893C24.1867 6.04472 23.1449 5.33459 21.9998 4.83485V2H19.9998V4.20204C19.3432 4.06801 18.6732 4 17.9998 4C17.3264 4 16.6564 4.06801 15.9998 4.20204ZM25.7458 12C25.6526 11.6391 25.5341 11.2844 25.3909 10.9385C24.9888 9.96793 24.3995 9.08601 23.6567 8.34315C22.9138 7.60028 22.0319 7.011 21.0613 6.60896C20.0907 6.20693 19.0504 6 17.9998 6C16.9492 6 15.909 6.20693 14.9384 6.60896C13.9677 7.011 13.0858 7.60028 12.343 8.34315C11.6001 9.08601 11.0108 9.96793 10.6088 10.9385C10.4655 11.2844 10.347 11.6391 10.2539 12H25.7458ZM16.9998 14L9.99982 14V22C9.99982 23.0506 10.2067 24.0909 10.6088 25.0615C11.0108 26.0321 11.6001 26.914 12.343 27.6569C13.0858 28.3997 13.9677 28.989 14.9384 29.391C15.5994 29.6649 16.2929 29.8482 16.9998 29.9373V14ZM18.9998 14V29.9373C19.7068 29.8482 20.4002 29.6649 21.0613 29.391C22.0319 28.989 22.9138 28.3997 23.6567 27.6569C24.3995 26.914 24.9888 26.0321 25.3909 25.0615C25.7929 24.0909 25.9998 23.0506 25.9998 22V14H18.9998Z" fill="currentColor"/>
</svg>
