<svg width="36" height="36" viewBox="0 0 36 36" fill="none" xmlns="http://www.w3.org/2000/svg">
<path fill-rule="evenodd" clip-rule="evenodd" d="M10 6C10 4.89543 10.8954 4 12 4H24C25.1046 4 26 4.89543 26 6V10H27C29.7614 10 32 12.2386 32 15V27C32 29.7614 29.7614 32 27 32H9C6.23858 32 4 29.7614 4 27V15C4 12.2386 6.23858 10 9 10H10V6ZM9 12C7.34315 12 6 13.3431 6 15V27C6 28.6569 7.34315 30 9 30H27C28.6569 30 30 28.6569 30 27V15C30 13.3431 28.6569 12 27 12H9ZM24 6H12V10H24V6ZM26 18H10V16H26V18Z" fill="currentColor"/>
</svg>
