<svg width="36" height="36" viewBox="0 0 36 36" fill="none" xmlns="http://www.w3.org/2000/svg">
<path d="M10 16H14V18H10V16Z" fill="currentColor"/>
<path d="M10 22H14V24H10V22Z" fill="currentColor"/>
<path d="M16 16H20V18H16V16Z" fill="currentColor"/>
<path d="M16 22H20V24H16V22Z" fill="currentColor"/>
<path d="M22 16H26V18H22V16Z" fill="currentColor"/>
<path fill-rule="evenodd" clip-rule="evenodd" d="M10 4V2H12V4H24V2H26V4H27C29.7614 4 32 6.23858 32 9V27C32 29.7614 29.7614 32 27 32H9C6.23858 32 4 29.7614 4 27V9C4 6.23858 6.23858 4 9 4H10ZM10 8V6H9C7.34315 6 6 7.34315 6 9V10H30V9C30 7.34315 28.6569 6 27 6H26V8H24V6H12V8H10ZM6 12V27C6 28.6569 7.34315 30 9 30H27C28.6569 30 30 28.6569 30 27V12H6Z" fill="currentColor"/>
</svg>
