<svg width="36" height="36" viewBox="0 0 36 36" fill="none" xmlns="http://www.w3.org/2000/svg">
<path fill-rule="evenodd" clip-rule="evenodd" d="M7 4C5.34315 4 4 5.34315 4 7V11C4 12.6569 5.34315 14 7 14H29C30.6569 14 32 12.6569 32 11V7C32 5.34315 30.6569 4 29 4H7ZM6 7C6 6.44772 6.44772 6 7 6H29C29.5523 6 30 6.44772 30 7V11C30 11.5523 29.5523 12 29 12H7C6.44772 12 6 11.5523 6 11V7ZM4 20H18V18H4V20ZM4 26H18V24H4V26ZM4 32H18V30H4V32ZM29.4594 16.6501C28.6692 15.8068 27.3308 15.8068 26.5406 16.6501L22.5406 20.9188C22.1933 21.2895 22 21.7784 22 22.2863V32.0002C22 33.1048 22.8954 34.0002 24 34.0002H32C33.1046 34.0002 34 33.1048 34 32.0002V22.2863C34 21.7784 33.8067 21.2895 33.4594 20.9188L29.4594 16.6501ZM28 18.0176L32 22.2863V32.0002L24 32.0002V22.2863L28 18.0176ZM28 24.0002C28.5523 24.0002 29 23.5525 29 23.0002C29 22.4479 28.5523 22.0002 28 22.0002C27.4477 22.0002 27 22.4479 27 23.0002C27 23.5525 27.4477 24.0002 28 24.0002Z" fill="currentColor"/>
</svg>
