<svg width="36" height="36" viewBox="0 0 36 36" fill="none" xmlns="http://www.w3.org/2000/svg">
<path d="M29 2C28.4477 2 28 2.44772 28 3V6H25C24.4477 6 24 6.44772 24 7C24 7.55228 24.4477 8 25 8H28V11C28 11.5523 28.4477 12 29 12C29.5523 12 30 11.5523 30 11V8H33C33.5523 8 34 7.55228 34 7C34 6.44772 33.5523 6 33 6H30V3C30 2.44772 29.5523 2 29 2Z" fill="currentColor"/>
<path d="M22.1701 6.00177C22.0599 6.31405 22 6.65003 22 7C22 8.65685 23.3431 10 25 10H26V11C26 12.6569 27.3431 14 29 14C29.35 14 29.6859 13.9401 29.9982 13.8299C29.9994 13.8865 30 13.9432 30 14V32H12C7.58172 32 4 28.4183 4 24C4 19.5817 7.58172 16 12 16C12.8182 16 13.6077 16.1228 14.351 16.351C14.1228 15.6077 14 14.8182 14 14C14 9.58172 17.5817 6 22 6C22.0568 6 22.1135 6.00059 22.1701 6.00177Z" fill="currentColor"/>
</svg>
