<svg width="36" height="36" viewBox="0 0 36 36" fill="none" xmlns="http://www.w3.org/2000/svg">
<path d="M5.58579 7.00695L11.2929 1.2998L12.7071 2.71401L9.4142 6.00695H18C20.7689 6.00695 23.4757 6.82804 25.778 8.36638C28.0803 9.90472 29.8747 12.0912 30.9343 14.6494C31.9939 17.2075 32.2712 20.0225 31.731 22.7382C31.1908 25.4539 29.8574 27.9485 27.8995 29.9064C25.9416 31.8644 23.447 33.1978 20.7313 33.7379C18.0155 34.2781 15.2006 34.0009 12.6424 32.9413C10.0843 31.8816 7.89777 30.0872 6.35942 27.7849C4.82108 25.4826 4 22.7759 4 20.007H6C6 22.3803 6.70379 24.7004 8.02237 26.6738C9.34094 28.6472 11.2151 30.1853 13.4078 31.0935C15.6005 32.0018 18.0133 32.2394 20.3411 31.7764C22.6689 31.3134 24.8071 30.1705 26.4853 28.4922C28.1635 26.814 29.3064 24.6758 29.7694 22.348C30.2324 20.0203 29.9948 17.6075 29.0866 15.4147C28.1783 13.222 26.6402 11.3479 24.6668 10.0293C22.6935 8.71074 20.3734 8.00695 18 8.00695H9.41421L12.7071 11.2999L11.2929 12.7141L5.58579 7.00695Z" fill="currentColor"/>
<path d="M14 20C15.1046 20 16 19.1046 16 18C16 16.8954 15.1046 16 14 16C12.8954 16 12 16.8954 12 18C12 19.1046 12.8954 20 14 20Z" fill="currentColor"/>
<path d="M24 18C24 19.1046 23.1046 20 22 20C20.8954 20 20 19.1046 20 18C20 16.8954 20.8954 16 22 16C23.1046 16 24 16.8954 24 18Z" fill="currentColor"/>
<path d="M18 26.0001C16.674 26.0001 15.4022 25.4733 14.4645 24.5356L13.0503 25.9499C14.3631 27.2626 16.1435 28.0001 18 28.0001C19.8566 28.0001 21.637 27.2626 22.9498 25.9499L21.5356 24.5356C20.5979 25.4733 19.3261 26.0001 18 26.0001Z" fill="currentColor"/>
</svg>
