<svg width="36" height="36" viewBox="0 0 36 36" fill="none" xmlns="http://www.w3.org/2000/svg">
<path d="M10 1.60742C8.17577 2.66064 6.66092 4.1755 5.6077 5.99973C4.55448 7.82396 4 9.89329 4 11.9997C4 14.1062 4.55447 16.1755 5.60769 17.9997C6.66091 19.824 8.17577 21.3388 10 22.392L11 20.66C9.47981 19.7823 8.21743 18.5199 7.33975 16.9997C6.46206 15.4795 6 13.7551 6 11.9997C6 10.2444 6.46206 8.51992 7.33975 6.99973C8.21743 5.47953 9.47981 4.21716 11 3.33947L10 1.60742Z" fill="currentColor"/>
<path d="M10.8038 8.99986C11.3305 8.08775 12.0879 7.33032 13 6.80371L14 8.53576C13.3919 8.88684 12.887 9.39179 12.5359 9.99986C12.1848 10.6079 12 11.2977 12 11.9999C12 12.702 12.1848 13.3918 12.5359 13.9999C12.887 14.6079 13.3919 15.1129 14 15.464L13 17.196C12.0879 16.6694 11.3305 15.912 10.8038 14.9999C10.2772 14.0877 10 13.0531 10 11.9999C10 10.9466 10.2772 9.91198 10.8038 8.99986Z" fill="currentColor"/>
<path d="M25.1962 8.99986C24.6695 8.08775 23.9121 7.33032 23 6.80371L22 8.53576C22.6081 8.88684 23.113 9.39179 23.4641 9.99986C23.8152 10.6079 24 11.2977 24 11.9999C24 12.702 23.8152 13.3918 23.4641 13.9999C23.113 14.6079 22.6081 15.1129 22 15.464L23 17.196C23.9121 16.6694 24.6695 15.912 25.1962 14.9999C25.7228 14.0877 26 13.0531 26 11.9999C26 10.9466 25.7228 9.91198 25.1962 8.99986Z" fill="currentColor"/>
<path d="M30.3923 5.99973C29.3391 4.1755 27.8242 2.66064 26 1.60742L25 3.33947C26.5202 4.21716 27.7826 5.47953 28.6603 6.99973C29.5379 8.51992 30 10.2444 30 11.9997C30 13.7551 29.5379 15.4795 28.6603 16.9997C27.7826 18.5199 26.5202 19.7823 25 20.66L26 22.392C27.8242 21.3388 29.3391 19.824 30.3923 17.9997C31.4455 16.1755 32 14.1062 32 11.9997C32 9.89329 31.4455 7.82396 30.3923 5.99973Z" fill="currentColor"/>
<path d="M17 11.9998V33.9998H19V11.9998H17Z" fill="currentColor"/>
</svg>
