<svg width="36" height="36" viewBox="0 0 36 36" fill="none" xmlns="http://www.w3.org/2000/svg">
<path d="M21 4C18.2386 4 16 6.23858 16 9V12H18V9C18 7.34315 19.3431 6 21 6H23C24.6569 6 26 7.34315 26 9V27C26 28.6569 24.6569 30 23 30H21C19.3431 30 18 28.6569 18 27V24H16V27C16 29.7614 18.2386 32 21 32H23C25.7614 32 28 29.7614 28 27V9C28 6.23858 25.7614 4 23 4H21Z" fill="currentColor"/>
<path d="M19.4142 18.0001L12.7071 11.293L11.2929 12.7072L15.5858 17.0001H6V19.0001H15.5858L11.2929 23.293L12.7071 24.7072L19.4142 18.0001Z" fill="currentColor"/>
</svg>
