<svg width="36" height="36" viewBox="0 0 36 36" fill="none" xmlns="http://www.w3.org/2000/svg">
<path fill-rule="evenodd" clip-rule="evenodd" d="M16 2V2.11696C16 3.40825 16.8263 4.55467 18.0513 4.96301L18.5811 5.13962C20.6228 5.82019 22 7.73088 22 9.88304V10H20V9.88304C20 8.59175 19.1737 7.44533 17.9487 7.03699L17.4189 6.86038C15.3771 6.17981 14 4.26911 14 2.11696V2H16ZM8 15C8 13.3431 9.34315 12 11 12H28C30.2091 12 32 13.7909 32 16C32 18.2091 30.2091 20 28 20V23C28 25.7614 25.7614 28 23 28H13C10.2386 28 8 25.7614 8 23V15ZM11 14C10.4477 14 10 14.4477 10 15V23C10 24.6569 11.3431 26 13 26H23C24.6569 26 26 24.6569 26 23V14H11ZM30 16C30 14.8954 29.1046 14 28 14V18C29.1046 18 30 17.1046 30 16ZM32 32H4V30H32V32Z" fill="currentColor"/>
</svg>
