<svg width="36" height="36" viewBox="0 0 36 36" fill="none" xmlns="http://www.w3.org/2000/svg">
<path fill-rule="evenodd" clip-rule="evenodd" d="M2 13C2 9.13401 5.13401 6 9 6H27C30.866 6 34 9.13401 34 13V23C34 26.866 30.866 30 27 30H26V28H27C29.7614 28 32 25.7614 32 23V13C32 10.2386 29.7614 8 27 8H9C6.23858 8 4 10.2386 4 13V23C4 25.7614 6.23858 28 9 28H19.4142L24.7071 33.2929L23.2929 34.7071L18.5858 30H9C5.13401 30 2 26.866 2 23V13ZM28 14H8V12H28V14ZM22 20H8V18H22V20Z" fill="currentColor"/>
</svg>
