<svg width="36" height="36" viewBox="0 0 36 36" fill="none" xmlns="http://www.w3.org/2000/svg">
<path fill-rule="evenodd" clip-rule="evenodd" d="M9 6C5.13401 6 2 9.13401 2 13V18H4V13C4 10.2386 6.23858 8 9 8H27C29.7614 8 32 10.2386 32 13V23C32 25.7614 29.7614 28 27 28H26V30H27C30.866 30 34 26.866 34 23V13C34 9.13401 30.866 6 27 6H9ZM19.4142 28H18V30H18.5858L23.2929 34.7071L24.7071 33.2929L19.4142 28ZM22 20L16 20V18L22 18V20ZM28 14H8V12H28V14ZM4 27C4 24.2386 6.23858 22 9 22C11.7614 22 14 24.2386 14 27C14 29.7614 11.7614 32 9 32C7.98106 32 7.0333 31.6952 6.24293 31.1718L3.4337 33.9809L2.01953 32.5666L4.82861 29.7577C4.30496 28.9672 4 28.0192 4 27ZM9 24C7.34315 24 6 25.3431 6 27C6 28.6569 7.34315 30 9 30C10.6569 30 12 28.6569 12 27C12 25.3431 10.6569 24 9 24Z" fill="currentColor"/>
</svg>
