<svg width="36" height="36" viewBox="0 0 36 36" fill="none" xmlns="http://www.w3.org/2000/svg">
<path fill-rule="evenodd" clip-rule="evenodd" d="M9 4C6.23858 4 4 6.23858 4 9V27C4 29.7614 6.23858 32 9 32H18V30H9C7.34315 30 6 28.6569 6 27V9C6 7.34315 7.34315 6 9 6H27C28.6569 6 30 7.34315 30 9V20H32V9C32 6.23858 29.7614 4 27 4H9ZM10 8C8.89543 8 8 8.89543 8 10V12C8 13.1046 8.89543 14 10 14H12C13.1046 14 14 13.1046 14 12V10C14 8.89543 13.1046 8 12 8H10ZM10 10H12V12H10V10ZM16 12L28 12V10L16 10V12ZM8 26H18V24H8V26ZM32.6129 24.8896L26.32 31.1827L23.3947 28.2574L21.9805 29.6716L26.32 34.0111L34.0271 26.3038L32.6129 24.8896Z" fill="currentColor"/>
</svg>
