<svg width="36" height="36" viewBox="0 0 36 36" fill="none" xmlns="http://www.w3.org/2000/svg">
<path fill-rule="evenodd" clip-rule="evenodd" d="M9 6C7.34315 6 6 7.34315 6 9V10H30V9C30 7.34315 28.6569 6 27 6H9ZM30 12H6V27C6 28.6569 7.34315 30 9 30H27C28.6569 30 30 28.6569 30 27V12ZM4 9C4 6.23858 6.23858 4 9 4H27C29.7614 4 32 6.23858 32 9V27C32 29.7614 29.7614 32 27 32H9C6.23858 32 4 29.7614 4 27V9ZM24 16H28V18H24V16ZM16 21C16 19.6034 15.0449 18.4275 13.7507 18.0944L14.2493 16.1575C16.4056 16.7125 18 18.6688 18 21C18 23.7614 15.7614 26 13 26C10.2386 26 8 23.7614 8 21H10C10 22.6568 11.3431 24 13 24C14.6569 24 16 22.6568 16 21ZM22 20L28 20L28 22L22 22L22 20ZM24 24H28V26H24V24Z" fill="currentColor"/>
</svg>
