<svg width="36" height="36" viewBox="0 0 36 36" fill="none" xmlns="http://www.w3.org/2000/svg">
<path fill-rule="evenodd" clip-rule="evenodd" d="M4 9C4 6.23858 6.23858 4 9 4H27C29.7614 4 32 6.23858 32 9V27C32 29.7614 29.7614 32 27 32H9C6.23858 32 4 29.7614 4 27V9ZM9 6C7.34315 6 6 7.34315 6 9V27C6 28.6569 7.34315 30 9 30H27C28.6569 30 30 28.6569 30 27V9C30 7.34315 28.6569 6 27 6H9ZM10 16V10H12V16H10ZM14 12C14 10.8954 14.8954 10 16 10H20C21.1046 10 22 10.8954 22 12V14C22 15.1046 21.1046 16 20 16H16C14.8954 16 14 15.1046 14 14V12ZM20 12H16V14H20V12ZM24 16V10H26V16H24ZM10 22C10 20.8954 10.8954 20 12 20H16C17.1046 20 18 20.8954 18 22V24C18 25.1046 17.1046 26 16 26H12C10.8954 26 10 25.1046 10 24V22ZM20 26V20H22V26H20ZM16 22H12V24H16V22ZM24 26V20H26V26H24Z" fill="currentColor"/>
</svg>
