<svg width="36" height="36" viewBox="0 0 36 36" fill="none" xmlns="http://www.w3.org/2000/svg">
<path fill-rule="evenodd" clip-rule="evenodd" d="M4 7C4 5.34315 5.34315 4 7 4H29C30.6569 4 32 5.34315 32 7V9C32 10.6569 30.6569 12 29 12H7C5.34315 12 4 10.6569 4 9V7ZM7 6C6.44772 6 6 6.44772 6 7V9C6 9.55228 6.44772 10 7 10H29C29.5523 10 30 9.55228 30 9V7C30 6.44772 29.5523 6 29 6H7ZM12 9H8V7H12V9ZM4 17C4 15.3431 5.34315 14 7 14H29C30.6569 14 32 15.3431 32 17V19C32 20.6569 30.6569 22 29 22H7C5.34315 22 4 20.6569 4 19V17ZM7 16C6.44772 16 6 16.4477 6 17V19C6 19.5523 6.44772 20 7 20H29C29.5523 20 30 19.5523 30 19V17C30 16.4477 29.5523 16 29 16H7ZM12 19H8V17H12V19ZM4 27C4 25.3431 5.34315 24 7 24H29C30.6569 24 32 25.3431 32 27V29C32 30.6569 30.6569 32 29 32H7C5.34315 32 4 30.6569 4 29V27ZM7 26C6.44772 26 6 26.4477 6 27V29C6 29.5523 6.44772 30 7 30H29C29.5523 30 30 29.5523 30 29V27C30 26.4477 29.5523 26 29 26H7ZM12 29H8V27H12V29Z" fill="currentColor"/>
</svg>
