<svg width="36" height="36" viewBox="0 0 36 36" fill="none" xmlns="http://www.w3.org/2000/svg">
<path d="M17 8V2H19V8H17Z" fill="currentColor"/>
<path d="M17 34V28H19V34H17Z" fill="currentColor"/>
<path d="M25.7779 24.3639L30.0205 28.6066L28.6063 30.0208L24.3637 25.7781L25.7779 24.3639Z" fill="currentColor"/>
<path d="M7.39309 5.97915L11.6357 10.2218L10.2215 11.636L5.97888 7.39336L7.39309 5.97915Z" fill="currentColor"/>
<path d="M34 17H28V19H34V17Z" fill="currentColor"/>
<path d="M8 17H2V19H8V17Z" fill="currentColor"/>
<path d="M24.3638 10.2218L28.6064 5.97913L30.0207 7.39334L25.778 11.636L24.3638 10.2218Z" fill="currentColor"/>
<path d="M5.97903 28.6065L10.2217 24.3639L11.6359 25.7781L7.39324 30.0208L5.97903 28.6065Z" fill="currentColor"/>
<path fill-rule="evenodd" clip-rule="evenodd" d="M18 11C14.134 11 11 14.134 11 18C11 21.866 14.134 25 18 25C21.866 25 25 21.866 25 18C25 14.134 21.866 11 18 11ZM13 18C13 15.2386 15.2386 13 18 13C20.7614 13 23 15.2386 23 18C23 20.7614 20.7614 23 18 23C15.2386 23 13 20.7614 13 18Z" fill="currentColor"/>
</svg>
