<svg width="36" height="36" viewBox="0 0 36 36" fill="none" xmlns="http://www.w3.org/2000/svg">
<path fill-rule="evenodd" clip-rule="evenodd" d="M6 8C6 4.68629 8.68629 2 12 2C15.3137 2 18 4.68629 18 8C18 10.973 15.8377 13.441 13 13.917V22C13 23.6569 14.3431 25 16 25H20.083C20.559 22.1623 23.027 20 26 20C29.3137 20 32 22.6863 32 26C32 29.3137 29.3137 32 26 32C23.027 32 20.559 29.8377 20.083 27H16C13.2386 27 11 24.7614 11 22V13.917C8.16229 13.441 6 10.973 6 8ZM12 4C9.79086 4 8 5.79086 8 8C8 10.2091 9.79086 12 12 12C14.2091 12 16 10.2091 16 8C16 5.79086 14.2091 4 12 4ZM26 22C23.7909 22 22 23.7909 22 26C22 28.2091 23.7909 30 26 30C28.2091 30 30 28.2091 30 26C30 23.7909 28.2091 22 26 22Z" fill="currentColor"/>
</svg>
