<svg width="36" height="36" viewBox="0 0 36 36" fill="none" xmlns="http://www.w3.org/2000/svg">
<path fill-rule="evenodd" clip-rule="evenodd" d="M9 6C5.13401 6 2 9.13401 2 13V16H4V13C4 10.2386 6.23858 8 9 8H27C29.7614 8 32 10.2386 32 13V23C32 25.7614 29.7614 28 27 28H26V30H27C30.866 30 34 26.866 34 23V13C34 9.13401 30.866 6 27 6H9ZM16 14C16 12.8954 16.8954 12 18 12C19.1046 12 20 12.8954 20 14C20 15.1046 19.1046 16 18 16C16.8954 16 16 15.1046 16 14ZM18 10C15.7909 10 14 11.7909 14 14C14 16.2091 15.7909 18 18 18C20.2091 18 22 16.2091 22 14C22 11.7909 20.2091 10 18 10ZM18 22H19C20.6569 22 22 23.3431 22 25V26H24V25C24 22.2386 21.7614 20 19 20H18V22ZM19.4142 28H18V30H18.5858L23.2929 34.7071L24.7071 33.2929L19.4142 28ZM14 28C14 26.8954 13.1046 26 12 26V24C12 21.7909 10.2091 20 8 20C5.79086 20 4 21.7909 4 24V26C2.89543 26 2 26.8954 2 28V32C2 33.1046 2.89543 34 4 34H12C13.1046 34 14 33.1046 14 32V28ZM10 24V26H6V24C6 22.8954 6.89543 22 8 22C9.10457 22 10 22.8954 10 24ZM12 28V32H4V28H12Z" fill="currentColor"/>
</svg>
