<svg width="36" height="36" viewBox="0 0 36 36" fill="none" xmlns="http://www.w3.org/2000/svg">
<path fill-rule="evenodd" clip-rule="evenodd" d="M6 7C6 4.23858 8.23858 2 11 2H21.3431C22.6692 2 23.941 2.52678 24.8787 3.46447L28.5355 7.12132C29.4732 8.059 30 9.33077 30 10.6569V16H28V12H23C21.3431 12 20 10.6569 20 9V4H11C9.34315 4 8 5.34315 8 7V29C8 30.6569 9.34315 32 11 32H18V34H11C8.23858 34 6 31.7614 6 29V7ZM23.7071 5.12132C23.2301 4.64427 22.6401 4.30612 22 4.1329V9C22 9.55228 22.4477 10 23 10H27.8671C27.6939 9.35992 27.3557 8.76994 26.8787 8.29289L23.7071 5.12132Z" fill="currentColor"/>
<path d="M24 18H12V16H24V18Z" fill="currentColor"/>
<path d="M12 22H18V20H12V22Z" fill="currentColor"/>
<path d="M35.707 28.7071L28.9999 35.4142L22.2928 28.7071L23.707 27.2929L27.9999 31.5858V20H29.9999V31.5858L34.2928 27.2929L35.707 28.7071Z" fill="currentColor"/>
</svg>
