<svg width="36" height="36" viewBox="0 0 36 36" fill="none" xmlns="http://www.w3.org/2000/svg">
<path fill-rule="evenodd" clip-rule="evenodd" d="M6 7C6 4.23858 8.23858 2 11 2H21.3431C22.6692 2 23.941 2.52678 24.8787 3.46447L28.5355 7.12132C29.4732 8.059 30 9.33077 30 10.6569V14H28V12H23C21.3431 12 20 10.6569 20 9V4H11C9.34315 4 8 5.34315 8 7V29C8 30.6569 9.34315 32 11 32H16V34H11C8.23858 34 6 31.7614 6 29V7ZM23.7071 5.12132C23.2301 4.64427 22.6401 4.30612 22 4.1329V9C22 9.55228 22.4477 10 23 10H27.8671C27.6939 9.35992 27.3557 8.76994 26.8787 8.29289L23.7071 5.12132Z" fill="currentColor"/>
<path d="M24 18H12V16H24V18Z" fill="currentColor"/>
<path d="M18 22H12V20H18V22Z" fill="currentColor"/>
<path fill-rule="evenodd" clip-rule="evenodd" d="M33.1213 19.7071C31.9497 18.5355 30.0503 18.5355 28.8787 19.707L20 28.5857V33.9999H25.4142L34.2929 25.1213C35.4645 23.9497 35.4645 22.0502 34.2929 20.8786L33.1213 19.7071ZM30.2929 21.1213C30.6834 20.7307 31.3166 20.7307 31.7071 21.1213L32.8787 22.2928C33.2692 22.6834 33.2692 23.3165 32.8787 23.7071L24.5858 31.9999H22V29.4142L30.2929 21.1213Z" fill="currentColor"/>
</svg>
