<svg width="36" height="36" viewBox="0 0 36 36" fill="none" xmlns="http://www.w3.org/2000/svg">
<path d="M30 12C31.1046 12 32 12.8954 32 14C32 15.1046 31.1046 16 30 16C28.8954 16 28 15.1046 28 14C28 12.8954 28.8954 12 30 12Z" fill="currentColor"/>
<path d="M30 20C31.1046 20 32 20.8954 32 22C32 23.1046 31.1046 24 30 24C28.8954 24 28 23.1046 28 22C28 20.8954 28.8954 20 30 20Z" fill="currentColor"/>
<path d="M22 12C23.1046 12 24 12.8954 24 14C24 15.1046 23.1046 16 22 16C20.8954 16 20 15.1046 20 14C20 12.8954 20.8954 12 22 12Z" fill="currentColor"/>
<path d="M22 20C23.1046 20 24 20.8954 24 22C24 23.1046 23.1046 24 22 24C20.8954 24 20 23.1046 20 22C20 20.8954 20.8954 20 22 20Z" fill="currentColor"/>
<path d="M6 12C7.10457 12 8 12.8954 8 14C8 15.1046 7.10457 16 6 16C4.89543 16 4 15.1046 4 14C4 12.8954 4.89543 12 6 12Z" fill="currentColor"/>
<path d="M6 20C7.10457 20 8 20.8954 8 22C8 23.1046 7.10457 24 6 24C4.89543 24 4 23.1046 4 22C4 20.8954 4.89543 20 6 20Z" fill="currentColor"/>
<path d="M14 12C15.1046 12 16 12.8954 16 14C16 15.1046 15.1046 16 14 16C12.8954 16 12 15.1046 12 14C12 12.8954 12.8954 12 14 12Z" fill="currentColor"/>
<path d="M14 20C15.1046 20 16 20.8954 16 22C16 23.1046 15.1046 24 14 24C12.8954 24 12 23.1046 12 22C12 20.8954 12.8954 20 14 20Z" fill="currentColor"/>
</svg>
