<svg width="36" height="36" viewBox="0 0 36 36" fill="none" xmlns="http://www.w3.org/2000/svg">
<path fill-rule="evenodd" clip-rule="evenodd" d="M17.347 4.01496C9.91818 4.35603 4 10.4869 4 18C4 19.3899 4.20255 20.7326 4.57976 22H6.72302C7.0855 22 7.44118 22.0985 7.75201 22.285L11.6969 24.6519L12.7132 23.1274L10.8025 21.2168C10.1938 20.608 10.0429 19.6781 10.4279 18.9081L11.8292 16.1056C12.168 15.428 12.8605 15 13.618 15H18.2792L19.9311 10.0445L17.347 4.01496ZM19.553 4.08517L21.7694 9.25662C21.9623 9.70685 21.9833 10.2122 21.8285 10.6769L20.1766 15.6325C19.9044 16.4491 19.1401 17 18.2792 17L13.618 17L12.2168 19.8025L14.1274 21.7132C14.8015 22.3873 14.9061 23.4436 14.3773 24.2368L13.361 25.7613C12.7688 26.6496 11.5833 26.9162 10.6679 26.3669L6.72302 24H5.34726C7.59419 28.7299 12.4152 32 18 32C19.7616 32 21.4472 31.6746 23 31.0807V26C23 24.8954 23.8954 24 25 24H30.6527C31.5166 22.1815 32 20.1472 32 18C32 10.7929 26.5542 4.85782 19.553 4.08517ZM29.4906 26H25V30.1271C26.7826 29.0959 28.3167 27.6829 29.4906 26ZM2 18C2 9.16344 9.16344 2 18 2C26.8366 2 34 9.16344 34 18C34 26.8366 26.8366 34 18 34C9.16344 34 2 26.8366 2 18Z" fill="currentColor"/>
</svg>
