<svg width="36" height="36" viewBox="0 0 36 36" fill="none" xmlns="http://www.w3.org/2000/svg">
<path fill-rule="evenodd" clip-rule="evenodd" d="M8.77651 7.46755C5.84867 10.0336 4 13.8009 4 18C4 24.7356 8.75662 30.3602 15.094 31.698L15.0513 31.6838L16.8967 26.1478L15.4648 24H10.618C9.86049 24 9.16796 23.572 8.82918 22.8944L7.29082 19.8177C7.0536 19.3433 7.01457 18.794 7.1823 18.2908L7.82339 16.3675C8.09562 15.5509 8.8599 15 9.72076 15H12.3406L14.4835 10H11.5352C10.8665 10 10.242 9.6658 9.87108 9.1094L8.77651 7.46755ZM10.3736 6.25761L11.5352 8H15.382L16.1056 6.55279L17.8944 7.44721L16.9076 9.42094L14 16.2053V19H12V17H9.72076L9.07967 18.9233L10.618 22H15.4648C16.1335 22 16.758 22.3342 17.1289 22.8906L18.5608 25.0384C18.9031 25.5519 18.9892 26.1947 18.794 26.7802L17.0643 31.9692C17.3736 31.9896 17.6856 32 18 32C21.8599 32 25.355 30.4379 27.8875 27.9114L26.1478 23.562L23.6713 21.0855C23.1985 20.6127 22.9932 19.9348 23.1244 19.2791L23.8586 15.6078C24.0456 14.6729 24.8664 14 25.8198 14H31.4202C30.9153 12.3032 30.0972 10.7412 29.0332 9.38104L28 10.4142C27.6249 10.7893 27.1162 11 26.5858 11H24C22.8954 11 22 10.1046 22 9V4.57976C20.7326 4.20255 19.3899 4 18 4C15.187 4 12.5677 4.82965 10.3736 6.25761ZM24 5.34726V9L26.5858 9L27.6902 7.89555C26.6111 6.86038 25.3665 5.9964 24 5.34726ZM31.8582 16H25.8198L25.0855 19.6713L27.562 22.1478C27.7535 22.3393 27.9041 22.5677 28.0047 22.8192L29.354 26.1924C31.0188 23.8891 32 21.0591 32 18C32 17.321 31.9517 16.6532 31.8582 16ZM2 18C2 9.16344 9.16344 2 18 2C26.8366 2 34 9.16344 34 18C34 26.8366 26.8366 34 18 34C9.16344 34 2 26.8366 2 18Z" fill="currentColor"/>
</svg>
