<svg width="36" height="36" viewBox="0 0 36 36" fill="none" xmlns="http://www.w3.org/2000/svg">
<g clip-path="url(#clip0_14537_231)">
<path fill-rule="evenodd" clip-rule="evenodd" d="M29.1147 9.47093C30.2863 8.29936 30.2863 6.39986 29.1147 5.22829L28.7716 4.88514C27.6 3.71357 25.7005 3.71357 24.5289 4.88514L21.4136 8.00042L25.9994 12.5862L29.1147 9.47093ZM24.5852 14.0004L19.9994 9.41464L3.99943 25.4146L3.99943 30.0004L8.58521 30.0004L24.5852 14.0004ZM30.5289 3.81407C32.4815 5.76669 32.4815 8.93252 30.5289 10.8851L9.41363 32.0004L1.99943 32.0004L1.99943 24.5862L23.1147 3.47093C25.0673 1.51831 28.2332 1.51831 30.1858 3.47093L30.5289 3.81407Z" fill="currentColor"/>
<path fill-rule="evenodd" clip-rule="evenodd" d="M32 24C33.1046 24 34 24.8954 34 26V30C34 31.1046 33.1046 32 32 32H24C22.8954 32 22 31.1046 22 30V26C22 24.8954 22.8954 24 24 24V22C24 19.7909 25.7909 18 28 18C30.2091 18 32 19.7909 32 22V24ZM30 24V22C30 20.8954 29.1046 20 28 20C26.8954 20 26 20.8954 26 22V24H30ZM32 30V26H24V30H32Z" fill="currentColor"/>
</g>
<defs>
<clipPath id="clip0_14537_231">
<rect width="18" height="18" fill="white" transform="scale(2)"/>
</clipPath>
</defs>
</svg>
