<svg width="36" height="36" viewBox="0 0 36 36" fill="none" xmlns="http://www.w3.org/2000/svg">
<path fill-rule="evenodd" clip-rule="evenodd" d="M10 4H6V2H30V4H26V12C26 14.1217 25.1571 16.1566 23.6569 17.6569C22.1566 19.1571 20.1217 20 18 20C15.8783 20 13.8434 19.1571 12.3431 17.6569C10.8429 16.1566 10 14.1217 10 12V4ZM24 4H12V8H24V4ZM12 10V12C12 13.5913 12.6321 15.1174 13.7574 16.2426C14.8826 17.3679 16.4087 18 18 18C19.5913 18 21.1174 17.3679 22.2426 16.2426C23.3679 15.1174 24 13.5913 24 12V10H12ZM6 16V6H8V16H6ZM6 33C6 26.9249 10.9249 22 17 22H19C25.0751 22 30 26.9249 30 33V34H28V33C28 28.0294 23.9706 24 19 24H17C12.0294 24 8 28.0294 8 33V34H6V33Z" fill="currentColor"/>
</svg>
