<svg width="36" height="36" viewBox="0 0 36 36" fill="none" xmlns="http://www.w3.org/2000/svg">
<path fill-rule="evenodd" clip-rule="evenodd" d="M2 11C2 8.23858 4.23858 6 7 6H29C31.7614 6 34 8.23858 34 11V25C34 27.7614 31.7614 30 29 30H7C4.23858 30 2 27.7614 2 25V11ZM4.50235 9.33757C4.18499 9.81343 4 10.3851 4 11V25C4 26.6569 5.34315 28 7 28H29C30.6569 28 32 26.6569 32 25V11C32 10.3848 31.8148 9.81285 31.4972 9.33685L20.1207 20.7133C18.9491 21.8849 17.0497 21.8849 15.8781 20.7133L4.50235 9.33757ZM6.12332 8.13012L17.2923 19.2991C17.6828 19.6896 18.316 19.6896 18.7065 19.2991L29.8758 8.12984C29.5987 8.04541 29.3047 8 29 8H7C6.695 8 6.40064 8.04551 6.12332 8.13012Z" fill="currentColor"/>
</svg>
