<svg width="36" height="36" viewBox="0 0 36 36" fill="none" xmlns="http://www.w3.org/2000/svg">
<path fill-rule="evenodd" clip-rule="evenodd" d="M18 4C10.268 4 4 10.268 4 18C4 25.732 10.268 32 18 32C25.732 32 32 25.732 32 18C32 10.268 25.732 4 18 4ZM2 18C2 9.16344 9.16344 2 18 2C26.8366 2 34 9.16344 34 18C34 26.8366 26.8366 34 18 34C9.16344 34 2 26.8366 2 18Z" fill="currentColor"/>
<path fill-rule="evenodd" clip-rule="evenodd" d="M12.8038 21C13.3305 21.9121 14.0879 22.6695 15 23.1962C15.9121 23.7228 16.9468 24 18 24C19.0532 24 20.0879 23.7228 21 23.1962C21.9121 22.6695 22.6695 21.9121 23.1962 21L24.9282 22C24.2261 23.2162 23.2162 24.2261 22 24.9282C20.7838 25.6304 19.4043 26 18 26C16.5957 26 15.2162 25.6304 14 24.9282C12.7838 24.2261 11.7739 23.2162 11.0718 22L12.8038 21Z" fill="currentColor"/>
<path d="M14 14C14 15.1046 13.1046 16 12 16C10.8954 16 10 15.1046 10 14C10 12.8954 10.8954 12 12 12C13.1046 12 14 12.8954 14 14Z" fill="currentColor"/>
<path d="M26 14C26 15.1046 25.1046 16 24 16C22.8954 16 22 15.1046 22 14C22 12.8954 22.8954 12 24 12C25.1046 12 26 12.8954 26 14Z" fill="currentColor"/>
</svg>
