<svg width="36" height="36" viewBox="0 0 36 36" fill="none" xmlns="http://www.w3.org/2000/svg">
<path fill-rule="evenodd" clip-rule="evenodd" d="M28.3479 18.6662C29.9978 18.6571 31.3327 17.1683 31.3327 15.333C31.3327 13.4921 29.9895 11.9998 28.3327 11.9998C26.6759 11.9998 25.3328 13.4921 25.3328 15.333C25.3328 17.1683 26.6677 18.6571 28.3175 18.6662C28.3226 18.6662 28.3277 18.6662 28.3327 18.6662C28.3378 18.6662 28.3429 18.6662 28.3479 18.6662ZM31.8986 21.2766C31.2514 20.889 30.4941 20.6662 29.6848 20.6662H28.9578C29.2274 20.9095 29.4712 21.1808 29.6848 21.4754C29.9696 21.8684 30.2006 22.303 30.3669 22.7683C30.5615 23.3129 30.6675 23.8996 30.6675 24.5111V29.8415C30.6675 30.1335 30.6095 30.4119 30.5044 30.6659H32.2739C32.3823 30.6659 32.4883 30.6559 32.5911 30.6368C33.3929 30.4879 34 29.7847 34 28.9398V24.9814C34 23.4075 33.1574 22.0304 31.8986 21.2766ZM4.1019 21.2763C2.84286 22.03 2 23.4073 2 24.9814V28.9398C2 29.7849 2.60732 30.4881 3.40932 30.6369C3.51201 30.6559 3.61789 30.6659 3.72609 30.6659H5.49605C5.39094 30.4119 5.33293 30.1334 5.33293 29.8414V24.5111C5.33293 23.8995 5.43893 23.3128 5.63355 22.7682C5.79975 22.3031 6.03058 21.8687 6.31523 21.4759C6.52886 21.1811 6.77281 20.9096 7.04249 20.6662H6.31523C5.50613 20.6662 4.74904 20.8889 4.1019 21.2763ZM7.68181 18.6662C9.33163 18.6571 10.6665 17.1683 10.6665 15.333C10.6665 13.4921 9.32341 11.9998 7.6666 11.9998C6.00978 11.9998 4.66667 13.4921 4.66667 15.333C4.66667 17.1683 6.00157 18.6571 7.65138 18.6662C7.65645 18.6662 7.66152 18.6662 7.6666 18.6662C7.67167 18.6662 7.67674 18.6662 7.68181 18.6662ZM17.9999 15.9996C19.6258 15.9996 21.3331 14.4368 21.3331 11.9998C21.3331 9.56283 19.6258 8 17.9999 8C16.3739 8 14.6667 9.56283 14.6667 11.9998C14.6667 14.4368 16.3739 15.9996 17.9999 15.9996ZM28.3327 16.6662C28.692 16.6662 29.3327 16.2727 29.3327 15.333C29.3327 14.3933 28.692 13.9998 28.3327 13.9998C27.9735 13.9998 27.3328 14.3933 27.3328 15.333C27.3328 16.2727 27.9735 16.6662 28.3327 16.6662ZM7.6666 16.6662C8.02586 16.6662 8.66653 16.2727 8.66653 15.333C8.66653 14.3933 8.02586 13.9998 7.6666 13.9998C7.30734 13.9998 6.66667 14.3933 6.66667 15.333C6.66667 16.2727 7.30733 16.6662 7.6666 16.6662ZM13.1781 21.9997C11.4228 21.9997 9.99982 23.4227 9.99982 25.178V29.8417C9.99982 29.9288 10.0704 29.9993 10.1574 29.9993H25.8417C25.9288 29.9993 25.9994 29.9288 25.9994 29.8417V25.178C25.9994 23.4227 24.5764 21.9997 22.8211 21.9997H13.1781ZM23.3331 11.9998C23.3331 15.3134 20.9453 17.9996 17.9999 17.9996C15.0544 17.9996 12.6667 15.3134 12.6667 11.9998C12.6667 8.68621 15.0544 6 17.9999 6C20.9453 6 23.3331 8.68621 23.3331 11.9998ZM7.99982 25.178C7.99982 22.3181 10.3182 19.9997 13.1781 19.9997H22.8211C25.681 19.9997 27.9994 22.3181 27.9994 25.178V29.8417C27.9994 31.0333 27.0334 31.9993 25.8417 31.9993H10.1574C8.96582 31.9993 7.99982 31.0333 7.99982 29.8417V25.178Z" fill="currentColor"/>
</svg>
