<svg width="36" height="36" viewBox="0 0 36 36" fill="none" xmlns="http://www.w3.org/2000/svg">
<circle cx="18" cy="18" r="16" fill="white"/>
<path fill-rule="evenodd" clip-rule="evenodd" d="M18 34C26.8366 34 34 26.8366 34 18C34 9.16344 26.8366 2 18 2C9.16344 2 2 9.16344 2 18C2 26.8366 9.16344 34 18 34ZM21.6571 12.9714C21.6571 15.2437 20.0198 17.0857 18 17.0857C15.9802 17.0857 14.3429 15.2437 14.3429 12.9714C14.3429 10.6992 15.9802 8.85714 18 8.85714C20.0198 8.85714 21.6571 10.6992 21.6571 12.9714ZM27.1429 15.2571C27.1429 16.5195 26.2218 17.5429 25.0857 17.5429C23.9496 17.5429 23.0286 16.5195 23.0286 15.2571C23.0286 13.9948 23.9496 12.9714 25.0857 12.9714C26.2218 12.9714 27.1429 13.9948 27.1429 15.2571ZM10.9143 17.5429C12.0504 17.5429 12.9714 16.5195 12.9714 15.2571C12.9714 13.9948 12.0504 12.9714 10.9143 12.9714C9.77816 12.9714 8.85714 13.9948 8.85714 15.2571C8.85714 16.5195 9.77816 17.5429 10.9143 17.5429ZM11.1429 23.9429C11.1429 20.9132 13.5989 18.4571 16.6286 18.4571H19.3714C22.4011 18.4571 24.8571 20.9132 24.8571 23.9429V24.4C24.8571 25.6624 23.8338 26.6857 22.5714 26.6857H13.4286C12.1662 26.6857 11.1429 25.6624 11.1429 24.4V23.9429ZM9.31429 23.4857C9.31429 21.5776 10.2885 19.8971 11.7666 18.9143H11.6C9.07527 18.9143 7.02857 20.961 7.02857 23.4857V23.9429C7.02857 24.9528 7.84725 25.7714 8.85714 25.7714H9.77126C9.48432 25.3894 9.31429 24.9146 9.31429 24.4V23.4857ZM24.2341 18.9143C25.7123 19.897 26.6864 21.5776 26.6864 23.4857V24.4C26.6864 24.9145 26.5164 25.3894 26.2295 25.7714H27.1436C28.1535 25.7714 28.9722 24.9527 28.9722 23.9428V23.4857C28.9722 20.961 26.9255 18.9143 24.4007 18.9143H24.2341Z" fill="#0866FF"/>
</svg>
