<svg width="36" height="36" viewBox="0 0 36 36" fill="none" xmlns="http://www.w3.org/2000/svg">
<path fill-rule="evenodd" clip-rule="evenodd" d="M11.3943 2.53521C12.9798 1.47822 15.1361 2.14797 15.8438 3.91719L18 9.30755L20.1564 3.9171C20.8642 2.14791 23.0206 1.47826 24.606 2.53531L27.3175 4.34311C28.3151 5.00825 29.0405 6.00975 29.3614 7.16503L33.936 23.6335C34.1016 24.2296 33.7431 24.845 33.1429 24.995L29.3203 25.9507C28.8201 26.0757 28.3002 25.8366 28.0696 25.3755L25.6994 20.6351L27.9611 32.6973C28.088 33.3742 27.5687 34 26.8799 34H22.9447C22.1685 34 21.4029 33.8193 20.7086 33.4721L18.0004 32.118L15.2922 33.4721C14.598 33.8193 13.8324 34 13.0562 34H9.12093C8.43217 34 7.91284 33.3742 8.03977 32.6973L10.302 20.6318L7.93022 25.3755C7.69965 25.8366 7.17974 26.0757 6.67956 25.9507L2.85695 24.995C2.25673 24.845 1.89828 24.2296 2.06387 23.6335L6.63841 7.16512C6.95934 6.00977 7.68479 5.00822 8.6825 4.34309L11.3943 2.53521ZM19.0004 30.3819L21.6031 31.6833C22.0196 31.8916 22.479 32 22.9447 32H25.7955L23.0398 17.3027C22.9128 16.6258 23.4322 16 24.1209 16H24.9381C25.3548 16 25.7357 16.2354 25.922 16.6081L29.5356 23.8353L31.7617 23.2788L27.4344 7.70032C27.2418 7.00715 26.8066 6.40625 26.208 6.00716L23.4966 4.19937C22.9681 3.84702 22.2493 4.07023 22.0134 4.65996L18.9999 12.1926L19.0004 30.3819ZM16.9999 12.1926L13.9869 4.65998C13.751 4.07023 13.0322 3.84698 12.5037 4.19931L9.7919 6.00719C9.19327 6.40627 8.75801 7.00719 8.56545 7.7004L4.23813 23.2788L6.46424 23.8353L10.0779 16.6081C10.2642 16.2354 10.6451 16 11.0617 16H11.8799C12.5687 16 13.088 16.6257 12.9611 17.3027L10.2054 32H13.0562C13.5219 32 13.9812 31.8916 14.3978 31.6833L17.0004 30.382L16.9999 12.1926Z" fill="currentColor"/>
</svg>
