<svg width="36" height="36" viewBox="0 0 36 36" fill="none" xmlns="http://www.w3.org/2000/svg">
<path fill-rule="evenodd" clip-rule="evenodd" d="M7 8C7 4.68629 9.68629 2 13 2H23C26.3137 2 29 4.68629 29 8C29 10.087 27.9345 11.9251 26.3178 13C27.9345 14.0749 29 15.913 29 18C29 21.3137 26.3137 24 23 24C21.4633 24 20.0615 23.4223 19 22.4722V28C19 31.3137 16.3137 34 13 34C9.68629 34 7 31.3137 7 28C7 25.913 8.06551 24.0749 9.68221 23C8.06551 21.9251 7 20.087 7 18C7 15.913 8.06551 14.0749 9.6822 13C8.06551 11.9251 7 10.087 7 8ZM17 14H13C10.7909 14 9 15.7909 9 18C9 20.2091 10.7909 22 13 22H17V14ZM19 18C19 20.2091 20.7909 22 23 22C25.2091 22 27 20.2091 27 18C27 15.7909 25.2091 14 23 14C20.7909 14 19 15.7909 19 18ZM23 12C25.2091 12 27 10.2091 27 8C27 5.79086 25.2091 4 23 4H19V12H23ZM13 4H17V12H13C10.7909 12 9 10.2091 9 8C9 5.79086 10.7909 4 13 4ZM17 24H13C10.7909 24 9 25.7909 9 28C9 30.2091 10.7909 32 13 32C15.2091 32 17 30.2091 17 28V24Z" fill="currentColor"/>
</svg>
