<svg width="36" height="36" viewBox="0 0 36 36" fill="none" xmlns="http://www.w3.org/2000/svg">
<path fill-rule="evenodd" clip-rule="evenodd" d="M8 10.1C5.71776 10.5633 4 12.581 4 15C4 17.419 5.71776 19.4367 8 19.9V32H10V19.9C12.2822 19.4367 14 17.419 14 15C14 12.581 12.2822 10.5633 10 10.1V4H8V10.1ZM6 15C6 13.3431 7.34315 12 9 12C10.6569 12 12 13.3431 12 15C12 16.6569 10.6569 18 9 18C7.34315 18 6 16.6569 6 15ZM28 6.10002C30.2822 6.56329 32 8.58104 32 11C32 13.419 30.2822 15.4367 28 15.9V20H26V15.9C23.7178 15.4367 22 13.419 22 11C22 8.58104 23.7178 6.56329 26 6.10002V4H28V6.10002ZM27 8C25.3431 8 24 9.34315 24 11C24 12.6569 25.3431 14 27 14C28.6569 14 30 12.6569 30 11C30 9.34315 28.6569 8 27 8ZM19 20.101C19.1518 20.132 19.3025 20.1701 19.4514 20.2153C20.2383 20.454 20.9541 20.883 21.5355 21.4645L20.1213 22.8787C19.7725 22.5298 19.343 22.2724 18.8709 22.1292C18.3987 21.986 17.8986 21.9614 17.4147 22.0576C16.9309 22.1539 16.4782 22.368 16.0968 22.681C15.7155 22.9939 15.4172 23.3962 15.2284 23.8519C15.0396 24.3077 14.9661 24.8031 15.0144 25.2941C15.0628 25.785 15.2315 26.2565 15.5056 26.6667C15.7797 27.0769 16.1507 27.4132 16.5858 27.6458C17.0209 27.8783 17.5066 28 18 28H19L19 32H17L17 29.899C16.5281 29.8027 16.0709 29.6383 15.643 29.4096C14.9179 29.022 14.2995 28.4615 13.8427 27.7779C13.3858 27.0942 13.1047 26.3084 13.0241 25.4901C12.9435 24.6718 13.0659 23.8462 13.3806 23.0866C13.6953 22.3269 14.1924 21.6566 14.828 21.1349C15.4572 20.6186 16.2028 20.2638 17 20.101V4H19V20.101ZM28 24V28H24V30H28V34H30V30H34V28H30V24H28Z" fill="currentColor"/>
</svg>
