<svg width="36" height="36" viewBox="0 0 36 36" fill="none" xmlns="http://www.w3.org/2000/svg">
<path fill-rule="evenodd" clip-rule="evenodd" d="M18 2H29C31.7614 2 34 4.23858 34 7V16H32V7C32 5.34315 30.6569 4 29 4H18V2ZM10 13C10 10.2386 12.2386 8 15 8H23C25.7614 8 28 10.2386 28 13V21C28 23.7614 25.7614 26 23 26H15C12.2386 26 10 23.7614 10 21V13ZM15 10C13.3431 10 12 11.3431 12 13V21C12 22.6569 13.3431 24 15 24H23C24.6569 24 26 22.6569 26 21V13C26 11.3431 24.6569 10 23 10H15ZM4 27V18H6V27C6 28.6569 7.34315 30 9 30H20V32H9C6.23858 32 4 29.7614 4 27Z" fill="currentColor"/>
</svg>
