<svg width="36" height="36" viewBox="0 0 36 36" fill="none" xmlns="http://www.w3.org/2000/svg">
<path fill-rule="evenodd" clip-rule="evenodd" d="M2 11C2 6.02944 6.02944 2 11 2H22V4H11C7.13401 4 4 7.13401 4 11V20H2V11ZM8 15C8 11.134 11.134 8 15 8H27C30.866 8 34 11.134 34 15V23C34 26.866 30.866 30 27 30H26V28H27C29.7614 28 32 25.7614 32 23V15C32 12.2386 29.7614 10 27 10H15C12.2386 10 10 12.2386 10 15V23C10 25.7614 12.2386 28 15 28H19.4142L24.7071 33.2929L23.2929 34.7071L18.5858 30H15C11.134 30 8 26.866 8 23V15Z" fill="currentColor"/>
</svg>
