<svg width="36" height="36" viewBox="0 0 36 36" fill="none" xmlns="http://www.w3.org/2000/svg">
<path fill-rule="evenodd" clip-rule="evenodd" d="M11 4C9.89543 4 9 4.89543 9 6C9 7.10457 9.89543 8 11 8C12.1046 8 13 7.10457 13 6C13 4.89543 12.1046 4 11 4ZM7 6C7 3.79086 8.79086 2 11 2C13.2091 2 15 3.79086 15 6C15 8.20914 13.2091 10 11 10C8.79086 10 7 8.20914 7 6ZM25 4C23.8954 4 23 4.89543 23 6C23 7.10457 23.8954 8 25 8C26.1046 8 27 7.10457 27 6C27 4.89543 26.1046 4 25 4ZM21 6C21 3.79086 22.7909 2 25 2C27.2091 2 29 3.79086 29 6C29 8.20914 27.2091 10 25 10C22.7909 10 21 8.20914 21 6ZM6 14C6 12.8954 6.89543 12 8 12H14C15.1046 12 16 12.8954 16 14V22C16 23.1046 15.1046 24 14 24V32C14 33.1046 13.1046 34 12 34H10C8.89543 34 8 33.1046 8 32V24C6.89543 24 6 23.1046 6 22V14ZM25 14C24.2361 14 23.5578 14.4888 23.3162 15.2136L20.3874 24H24V32H26V24H29.6126L26.6838 15.2136C26.4422 14.4888 25.7639 14 25 14ZM21.4189 14.5811C21.9327 13.0397 23.3752 12 25 12C26.6248 12 28.0673 13.0397 28.5811 14.5811L31.5099 23.3675C31.9416 24.6626 30.9777 26 29.6126 26H28V32C28 33.1046 27.1046 34 26 34H24C22.8954 34 22 33.1046 22 32V26H20.3874C19.0223 26 18.0584 24.6626 18.4901 23.3675L21.4189 14.5811ZM14 14H8V22H10V32H12V22H14V14Z" fill="currentColor"/>
</svg>
