<svg width="36" height="36" viewBox="0 0 36 36" fill="none" xmlns="http://www.w3.org/2000/svg">
<path fill-rule="evenodd" clip-rule="evenodd" d="M6.64016 6C6.16348 6 5.75306 6.33646 5.65958 6.80389L4.01997 15.0019C4.00505 15.0765 4.00292 15.1223 4.00422 15.1485C4.03435 15.7569 4.24895 16.3438 4.62049 16.828C5.02252 17.3519 5.58619 17.7286 6.22409 17.8995C6.86199 18.0704 7.53847 18.0261 8.1486 17.7733C8.71791 17.5375 9.19978 17.1326 9.52997 16.6148L10.4138 6H6.64016ZM12.4207 6L11.5295 16.7029C11.857 17.1786 12.3159 17.5511 12.8525 17.7733C13.4626 18.0261 14.1391 18.0704 14.777 17.8995C15.4149 17.7286 15.9786 17.3519 16.3806 16.828C16.7824 16.3044 17.0005 15.6608 17.0005 15V6H12.4207ZM19.0005 6V15C19.0005 15.6608 19.2187 16.3044 19.6205 16.828C20.0225 17.3519 20.5862 17.7286 21.2241 17.8995C21.862 18.0704 22.5385 18.0261 23.1486 17.7733C23.683 17.552 24.1404 17.1816 24.4676 16.7087L23.58 6H19.0005ZM25.5869 6L26.466 16.6066C26.7963 17.1283 27.2802 17.5363 27.8525 17.7733C28.4626 18.0261 29.1391 18.0704 29.777 17.8995C30.4149 17.7286 30.9786 17.3519 31.3806 16.828C31.7522 16.3438 31.9667 15.7569 31.9969 15.1485C31.9982 15.1223 31.996 15.0765 31.9811 15.0019L30.3415 6.80388C30.248 6.33646 29.8376 6 29.3609 6H25.5869ZM25.5006 18.5724C25.0466 19.0174 24.5089 19.3747 23.914 19.6211C22.8971 20.0423 21.7696 20.1162 20.7065 19.8313C19.6433 19.5465 18.7038 18.9187 18.0338 18.0455C18.0226 18.031 18.0115 18.0164 18.0006 18.0017C17.9896 18.0164 17.9785 18.031 17.9673 18.0455C17.2973 18.9187 16.3578 19.5465 15.2946 19.8313C14.2315 20.1162 13.104 20.0423 12.0871 19.6211C11.4922 19.3747 10.9545 19.0174 10.5006 18.5724C10.0466 19.0174 9.50893 19.3747 8.91397 19.6211C7.99037 20.0037 6.97556 20.0997 6.00055 19.9007V29.0017C6.00055 29.554 6.44826 30.0017 7.00055 30.0017H29.0005C29.5528 30.0017 30.0005 29.554 30.0005 29.0017V19.9007C29.0255 20.0997 28.0107 20.0037 27.0871 19.6211C26.4922 19.3747 25.9545 19.0174 25.5006 18.5724ZM32.0005 19.0017C32.3625 18.7302 32.6883 18.4092 32.9673 18.0455C33.5873 17.2375 33.9443 16.2601 33.9944 15.2474C34.0062 15.0106 33.979 14.7934 33.9423 14.6097L32.3027 6.41165C32.0222 5.00938 30.791 4 29.3609 4H6.64016C5.21011 4 3.97887 5.00938 3.69841 6.41165L2.05881 14.6097C2.02206 14.7934 1.99494 15.0106 2.00667 15.2474C2.05682 16.2601 2.41378 17.2375 3.03378 18.0455C3.31282 18.4092 3.63859 18.7302 4.00055 19.0017V29.0017C4.00055 30.6586 5.3437 32.0017 7.00055 32.0017H29.0005C30.6574 32.0017 32.0005 30.6586 32.0005 29.0017V19.0017Z" fill="currentColor"/>
</svg>
