<svg width="36" height="36" viewBox="0 0 36 36" fill="none" xmlns="http://www.w3.org/2000/svg">
<g clip-path="url(#clip0_1812_225)">
<path d="M18.0073 33.9844C26.8393 33.9844 33.9991 26.8247 33.9991 17.9927C33.9991 9.16071 26.8393 2.00098 18.0073 2.00098C9.17536 2.00098 2.01562 9.16071 2.01562 17.9927C2.01562 26.8247 9.17536 33.9844 18.0073 33.9844Z" fill="#1A73E8"/>
<path d="M23.8278 24.9006H12.9304C11.3806 24.9006 10.0288 23.7301 10.0288 22.1804V22.1639V23.0706C10.0288 24.6204 11.3806 25.9723 12.9303 25.9723H23.8278C25.394 25.9723 26.7294 24.6039 26.7294 23.0706V22.1639C26.7294 23.7136 25.3775 24.9006 23.8278 24.9006ZM10.0123 17.0861V15.8496L7.98448 12.5029C7.86907 12.3216 7.81959 12.1567 7.83611 11.9918V13.4096C7.83611 13.5415 7.88552 13.6735 7.96797 13.8218L10.0123 17.0861Z" fill="#185ABC"/>
<path d="M23.8288 11.4475H8.56242C7.95242 11.4475 7.60626 11.9751 8.01841 12.5356L10.0132 15.9977V22.1801C10.0132 23.7628 11.1673 25.0817 12.7335 25.0817H23.8123C25.3785 25.0817 26.7139 23.7463 26.7139 22.1801V14.3656C26.7304 12.7829 25.395 11.4475 23.8288 11.4475Z" fill="#F9F9FA"/>
<path d="M23.6455 15.816H13.1106C12.649 15.816 12.2039 15.5358 12.2039 15.0906C12.2039 14.6455 12.6491 14.3652 13.1106 14.3652H23.6454C24.107 14.3652 24.5522 14.6455 24.5522 15.0906C24.5522 15.5358 24.107 15.816 23.6454 15.816H23.6455ZM23.6455 18.7176H13.1106C12.649 18.7176 12.2039 18.4373 12.2039 17.9922C12.2039 17.547 12.6491 17.2668 13.1106 17.2668H23.6454C24.107 17.2668 24.5522 17.5471 24.5522 17.9922C24.5522 18.4373 24.107 18.7176 23.6454 18.7176H23.6455ZM20.7274 21.6357H13.0942C12.6326 21.6357 12.1875 21.3554 12.1875 20.9103C12.1875 20.4652 12.6326 20.1849 13.0942 20.1849H20.7274C21.189 20.1849 21.6341 20.4651 21.6341 20.9103C21.6341 21.3555 21.189 21.6357 20.7274 21.6357Z" fill="#8AB4F8"/>
<path d="M33.9991 17.9104C33.9662 24.9171 29.3994 30.8686 23.1017 32.9789C21.5025 33.5229 19.7879 33.8032 18.0074 33.8032C9.20366 33.8032 2.0651 26.6976 2.01562 17.9104V18.0093C2.01562 26.846 9.1707 34.001 18.0074 34.001C19.7879 34.001 21.5025 33.7043 23.1017 33.1767C29.4324 31.05 33.9991 25.0655 33.9991 18.0093V17.9104Z" fill="#185ABC"/>
<path d="M23.086 2.82515C21.4868 2.28121 19.7722 2.00098 17.9917 2.00098C9.15507 2.00091 2 9.15592 2 17.9926V18.0915C2.04942 9.30429 9.18797 2.1987 17.9917 2.1987C19.7722 2.1987 21.4868 2.49545 23.086 3.02307C29.4002 5.1333 33.9505 11.0848 33.9834 18.0915V17.9926C34 10.9365 29.4332 4.95197 23.086 2.82515Z" fill="#8AB4F8"/>
</g>
<defs>
<clipPath id="clip0_1812_225">
<rect width="18" height="18" fill="white" transform="scale(2)"/>
</clipPath>
</defs>
</svg>
