<svg width="36" height="36" viewBox="0 0 36 36" fill="none" xmlns="http://www.w3.org/2000/svg">
<g clip-path="url(#clip0_857_181)">
<path d="M4.41926 27.9975L5.83048 30.3846C6.12371 30.8872 6.54523 31.2821 7.04009 31.5692L12.0802 23.0257H2C2 23.5821 2.14662 24.1385 2.43986 24.6411L4.41926 27.9975Z" fill="#0066DA"/>
<path d="M18 12.9743L12.9599 4.43079C12.4651 4.71796 12.0435 5.11282 11.7503 5.6154L2.43986 21.4102C2.14662 21.9127 2 22.4691 2 23.0256H12.0802L18 12.9743Z" fill="#00AC47"/>
<path d="M17.9981 12.9743L23.0382 4.43077C22.5433 4.14359 21.9752 4 21.3887 4H14.6075C14.021 4 13.4529 4.16154 12.958 4.43077L17.9981 12.9743Z" fill="#00832D"/>
<path d="M23.9198 23.0257H12.0801L7.04004 31.5692C7.53489 31.8564 8.10305 32 8.68954 32H27.3104C27.8969 32 28.465 31.8385 28.9599 31.5692L23.9198 23.0257Z" fill="#2684FC"/>
<path d="M28.9593 31.5692C29.4541 31.2821 29.8756 30.8872 30.1689 30.3846L30.7554 29.3975L33.5595 24.6411C33.8527 24.1385 33.9993 23.5821 33.9993 23.0257H23.9375L28.9593 31.5692Z" fill="#EA4335"/>
<path d="M28.9049 13.5128L24.2497 5.6154C23.9565 5.11282 23.5349 4.71796 23.0401 4.43079L18 12.9743L23.9198 23.0256H33.9817C33.9817 22.4691 33.8351 21.9127 33.5418 21.4102L28.9049 13.5128Z" fill="#FFBA00"/>
</g>
<defs>
<clipPath id="clip0_857_181">
<rect width="18" height="18" fill="white" transform="scale(2)"/>
</clipPath>
</defs>
</svg>
