<svg width="36" height="36" viewBox="0 0 36 36" fill="none" xmlns="http://www.w3.org/2000/svg">
<path fill-rule="evenodd" clip-rule="evenodd" d="M4 9C4 6.23858 6.23858 4 9 4H27C29.7614 4 32 6.23858 32 9V27C32 29.7614 29.7614 32 27 32H9C6.23858 32 4 29.7614 4 27V9ZM9 6C7.34315 6 6 7.34315 6 9V27C6 28.6569 7.34315 30 9 30H27C28.6569 30 30 28.6569 30 27V9C30 7.34315 28.6569 6 27 6H9ZM10 10H16V12H14V17H22V12H20V10H26V12H24V24H26V26H20V24H22V19H14V24H16V26H10V24H12V12H10V10Z" fill="currentColor"/>
</svg>
