<svg width="36" height="36" viewBox="0 0 36 36" fill="none" xmlns="http://www.w3.org/2000/svg">
<path fill-rule="evenodd" clip-rule="evenodd" d="M6 7C6 4.23858 8.23858 2 11 2H21.3431C22.6692 2 23.941 2.52678 24.8787 3.46447L28.5355 7.12132C29.4732 8.059 30 9.33077 30 10.6569V14H28V12H23C21.3431 12 20 10.6569 20 9V4H11C9.34315 4 8 5.34315 8 7V14H6V7ZM23.7071 5.12132L26.8787 8.29289C27.3557 8.76994 27.6939 9.35992 27.8671 10H23C22.4477 10 22 9.55228 22 9V4.1329C22.6401 4.30612 23.2301 4.64427 23.7071 5.12132Z" fill="#2F3744"/>
<path d="M6 34V32H30V34H6Z" fill="#2F3744"/>
<path d="M2 18V28H4V24H6V28H8V18H6V22H4V18H2Z" fill="#2F3744"/>
<path d="M10 18V20H12V28H14V20H16V18H10Z" fill="#2F3744"/>
<path d="M18 18V28H20V24.1926L21 26.6926L22 24.1926V28H24V18H22V18.8074L21 21.3074L20 18.8074V18H18Z" fill="#2F3744"/>
<path d="M26 18V28H32V26H28V18H26Z" fill="#2F3744"/>
</svg>
