<svg width="36" height="36" viewBox="0 0 36 36" fill="none" xmlns="http://www.w3.org/2000/svg">
<path d="M11.6009 19.3948C10.8988 19.5756 10.1819 19.1553 10.0002 18.4565C9.81849 17.7577 10.2408 17.0443 10.943 16.8635L18.0138 15.0432C18.716 14.8624 19.4329 15.2826 19.6146 15.9814C19.649 16.1109 19.6613 16.2429 19.6564 16.3699L19.5778 17.9288L24.2843 16.58C24.9816 16.3821 25.7059 16.7828 25.9072 17.4767C26.1061 18.1707 25.7034 18.8914 25.0062 19.0918L18.6178 20.9243C18.4607 20.9805 18.2888 21.0074 18.1121 21C17.3878 20.9658 16.828 20.3526 16.8599 19.6318L16.9409 18.0241L11.6009 19.3948Z" fill="currentColor"/>
<path fill-rule="evenodd" clip-rule="evenodd" d="M14.7071 0.292893C14.3165 -0.0976311 13.6834 -0.0976311 13.2929 0.292893C12.9023 0.683417 12.9023 1.31658 13.2929 1.70711L15.5857 3.99999L9 4C6.23857 4 4 6.23858 4 9V27C4 29.7614 6.23858 32 9 32L27 32C29.7614 32 32 29.7614 32 27V8.99999C32 6.23856 29.7614 3.99999 27 3.99999L20.4142 3.99999L22.7071 1.70711C23.0976 1.31658 23.0976 0.683418 22.7071 0.292893C22.3165 -0.0976309 21.6834 -0.0976311 21.2929 0.292893L18 3.58579L14.7071 0.292893ZM9 6L27 5.99999C28.6569 5.99999 30 7.34313 30 8.99999V27C30 28.6568 28.6569 30 27 30L9 30C7.34315 30 6 28.6569 6 27V9C6 7.34315 7.34315 6 9 6Z" fill="currentColor"/>
</svg>
