<svg width="36" height="36" viewBox="0 0 36 36" fill="none" xmlns="http://www.w3.org/2000/svg">
<path fill-rule="evenodd" clip-rule="evenodd" d="M4 9C4 6.23858 6.23858 4 9 4H27C29.7614 4 32 6.23858 32 9V27C32 29.7614 29.7614 32 27 32H9C6.23858 32 4 29.7614 4 27V9ZM9 6C7.34315 6 6 7.34315 6 9V21.5858L11.5476 16.0382C12.3578 15.2279 13.6819 15.2628 14.4484 16.1145L21.9551 24.4553L24.3931 21.4078C25.2219 20.3719 26.8112 20.4152 27.5823 21.4948L30 24.8795V9C30 7.34315 28.6569 6 27 6H9ZM29.8096 28.054L25.9548 22.6572L23.5169 25.7047C22.7458 26.6685 21.2943 26.7107 20.4685 25.7932L12.9618 17.4524L6 24.4142V27C6 28.6569 7.34315 30 9 30H27C28.286 30 29.383 29.1909 29.8096 28.054Z" fill="currentColor"/>
<path d="M26 13C26 14.6569 24.6569 16 23 16C21.3431 16 20 14.6569 20 13C20 11.3431 21.3431 10 23 10C24.6569 10 26 11.3431 26 13Z" fill="currentColor"/>
</svg>
