<svg width="36" height="36" viewBox="0 0 36 36" fill="none" xmlns="http://www.w3.org/2000/svg">
<path fill-rule="evenodd" clip-rule="evenodd" d="M18 4C10.268 4 4 10.268 4 18C4 25.732 10.268 32 18 32C25.732 32 32 25.732 32 18C32 10.268 25.732 4 18 4ZM2 18C2 9.16344 9.16344 2 18 2C26.8366 2 34 9.16344 34 18C34 26.8366 26.8366 34 18 34C9.16344 34 2 26.8366 2 18ZM16 10C16 8.89543 16.8954 8 18 8C19.1046 8 20 8.89543 20 10C20 11.1046 19.1046 12 18 12C16.8954 12 16 11.1046 16 10ZM17 18H15V16H19V25H22V27H14V25H17V18Z" fill="currentColor"/>
</svg>
