<svg width="36" height="36" viewBox="0 0 36 36" fill="none" xmlns="http://www.w3.org/2000/svg">
<path fill-rule="evenodd" clip-rule="evenodd" d="M17.042 2.37787C17.6486 2.0544 18.3787 2.06506 18.9755 2.40609L30.9766 9.26387C32.3202 10.0317 32.3202 11.9691 30.9766 12.7368L18.9755 19.5946C18.3787 19.9356 17.6486 19.9463 17.042 19.6228L4.18371 12.7651C2.77194 12.0121 2.77194 9.98859 4.18371 9.23565L17.042 2.37787ZM17.9832 4.14258L5.12489 11.0004L17.9832 17.8581L29.9843 11.0004L17.9832 4.14258ZM3.47047 17.118L17.9832 24.8581L31.5037 17.1321L32.496 18.8686L18.9755 26.5946C18.3787 26.9356 17.6486 26.9463 17.042 26.6228L2.5293 18.8827L3.47047 17.118ZM3.47047 24.118L17.9832 31.8581L31.5037 24.1321L32.496 25.8686L18.9755 33.5946C18.3787 33.9357 17.6485 33.9463 17.042 33.6228L2.5293 25.8827L3.47047 24.118Z" fill="currentColor"/>
</svg>
