<svg width="36" height="36" viewBox="0 0 36 36" fill="none" xmlns="http://www.w3.org/2000/svg">
<path d="M12 18H24V16H12V18Z" fill="currentColor"/>
<path d="M24 22H12V20H24V22Z" fill="currentColor"/>
<path d="M12 26H18V24H12V26Z" fill="currentColor"/>
<path fill-rule="evenodd" clip-rule="evenodd" d="M12.1214 3.46447L11.5859 4H11C8.23858 4 6 6.23858 6 9V29C6 31.7614 8.23858 34 11 34H25C27.7614 34 30 31.7614 30 29V9C30 6.23858 27.7614 4 25 4H24.4143L23.8788 3.46447C22.9411 2.52678 21.6693 2 20.3432 2H15.6569C14.3308 2 13.0591 2.52678 12.1214 3.46447ZM15.6569 4C14.8613 4 14.0982 4.31607 13.5356 4.87868L13.492 4.92234C13.5665 5.03896 13.6297 5.16452 13.6797 5.29775L14.693 8H21.307L22.3203 5.29775C22.3703 5.16448 22.4335 5.03889 22.5081 4.92224L22.4645 4.87868C21.9019 4.31607 21.1389 4 20.3432 4H15.6569ZM11 6C9.34315 6 8 7.34315 8 9V29C8 30.6569 9.34315 32 11 32H25C26.6569 32 28 30.6569 28 29V9C28 7.34315 26.6569 6 25 6H24.193L23.1797 8.70225C22.8869 9.48285 22.1407 10 21.307 10H14.693C13.8593 10 13.1131 9.48285 12.8203 8.70225L11.807 6H11Z" fill="currentColor"/>
</svg>
