<svg width="36" height="36" viewBox="0 0 36 36" fill="none" xmlns="http://www.w3.org/2000/svg">
<path fill-rule="evenodd" clip-rule="evenodd" d="M32 13.4663C32 13.0798 31.9413 12.7016 31.83 12.3419C31.7499 12.0826 31.6424 11.8331 31.51 11.5969C31.4816 11.5462 31.452 11.4962 31.4213 11.4468C31.2467 11.1659 31.0357 10.9064 30.7923 10.6752C30.553 10.4478 30.2824 10.2478 29.9846 10.082L19.9846 4.51357C18.7548 3.82881 17.2452 3.82881 16.0154 4.51357L6.01544 10.082C4.76914 10.776 4 12.0675 4 13.4663V24.5337C4 25.9325 4.76914 27.224 6.01544 27.918L16.0154 33.4864C17.2452 34.1712 18.7548 34.1712 19.9846 33.4864L29.9846 27.918C31.2309 27.224 32 25.9325 32 24.5337V13.4663ZM9.02189 12.8261C8.54311 12.5578 7.93181 12.7186 7.65652 13.1851C7.38123 13.6517 7.5462 14.2474 8.02498 14.5157L15.5031 18.7056C17.0471 19.5707 18.9467 19.5702 20.4902 18.7042L29.9976 13.37C29.9992 13.402 30 13.4341 30 13.4663V24.5337C30 25.2331 29.6154 25.8789 28.9923 26.2259L19 31.79V23.408C19 22.8698 18.5523 22.4335 18 22.4335C17.4477 22.4335 17 22.8698 17 23.408V31.79L7.00772 26.2259C6.38457 25.8789 6 25.2331 6 24.5337V13.4663C6 12.7669 6.38457 12.1211 7.00772 11.7741L17.0077 6.20572C17.6226 5.86334 18.3774 5.86334 18.9923 6.20572L28.9127 11.7298L19.4923 17.0152C18.5662 17.5348 17.4264 17.5351 16.5 17.0161L9.02189 12.8261Z" fill="currentColor"/>
</svg>
