<svg width="36" height="36" viewBox="0 0 36 36" fill="none" xmlns="http://www.w3.org/2000/svg">
<path fill-rule="evenodd" clip-rule="evenodd" d="M12 4H10C8.89543 4 8 4.89543 8 6L8 26.9986L8 27L8 28H28V6C28 4.89543 27.1046 4 26 4H24V16.4757V18.0868L22.5563 17.3719L18 15.1159L13.4437 17.3719L12 18.0868V16.4757V4ZM12 2H10C7.79086 2 6 3.79086 6 6V27V28V29C6 31.7614 8.23858 34 11 34L29 34C29.5523 34 30 33.5523 30 33C30 32.4477 29.5523 32 29 32L11 32C9.69378 32 8.58254 31.1652 8.17071 30H28C29.1046 30 30 29.1046 30 28V6C30 3.79086 28.2091 2 26 2H24H23H13H12ZM14 4V14.8647L17.5563 13.1038L18 12.8841L18.4437 13.1038L22 14.8647V4H14Z" fill="currentColor"/>
</svg>
