<svg width="36" height="36" viewBox="0 0 36 36" fill="none" xmlns="http://www.w3.org/2000/svg">
<path d="M19.4143 1.99985C18.6332 1.2188 17.3669 1.2188 16.5859 1.99985L7.46454 11.1212C6.52686 12.0588 6.00007 13.3306 6.00007 14.6567V25.7576L8.00007 23.7576V14.6567C8.00007 13.8611 8.31614 13.098 8.87875 12.5354L18.0001 3.41406L23.1718 8.58583L24.5861 7.17162L19.4143 1.99985Z" fill="currentColor"/>
<path fill-rule="evenodd" clip-rule="evenodd" d="M2.29297 32.2927L3.70718 33.707L6.41556 30.9986C7.18683 32.7652 8.94926 33.9998 11.0001 33.9998H25.0001C27.7615 33.9998 30.0001 31.7613 30.0001 28.9998V14.6567C30.0001 13.3306 29.4733 12.0589 28.5356 11.1212L27.4143 9.99985L33.7072 3.70696L32.293 2.29274L2.29297 32.2927ZM11.0001 31.9998C9.47511 31.9998 8.2159 30.862 8.02509 29.389L26.0001 11.4141L27.1214 12.5354C27.684 13.098 28.0001 13.8611 28.0001 14.6567V28.9998C28.0001 30.6567 26.6569 31.9998 25.0001 31.9998H11.0001Z" fill="currentColor"/>
<path d="M19.987 11.7707C19.8733 10.774 19.0271 9.99988 18 9.99988C16.8954 9.99988 16 10.8953 16 11.9999C16 13.0269 16.7742 13.8732 17.7708 13.9869L19.987 11.7707Z" fill="currentColor"/>
</svg>
