<svg width="36" height="36" viewBox="0 0 36 36" fill="none" xmlns="http://www.w3.org/2000/svg">
<path fill-rule="evenodd" clip-rule="evenodd" d="M16.5858 2.00009C17.3668 1.21904 18.6332 1.21905 19.4142 2.00009L28.5355 11.1214C29.4732 12.0591 30 13.3309 30 14.6569V16.0001H28V14.6569C28 13.8613 27.6839 13.0982 27.1213 12.5356L18 3.41431L8.87868 12.5356C8.31607 13.0982 8 13.8613 8 14.6569V29.0001C8 30.6569 9.34315 32.0001 11 32.0001H16V34.0001H11C8.23858 34.0001 6 31.7615 6 29.0001V14.6569C6 13.3309 6.52679 12.0591 7.46447 11.1214L16.5858 2.00009ZM16 28H12V26H16V28ZM18 10C19.1046 10 20 10.8954 20 12C20 13.1046 19.1046 14 18 14C16.8954 14 16 13.1046 16 12C16 10.8954 16.8954 10 18 10ZM27 34C30.866 34 34 30.866 34 27C34 23.134 30.866 20 27 20C23.134 20 20 23.134 20 27C20 30.866 23.134 34 27 34ZM27 32C28.0191 32 28.9669 31.6951 29.7574 31.1716L22.8284 24.2426C22.3049 25.0331 22 25.9809 22 27C22 29.7614 24.2386 32 27 32ZM24.2426 22.8284L31.1716 29.7574C31.6951 28.967 32 28.0191 32 27C32 24.2386 29.7614 22 27 22C25.9809 22 25.033 22.3049 24.2426 22.8284Z" fill="currentColor"/>
</svg>
