<svg width="36" height="36" viewBox="0 0 36 36" fill="none" xmlns="http://www.w3.org/2000/svg">
<path fill-rule="evenodd" clip-rule="evenodd" d="M34 12H20V10H34V12ZM34 16H20V14H34V16ZM34 20H20V18H34V20ZM8 22H2V24H11.8458C11.8278 24.0755 11.8077 24.1546 11.7852 24.2369C11.5638 25.0488 11.1145 26.1807 10.2 27.4C9.8257 27.8991 9.31249 28.4045 8.72194 28.8951C8.44164 28.326 8.26693 27.748 8.15956 27.2462C8.07872 26.8684 8.03862 26.5459 8.01885 26.3215C8.00899 26.2096 8.00427 26.1232 8.00202 26.0675C8.0009 26.0398 8.00039 26.0198 8.00017 26.0083L8 25.9994C8 25.9994 8 26 7 26C6 26 6 26.0006 6 26.0006L6 26.0028L6.00002 26.0065L6.00009 26.0166L6.00054 26.0472C6.00103 26.0721 6.00194 26.1061 6.00366 26.1485C6.00708 26.233 6.01372 26.3512 6.02657 26.4971C6.05222 26.7881 6.10297 27.1933 6.20383 27.6646C6.35305 28.362 6.61776 29.2316 7.09298 30.0961C6.32737 30.6052 5.57081 31.0461 4.95207 31.3853C4.54012 31.6111 4.19302 31.7898 3.9502 31.9115C3.82887 31.9723 3.73379 32.0187 3.66991 32.0495L3.59819 32.0839L3.58108 32.092L3.57743 32.0937C3.57743 32.0937 3.57711 32.0938 4 33C4.42289 33.9062 4.42308 33.9061 4.42308 33.9061L4.42597 33.9047L4.43245 33.9017L4.45532 33.8909L4.53913 33.8508C4.61128 33.8159 4.71526 33.7652 4.84603 33.6996C5.10742 33.5687 5.47671 33.3785 5.91348 33.1391C6.58684 32.7699 7.42964 32.2788 8.28851 31.7027L8.29289 31.7071C9.46676 32.881 10.9072 33.4451 12.0075 33.7201C12.5633 33.8591 13.0498 33.9287 13.4005 33.9638C13.5763 33.9814 13.7195 33.9904 13.8218 33.9951C13.873 33.9974 13.9141 33.9986 13.9441 33.9993L13.9807 33.9999L13.9926 34L13.9968 34L13.9993 34C13.9993 34 14 34 14 33C14 32 14.0006 32 14.0006 32L13.9876 31.9997C13.9726 31.9994 13.9473 31.9987 13.9126 31.9971C13.843 31.994 13.7362 31.9874 13.5995 31.9737C13.3252 31.9463 12.9367 31.8909 12.4925 31.7799C11.6697 31.5742 10.7133 31.192 9.9239 30.4964C10.6275 29.9189 11.2903 29.2796 11.8 28.6C12.8855 27.1526 13.4362 25.7846 13.7148 24.7631C13.7919 24.4802 13.8482 24.224 13.8892 24H16V22H10V20H8V22ZM28 24H20V22H28V24Z" fill="currentColor"/>
<path fill-rule="evenodd" clip-rule="evenodd" d="M6.5 12L5 18H3L6.62127 3.51493C6.84385 2.62459 7.64382 2 8.56155 2H9.43845C10.3562 2 11.1561 2.62459 11.3787 3.51493L15 18H13L11.5 12H6.5ZM7 10H11L9.5 4H8.5L7 10Z" fill="currentColor"/>
</svg>
