<svg width="36" height="36" viewBox="0 0 36 36" fill="none" xmlns="http://www.w3.org/2000/svg">
<path fill-rule="evenodd" clip-rule="evenodd" d="M4 7C4 5.34315 5.34315 4 7 4H29C30.6569 4 32 5.34315 32 7V11C32 12.6569 30.6569 14 29 14H7C5.34315 14 4 12.6569 4 11V7ZM7 6C6.44772 6 6 6.44772 6 7V11C6 11.5523 6.44772 12 7 12H29C29.5523 12 30 11.5523 30 11V7C30 6.44772 29.5523 6 29 6H7ZM7 18C6.44772 18 6 18.4477 6 19V29C6 29.5523 6.44772 30 7 30H11C11.5523 30 12 29.5523 12 29V19C12 18.4477 11.5523 18 11 18H7ZM4 19C4 17.3431 5.34315 16 7 16H11C12.6569 16 14 17.3431 14 19V29C14 30.6569 12.6569 32 11 32H7C5.34315 32 4 30.6569 4 29V19ZM19 18C18.4477 18 18 18.4477 18 19V29C18 29.5523 18.4477 30 19 30H29C29.5523 30 30 29.5523 30 29V19C30 18.4477 29.5523 18 29 18H19ZM16 19C16 17.3431 17.3431 16 19 16H29C30.6569 16 32 17.3431 32 19V29C32 30.6569 30.6569 32 29 32H19C17.3431 32 16 30.6569 16 29V19Z" fill="currentColor"/>
</svg>
