<svg width="36" height="36" viewBox="0 0 36 36" fill="none" xmlns="http://www.w3.org/2000/svg">
<path fill-rule="evenodd" clip-rule="evenodd" d="M28.2426 7.75736C25.8994 5.41421 22.1004 5.41421 19.7573 7.75736L19.7484 7.76624L15.6982 11.7159L14.3018 10.284L18.3477 6.33857C21.4722 3.21895 26.5341 3.22048 29.6568 6.34315C32.7795 9.46582 32.781 14.5277 29.6613 17.6523L25.7159 21.6981L24.2841 20.3018L28.2425 16.2426C30.5857 13.8994 30.5857 10.1005 28.2426 7.75736ZM12.2928 22.2929L22.2928 12.2929L23.707 13.7071L13.707 23.7071L12.2928 22.2929ZM11.7159 15.6982L7.75742 19.7574C5.41427 22.1006 5.41421 25.8995 7.75736 28.2426C10.1005 30.5858 13.8995 30.5858 16.2426 28.2426L16.2515 28.2338L20.3017 24.2841L21.6981 25.7159L17.6523 29.6614C14.5277 32.781 9.46581 32.7795 6.34315 29.6569C3.22049 26.5342 3.21895 21.4723 6.33854 18.3478L10.284 14.3018L11.7159 15.6982Z" fill="currentColor"/>
</svg>
