<svg width="36" height="36" viewBox="0 0 36 36" fill="none" xmlns="http://www.w3.org/2000/svg">
<path fill-rule="evenodd" clip-rule="evenodd" d="M7.60059 7C7.60059 4.23858 9.83916 2 12.6006 2H22.6006C24.2364 2 25.6887 2.78555 26.601 4H22.6006H17.6006H12.6006C10.9437 4 9.60059 5.34315 9.60059 7V8H17.6006V10H9.60059V29C9.60059 30.6569 10.9437 32 12.6006 32H22.6006C24.2574 32 25.6006 30.6569 25.6006 29V26H27.6006V29C27.6006 31.7614 25.362 34 22.6006 34H12.6006C9.83916 34 7.60059 31.7614 7.60059 29V7ZM33.6003 8H23.6003V10H30.1861L21.6084 18.5777L23.0226 19.992L31.6003 11.4142V18H33.6003V8ZM19.6006 30H15.6006V28H19.6006V30Z" fill="currentColor"/>
</svg>
