<svg width="36" height="36" viewBox="0 0 36 36" fill="none" xmlns="http://www.w3.org/2000/svg">
<path d="M4 9C4 7.34315 5.34315 6 7 6H12.7639C13.7556 6 14.6621 6.56027 15.1056 7.44721C15.8878 9.01173 17.4869 10 19.2361 10H29C30.6569 10 32 11.3431 32 13V16H34V13C34 10.2386 31.7614 8 29 8H19.2361C18.2444 8 17.3379 7.43973 16.8944 6.55279C16.1122 4.98827 14.5131 4 12.7639 4H7C4.23858 4 2 6.23858 2 9V25C2 27.7614 4.23858 30 7 30H16V28H7C5.34315 28 4 26.6569 4 25V9Z" fill="currentColor"/>
<path d="M6 10H12V8H6V10Z" fill="currentColor"/>
<path fill-rule="evenodd" clip-rule="evenodd" d="M27 20C26.0807 20 25.1705 20.1811 24.3212 20.5328C23.4719 20.8846 22.7003 21.4002 22.0503 22.0503C21.4002 22.7003 20.8846 23.4719 20.5328 24.3212C20.1811 25.1705 20 26.0807 20 27V32C20 33.1046 20.8954 34 22 34H24C25.1046 34 26 33.1046 26 32V30C26 28.8954 25.1046 28 24 28H22V27C22 26.3434 22.1293 25.6932 22.3806 25.0866C22.6319 24.48 23.0002 23.9288 23.4645 23.4645C23.9288 23.0002 24.48 22.6319 25.0866 22.3806C25.6932 22.1293 26.3434 22 27 22C27.6566 22 28.3068 22.1293 28.9134 22.3806C29.52 22.6319 30.0712 23.0002 30.5355 23.4645C30.9998 23.9288 31.3681 24.48 31.6194 25.0866C31.8707 25.6932 32 26.3434 32 27V28H30C28.8954 28 28 28.8954 28 30V32C28 33.1046 28.8954 34 30 34H32C33.1046 34 34 33.1046 34 32V27C34 26.0807 33.8189 25.1705 33.4672 24.3212C33.1154 23.4719 32.5998 22.7003 31.9497 22.0503C31.2997 21.4002 30.5281 20.8846 29.6788 20.5328C28.8295 20.1811 27.9193 20 27 20ZM22 32V30H24V32H22ZM32 32V30H30V32H32Z" fill="currentColor"/>
</svg>
