<svg width="36" height="36" viewBox="0 0 36 36" fill="none" xmlns="http://www.w3.org/2000/svg">
<path fill-rule="evenodd" clip-rule="evenodd" d="M15 6C13.3431 6 12 7.34315 12 9V12H10V9C10 6.23858 12.2386 4 15 4H25C27.7614 4 30 6.23858 30 9V27C30 29.7614 27.7614 32 25 32H15C12.2386 32 10 29.7614 10 27V24H12V27C12 28.6569 13.3431 30 15 30H25C26.6569 30 28 28.6569 28 27V9C28 7.34315 26.6569 6 25 6H15ZM17.7071 12.2929L23.4142 18L17.7071 23.7071L16.2929 22.2929L19.5858 19H4V17H19.5858L16.2929 13.7071L17.7071 12.2929Z" fill="currentColor"/>
</svg>
