<svg width="36" height="36" viewBox="0 0 36 36" fill="none" xmlns="http://www.w3.org/2000/svg">
<path fill-rule="evenodd" clip-rule="evenodd" d="M2 11C2 8.23858 4.23858 6 7 6H29C31.7614 6 34 8.23858 34 11V25C34 27.7614 31.7614 30 29 30H7C4.23858 30 2 27.7614 2 25V11ZM7 8C5.34315 8 4 9.34315 4 11V25C4 26.6569 5.34315 28 7 28H8.00007V8H7ZM10.0001 8V28H14V8H10.0001ZM16 8V28H29C30.6569 28 32 26.6569 32 25V11C32 9.34315 30.6569 8 29 8H16ZM28 14H20V12H28V14ZM28 19H20V17H28V19ZM28 24H20V22H28V24Z" fill="currentColor"/>
</svg>
