<svg width="36" height="36" viewBox="0 0 36 36" fill="none" xmlns="http://www.w3.org/2000/svg">
<g clip-path="url(#clip0_22592_445)">
<path d="M11.3184 7.3812L2.08241 25.7572C1.99111 25.9395 1.97592 26.1506 2.04017 26.3441C2.10443 26.5376 2.24286 26.6977 2.42508 26.7892L7.40241 29.2905C7.49267 29.336 7.591 29.3632 7.69178 29.3707C7.79257 29.3781 7.89383 29.3656 7.98979 29.3339C8.08575 29.3022 8.17453 29.252 8.25104 29.1859C8.32756 29.1199 8.39032 29.0395 8.43574 28.9492L17.6704 10.5732C17.7158 10.4829 17.743 10.3845 17.7503 10.2836C17.7577 10.1828 17.7451 10.0815 17.7133 9.9855C17.6814 9.88953 17.631 9.80078 17.5649 9.72431C17.4987 9.64785 17.4181 9.58517 17.3277 9.53987L12.3504 7.03987C12.2602 6.9943 12.1619 6.96702 12.0611 6.95959C11.9603 6.95217 11.8591 6.96473 11.7631 6.99658C11.6672 7.02843 11.5786 7.07892 11.5022 7.14516C11.4259 7.21139 11.3634 7.29207 11.3184 7.38253V7.3812Z" fill="url(#paint0_linear_22592_445)"/>
<path d="M27.66 7.10938H33.232C33.656 7.10938 34.0013 7.45604 34.0013 7.87871V28.4454C34.0013 28.6495 33.9203 28.8454 33.776 28.9898C33.6318 29.1343 33.4361 29.2157 33.232 29.216H27.66C27.4558 29.2157 27.2601 29.1343 27.1159 28.9898C26.9716 28.8454 26.8906 28.6495 26.8906 28.4454V7.88004C26.8906 7.45604 27.236 7.10938 27.66 7.10938Z" fill="url(#paint1_linear_22592_445)"/>
<path d="M19.968 6.62047L16.0147 26.6511C15.9751 26.8509 16.0164 27.0583 16.1297 27.2276C16.243 27.3968 16.4189 27.5142 16.6187 27.5538L22.0787 28.6551C22.4973 28.7391 22.9053 28.4685 22.9867 28.0498L26.9387 8.02047C26.9779 7.82071 26.9364 7.61355 26.8231 7.44436C26.7099 7.27516 26.5343 7.15774 26.3347 7.11781L20.8733 6.01514C20.774 5.99514 20.6718 5.99495 20.5724 6.01458C20.473 6.0342 20.3785 6.07326 20.2943 6.1295C20.21 6.18574 20.1377 6.25806 20.0815 6.34232C20.0253 6.42657 19.9876 6.5211 19.968 6.62047Z" fill="url(#paint2_linear_22592_445)"/>
</g>
<defs>
<linearGradient id="paint0_linear_22592_445" x1="3.99974" y1="27.9999" x2="17.9997" y2="1.99987" gradientUnits="userSpaceOnUse">
<stop stop-color="#FF00FF"/>
<stop offset="0.17" stop-color="#E90CF9"/>
<stop offset="0.54" stop-color="#C023ED"/>
<stop offset="0.73" stop-color="#B02DE9"/>
<stop offset="1" stop-color="#B02DE9"/>
</linearGradient>
<linearGradient id="paint1_linear_22592_445" x1="1.99996" y1="34" x2="34" y2="2.00004" gradientUnits="userSpaceOnUse">
<stop stop-color="#B02DE9"/>
<stop offset="0.02" stop-color="#B02DE9"/>
<stop offset="0.8" stop-color="#6D00CC"/>
<stop offset="1" stop-color="#6D00CC"/>
</linearGradient>
<linearGradient id="paint2_linear_22592_445" x1="2.88133" y1="33.1738" x2="34.8813" y2="1.17381" gradientUnits="userSpaceOnUse">
<stop stop-color="#FF00FF"/>
<stop offset="0.02" stop-color="#FF00FF"/>
<stop offset="0.09" stop-color="#E90CF9"/>
<stop offset="0.23" stop-color="#C023ED"/>
<stop offset="0.3" stop-color="#B02DE9"/>
<stop offset="0.42" stop-color="#A42BE3"/>
<stop offset="0.63" stop-color="#8626D5"/>
<stop offset="0.85" stop-color="#6021C3"/>
<stop offset="1" stop-color="#6021C3"/>
</linearGradient>
<clipPath id="clip0_22592_445">
<rect width="16" height="16" fill="white" transform="matrix(2 0 0 2 2 2)"/>
</clipPath>
</defs>
</svg>
