<svg width="36" height="36" viewBox="0 0 36 36" fill="none" xmlns="http://www.w3.org/2000/svg">
<path d="M12 8C12 4.68629 14.6863 2 18 2C21.2341 2 23.8706 4.55885 23.9954 7.76243L22 9.75781V8C22 5.79086 20.2091 4 18 4C15.7909 4 14 5.79086 14 8V17.7578L12.0422 19.7156C12.0143 19.4809 12 19.2421 12 19V8Z" fill="currentColor"/>
<path fill-rule="evenodd" clip-rule="evenodd" d="M24 13.4142L33.7072 3.70706L32.293 2.29285L2.29297 32.2928L3.70718 33.7071L11.1391 26.2752C12.7022 27.7498 14.7405 28.7263 17 28.9506V32H12V34H24V32H19V28.9506C24.0533 28.4489 28 24.1853 28 19V16H26V19C26 23.4183 22.4183 27 18 27C15.8962 27 13.9821 26.188 12.554 24.8602L13.9695 23.4447C15.0346 24.4111 16.4485 25 18 25C21.3137 25 24 22.3137 24 19V13.4142ZM22 15.4142L15.3862 22.028C16.0873 22.6337 17.0009 23 18 23C20.2091 23 22 21.2091 22 19V15.4142Z" fill="currentColor"/>
<path d="M10 19C10 19.8338 10.1276 20.6378 10.3642 21.3936L8.80962 22.9482C8.28859 21.737 8 20.4022 8 19V16H10V19Z" fill="currentColor"/>
</svg>
