<svg width="36" height="36" viewBox="0 0 36 36" fill="none" xmlns="http://www.w3.org/2000/svg">
<path d="M4.99902 1.98633C2.2376 1.98633 -0.000976562 4.22491 -0.000976562 6.98633V17.9999H1.99902V6.98633C1.99902 5.32947 3.34217 3.98633 4.99902 3.98633H17.9998V1.98633H4.99902Z" fill="currentColor"/>
<path d="M9 6C6.23858 6 4 8.23858 4 11V27C4 29.7614 6.23858 32 9 32H18V30H9C7.34315 30 6 28.6569 6 27V11C6 9.34315 7.34315 8 9 8H27C28.6569 8 30 9.34315 30 11V22H32V11C32 8.23858 29.7614 6 27 6H9Z" fill="currentColor"/>
<path fill-rule="evenodd" clip-rule="evenodd" d="M10 10C8.89543 10 8 10.8954 8 12V14C8 15.1046 8.89543 16 10 16H12C13.1046 16 14 15.1046 14 14V12C14 10.8954 13.1046 10 12 10H10ZM12 12H10V14H12V12Z" fill="currentColor"/>
<path d="M16 14L28 14V12L16 12V14Z" fill="currentColor"/>
<path d="M8 26H18V24H8V26Z" fill="currentColor"/>
<path d="M26.3201 31.1826L32.6129 24.8896L34.0272 26.3038L26.3201 34.0111L21.9805 29.6716L23.3948 28.2573L26.3201 31.1826Z" fill="currentColor"/>
</svg>
