<svg width="36" height="36" viewBox="0 0 36 36" fill="none" xmlns="http://www.w3.org/2000/svg">
<path fill-rule="evenodd" clip-rule="evenodd" d="M17.2546 2.23484C18.5109 2.0175 19.2174 3.36076 18.7058 4.29691C17.6185 6.28667 17 8.56964 17 11C17 18.732 23.268 25 31 25C31.2917 25 31.5811 24.9911 31.8681 24.9736C32.9318 24.9086 33.8493 26.118 33.1175 27.1637C30.2264 31.295 25.4292 34 20 34C11.1634 34 4 26.8366 4 18C4 10.099 9.726 3.53729 17.2546 2.23484ZM16.3892 4.46985C10.4073 6.06185 6 11.5171 6 18C6 25.732 12.268 32 20 32C24.3052 32 28.1569 30.0575 30.7262 26.9977C22.016 26.8516 15 19.7452 15 11C15 8.6755 15.4963 6.46479 16.3892 4.46985Z" fill="currentColor"/>
</svg>
