<svg width="36" height="36" viewBox="0 0 36 36" fill="none" xmlns="http://www.w3.org/2000/svg">
<path fill-rule="evenodd" clip-rule="evenodd" d="M32 18C32 25.732 25.732 32 18 32C10.268 32 4 25.732 4 18C4 10.268 10.268 4 18 4C25.732 4 32 10.268 32 18ZM34 18C34 26.8366 26.8366 34 18 34C9.16344 34 2 26.8366 2 18C2 9.16344 9.16344 2 18 2C26.8366 2 34 9.16344 34 18ZM20.2929 15.1127C20.6834 14.7222 21.3166 14.7222 21.7071 15.1127L25.2929 18.6985L26.7071 17.2843L23.1213 13.6985C21.9497 12.5269 20.0503 12.5269 18.8787 13.6985L12 20.5772V15.9914H10V23.9914H18V21.9914H13.4142L20.2929 15.1127Z" fill="currentColor"/>
</svg>
