<svg width="36" height="36" viewBox="0 0 36 36" fill="none" xmlns="http://www.w3.org/2000/svg">
<path fill-rule="evenodd" clip-rule="evenodd" d="M30.206 7.01299L29.228 6.80423L28.9999 5.83059L30.5351 5.47095L30.206 7.01299ZM11.5608 25.8964C15.0966 28.8381 20.3569 28.6509 23.6732 25.3346C24.6124 24.3954 25.4565 22.7159 26.1898 20.8989C26.9414 19.0367 27.6374 16.87 28.2293 14.8219C28.8222 12.7704 29.3159 10.8199 29.6612 9.38349C29.834 8.66482 29.9698 8.07372 30.0626 7.66165C30.1091 7.45559 30.1447 7.29423 30.1689 7.184L30.1963 7.05776L30.2034 7.02489L30.206 7.01299C30.206 7.01299 30.206 7.01299 29.228 6.80423C28.9999 5.83059 28.9999 5.83059 28.9999 5.83059L28.9559 5.84097L28.8318 5.87056C28.7234 5.89655 28.5648 5.9349 28.3622 5.98472C27.9569 6.08436 27.3756 6.22996 26.6687 6.41439C25.2557 6.78302 23.3366 7.30789 21.3166 7.932C19.2999 8.55507 17.1654 9.28229 15.328 10.0573C13.533 10.8143 11.8779 11.674 10.9453 12.6067C7.71048 15.8415 7.45284 20.926 10.1723 24.4554L4.81445 29.9601L6.24764 31.3551L11.5608 25.8964ZM12.9613 24.4575C15.7092 26.6405 19.7179 26.4615 22.259 23.9204C22.8818 23.2976 23.6016 21.968 24.3352 20.1503C25.0506 18.3778 25.7249 16.2839 26.3079 14.2666C26.8899 12.2529 27.3759 10.3333 27.7166 8.91606C27.7816 8.64585 27.8412 8.39406 27.8952 8.16353C27.6735 8.22002 27.4321 8.28217 27.1736 8.34962C25.7793 8.71338 23.8903 9.23012 21.9069 9.84288C19.9203 10.4567 17.8561 11.1616 16.1052 11.9001C14.3119 12.6564 12.9889 13.3915 12.3595 14.0209C9.91403 16.4664 9.6562 20.271 11.586 23.0031L17.2114 17.2236L18.6445 18.6186L12.9613 24.4575Z" fill="currentColor"/>
</svg>
