<svg width="36" height="36" viewBox="0 0 36 36" fill="none" xmlns="http://www.w3.org/2000/svg">
<path fill-rule="evenodd" clip-rule="evenodd" d="M4 4H6V2H8V4H30.3119H32.0114L31.186 5.48564L26.186 14.4856L24.4377 13.5144L28.6124 6H8V22H20V24H8V34H6V24H4V22H6V6H4V4ZM26 22C26 20.8954 26.8954 20 28 20C29.1046 20 30 20.8954 30 22C30 23.1046 29.1046 24 28 24C26.8954 24 26 23.1046 26 22ZM28 18C25.7909 18 24 19.7909 24 22C24 24.2091 25.7909 26 28 26C30.2091 26 32 24.2091 32 22C32 19.7909 30.2091 18 28 18ZM27 28C24.2386 28 22 30.2386 22 33V34H24V33C24 31.3431 25.3431 30 27 30H29C30.6569 30 32 31.3431 32 33V34H34V33C34 30.2386 31.7614 28 29 28H27Z" fill="currentColor"/>
</svg>
