<svg width="36" height="36" viewBox="0 0 36 36" fill="none" xmlns="http://www.w3.org/2000/svg">
<path fill-rule="evenodd" clip-rule="evenodd" d="M7 9C7 7.34315 8.34315 6 10 6H13C14.6569 6 16 7.34315 16 9V27C16 28.6569 14.6569 30 13 30H10C8.34315 30 7 28.6569 7 27V9ZM10 8C9.44772 8 9 8.44772 9 9V27C9 27.5523 9.44771 28 10 28H13C13.5523 28 14 27.5523 14 27V9C14 8.44772 13.5523 8 13 8H10ZM20 9C20 7.34315 21.3431 6 23 6H26C27.6569 6 29 7.34314 29 9V27C29 28.6569 27.6569 30 26 30H23C21.3431 30 20 28.6569 20 27V9ZM23 8C22.4477 8 22 8.44772 22 9V27C22 27.5523 22.4477 28 23 28H26C26.5523 28 27 27.5523 27 27V9C27 8.44772 26.5523 8 26 8H23Z" fill="currentColor"/>
</svg>
