<svg width="36" height="36" viewBox="0 0 36 36" fill="none" xmlns="http://www.w3.org/2000/svg">
<path fill-rule="evenodd" clip-rule="evenodd" d="M6 7C6 4.23858 8.23858 2 11 2H21.3431C22.6692 2 23.941 2.52678 24.8787 3.46447L28.5355 7.12132C29.4732 8.059 30 9.33077 30 10.6569V14H28V12H23C21.3431 12 20 10.6569 20 9V4H11C9.34315 4 8 5.34315 8 7V14H6V7ZM23.7071 5.12132L26.8787 8.29289C27.3557 8.76994 27.6939 9.35992 27.8671 10H23C22.4477 10 22 9.55228 22 9V4.1329C22.6401 4.30612 23.2301 4.64427 23.7071 5.12132Z" fill="currentColor"/>
<path d="M6 34V32H30V34H6Z" fill="currentColor"/>
<path fill-rule="evenodd" clip-rule="evenodd" d="M6 18V28H8V24H10C11.1046 24 12 23.1046 12 22V20C12 18.8954 11.1046 18 10 18H6ZM8 22V20H10V22H8Z" fill="currentColor"/>
<path d="M24 18C22.8954 18 22 18.8954 22 20V26C22 27.1046 22.8954 28 24 28H28V22H25V24H26V26H24V20H28V18H24Z" fill="currentColor"/>
<path d="M16 18.7639V18H14V28H16V23.2361L18 27.2361V28H20V18H18V22.7639L16 18.7639Z" fill="currentColor"/>
</svg>
