<svg width="36" height="36" viewBox="0 0 36 36" fill="none" xmlns="http://www.w3.org/2000/svg">
<path fill-rule="evenodd" clip-rule="evenodd" d="M29.7073 0.292969L34.7073 5.29297L33.293 6.70718L28.293 1.70718L29.7073 0.292969ZM7.70718 1.70718L2.70718 6.70718L1.29297 5.29297L6.29297 0.292971L7.70718 1.70718ZM18.0002 4.00008C10.2682 4.00008 4.00015 10.2681 4.00015 18.0001C4.00015 25.7321 10.2682 32.0001 18.0002 32.0001C25.7321 32.0001 32.0002 25.7321 32.0002 18.0001C32.0002 10.2681 25.7321 4.00008 18.0002 4.00008ZM2.00015 18.0001C2.00015 9.16352 9.1636 2.00008 18.0002 2.00008C26.8367 2.00008 34.0002 9.16352 34.0002 18.0001C34.0002 26.8366 26.8367 34.0001 18.0002 34.0001C9.1636 34.0001 2.00015 26.8366 2.00015 18.0001ZM25.7069 13.7072L16.0003 23.414L11.2934 18.7072L12.7076 17.293L16.0003 20.5856L24.2927 12.293L25.7069 13.7072Z" fill="currentColor"/>
</svg>
