<svg width="36" height="36" viewBox="0 0 36 36" fill="none" xmlns="http://www.w3.org/2000/svg">
<path fill-rule="evenodd" clip-rule="evenodd" d="M5.02511 6.98957C6.60234 6.33626 8.29281 6 10 6C11.7072 6 13.3976 6.33625 14.9749 6.98957C16.0604 7.43921 17.0777 8.03298 18 8.75305C18.9223 8.03298 19.9396 7.43921 21.0251 6.98957C22.6023 6.33626 24.2928 6 26 6C27.7072 6 29.3976 6.33625 30.9749 6.98957C31.8822 7.36538 32.7418 7.84188 33.5381 8.40865C33.8299 8.61629 34 8.95108 34 9.3045V29.0583C34 29.9616 32.9886 30.4605 32.2707 29.9624C31.6273 29.516 30.9365 29.1384 30.2095 28.8373C28.8749 28.2845 27.4445 28 26 28C24.5555 28 23.1251 28.2845 21.7905 28.8373C20.6447 29.3119 19.5888 29.9763 18.6667 30.8011L18 31.3974L17.3333 30.8011C16.4112 29.9763 15.3553 29.3119 14.2095 28.8373C12.8749 28.2845 11.4445 28 10 28C8.55546 28 7.12506 28.2845 5.79048 28.8373C5.06351 29.1384 4.37272 29.516 3.72931 29.9624C3.01141 30.4605 2 29.9616 2 29.0583V9.3045C2 8.95108 2.17014 8.61629 2.46188 8.40865C3.25821 7.84188 4.11782 7.36538 5.02511 6.98957ZM17 10.5147C16.1597 9.8215 15.2195 9.25568 14.2095 8.83732C12.8749 8.28452 11.4445 8 10 8C8.55546 8 7.12506 8.28452 5.79048 8.83733C5.16444 9.09664 4.56523 9.41261 4 9.78046V27.4674C4.33405 27.2936 4.67605 27.1342 5.02511 26.9896C6.60234 26.3363 8.29281 26 10 26C11.7072 26 13.3976 26.3363 14.9749 26.9896C15.6813 27.2822 16.3588 27.6358 17 28.0455V10.5147ZM19 28.0455C19.6412 27.6358 20.3187 27.2822 21.0251 26.9896C22.6023 26.3363 24.2928 26 26 26C27.7072 26 29.3976 26.3363 30.9749 26.9896C31.3239 27.1342 31.6659 27.2936 32 27.4674V9.78046C31.4348 9.41261 30.8356 9.09664 30.2095 8.83732C28.8749 8.28452 27.4445 8 26 8C24.5555 8 23.1251 8.28452 21.7905 8.83733C20.7805 9.25569 19.8403 9.8215 19 10.5147V28.0455Z" fill="currentColor"/>
<path fill-rule="evenodd" clip-rule="evenodd" d="M13 14H8V12H13V14ZM13 20H8V18H13V20Z" fill="currentColor"/>
<path fill-rule="evenodd" clip-rule="evenodd" d="M28 14H23V12H28V14ZM28 20H23V18H28V20Z" fill="currentColor"/>
</svg>
