<svg width="36" height="36" viewBox="0 0 36 36" fill="none" xmlns="http://www.w3.org/2000/svg">
<path d="M17.998 22.7812C19.297 22.7812 20.54 22.8468 21.6914 22.9629C21.8875 22.9828 22.0132 23.185 21.9375 23.3672C21.2936 24.9044 19.7723 25.9844 17.998 25.9844C16.2239 25.9842 14.7057 24.9043 14.0605 23.3672C13.9845 23.185 14.1086 22.983 14.3047 22.9629C15.4549 22.8468 16.6991 22.7813 17.998 22.7812Z" fill="currentColor"/>
<path d="M13.0605 17.4375C14.1071 17.4375 14.9081 18.5351 14.8457 19.8887C14.7832 21.2423 14.0009 21.7344 12.9531 21.7344C11.9054 21.7343 10.9883 21.1837 11.0508 19.8301C11.1133 18.4765 12.0141 17.4376 13.0605 17.4375Z" fill="currentColor"/>
<path d="M22.9375 17.4375C23.9853 17.4376 24.886 18.4765 24.9473 19.8301C25.0098 21.1837 24.0915 21.7344 23.0449 21.7344C21.9984 21.7344 21.2149 21.2436 21.1523 19.8887C21.0899 18.5351 21.8897 17.4375 22.9375 17.4375Z" fill="currentColor"/>
<path fill-rule="evenodd" clip-rule="evenodd" d="M18 2C26.8366 2 34 9.16344 34 18C34 26.8366 26.8366 34 18 34C9.16344 34 2 26.8366 2 18C2 9.16344 9.16344 2 18 2ZM23.8418 6.2793C22.5543 6.2797 21.4805 7.19203 21.2305 8.4043C19.0738 8.63539 17.3888 10.4619 17.3887 12.6758V12.6895C15.0433 12.7882 12.9015 13.4552 11.2012 14.5078C10.57 14.0198 9.77774 13.7287 8.91797 13.7285C6.85372 13.7285 5.17986 15.3994 5.17969 17.4609C5.17969 18.9569 6.06041 20.2461 7.33203 20.8418C7.45596 25.1747 12.1829 28.66 17.998 28.6602C23.8135 28.6602 28.5485 25.1709 28.666 20.834C29.9272 20.2345 30.7987 18.9497 30.7988 17.4629C30.7988 15.4013 29.1268 13.7306 27.0625 13.7305C26.206 13.7305 25.4173 14.0194 24.7871 14.5039C23.0716 13.4437 20.9046 12.7762 18.5352 12.6875V12.6777C18.5352 11.0921 19.716 9.77493 21.2461 9.55859C21.5236 10.7334 22.5806 11.607 23.8418 11.6074C25.3147 11.6074 26.5098 10.4144 26.5098 8.94336C26.5097 7.47244 25.3147 6.2793 23.8418 6.2793Z" fill="currentColor"/>
</svg>
