<svg width="36" height="36" viewBox="0 0 36 36" fill="none" xmlns="http://www.w3.org/2000/svg">
<g clip-path="url(#clip0_2499_120)">
<path d="M2 18C2 26.8366 9.16344 34 18 34C26.8366 34 34 26.8366 34 18C34 9.16344 26.8366 2 18 2C9.16344 2 2 9.16344 2 18Z" fill="#FF4500"/>
<path d="M27.0754 21.2C29.1396 21.2 30.8129 19.5267 30.8129 17.4625C30.8129 15.3983 29.1396 13.725 27.0754 13.725C25.0112 13.725 23.3379 15.3983 23.3379 17.4625C23.3379 19.5267 25.0112 21.2 27.0754 21.2Z" fill="url(#paint0_radial_2499_120)"/>
<path d="M8.925 21.2C10.9892 21.2 12.6625 19.5267 12.6625 17.4625C12.6625 15.3983 10.9892 13.725 8.925 13.725C6.86084 13.725 5.1875 15.3983 5.1875 17.4625C5.1875 19.5267 6.86084 21.2 8.925 21.2Z" fill="url(#paint1_radial_2499_120)"/>
<path d="M18.0121 28.6625C23.9008 28.6625 28.6746 25.0808 28.6746 20.6625C28.6746 16.2442 23.9008 12.6625 18.0121 12.6625C12.1234 12.6625 7.34961 16.2442 7.34961 20.6625C7.34961 25.0808 12.1234 28.6625 18.0121 28.6625Z" fill="url(#paint2_radial_2499_120)"/>
<path d="M14.8503 19.8875C14.7878 21.2375 13.8878 21.7375 12.8378 21.7375C11.7878 21.7375 10.9878 21.0375 11.0503 19.6875C11.1128 18.3375 12.0128 17.4375 13.0628 17.4375C14.1128 17.4375 14.9128 18.5375 14.8503 19.8875Z" fill="#842123"/>
<path d="M24.9499 19.6875C25.0124 21.0375 24.2124 21.7375 23.1624 21.7375C22.1124 21.7375 21.2124 21.25 21.1499 19.8875C21.0874 18.5375 21.8874 17.4375 22.9374 17.4375C23.9874 17.4375 24.8874 18.325 24.9499 19.6875Z" fill="#842123"/>
<path d="M21.1628 20.0125C21.2253 21.275 22.0628 21.7375 23.0378 21.7375C24.0128 21.7375 24.7628 21.05 24.7128 19.775C24.6503 18.5125 23.8128 17.675 22.8378 17.675C21.8628 17.675 21.1003 18.7375 21.1628 20.0125Z" fill="url(#paint3_radial_2499_120)"/>
<path d="M14.8497 20.0125C14.7872 21.275 13.9497 21.7375 12.9747 21.7375C11.9997 21.7375 11.2497 21.05 11.3122 19.775C11.3747 18.5125 12.2122 17.675 13.1872 17.675C14.1622 17.675 14.9122 18.7375 14.8497 20.0125Z" fill="url(#paint4_radial_2499_120)"/>
<path d="M18.013 22.6375C16.688 22.6375 15.4255 22.7 14.2505 22.8125C14.0505 22.8375 13.9255 23.0375 14.0005 23.2125C14.6505 24.75 16.2005 25.8375 18.013 25.8375C19.8255 25.8375 21.363 24.7625 22.0255 23.2125C22.1005 23.025 21.9755 22.825 21.7755 22.8125C20.6005 22.7 19.338 22.6375 18.013 22.6375Z" fill="#BBCFDA"/>
<path d="M18.0122 22.9375C16.6872 22.9375 15.4247 23 14.2622 23.125C14.0622 23.15 13.9372 23.35 14.0122 23.5375C14.6622 25.1 16.2122 26.2 18.0122 26.2C19.8122 26.2 21.3622 25.1 22.0122 23.5375C22.0872 23.35 21.9622 23.15 21.7622 23.125C20.5872 23 19.3247 22.9375 18.0122 22.9375Z" fill="white"/>
<path d="M18.0122 22.775C16.7122 22.775 15.4747 22.8375 14.3247 22.95C14.1247 22.975 13.9997 23.175 14.0747 23.35C14.7247 24.8875 16.2372 25.975 18.0122 25.975C19.7872 25.975 21.2997 24.9 21.9497 23.35C22.0247 23.1625 21.8997 22.9625 21.6997 22.95C20.5497 22.85 19.3122 22.775 18.0122 22.775Z" fill="url(#paint5_radial_2499_120)"/>
<path d="M23.8502 11.5875C25.3137 11.5875 26.5002 10.4011 26.5002 8.93751C26.5002 7.47395 25.3137 6.28751 23.8502 6.28751C22.3866 6.28751 21.2002 7.47395 21.2002 8.93751C21.2002 10.4011 22.3866 11.5875 23.8502 11.5875Z" fill="url(#paint6_radial_2499_120)"/>
<path d="M17.9754 13C17.6629 13 17.4004 12.8625 17.4004 12.6625C17.4004 10.2875 19.3254 8.36249 21.7004 8.36249C22.0129 8.36249 22.2754 8.62499 22.2754 8.93749C22.2754 9.24999 22.0129 9.51249 21.7004 9.51249C19.9629 9.51249 18.5504 10.925 18.5504 12.6625C18.5504 12.875 18.2879 13 17.9754 13Z" fill="url(#paint7_radial_2499_120)"/>
<path d="M14.1629 20.6375C14.1629 21.125 13.6379 21.35 13.0004 21.35C12.3629 21.35 11.8379 21.125 11.8379 20.6375C11.8379 20.15 12.3629 19.75 13.0004 19.75C13.6379 19.75 14.1629 20.1375 14.1629 20.6375Z" fill="#FF6101"/>
<path d="M24.1873 20.6375C24.1873 21.125 23.6623 21.35 23.0248 21.35C22.3873 21.35 21.8623 21.125 21.8623 20.6375C21.8623 20.15 22.3873 19.75 23.0248 19.75C23.6623 19.75 24.1873 20.1375 24.1873 20.6375Z" fill="#FF6101"/>
<path d="M13.8002 19.3C14.028 19.3 14.2127 19.0985 14.2127 18.85C14.2127 18.6015 14.028 18.4 13.8002 18.4C13.5724 18.4 13.3877 18.6015 13.3877 18.85C13.3877 19.0985 13.5724 19.3 13.8002 19.3Z" fill="#FFC49C"/>
<path d="M23.6625 19.3C23.8903 19.3 24.075 19.0985 24.075 18.85C24.075 18.6015 23.8903 18.4 23.6625 18.4C23.4347 18.4 23.25 18.6015 23.25 18.85C23.25 19.0985 23.4347 19.3 23.6625 19.3Z" fill="#FFC49C"/>
</g>
<defs>
<radialGradient id="paint0_radial_2499_120" cx="0" cy="0" r="1" gradientUnits="userSpaceOnUse" gradientTransform="translate(26.9145 15.4447) scale(7.48769 6.53181)">
<stop stop-color="#FEFFFF"/>
<stop offset="0.4" stop-color="#FEFFFF"/>
<stop offset="0.51" stop-color="#F9FCFC"/>
<stop offset="0.62" stop-color="#EDF3F5"/>
<stop offset="0.7" stop-color="#DEE9EC"/>
<stop offset="0.72" stop-color="#D8E4E8"/>
<stop offset="0.76" stop-color="#CCD8DF"/>
<stop offset="0.8" stop-color="#C8D5DD"/>
<stop offset="0.83" stop-color="#CCD6DE"/>
<stop offset="0.85" stop-color="#D8DBE2"/>
<stop offset="0.88" stop-color="#EDE3E9"/>
<stop offset="0.9" stop-color="#FFEBEF"/>
</radialGradient>
<radialGradient id="paint1_radial_2499_120" cx="0" cy="0" r="1" gradientUnits="userSpaceOnUse" gradientTransform="translate(8.77412 15.4447) scale(7.48769 6.53181)">
<stop stop-color="#FEFFFF"/>
<stop offset="0.4" stop-color="#FEFFFF"/>
<stop offset="0.51" stop-color="#F9FCFC"/>
<stop offset="0.62" stop-color="#EDF3F5"/>
<stop offset="0.7" stop-color="#DEE9EC"/>
<stop offset="0.72" stop-color="#D8E4E8"/>
<stop offset="0.76" stop-color="#CCD8DF"/>
<stop offset="0.8" stop-color="#C8D5DD"/>
<stop offset="0.83" stop-color="#CCD6DE"/>
<stop offset="0.85" stop-color="#D8DBE2"/>
<stop offset="0.88" stop-color="#EDE3E9"/>
<stop offset="0.9" stop-color="#FFEBEF"/>
</radialGradient>
<radialGradient id="paint2_radial_2499_120" cx="0" cy="0" r="1" gradientUnits="userSpaceOnUse" gradientTransform="translate(18.0807 14.397) scale(22.5858 15.8582)">
<stop stop-color="#FEFFFF"/>
<stop offset="0.4" stop-color="#FEFFFF"/>
<stop offset="0.51" stop-color="#F9FCFC"/>
<stop offset="0.62" stop-color="#EDF3F5"/>
<stop offset="0.7" stop-color="#DEE9EC"/>
<stop offset="0.72" stop-color="#D8E4E8"/>
<stop offset="0.76" stop-color="#CCD8DF"/>
<stop offset="0.8" stop-color="#C8D5DD"/>
<stop offset="0.83" stop-color="#CCD6DE"/>
<stop offset="0.85" stop-color="#D8DBE2"/>
<stop offset="0.88" stop-color="#EDE3E9"/>
<stop offset="0.9" stop-color="#FFEBEF"/>
</radialGradient>
<radialGradient id="paint3_radial_2499_120" cx="0" cy="0" r="1" gradientUnits="userSpaceOnUse" gradientTransform="translate(22.8732 20.8714) rotate(180) scale(1.88705 2.77035)">
<stop stop-color="#FF6600"/>
<stop offset="0.5" stop-color="#FF4500"/>
<stop offset="0.7" stop-color="#FC4301"/>
<stop offset="0.82" stop-color="#F43F07"/>
<stop offset="0.92" stop-color="#E53812"/>
<stop offset="1" stop-color="#D4301F"/>
</radialGradient>
<radialGradient id="paint4_radial_2499_120" cx="0" cy="0" r="1" gradientUnits="userSpaceOnUse" gradientTransform="translate(13.0606 20.8714) scale(1.88705 2.77035)">
<stop stop-color="#FF6600"/>
<stop offset="0.5" stop-color="#FF4500"/>
<stop offset="0.7" stop-color="#FC4301"/>
<stop offset="0.82" stop-color="#F43F07"/>
<stop offset="0.92" stop-color="#E53812"/>
<stop offset="1" stop-color="#D4301F"/>
</radialGradient>
<radialGradient id="paint5_radial_2499_120" cx="0" cy="0" r="1" gradientUnits="userSpaceOnUse" gradientTransform="translate(17.8329 26.3635) scale(6.65403 4.38883)">
<stop stop-color="#172E35"/>
<stop offset="0.29" stop-color="#0E1C21"/>
<stop offset="0.73" stop-color="#030708"/>
<stop offset="1"/>
</radialGradient>
<radialGradient id="paint6_radial_2499_120" cx="0" cy="0" r="1" gradientUnits="userSpaceOnUse" gradientTransform="translate(23.7019 6.26327) scale(5.84092)">
<stop stop-color="#FEFFFF"/>
<stop offset="0.4" stop-color="#FEFFFF"/>
<stop offset="0.51" stop-color="#F9FCFC"/>
<stop offset="0.62" stop-color="#EDF3F5"/>
<stop offset="0.7" stop-color="#DEE9EC"/>
<stop offset="0.72" stop-color="#D8E4E8"/>
<stop offset="0.76" stop-color="#CCD8DF"/>
<stop offset="0.8" stop-color="#C8D5DD"/>
<stop offset="0.83" stop-color="#CCD6DE"/>
<stop offset="0.85" stop-color="#D8DBE2"/>
<stop offset="0.88" stop-color="#EDE3E9"/>
<stop offset="0.9" stop-color="#FFEBEF"/>
</radialGradient>
<radialGradient id="paint7_radial_2499_120" cx="0" cy="0" r="1" gradientUnits="userSpaceOnUse" gradientTransform="translate(21.2675 12.6307) scale(4.78754)">
<stop offset="0.48" stop-color="#7A9299"/>
<stop offset="0.67" stop-color="#172E35"/>
<stop offset="0.75"/>
<stop offset="0.82" stop-color="#172E35"/>
</radialGradient>
<clipPath id="clip0_2499_120">
<rect x="2" y="2" width="32" height="32" rx="8" fill="white"/>
</clipPath>
</defs>
</svg>
