<svg width="36" height="36" viewBox="0 0 36 36" fill="none" xmlns="http://www.w3.org/2000/svg">
<path fill-rule="evenodd" clip-rule="evenodd" d="M14.0004 14V9.11533L6.72224 17L14.0004 24.8847V20H16.0004C21.1161 20 25.4522 21.0213 29.1294 23.8868C28.4715 21.6871 27.4251 19.6384 25.9337 17.9961C23.8094 15.6567 20.6598 14 16.0004 14H14.0004ZM18.0004 22.0595C22.8994 22.3636 26.756 23.8711 29.976 27.3933C30.6436 28.1235 31.9103 27.6881 31.7757 26.7079C30.7859 19.5015 26.3937 12 16.0004 12V6.55768C16.0004 5.64737 14.8831 5.2105 14.2656 5.8794L4.62652 16.3217C4.27293 16.7048 4.27293 17.2952 4.62653 17.6783L14.2656 28.1207C14.8831 28.7896 16.0004 28.3527 16.0004 27.4424V22C16.686 22 17.3523 22.0192 18.0004 22.0595Z" fill="currentColor"/>
</svg>
