<svg width="36" height="36" viewBox="0 0 36 36" fill="none" xmlns="http://www.w3.org/2000/svg">
<path fill-rule="evenodd" clip-rule="evenodd" d="M14.0004 14V9.11533L6.72224 17L14.0004 24.8847V20H16.0004C17.3904 20 18.7227 20.0754 20 20.2427V22.2605C19.3532 22.1684 18.687 22.1021 18.0004 22.0595C17.3523 22.0192 16.686 22 16.0004 22V27.4424C16.0004 28.3527 14.8831 28.7896 14.2656 28.1207L4.62653 17.6783C4.27293 17.2952 4.27293 16.7048 4.62652 16.3217L14.2656 5.8794C14.8831 5.2105 16.0004 5.64737 16.0004 6.55768V12C20.7793 12 24.2894 13.586 26.7834 16H23.5762C21.6499 14.7694 19.1758 14 16.0004 14H14.0004ZM34 28C34 26.8954 33.1046 26 32 26V24C32 21.7909 30.2091 20 28 20C25.7909 20 24 21.7909 24 24V26C22.8954 26 22 26.8954 22 28V32C22 33.1046 22.8954 34 24 34H32C33.1046 34 34 33.1046 34 32V28ZM30 24V26H26V24C26 22.8954 26.8954 22 28 22C29.1046 22 30 22.8954 30 24ZM32 28V32H24V28H32Z" fill="currentColor"/>
</svg>
