<svg width="36" height="36" viewBox="0 0 36 36" fill="none" xmlns="http://www.w3.org/2000/svg">
<path fill-rule="evenodd" clip-rule="evenodd" d="M6 2V13C6 13.6566 6.12933 14.3068 6.3806 14.9134C6.63188 15.52 7.00017 16.0712 7.46447 16.5355C7.92876 16.9998 8.47995 17.3681 9.08658 17.6194C9.69321 17.8707 10.3434 18 11 18C11.6566 18 12.3068 17.8707 12.9134 17.6194C13.52 17.3681 14.0712 16.9998 14.5355 16.5355C14.9998 16.0712 15.3681 15.52 15.6194 14.9134C15.8707 14.3068 16 13.6566 16 13V2H18V13C18 13.9193 17.8189 14.8295 17.4672 15.6788C17.1154 16.5281 16.5998 17.2997 15.9497 17.9497C15.2997 18.5998 14.5281 19.1154 13.6788 19.4672C13.1393 19.6906 12.5753 19.8452 12 19.9282V34H10V19.9282C9.42469 19.8452 8.86065 19.6906 8.32122 19.4672C7.47194 19.1154 6.70026 18.5998 6.05025 17.9497C5.40024 17.2997 4.88463 16.5281 4.53284 15.6788C4.18106 14.8295 4 13.9193 4 13V2H6ZM10 14V2H12V14H10ZM22 2H25C28.866 2 32 5.13401 32 9V17C32 19.7614 29.7614 22 27 22H24V34H22V2ZM24 4V20H27C28.6569 20 30 18.6569 30 17V9C30 6.23858 27.7614 4 25 4H24Z" fill="currentColor"/>
</svg>
