<svg width="36" height="36" viewBox="0 0 36 36" fill="none" xmlns="http://www.w3.org/2000/svg">
<path fill-rule="evenodd" clip-rule="evenodd" d="M6.44152 4C5.15023 4 4.00381 4.82629 3.59547 6.05132L2.15395 10.3759C2.05198 10.6818 2 11.0021 2 11.3246V15C2 16.6567 3.34288 17.9997 4.99951 18V32H6.99951V18H14.0002V30C14.0002 31.1046 14.8957 32 16.0002 32H28.9995C30.1041 32 30.9995 31.1046 30.9995 30V18C32.6564 18 34 16.6569 34 15V11.3246C34 11.0021 33.948 10.6818 33.8461 10.3759L32.4045 6.05132C31.9962 4.82629 30.8498 4 29.5585 4H6.44152ZM5.49284 6.68377C5.62895 6.27543 6.01109 6 6.44152 6H29.5585C29.9889 6 30.3711 6.27543 30.5072 6.68377L31.9487 11.0083C31.9827 11.1103 32 11.2171 32 11.3246V15C32 15.5523 31.5523 16 31 16H28.0002V12H26.0002V16H19.0002V12H17.0002V16H10.0002V12H8.00024V16H5C4.44772 16 4 15.5523 4 15V11.3246C4 11.2171 4.01733 11.1103 4.05132 11.0083L5.49284 6.68377ZM28.9995 18H16.0002V30H28.9995V18Z" fill="currentColor"/>
</svg>
