<svg width="36" height="36" viewBox="0 0 36 36" fill="none" xmlns="http://www.w3.org/2000/svg">
<path d="M24 24H12V22H24V24Z" fill="currentColor"/>
<path d="M12 28H24V26H12V28Z" fill="currentColor"/>
<path fill-rule="evenodd" clip-rule="evenodd" d="M11 2C8.23858 2 6 4.23858 6 7V29C6 31.7614 8.23858 34 11 34H25C27.7614 34 30 31.7614 30 29V7C30 4.23858 27.7614 2 25 2H11ZM28 12V7C28 5.34315 26.6569 4 25 4H11C9.34315 4 8 5.34315 8 7V29C8 30.6569 9.34315 32 11 32H25C26.6569 32 28 30.6569 28 29V14H15.6609L18.7345 17.3207L17.2668 18.6793L12.0102 13L17.2668 7.32073L18.7345 8.67927L15.6609 12H28Z" fill="currentColor"/>
</svg>
