<svg width="36" height="36" viewBox="0 0 36 36" fill="none" xmlns="http://www.w3.org/2000/svg">
<path fill-rule="evenodd" clip-rule="evenodd" d="M2 18C2 9.16344 9.16344 2 18 2C26.8366 2 34 9.16344 34 18C34 20.183 33.5623 22.2663 32.7688 24.165C32.6972 24.3365 32.6377 24.7956 32.6785 25.5908C32.7165 26.3325 32.831 27.216 32.9813 28.1191C33.2815 29.9219 33.7097 31.7142 33.8876 32.4306C34.1058 33.3094 33.311 34.1045 32.4332 33.8893C31.714 33.713 29.9126 33.2878 28.1053 32.9886C27.1999 32.8386 26.3151 32.724 25.5744 32.685C24.7777 32.643 24.3259 32.7016 24.165 32.7688C22.2663 33.5623 20.183 34 18 34C9.16344 34 2 26.8366 2 18ZM12.0657 15.9995C10.3726 15.9995 9 14.627 9 12.9339C9 11.5504 9.91638 10.381 11.1753 9.99951L15 13.8243C14.6185 15.0832 13.4491 15.9995 12.0657 15.9995ZM24 28C24.5523 28 25.0073 27.55 24.9287 27.0034C24.7147 25.5153 24.0253 24.1258 22.9498 23.0503C21.637 21.7375 19.8565 21 18 21C16.1435 21 14.363 21.7375 13.0503 23.0503C11.9747 24.1258 11.2853 25.5153 11.0713 27.0034C10.9927 27.55 11.4477 28 12 28L24 28ZM23.9346 16.0005C22.5511 16.0005 21.3816 15.084 21.0002 13.825L24.8247 10.0004C26.0837 10.3818 27.0002 11.5513 27.0002 12.9349C27.0002 14.628 25.6277 16.0005 23.9346 16.0005Z" fill="#981C1C"/>
</svg>
