<svg width="36" height="36" viewBox="0 0 36 36" fill="none" xmlns="http://www.w3.org/2000/svg">
<path fill-rule="evenodd" clip-rule="evenodd" d="M15 15C15 16.6569 14.1046 18 13 18C11.8954 18 11 16.6569 11 15C11 13.3431 11.8954 12 13 12C14.1046 12 15 13.3431 15 15ZM12.6903 16.0893L12.695 16.0846L12.6885 16.0904C12.6885 16.0906 12.6887 16.0908 12.6903 16.0893Z" fill="#858589"/>
<path fill-rule="evenodd" clip-rule="evenodd" d="M23 18C24.1046 18 25 16.6569 25 15C25 13.3431 24.1046 12 23 12C21.8954 12 21 13.3431 21 15C21 16.6569 21.8954 18 23 18ZM23.305 13.9154C23.3097 13.9105 23.3121 13.9085 23.3121 13.9087L23.3102 13.9108L23.305 13.9154ZM22.6879 13.9087C22.6879 13.9086 22.6886 13.9092 22.6902 13.9106L22.695 13.9154C22.6901 13.9114 22.6878 13.909 22.6879 13.9087Z" fill="#858589"/>
<path d="M13 22V24H23V22H13Z" fill="#858589"/>
<path fill-rule="evenodd" clip-rule="evenodd" d="M18 2C9.16344 2 2 9.16344 2 18C2 26.8366 9.16344 34 18 34C20.183 34 22.2663 33.5623 24.165 32.7688C24.3259 32.7016 24.7777 32.643 25.5744 32.685C26.3151 32.724 27.1999 32.8386 28.1053 32.9886C29.9126 33.2878 31.714 33.713 32.4332 33.8893C33.311 34.1045 34.1058 33.3094 33.8876 32.4306C33.7097 31.7142 33.2815 29.9219 32.9813 28.1191C32.831 27.216 32.7165 26.3325 32.6785 25.5908C32.6377 24.7956 32.6972 24.3365 32.7688 24.165C33.5623 22.2663 34 20.183 34 18C34 9.16344 26.8366 2 18 2ZM4 18C4 10.268 10.268 4 18 4C25.732 4 32 10.268 32 18C32 19.9136 31.6166 21.7351 30.9235 23.3938C30.6597 24.025 30.6403 24.8973 30.6811 25.6932C30.7247 26.5426 30.8523 27.5097 31.0085 28.4476C31.2025 29.6126 31.4463 30.7668 31.6471 31.6509C30.7596 31.4515 29.6003 31.2089 28.4321 31.0154C27.4929 30.8599 26.526 30.7324 25.6796 30.6878C24.8892 30.6461 24.0186 30.6624 23.3938 30.9235C21.7351 31.6166 19.9136 32 18 32C10.268 32 4 25.732 4 18Z" fill="#858589"/>
</svg>
