<svg width="36" height="36" viewBox="0 0 36 36" fill="none" xmlns="http://www.w3.org/2000/svg">
<path fill-rule="evenodd" clip-rule="evenodd" d="M9 4C6.23858 4 4 6.23858 4 9V27C4 29.7614 6.23858 32 9 32H27C29.7614 32 32 29.7614 32 27V9C32 6.23858 29.7614 4 27 4H9ZM6 9C6 7.34315 7.34315 6 9 6H27C28.6569 6 30 7.34315 30 9V27C30 28.6569 28.6569 30 27 30H9C7.34315 30 6 28.6569 6 27V9ZM26 16C24.9357 16 24.0655 16.8314 24.0035 17.8802L21.0169 19.3735C20.2836 18.5319 19.2039 18 18 18C15.7909 18 14 19.7909 14 22C14 24.2091 15.7909 26 18 26C19.2039 26 20.2836 25.4681 21.0169 24.6265L24.0035 26.1198C24.0655 27.1686 24.9357 28 26 28C27.1046 28 28 27.1046 28 26C28 24.8954 27.1046 24 26 24C25.5927 24 25.2138 24.1218 24.8978 24.3309L21.9121 22.838C21.9697 22.5678 22 22.2874 22 22C22 21.7126 21.9697 21.4322 21.9121 21.162L24.8978 19.6691C25.2138 19.8782 25.5927 20 26 20C27.1046 20 28 19.1046 28 18C28 16.8954 27.1046 16 26 16ZM16 22C16 20.8954 16.8954 20 18 20C19.1046 20 20 20.8954 20 22C20 23.1046 19.1046 24 18 24C16.8954 24 16 23.1046 16 22Z" fill="currentColor"/>
</svg>
