<svg width="36" height="36" viewBox="0 0 36 36" fill="none" xmlns="http://www.w3.org/2000/svg">
<path fill-rule="evenodd" clip-rule="evenodd" d="M28 4C25.7909 4 24 5.79086 24 8C24 10.2091 25.7909 12 28 12C30.2091 12 32 10.2091 32 8C32 5.79086 30.2091 4 28 4ZM22 8C22 4.68629 24.6863 2 28 2C31.3137 2 34 4.68629 34 8C34 11.3137 31.3137 14 28 14C26.0104 14 24.2469 13.0316 23.1553 11.5404L13.7402 16.248C13.9091 16.8022 14 17.3905 14 18C14 18.6095 13.9091 19.1978 13.7402 19.752L23.1553 24.4596C24.2469 22.9684 26.0104 22 28 22C31.3137 22 34 24.6863 34 28C34 31.3137 31.3137 34 28 34C24.6863 34 22 31.3137 22 28C22 27.3905 22.0909 26.8022 22.2598 26.248L12.8447 21.5404C11.7531 23.0316 9.98963 24 8 24C4.68629 24 2 21.3137 2 18C2 14.6863 4.68629 12 8 12C9.98963 12 11.7531 12.9684 12.8447 14.4596L22.2598 9.75205C22.0909 9.1978 22 8.60951 22 8ZM8 14C5.79086 14 4 15.7909 4 18C4 20.2091 5.79086 22 8 22C10.2091 22 12 20.2091 12 18C12 15.7909 10.2091 14 8 14ZM28 24C25.7909 24 24 25.7909 24 28C24 30.2091 25.7909 32 28 32C30.2091 32 32 30.2091 32 28C32 25.7909 30.2091 24 28 24Z" fill="currentColor"/>
</svg>
