<svg width="36" height="36" viewBox="0 0 36 36" fill="none" xmlns="http://www.w3.org/2000/svg">
<path fill-rule="evenodd" clip-rule="evenodd" d="M4 9C4 6.23858 6.23858 4 9 4H11C13.7614 4 16 6.23858 16 9V27C16 29.7614 13.7614 32 11 32H9C6.23858 32 4 29.7614 4 27V9ZM9 6C7.34315 6 6 7.34315 6 9V27C6 28.6569 7.34315 30 9 30H11C12.6569 30 14 28.6569 14 27V9C14 7.34315 12.6569 6 11 6H9ZM26.7071 11.2929L33.4142 18L26.7071 24.7071L25.2929 23.2929L29.5858 19H20V17H29.5858L25.2929 12.7071L26.7071 11.2929Z" fill="currentColor"/>
</svg>
