<svg width="36" height="36" viewBox="0 0 36 36" fill="none" xmlns="http://www.w3.org/2000/svg">
<path d="M9.89338 21.6889C9.8934 22.2699 9.72114 22.8379 9.39837 23.321C9.0756 23.8041 8.61682 24.1806 8.08005 24.4029C7.54329 24.6253 6.95264 24.6835 6.38281 24.5701C5.81298 24.4568 5.28955 24.177 4.87872 23.7662C4.4679 23.3554 4.18813 22.8319 4.07478 22.2621C3.96144 21.6923 4.01963 21.1016 4.24197 20.5649C4.46432 20.0281 4.84085 19.5693 5.32394 19.2465C5.80703 18.9238 6.37498 18.7515 6.95598 18.7515H9.89338V21.6889Z" fill="currentColor"/>
<path d="M11.3735 21.6889C11.3784 20.913 11.6901 20.1706 12.2404 19.6237C12.7908 19.0768 13.5351 18.7699 14.311 18.7699C15.0869 18.7699 15.8312 19.0768 16.3816 19.6237C16.9319 20.1706 17.2436 20.913 17.2485 21.6889V29.044C17.2509 29.4313 17.1767 29.8153 17.0302 30.1738C16.8837 30.5323 16.6677 30.8583 16.3947 31.1331C16.1217 31.4078 15.797 31.6258 15.4394 31.7746C15.0818 31.9234 14.6983 32 14.311 32C13.9237 32 13.5402 31.9234 13.1826 31.7746C12.825 31.6258 12.5003 31.4078 12.2273 31.1331C11.9543 30.8583 11.7383 30.5323 11.5918 30.1738C11.4453 29.8153 11.3711 29.4313 11.3735 29.044V21.6889Z" fill="currentColor"/>
<path d="M14.3111 9.89338C13.7301 9.8934 13.1622 9.72114 12.6791 9.39837C12.196 9.0756 11.8195 8.61682 11.5971 8.08006C11.3748 7.54329 11.3166 6.95265 11.4299 6.38281C11.5433 5.81298 11.823 5.28955 12.2339 4.87873C12.6447 4.4679 13.1681 4.18813 13.738 4.07479C14.3078 3.96145 14.8984 4.01963 15.4352 4.24198C15.972 4.46432 16.4307 4.84085 16.7535 5.32394C17.0763 5.80703 17.2485 6.37499 17.2485 6.95598V9.89338H14.3111Z" fill="currentColor"/>
<path d="M14.3111 11.3735C15.087 11.3784 15.8294 11.6901 16.3763 12.2404C16.9232 12.7908 17.2301 13.5351 17.2301 14.311C17.2301 15.0869 16.9232 15.8312 16.3763 16.3816C15.8294 16.9319 15.087 17.2436 14.3111 17.2485H6.95602C6.56871 17.2509 6.18474 17.1767 5.82621 17.0302C5.46768 16.8837 5.14166 16.6677 4.86693 16.3947C4.59219 16.1217 4.37416 15.797 4.22538 15.4394C4.0766 15.0818 4 14.6983 4 14.311C4 13.9237 4.0766 13.5402 4.22538 13.1826C4.37416 12.825 4.59219 12.5003 4.86693 12.2273C5.14166 11.9543 5.46768 11.7383 5.82621 11.5918C6.18474 11.4453 6.56871 11.3711 6.95602 11.3735H14.3111Z" fill="currentColor"/>
<path d="M26.1065 14.3111C26.1065 13.7301 26.2788 13.1622 26.6015 12.6791C26.9243 12.196 27.3831 11.8195 27.9199 11.5971C28.4566 11.3748 29.0473 11.3166 29.6171 11.4299C30.1869 11.5433 30.7104 11.823 31.1212 12.2339C31.532 12.6447 31.8118 13.1681 31.9251 13.738C32.0385 14.3078 31.9803 14.8984 31.7579 15.4352C31.5356 15.972 31.1591 16.4307 30.676 16.7535C30.1929 17.0763 29.6249 17.2485 29.0439 17.2485H26.1065V14.3111Z" fill="currentColor"/>
<path d="M24.6264 14.3111C24.6215 15.087 24.3098 15.8294 23.7595 16.3763C23.2091 16.9232 22.4648 17.2301 21.6889 17.2301C20.913 17.2301 20.1687 16.9232 19.6183 16.3763C19.068 15.8294 18.7563 15.087 18.7514 14.3111V6.95602C18.749 6.56871 18.8232 6.18474 18.9697 5.82621C19.1162 5.46768 19.3322 5.14166 19.6052 4.86693C19.8782 4.59219 20.2029 4.37416 20.5605 4.22538C20.9181 4.0766 21.3016 4 21.6889 4C22.0762 4 22.4597 4.0766 22.8173 4.22538C23.1749 4.37416 23.4996 4.59219 23.7726 4.86693C24.0456 5.14166 24.2616 5.46768 24.4081 5.82621C24.5546 6.18474 24.6288 6.56871 24.6264 6.95602V14.3111Z" fill="currentColor"/>
<path d="M21.6889 26.1065C22.2699 26.1065 22.8379 26.2788 23.321 26.6015C23.8041 26.9243 24.1806 27.3831 24.4029 27.9199C24.6253 28.4566 24.6835 29.0473 24.5701 29.6171C24.4568 30.1869 24.177 30.7104 23.7662 31.1212C23.3554 31.532 22.8319 31.8118 22.2621 31.9251C21.6923 32.0385 21.1016 31.9803 20.5649 31.7579C20.0281 31.5356 19.5693 31.1591 19.2465 30.676C18.9238 30.1929 18.7515 29.6249 18.7515 29.0439V26.1065H21.6889Z" fill="currentColor"/>
<path d="M21.6889 24.6264C20.913 24.6215 20.1706 24.3098 19.6237 23.7595C19.0768 23.2091 18.7699 22.4648 18.7699 21.6889C18.7699 20.913 19.0768 20.1687 19.6237 19.6183C20.1706 19.068 20.913 18.7563 21.6889 18.7514H29.044C29.4313 18.749 29.8153 18.8232 30.1738 18.9697C30.5323 19.1162 30.8583 19.3322 31.1331 19.6052C31.4078 19.8782 31.6258 20.2029 31.7746 20.5605C31.9234 20.9181 32 21.3016 32 21.6889C32 22.0762 31.9234 22.4597 31.7746 22.8173C31.6258 23.1749 31.4078 23.4996 31.1331 23.7726C30.8583 24.0456 30.5323 24.2616 30.1738 24.4081C29.8153 24.5546 29.4313 24.6288 29.044 24.6264H21.6889Z" fill="currentColor"/>
</svg>
