<svg width="36" height="36" viewBox="0 0 36 36" fill="none" xmlns="http://www.w3.org/2000/svg">
<path d="M18 8C21.2211 8.00112 23.5623 10.2826 23.5662 13.6365C23.5671 14.422 23.5153 15.147 23.558 15.8133C23.5843 16.2245 23.5727 16.3572 23.9502 16.3572C24.0058 16.3572 24.4978 16.3555 24.5547 16.3417H25C25.0429 16.3312 25.1652 16.3417 25.2078 16.3417C25.4641 16.3417 26.0211 16.3572 26.0211 16.793C26.1024 17.1737 25.7645 17.4491 25.4094 17.5784L24.2439 18C23.8572 18.1621 23.4573 18.4241 23.5662 18.8422C24.7951 23.5611 27.9545 23.3142 27.9545 23.929C27.9545 24.701 25.7717 24.1745 25.538 24.4173C25.3043 24.6601 25.5279 25.8386 25.0056 26.0667C24.9072 26.1097 24.7673 26.1247 24.5967 26.1247C24.2034 26.1247 23.9783 26.0449 23.392 26.0449C22.8834 26.0449 22.3522 26.1049 21.8852 26.329C20.6463 26.9235 19.4518 28.0338 17.9712 28.0338C16.4905 28.0338 15.2961 26.9235 14.0572 26.329C13.5901 26.1049 13.059 26.0449 12.5504 26.0449C11.9641 26.0449 11.7791 26.1247 11.3858 26.1247C11.2154 26.1247 11.0753 26.1096 10.977 26.0667C10.4547 25.8386 10.7365 24.848 10.5028 24.6052C10.2691 24.3624 8.08576 24.772 8.08576 24C8.08576 23.3852 11.0705 23.5611 12.2994 18.8422C12.4083 18.4241 12.1429 17.8772 11.7561 17.715L10.2174 17.4437C9.86223 17.3143 9.65689 17.0394 9.73827 16.6588C9.79581 16.3893 10.0318 16.2074 10.2881 16.2075C10.3306 16.2075 10.3738 16.2125 10.4167 16.223L11.1334 16.3417C11.1903 16.3555 11.7018 16.3417 11.8672 16.3417C12.2907 16.3417 12.4735 16.2244 12.4998 15.8133C12.5425 15.147 12.5703 14.4424 12.5712 13.6568C12.5751 10.303 14.7788 8.00117 18 8ZM17.9898 6C17.0283 6.00032 16.0908 6.20099 15.2052 6.59647C14.3551 6.97604 13.59 7.51727 12.9312 8.20513C12.2733 8.89209 11.7555 9.68961 11.3922 10.5755C11.0146 11.4968 10.8225 12.4704 10.8213 13.4694C10.8208 13.9599 10.811 14.436 10.7921 14.8918L10.4167 14.8004C10.279 14.7668 10.1373 14.7498 9.99582 14.7497C9.58725 14.7497 9.18421 14.8931 8.86095 15.1536C8.52371 15.4254 8.28722 15.8124 8.19513 16.2434C7.97595 17.2693 8.5213 18.3049 9.46636 18.6691L10.5905 19.1405C9.84614 21.5137 8.47354 21.9685 7.54924 22.2748C7.30398 22.3561 7.09213 22.4263 6.89043 22.5302C6.08676 22.9446 6 23.6465 6 23.929C6 24.4702 6.24659 24.964 6.69442 25.3195C6.91739 25.4966 7.1936 25.6426 7.53878 25.7661C8.00926 25.9343 8.55466 26.0411 8.99793 26.1267C9.01935 26.2973 9.05076 26.4806 9.1037 26.6653C9.32349 27.4323 9.78731 27.7758 10.1377 27.9288C10.4702 28.0741 10.8137 28.0909 11.0432 28.0909C11.2677 28.0909 11.5049 28.0726 11.7561 28.0533C12.0256 28.0325 12.3043 28.0111 12.5792 28.0111C13.0053 28.0111 13.3224 28.0639 13.5488 28.1725C13.8596 28.3217 14.1892 28.5228 14.5382 28.7356C15.5097 29.3283 16.6108 30 18 30C19.3893 30 20.4903 29.3283 21.4618 28.7356C21.8108 28.5227 22.1404 28.3217 22.4513 28.1725C22.6776 28.0639 22.9948 28.0111 23.4208 28.0111C23.6957 28.0111 23.9744 28.0326 24.2439 28.0533C24.4951 28.0726 24.7323 28.0909 24.9568 28.0909C25.1863 28.0909 25.5298 28.0741 25.8623 27.9288C26.2127 27.7758 26.6765 27.4323 26.8963 26.6653C26.9492 26.4806 26.9807 26.2973 27.0021 26.1267C27.4453 26.0411 27.9908 25.9343 28.4612 25.7661C28.8065 25.6426 29.0826 25.4966 29.3056 25.3195C29.7534 24.964 30 24.4702 30 23.929C30 23.6465 29.9132 22.9446 29.1095 22.5303C28.9078 22.4263 28.6959 22.3561 28.4507 22.2749C27.5264 21.9686 26.1538 21.5137 25.4094 19.1405L26.5335 18.6692C27.4785 18.305 28.0239 17.2693 27.8048 16.2434C27.7127 15.8124 27.4762 15.4254 27.1389 15.1536C26.8157 14.8932 26.4128 14.7497 26.0043 14.7497C25.8628 14.7497 25.7212 14.7668 25.5833 14.8003L25.2078 14.8917C25.189 14.436 25.1792 13.9599 25.1786 13.4694C25.1774 12.4696 24.9838 11.4949 24.6031 10.5725C24.2377 9.687 23.7171 8.8897 23.0558 8.20268C22.3946 7.51572 21.6274 6.97508 20.7756 6.59583C19.8882 6.20083 18.951 6.00037 17.9898 6Z" fill="currentColor"/>
</svg>
