<svg width="36" height="36" viewBox="0 0 36 36" fill="none" xmlns="http://www.w3.org/2000/svg">
<path fill-rule="evenodd" clip-rule="evenodd" d="M29.9164 25.023C29.9002 25.0046 29.8816 24.9845 29.8602 24.9626C29.7171 24.8158 29.5039 24.6428 29.2005 24.4368C28.898 24.2316 28.561 24.0299 28.1757 23.802C28.1485 23.7859 28.121 23.7697 28.0932 23.7532C27.748 23.5492 27.356 23.3177 26.9972 23.0793C26.6147 22.8253 26.1724 22.5012 25.7963 22.1007C25.4205 21.7004 24.992 21.0979 24.8691 20.2864C24.6016 18.5212 25.892 17.2714 26.9958 16.4857C27.2971 16.2687 27.474 16.0362 27.5493 15.865C27.6079 15.7316 27.611 15.6387 27.563 15.5127L27.5579 15.4993L27.5579 15.4993C27.5344 15.4363 27.5103 15.4078 27.4946 15.3923C27.4763 15.3741 27.4427 15.348 27.3809 15.3232C27.2441 15.2682 27.0107 15.2399 26.7422 15.3081L24.2216 15.9482L24.25 13.3478C24.2567 12.7359 24.243 12.112 24.1926 11.5102C23.9217 8.27712 21.3017 6 17.9912 6C14.6853 6 12.0803 8.27287 11.7967 11.5135C11.7465 12.1143 11.7328 12.737 11.7395 13.3478L11.7679 15.9482L9.24731 15.3081C8.98294 15.241 8.75297 15.2692 8.6173 15.324C8.55583 15.3488 8.52152 15.3753 8.50227 15.3944C8.4855 15.411 8.46079 15.4406 8.43698 15.504L8.43368 15.5127C8.38566 15.6387 8.38873 15.7316 8.44738 15.865C8.52263 16.0362 8.69954 16.2687 9.00095 16.4858C10.1043 17.2711 11.3886 18.5192 11.1228 20.2815C11.0007 21.0907 10.5751 21.6929 10.2006 22.094C9.82586 22.4953 9.38497 22.8205 9.00311 23.0756C8.64231 23.3167 8.24836 23.5506 7.9016 23.7565C7.87626 23.7715 7.85117 23.7864 7.82637 23.8012C7.44135 24.0299 7.10435 24.2324 6.80124 24.4385C6.49727 24.6451 6.28249 24.8192 6.13748 24.9674C6.10947 24.996 6.08606 25.0217 6.06657 25.0443C6.07173 25.0496 6.07717 25.0549 6.08289 25.0604C6.13634 25.1116 6.19928 25.1573 6.26175 25.1916L6.26846 25.1953C6.39326 25.2645 6.55041 25.3168 6.99183 25.4618L7.00222 25.4652C7.35491 25.5811 7.96168 25.7803 8.52282 26.1603L8.62559 26.2299L8.71897 26.3117C9.12693 26.6689 9.42557 27.0156 9.64671 27.2831C9.71446 27.3651 9.76932 27.4322 9.81531 27.4884C9.94107 27.6421 10.0004 27.7146 10.0752 27.7892C10.1088 27.8227 10.1248 27.8343 10.1276 27.8362C10.1277 27.8363 10.1279 27.8364 10.128 27.8365C10.1286 27.837 10.1289 27.8372 10.1325 27.8387C10.1394 27.8417 10.236 27.8829 10.5119 27.8952C10.5838 27.8977 10.657 27.8999 10.7313 27.9022C11.8061 27.9352 13.1248 27.9758 14.5587 28.8836C15.4483 29.4392 16.3623 30 17.984 30C19.607 30 20.5266 29.4324 21.435 28.8693L21.4389 28.8668C22.881 27.9775 24.1188 27.9372 25.2275 27.9011C25.2878 27.8992 25.3477 27.8972 25.4073 27.8952C25.6831 27.8829 25.7905 27.8418 25.8116 27.8331C25.8122 27.8329 25.8128 27.8326 25.8134 27.8324C25.8232 27.8285 25.8427 27.8207 25.9008 27.7652C25.9867 27.6831 26.0634 27.592 26.2369 27.3857C26.2655 27.3518 26.2966 27.3148 26.3309 27.2742C26.5466 27.0183 26.8391 26.6799 27.2299 26.3287L27.3076 26.2589L27.3921 26.1976C27.9724 25.7765 28.6182 25.5694 28.9738 25.4554L28.9847 25.4519C29.4473 25.3035 29.5859 25.259 29.6917 25.1997L29.7091 25.19L29.7092 25.1901C29.7422 25.172 29.8001 25.134 29.9164 25.023ZM10.4338 29.8936C9.15209 29.8394 8.7456 29.3414 8.22281 28.7009C7.99721 28.4245 7.74996 28.1216 7.40138 27.8163C7.06781 27.5905 6.66923 27.4603 6.26898 27.3296C5.93457 27.2204 5.59898 27.1109 5.29916 26.9447C4.44582 26.4762 3.73275 25.4995 4.09788 24.4825C4.46858 23.4694 5.70918 22.7325 6.86888 22.0437C8.74475 20.9295 10.409 19.941 7.83756 18.1126C6.78355 17.356 6.05964 16.1261 6.56478 14.8005C6.84647 14.0509 7.42568 13.589 8.10303 13.3876C8.62088 13.2335 9.1961 13.2316 9.73958 13.3696C9.73243 12.716 9.74673 12.0259 9.80393 11.3432C9.80394 11.3431 9.80395 11.3429 9.80397 11.3428C10.1822 6.99955 13.7164 4 17.9912 4C22.2595 4 25.821 6.99413 26.1855 11.3427C26.1855 11.3429 26.1856 11.343 26.1856 11.3432C26.2428 12.0259 26.2571 12.716 26.2499 13.3696C26.7969 13.2308 27.3767 13.2322 27.8981 13.3877C28.5743 13.5894 29.1521 14.0503 29.4319 14.8005C29.937 16.1261 29.2131 17.356 28.1591 18.1126C25.5816 19.9453 27.2442 20.9281 29.1205 22.0372C30.2853 22.7257 31.5326 23.463 31.8988 24.4825C32.1204 25.0781 31.9846 25.7608 31.4268 26.3419C31.1957 26.5767 30.9588 26.7862 30.6689 26.9447C30.3784 27.1074 30.0456 27.2132 29.7135 27.3187C29.3028 27.4492 28.8933 27.5794 28.5667 27.8163C28.2401 28.1098 27.9978 28.3988 27.7756 28.6637C27.22 29.3263 26.7906 29.8384 25.4854 29.8936C25.4449 29.8951 25.4048 29.8964 25.3651 29.8978C24.2357 29.9367 23.4717 29.963 22.4888 30.5691L22.472 30.5795C21.5011 31.1814 20.1808 32 17.984 32C15.7745 32 14.4589 31.1793 13.4936 30.5764C12.5297 29.9645 11.7098 29.9368 10.6008 29.8994C10.5459 29.8975 10.4902 29.8956 10.4338 29.8936Z" fill="currentColor"/>
</svg>
