<svg width="36" height="36" viewBox="0 0 36 36" fill="none" xmlns="http://www.w3.org/2000/svg">
<path fill-rule="evenodd" clip-rule="evenodd" d="M10 4V2H12V4H24V2H26V4H27C29.7614 4 32 6.23858 32 9V18H30V12H6V27C6 28.6569 7.34315 30 9 30H20V32H9C6.23858 32 4 29.7614 4 27V9C4 6.23858 6.23858 4 9 4H10ZM10 8V6H9C7.34315 6 6 7.34315 6 9V10H30V9C30 7.34315 28.6569 6 27 6H26V8H24V6H12V8H10ZM29 21.9685L33.7073 26.6756L32.2931 28.0898L30 25.7968V34H28V25.7969L25.7071 28.0898L24.2929 26.6756L29 21.9685Z" fill="currentColor"/>
</svg>
