<svg width="36" height="36" viewBox="0 0 36 36" fill="none" xmlns="http://www.w3.org/2000/svg">
<path fill-rule="evenodd" clip-rule="evenodd" d="M9.93342 4.68342C10.371 4.24583 10.9645 4 11.5833 4H23.4502C24.069 4 24.6625 4.24583 25.1001 4.68342L30.3501 9.93342C31.2613 10.8446 31.2613 12.322 30.3501 13.2332L25.5833 18L30.3501 22.7667C31.2613 23.678 31.2613 25.1554 30.3501 26.0666L25.1001 31.3166C24.6625 31.7542 24.069 32 23.4502 32H11.5833C10.9645 32 10.371 31.7542 9.93342 31.3166L4.68342 26.0666C3.7722 25.1554 3.77219 23.678 4.68342 22.7667L9.45017 18L4.68342 13.2332C3.7722 12.322 3.77219 10.8446 4.68342 9.93342L9.93342 4.68342ZM13.9167 29.6667H23.4502L28.7002 24.4167L19.9001 15.6166C19.4445 15.161 19.4445 14.4223 19.9001 13.9667C20.3557 13.5111 21.0944 13.5111 21.55 13.9667L23.9334 16.3501L28.7002 11.5833L23.4502 6.33333L11.5833 6.33333L6.33333 11.5833L17.5167 22.7667C18.428 23.678 18.428 25.1554 17.5167 26.0666L13.9167 29.6667Z" fill="currentColor"/>
</svg>
