<svg width="36" height="36" viewBox="0 0 36 36" fill="none" xmlns="http://www.w3.org/2000/svg">
<path d="M24 31C24 32.6569 22.6569 34 21 34C19.3431 34 18 32.6569 18 31C18 29.3431 19.3431 28 21 28C22.6569 28 24 29.3431 24 31Z" fill="currentColor"/>
<path fill-rule="evenodd" clip-rule="evenodd" d="M28 4C26.8954 4 26 4.89543 26 6C26 7.10457 26.8954 8 28 8C29.1046 8 30 7.10457 30 6C30 4.89543 29.1046 4 28 4ZM24 6C24 3.79086 25.7909 2 28 2C30.2091 2 32 3.79086 32 6C32 8.20914 30.2091 10 28 10C25.7909 10 24 8.20914 24 6ZM6 10H21.5858C22.1162 10 22.6249 10.2107 23 10.5858L31 18.5858C31.781 19.3668 31.781 20.6332 31 21.4142L26.7071 25.7071L25.2929 24.2929L29.5858 20L26 16.4142L8.70711 33.7071L7.29289 32.2929L24.5858 15L21.5858 12H6V10ZM9.29289 23.2929L15.2929 17.2929L16.7071 18.7071L10.7071 24.7071L9.29289 23.2929Z" fill="currentColor"/>
</svg>
