<svg width="36" height="36" viewBox="0 0 36 36" fill="none" xmlns="http://www.w3.org/2000/svg">
<path d="M12 16C13.1046 16 14 15.1046 14 14C14 12.8954 13.1046 12 12 12C10.8954 12 10 12.8954 10 14C10 15.1046 10.8954 16 12 16Z" fill="currentColor"/>
<path d="M18.0005 24C18.6845 24 19.3606 23.8831 20.0005 23.6569V25.746C19.3499 25.9139 18.6781 26 18.0005 26C16.5962 26 15.2166 25.6304 14.0005 24.9282C12.7843 24.2261 11.7744 23.2162 11.0723 22L12.8043 21C13.3309 21.9121 14.0884 22.6695 15.0005 23.1962C15.9126 23.7228 16.9472 24 18.0005 24Z" fill="currentColor"/>
<path d="M26 14C26 15.1046 25.1046 16 24 16C22.8954 16 22 15.1046 22 14C22 12.8954 22.8954 12 24 12C25.1046 12 26 12.8954 26 14Z" fill="currentColor"/>
<path fill-rule="evenodd" clip-rule="evenodd" d="M2 18C2 9.16344 9.16344 2 18 2C26.8366 2 34 9.16344 34 18C34 19.6983 33.7351 21.3366 33.2435 22.8749C33.0995 23.3255 32.8454 23.7153 32.533 24.0277L24.0277 32.533C23.7153 32.8454 23.3255 33.0995 22.8749 33.2435C21.3366 33.7351 19.6983 34 18 34C9.16344 34 2 26.8366 2 18ZM18 4C10.268 4 4 10.268 4 18C4 25.732 10.268 32 18 32C19.3914 32 20.7337 31.7973 22 31.4205L22 25C22 23.3431 23.3431 22 25 22L31.4205 22C31.7973 20.7337 32 19.3914 32 18C32 10.268 25.732 4 18 4ZM24 29.7323L24 25C24 24.4477 24.4477 24 25 24L29.7323 24L24 29.7323Z" fill="currentColor"/>
</svg>
