<svg width="36" height="36" viewBox="0 0 36 36" fill="none" xmlns="http://www.w3.org/2000/svg">
<path fill-rule="evenodd" clip-rule="evenodd" d="M4 9C4 6.23858 6.23858 4 9 4H27C29.7614 4 32 6.23858 32 9V27C32 29.7614 29.7614 32 27 32H9C6.23858 32 4 29.7614 4 27V9ZM9 6C7.34315 6 6 7.34315 6 9V12H30V9C30 7.34315 28.6569 6 27 6H9ZM14 14H6V18H14V14ZM16 18V14H30V18H16ZM14 20H6V24H14V20ZM16 24V20H30V24H16ZM14 26H6V27C6 28.6569 7.34315 30 9 30H14V26ZM16 26H30V27C30 28.6569 28.6569 30 27 30H16V26Z" fill="currentColor"/>
</svg>
