<svg width="36" height="36" viewBox="0 0 36 36" fill="none" xmlns="http://www.w3.org/2000/svg">
<path fill-rule="evenodd" clip-rule="evenodd" d="M9 6C7.34315 6 6 7.34315 6 9V12H4V9C4 6.23858 6.23858 4 9 4H12V6H9ZM27 6H24V4H27C29.7614 4 32 6.23858 32 9V12H30V9C30 7.34315 28.6569 6 27 6ZM17 8H19V16H17V8ZM8 19V17H16V19H8ZM28 17V19H20V17H28ZM19 28H17V20H19V28ZM6 24V27C6 28.6569 7.34315 30 9 30H12V32H9C6.23858 32 4 29.7614 4 27V24H6ZM30 27V24H32V27C32 29.7614 29.7614 32 27 32H24V30H27C28.6569 30 30 28.6569 30 27Z" fill="currentColor"/>
</svg>
