<svg width="36" height="36" viewBox="0 0 36 36" fill="none" xmlns="http://www.w3.org/2000/svg">
<path fill-rule="evenodd" clip-rule="evenodd" d="M12 8V16.0002L18 16V16C18.5253 16 19.0454 15.8965 19.5307 15.6955C20.016 15.4945 20.457 15.1999 20.8284 14.8284C21.1999 14.457 21.4945 14.016 21.6955 13.5307C21.8965 13.0454 22 12.5253 22 12C22 11.4747 21.8965 10.9546 21.6955 10.4693C21.4945 9.98396 21.1999 9.54301 20.8284 9.17157C20.457 8.80014 20.016 8.5055 19.5307 8.30448C19.0454 8.10346 18.5253 8 18 8H12ZM24.1255 17.1458C24.6505 16.5208 25.0776 15.8181 25.391 15.0615C25.7931 14.0909 26 13.0506 26 12C26 10.9494 25.7931 9.90914 25.391 8.93853C24.989 7.96793 24.3997 7.08601 23.6569 6.34315C22.914 5.60028 22.0321 5.011 21.0615 4.60896C20.0909 4.20693 19.0506 4 18 4H11C9.34315 4 8 5.34315 8 7V29.0002C8 30.657 9.34315 32.0002 11 32.0002H20C21.0509 32.0002 22.0911 31.793 23.0615 31.391C24.0321 30.989 24.914 30.3997 25.6569 29.6569C26.3997 28.914 26.989 28.0321 27.391 27.0615C27.7931 26.0909 28 25.0506 28 24C28 22.9494 27.7931 21.9091 27.391 20.9385C26.989 19.9679 26.3997 19.086 25.6569 18.3431C25.1959 17.8822 24.6814 17.4804 24.1255 17.1458ZM20 20L12 20.0002V28.0002H20C20.525 28.0002 21.0451 27.8967 21.5307 27.6955C22.016 27.4945 22.457 27.1999 22.8284 26.8284C23.1999 26.457 23.4945 26.016 23.6955 25.5307C23.8965 25.0454 24 24.5253 24 24C24 23.4747 23.8965 22.9546 23.6955 22.4693C23.4945 21.984 23.1999 21.543 22.8284 21.1716C22.457 20.8001 22.016 20.5055 21.5307 20.3045C21.0454 20.1035 20.5253 20 20 20C20 20 20 20 20 20Z" fill="currentColor"/>
</svg>
