<svg width="36" height="36" viewBox="0 0 36 36" fill="none" xmlns="http://www.w3.org/2000/svg">
<path fill-rule="evenodd" clip-rule="evenodd" d="M15.5978 4.59269C17.5932 3.86948 19.8144 3.80642 21.8562 4.41288C22.8648 4.71244 23.7885 5.15317 24.4502 5.51061C24.7838 5.69079 25.0571 5.85328 25.2489 5.97191C25.3449 6.03129 25.4208 6.0799 25.4739 6.1145L25.5362 6.15556L25.5541 6.16749L25.5595 6.17119L25.5614 6.17245C25.5615 6.17254 25.5627 6.17331 25 7C24.4373 7.82668 24.4375 7.82676 24.4376 7.82684L24.4271 7.81986L24.3823 7.79033C24.3412 7.76359 24.2785 7.72335 24.1966 7.67271C24.0327 7.57129 23.7935 7.429 23.4997 7.2703C22.9066 6.94994 22.1161 6.57643 21.2868 6.3301C19.6529 5.84479 17.8701 5.89642 16.2793 6.473C14.689 7.04938 13.4262 8.09969 12.6962 9.39496C11.9693 10.6846 11.8084 12.146 12.2288 13.5189L12.2394 13.5538L12.2428 13.5683C12.2447 13.5743 12.2482 13.5844 12.2534 13.5983C12.2698 13.642 12.3042 13.7237 12.3664 13.8339C12.49 14.0527 12.7283 14.3931 13.1687 14.7773C14.0403 15.5378 15.759 16.5166 19.0718 17H32V19H25.1845C25.5535 19.2355 25.8718 19.4762 26.1461 19.7156C26.7626 20.2535 27.1435 20.7726 27.3752 21.1829C27.4905 21.3871 27.5677 21.5624 27.6183 21.6969C27.6436 21.7642 27.6623 21.8211 27.6758 21.8664C27.6816 21.8857 27.6864 21.9029 27.6904 21.9178C28.266 23.8191 28.0323 25.8373 27.0461 27.587C26.0593 29.338 24.3982 30.6839 22.4022 31.4073C20.4068 32.1305 18.1856 32.1936 16.1438 31.5871C15.068 31.2676 13.8529 30.534 12.9677 29.9399C12.5111 29.6334 12.1152 29.3453 11.8333 29.1338C11.6921 29.0279 11.5789 28.9406 11.5001 28.8793L11.4086 28.8074L11.3837 28.7876L11.3767 28.782L11.3746 28.7803C11.3745 28.7802 11.3734 28.7794 12 28L12.6264 27.2205L12.6313 27.2244L12.6505 27.2397L12.7297 27.3018C12.7998 27.3565 12.9033 27.4362 13.0337 27.5341C13.295 27.7301 13.6616 27.9968 14.0823 28.2792C14.9519 28.8629 15.9511 29.4435 16.7132 29.6699C18.3471 30.1552 20.1299 30.1036 21.7207 29.527C23.311 28.9506 24.5738 27.9003 25.3038 26.605C26.0307 25.3154 26.1916 23.854 25.7712 22.4811L25.7606 22.4462L25.7572 22.4317C25.7553 22.4257 25.7518 22.4156 25.7466 22.4017C25.7302 22.358 25.6958 22.2763 25.6336 22.1661C25.51 21.9473 25.2717 21.6069 24.8313 21.2227C23.9597 20.4622 22.241 19.4834 18.9282 19H4V17H12.8155C12.4465 16.7645 12.1282 16.5238 11.8539 16.2844C11.2374 15.7465 10.8565 15.2274 10.6248 14.8171C10.5095 14.6129 10.4323 14.4376 10.3817 14.3031C10.3564 14.2358 10.3377 14.1789 10.3242 14.1336C10.3184 14.1143 10.3136 14.0972 10.3096 14.0822C9.734 12.1809 9.96772 10.1627 10.9539 8.41299C11.9407 6.66202 13.6018 5.3161 15.5978 4.59269Z" fill="currentColor"/>
</svg>
