<svg width="36" height="36" viewBox="0 0 36 36" fill="none" xmlns="http://www.w3.org/2000/svg">
<path fill-rule="evenodd" clip-rule="evenodd" d="M17.5 8.10547C11.701 8.10547 7 12.8065 7 18.6055C7 24.4045 11.701 29.1055 17.5 29.1055C19.1501 29.1055 20.7073 28.7259 22.0929 28.0507L22.5486 27.8286L27.0111 28.7258L26.4524 24.1171L26.6884 23.6917C27.5237 22.1863 28 20.4537 28 18.6055C28 12.8065 23.299 8.10547 17.5 8.10547ZM4 18.6055C4 11.1496 10.0442 5.10547 17.5 5.10547C24.9558 5.10547 31 11.1496 31 18.6055C31 20.7982 30.4761 22.8725 29.5458 24.7062L30.4889 32.4851L22.9351 30.9663C21.2706 31.6992 19.431 32.1055 17.5 32.1055C10.0442 32.1055 4 26.0613 4 18.6055Z" fill="currentColor"/>
</svg>
