<svg width="36" height="36" viewBox="0 0 36 36" fill="none" xmlns="http://www.w3.org/2000/svg">
<path fill-rule="evenodd" clip-rule="evenodd" d="M18.1893 4.04481C18.7751 3.45902 19.7249 3.45902 20.3107 4.04481L24.8107 8.54481C25.3964 9.1306 25.3964 10.0803 24.8107 10.6661L20.3107 15.1661C19.7249 15.7519 18.7751 15.7519 18.1893 15.1661C17.6036 14.5803 17.6036 13.6306 18.1893 13.0448L20.1287 11.1055H12.5C10.8431 11.1055 9.5 12.4486 9.5 14.1055V20.8555C9.5 21.6839 8.82843 22.3555 8 22.3555C7.17157 22.3555 6.5 21.6839 6.5 20.8555V14.1055C6.5 10.7918 9.18629 8.10547 12.5 8.10547H20.1287L18.1893 6.16613C17.6036 5.58034 17.6036 4.63059 18.1893 4.04481ZM29 14.8555C29.8284 14.8555 30.5 15.527 30.5 16.3555V23.1055C30.5 26.4192 27.8137 29.1055 24.5 29.1055L16.8713 29.1055L18.8107 31.0448C19.3964 31.6306 19.3964 32.5803 18.8107 33.1661C18.2249 33.7519 17.2751 33.7519 16.6893 33.1661L12.1893 28.6661C11.6036 28.0803 11.6036 27.1306 12.1893 26.5448L16.6893 22.0448C17.2751 21.459 18.2249 21.459 18.8107 22.0448C19.3964 22.6306 19.3964 23.5803 18.8107 24.1661L16.8713 26.1055L24.5 26.1055C26.1569 26.1055 27.5 24.7623 27.5 23.1055V16.3555C27.5 15.527 28.1716 14.8555 29 14.8555Z" fill="currentColor"/>
</svg>
