<svg width="36" height="36" viewBox="0 0 36 36" fill="none" xmlns="http://www.w3.org/2000/svg">
<path d="M27 25.5859L28.707 27.293L27.293 28.707L25 26.4141V22H27V25.5859Z" fill="currentColor"/>
<path fill-rule="evenodd" clip-rule="evenodd" d="M26 18C30.4183 18 34 21.5817 34 26C34 30.4183 30.4183 34 26 34C21.5817 34 18 30.4183 18 26C18 21.5817 21.5817 18 26 18ZM26 20C22.6863 20 20 22.6863 20 26C20 29.3137 22.6863 32 26 32C29.3137 32 32 29.3137 32 26C32 22.6863 29.3137 20 26 20Z" fill="currentColor"/>
<path d="M29 6C31.7614 6 34 8.23858 34 11V14H32V11C32 9.34315 30.6569 8 29 8H14V12H12V8H7C5.34315 8 4 9.34315 4 11V12.3496C4.09888 12.3846 4.19975 12.4168 4.29688 12.457C5.02453 12.7586 5.68523 13.2009 6.24219 13.7578C6.79914 14.3148 7.24145 14.9755 7.54297 15.7031C7.8445 16.4311 8 17.2121 8 18C8 18.7879 7.8445 19.5689 7.54297 20.2969C7.24145 21.0245 6.79914 21.6852 6.24219 22.2422C5.68523 22.7991 5.02453 23.2414 4.29688 23.543C4.19995 23.5831 4.09867 23.6135 4 23.6484V25C4 26.6569 5.34315 28 7 28H12V24H14V30H7C4.23858 30 2 27.7614 2 25V22C2.52529 22 3.04595 21.8963 3.53125 21.6953C4.01635 21.4943 4.45682 21.1994 4.82812 20.8281C5.19943 20.4568 5.4943 20.0163 5.69531 19.5312C5.89633 19.0459 6 18.5253 6 18C6 17.4747 5.89633 16.9541 5.69531 16.4688C5.4943 15.9837 5.19943 15.5432 4.82812 15.1719C4.45682 14.8006 4.01635 14.5057 3.53125 14.3047C3.04595 14.1037 2.52529 14 2 14V11C2 8.23858 4.23858 6 7 6H29Z" fill="currentColor"/>
<path d="M14 20H12V16H14V20Z" fill="currentColor"/>
</svg>
