<svg width="36" height="36" viewBox="0 0 36 36" fill="none" xmlns="http://www.w3.org/2000/svg">
<path fill-rule="evenodd" clip-rule="evenodd" d="M14 26.141V6.28652L21.7947 9.40441C21.8625 9.43151 21.931 9.45604 22 9.478V13.8095H24V9.41353C24.0848 9.38043 24.1684 9.34333 24.2505 9.30226L30 6.42752L30 13.8095H32V6.42752C32 4.94076 30.4354 3.97377 29.1056 4.63867L23.3561 7.51341C23.1006 7.64115 22.8027 7.65354 22.5375 7.54746L14.2053 4.21457C13.4097 3.89632 12.5159 3.9335 11.7495 4.31672L5.65836 7.36228C4.64201 7.87045 4 8.90924 4 10.0456V29.1915C4 30.6782 5.56462 31.6452 6.89443 30.9803L12.6439 28.1056C12.8994 27.9778 13.1973 27.9654 13.4625 28.0715L17.6286 29.738L18.3714 27.881L14.2053 26.2146C14.1375 26.1875 14.069 26.1629 14 26.141ZM12 6.42752V26.2054C12 26.2054 7.97449 28.2042 6 29.1915V10.0456C6 9.66679 6.214 9.32052 6.55279 9.15113L12 6.42752ZM26 22C26 20.8954 26.8954 20 28 20C29.1046 20 30 20.8954 30 22C30 23.1046 29.1046 24 28 24C26.8954 24 26 23.1046 26 22ZM28 18C25.7909 18 24 19.7909 24 22C24 24.2091 25.7909 26 28 26C30.2091 26 32 24.2091 32 22C32 19.7909 30.2091 18 28 18ZM27 28C24.2386 28 22 30.2386 22 33V34H24V33C24 31.3431 25.3431 30 27 30H29C30.6569 30 32 31.3431 32 33V34H34V33C34 30.2386 31.7614 28 29 28H27Z" fill="currentColor"/>
</svg>
