<svg width="36" height="36" viewBox="0 0 36 36" fill="none" xmlns="http://www.w3.org/2000/svg">
<path fill-rule="evenodd" clip-rule="evenodd" d="M3 3H11V5H6.41421L10 8.58579L12.2929 6.29289L13.7071 7.70711L11.4142 10L13.0944 11.6801C14.449 10.6271 16.1513 10 18 10C19.8487 10 21.551 10.6271 22.9056 11.6801L29.5858 5H25V3H33V11H31V6.41421L24.3199 13.0944C25.3729 14.449 26 16.1513 26 18C26 22.0796 22.9463 25.446 19 25.9381V28H24V30H19V34H17V30H12V28H17V25.9381C13.0537 25.446 10 22.0796 10 18C10 16.1513 10.6271 14.449 11.6801 13.0944L10 11.4142L7.70711 13.7071L6.29289 12.2929L8.58579 10L5 6.41421V11H3V3ZM18 12C14.6863 12 12 14.6863 12 18C12 21.3137 14.6863 24 18 24C21.3137 24 24 21.3137 24 18C24 14.6863 21.3137 12 18 12Z" fill="currentColor"/>
</svg>
