<svg width="36" height="36" viewBox="0 0 36 36" fill="none" xmlns="http://www.w3.org/2000/svg">
<path fill-rule="evenodd" clip-rule="evenodd" d="M18 4C10.268 4 4 10.268 4 18C4 25.732 10.268 32 18 32C25.732 32 32 25.732 32 18C32 10.268 25.732 4 18 4ZM2 18C2 9.16344 9.16344 2 18 2C26.8366 2 34 9.16344 34 18C34 26.8366 26.8366 34 18 34C9.16344 34 2 26.8366 2 18ZM16 8C16 6.89543 16.8954 6 18 6C19.1046 6 20 6.89543 20 8C20 9.10457 19.1046 10 18 10C16.8954 10 16 9.10457 16 8ZM21.4462 15.968L25.7071 11.7071L24.2929 10.2929L20.032 14.5538C19.4365 14.2019 18.7418 14 18 14C15.7909 14 14 15.7909 14 18C14 18.7418 14.2019 19.4365 14.5538 20.032L10.2929 24.2929L11.7071 25.7071L15.968 21.4462C16.5635 21.7981 17.2582 22 18 22C20.2091 22 22 20.2091 22 18C22 17.2582 21.7981 16.5635 21.4462 15.968ZM18 16C16.8954 16 16 16.8954 16 18C16 19.1046 16.8954 20 18 20C19.1046 20 20 19.1046 20 18C20 16.8954 19.1046 16 18 16Z" fill="currentColor"/>
</svg>
