<svg width="36" height="36" viewBox="0 0 36 36" fill="none" xmlns="http://www.w3.org/2000/svg">
<g clip-path="url(#clip0_22453_458)">
<path d="M18 2C9.14667 2 2 9.14667 2 18C2 26.8533 9.14667 34 18 34C26.8533 34 34 26.8533 34 18C34 9.14667 26.8533 2 18 2ZM18 29.7333C11.4933 29.7333 6.26667 24.5067 6.26667 18C6.26667 11.4933 11.4933 6.26667 18 6.26667C24.5067 6.26667 29.7333 11.4933 29.7333 18C29.7333 24.5067 24.5067 29.7333 18 29.7333ZM25.2533 14.0533C25.2533 15.8667 23.76 17.36 21.9467 17.36C20.1333 17.36 18.64 15.8667 18.64 14.0533C18.64 12.24 20.1333 10.7467 21.9467 10.7467C23.76 10.7467 25.2533 12.24 25.2533 14.0533ZM25.2533 21.9467C25.2533 23.76 23.76 25.2533 21.9467 25.2533C20.1333 25.2533 18.64 23.76 18.64 21.9467C18.64 20.1333 20.1333 18.64 21.9467 18.64C23.76 18.64 25.2533 20.1333 25.2533 21.9467ZM17.36 21.9467C17.36 23.76 15.8667 25.2533 14.0533 25.2533C12.24 25.2533 10.7467 23.76 10.7467 21.9467C10.7467 20.1333 12.24 18.64 14.0533 18.64C15.8667 18.64 17.36 20.1333 17.36 21.9467ZM17.36 14.0533C17.36 15.8667 15.8667 17.36 14.0533 17.36C12.24 17.36 10.7467 15.8667 10.7467 14.0533C10.7467 12.24 12.24 10.7467 14.0533 10.7467C15.8667 10.7467 17.36 12.24 17.36 14.0533Z" fill="currentColor"/>
</g>
<defs>
<clipPath id="clip0_22453_458">
<rect width="18" height="18" fill="white" transform="scale(2)"/>
</clipPath>
</defs>
</svg>
