<svg width="36" height="36" viewBox="0 0 36 36" fill="none" xmlns="http://www.w3.org/2000/svg">
<path fill-rule="evenodd" clip-rule="evenodd" d="M15.7267 6.18569C12.8564 6.65795 10.1837 8.01694 8.10017 10.1005C6.18137 12.0193 4.87704 14.4378 4.31392 17.0501C4.37447 17.0118 4.43637 16.9744 4.49967 16.9378C5.5638 16.3234 6.77091 16 7.99967 16C9.22842 16 10.4355 16.3234 11.4997 16.9378C11.7286 17.07 11.9385 17.2135 12.1324 17.3663C12.2614 15.8401 12.5177 13.8049 13.0295 11.7575C13.5698 9.59634 14.6408 7.73309 15.5554 6.42654C15.6131 6.34418 15.6702 6.26388 15.7267 6.18569ZM14.1595 17.1516C14.2921 15.7453 14.5333 13.9888 14.9698 12.2425C15.4295 10.4037 16.3585 8.76691 17.1939 7.57346C17.4863 7.1557 17.7638 6.79728 17.9997 6.50906C18.2356 6.79728 18.513 7.1557 18.8054 7.57346C19.6409 8.76691 20.5698 10.4037 21.0295 12.2425C21.4661 13.9888 21.7072 15.7453 21.8398 17.1516C21.7312 17.0775 21.618 17.0061 21.4997 16.9378C20.4355 16.3234 19.2284 16 17.9997 16C16.7709 16 15.5638 16.3234 14.4997 16.9378C14.3814 17.0061 14.2681 17.0775 14.1595 17.1516ZM23.867 17.3663C23.7379 15.8401 23.4817 13.8049 22.9698 11.7575C22.4295 9.59634 21.3585 7.73309 20.4439 6.42654C20.3863 6.34418 20.3291 6.26388 20.2726 6.18569C23.1429 6.65795 25.8156 8.01695 27.8992 10.1005C29.818 12.0193 31.1223 14.4378 31.6854 17.0501C31.6249 17.0118 31.563 16.9744 31.4997 16.9378C30.4355 16.3234 29.2284 16 27.9997 16C26.7709 16 25.5638 16.3234 24.4997 16.9378C24.2708 17.07 24.0609 17.2135 23.867 17.3663ZM16.9997 4.03125C13.1211 4.27398 9.44997 5.92228 6.68596 8.68629C4.06243 11.3098 2.44411 14.7506 2.07879 18.4103C2.00346 19.165 2.50765 19.6896 3.03457 19.8605C3.53609 20.0232 4.17463 19.9187 4.601 19.4236C4.86013 19.1227 5.14715 18.8734 5.49967 18.6699C6.25976 18.231 7.12198 18 7.99967 18C8.87735 18 9.73957 18.231 10.4997 18.6699C11.1862 19.0662 11.6393 19.6438 12.1336 20.5L12.9997 22L13.8657 20.5C14.36 19.6438 14.8132 19.0662 15.4997 18.6699C15.9677 18.3997 16.4744 18.2082 16.9997 18.101V29C16.9997 29.7956 16.6836 30.5587 16.121 31.1213C15.5584 31.6839 14.7953 32 13.9997 32C13.204 32 12.441 31.6839 11.8783 31.1213C11.3157 30.5587 10.9997 29.7956 10.9997 29H8.99967C8.99967 30.3261 9.52645 31.5979 10.4641 32.5355C11.4018 33.4732 12.6736 34 13.9997 34C15.3258 34 16.5975 33.4732 17.5352 32.5355C18.4729 31.5979 18.9997 30.3261 18.9997 29V18.101C19.5249 18.2082 20.0316 18.3997 20.4997 18.6699C21.1862 19.0662 21.6393 19.6438 22.1336 20.5L22.9997 22L23.8657 20.5C24.36 19.6438 24.8131 19.0662 25.4997 18.6699C26.2598 18.231 27.122 18 27.9997 18C28.8773 18 29.7396 18.231 30.4997 18.6699C30.8522 18.8734 31.1392 19.1227 31.3983 19.4236C31.8247 19.9187 32.4632 20.0232 32.9648 19.8605C33.4917 19.6896 33.9959 19.165 33.9205 18.4103C33.5552 14.7506 31.9369 11.3098 29.3134 8.68629C26.5494 5.92228 22.8782 4.27398 18.9997 4.03125L18.9997 2H16.9997L16.9997 4.03125Z" fill="currentColor"/>
</svg>
