<svg width="36" height="36" viewBox="0 0 36 36" fill="none" xmlns="http://www.w3.org/2000/svg">
<path d="M19.4144 18.0002L33.7072 32.293L32.293 33.7072L18.0002 19.4144L13.7073 23.7073L12.293 22.293L16.5859 18.0002L2.29297 3.70718L3.70718 2.29297L18.0002 16.5859L18.0224 16.5637L19.4366 17.9779L19.4144 18.0002Z" fill="currentColor"/>
<path d="M19.7574 7.75743C22.1005 5.41429 25.8995 5.41429 28.2427 7.75743C30.5858 10.1006 30.5857 13.8995 28.2426 16.2427L24.2841 20.3019L25.716 21.6982L29.6614 17.6524C32.7811 14.5278 32.7795 9.4659 29.6569 6.34322C26.5342 3.22055 21.4723 3.21903 18.3477 6.33864L14.3019 10.2841L15.6982 11.716L19.7485 7.76631L19.7574 7.75743Z" fill="currentColor"/>
<path d="M7.75749 19.7575L11.7159 15.6982L10.2841 14.3019L6.33861 18.3478C3.21903 21.4724 3.22056 26.5343 6.34322 29.6569C9.46589 32.7796 14.5278 32.7811 17.6524 29.6615L21.6982 25.716L20.3018 24.2841L16.2516 28.2338L16.2427 28.2427C13.8996 30.5859 10.1006 30.5859 7.75743 28.2427C5.41429 25.8996 5.41434 22.1006 7.75749 19.7575Z" fill="currentColor"/>
<path d="M20.7095 16.7051L19.2952 15.2908L22.293 12.293L23.7073 13.7073L20.7095 16.7051Z" fill="currentColor"/>
</svg>
