<svg width="36" height="36" viewBox="0 0 36 36" fill="none" xmlns="http://www.w3.org/2000/svg">
<path fill-rule="evenodd" clip-rule="evenodd" d="M12 10C12 6.68629 14.6863 4 18 4C21.3137 4 24 6.68629 24 10C24 13.3137 21.3137 16 18 16C14.6863 16 12 13.3137 12 10ZM18 2C13.5817 2 10 5.58172 10 10C10 14.4183 13.5817 18 18 18C22.4183 18 26 14.4183 26 10C26 5.58172 22.4183 2 18 2ZM17 20C10.9249 20 6 24.9249 6 31V34H8V31C8 26.0294 12.0294 22 17 22H19C19.9424 22 20.8492 22.1445 21.7004 22.4119L22.2996 20.5038C21.2568 20.1762 20.148 20 19 20H17ZM32.2932 24.293L29.0001 27.5859L25.7072 24.293L24.293 25.7072L27.5859 29.0001L24.293 32.293L25.7072 33.7072L29.0001 30.4143L32.293 33.7072L33.7072 32.293L30.4143 29.0001L33.7074 25.7072L32.2932 24.293Z" fill="currentColor"/>
</svg>
