<svg width="36" height="36" viewBox="0 0 36 36" fill="none" xmlns="http://www.w3.org/2000/svg">
<path fill-rule="evenodd" clip-rule="evenodd" d="M10 6C8.89543 6 8 6.89543 8 8C8 9.10457 8.89543 10 10 10C11.1046 10 12 9.10457 12 8C12 6.89543 11.1046 6 10 6ZM6 8C6 5.79086 7.79086 4 10 4C12.2091 4 14 5.79086 14 8C14 10.2091 12.2091 12 10 12C7.79086 12 6 10.2091 6 8ZM23 12C21.3431 12 20 13.3431 20 15C20 16.6569 21.3431 18 23 18C24.6569 18 26 16.6569 26 15C26 13.3431 24.6569 12 23 12ZM18 15C18 12.2386 20.2386 10 23 10C25.7614 10 28 12.2386 28 15C28 17.7614 25.7614 20 23 20C20.2386 20 18 17.7614 18 15ZM4 19C4 16.2386 6.23858 14 9 14H11C13.7614 14 16 16.2386 16 19V22H14V19C14 17.3431 12.6569 16 11 16H9C7.34315 16 6 17.3431 6 19V22H4V19ZM14 29C14 25.134 17.134 22 21 22H25C28.866 22 32 25.134 32 29V32H30V29C30 26.2386 27.7614 24 25 24H21C18.2386 24 16 26.2386 16 29V32H14V29Z" fill="currentColor"/>
</svg>
