<svg width="36" height="36" viewBox="0 0 36 36" fill="none" xmlns="http://www.w3.org/2000/svg">
<path fill-rule="evenodd" clip-rule="evenodd" d="M12 10C12 6.68629 14.6863 4 18 4C21.3137 4 24 6.68629 24 10C24 13.3137 21.3137 16 18 16C14.6863 16 12 13.3137 12 10ZM18 2C13.5817 2 10 5.58172 10 10C10 14.4183 13.5817 18 18 18C22.4183 18 26 14.4183 26 10C26 5.58172 22.4183 2 18 2ZM17 20C10.9249 20 6 24.9249 6 31V34H8V31C8 26.0294 12.0294 22 17 22H19C20.41 22 21.7416 22.3235 22.9272 22.8995L23.8011 21.1005C22.3491 20.3952 20.7193 20 19 20H17ZM28 24V28H24V30H28V34H30V30H34V28H30V24H28Z" fill="currentColor"/>
</svg>
