<svg width="36" height="36" viewBox="0 0 36 36" fill="none" xmlns="http://www.w3.org/2000/svg">
<path d="M11.41 10L16.59 15.17L15.17 16.58L10 11.41L11.41 10Z" fill="currentColor"/>
<path d="M22.54 12.04L20.5 10H26V15.5L23.96 13.46L11.41 26L10 24.59L22.54 12.04Z" fill="currentColor"/>
<path d="M19.42 20.82L20.83 19.41L23.96 22.54L26 20.5V26H20.5L22.55 23.95L19.42 20.82Z" fill="currentColor"/>
<path fill-rule="evenodd" clip-rule="evenodd" d="M9 4C6.23858 4 4 6.23858 4 9V27C4 29.7614 6.23858 32 9 32H27C29.7614 32 32 29.7614 32 27V9C32 6.23858 29.7614 4 27 4H9ZM6 9C6 7.34315 7.34315 6 9 6H27C28.6569 6 30 7.34315 30 9V27C30 28.6569 28.6569 30 27 30H9C7.34315 30 6 28.6569 6 27V9Z" fill="currentColor"/>
</svg>
