<svg width="36" height="36" viewBox="0 0 36 36" fill="none" xmlns="http://www.w3.org/2000/svg">
<path fill-rule="evenodd" clip-rule="evenodd" d="M7.34745 7.23988C8.39531 6.43582 9.67921 6 11 6C12.3208 6 13.6047 6.43583 14.6526 7.23988C15.4923 7.88425 16.1429 8.73626 16.5441 9.70591L19.4559 9.7059C19.8571 8.73626 20.5077 7.88425 21.3474 7.23988C22.3953 6.43582 23.6792 6 25 6C26.3208 6 27.6047 6.43583 28.6526 7.23988C29.7004 8.04394 30.4537 9.17129 30.7956 10.4471L30.7999 10.4633L33.7978 22.4556C34.2066 23.9902 33.9903 25.6244 33.1962 27C32.4005 28.3781 31.09 29.3837 29.5529 29.7956C28.0159 30.2074 26.3781 29.9918 25 29.1962C23.6339 28.4074 22.6339 27.1128 22.2154 25.593L21.2944 23H14.7063L13.7846 25.5931C13.3661 27.1128 12.3661 28.4075 11 29.1962C9.62191 29.9918 7.98418 30.2074 6.4471 29.7956C4.91002 29.3837 3.59951 28.3781 2.80386 27C2.00968 25.6244 1.7934 23.9902 2.20219 22.4556L5.20432 10.447C5.54617 9.17125 6.29958 8.04393 7.34745 7.23988ZM11 8C10.1195 8 9.26355 8.29055 8.56497 8.82659C7.86849 9.36101 7.36723 10.1097 7.13837 10.9571L4.13645 22.9648C3.86188 23.9895 4.00548 25.0813 4.53591 26C5.06635 26.9187 5.94002 27.5891 6.96474 27.8637C7.98946 28.1383 9.08128 27.9945 10 27.4641C10.9188 26.9337 11.5891 26.06 11.8637 25.0353L11.874 24.9968L13.2946 21H22.7065L24.126 24.9969L24.1363 25.0353C24.4109 26.06 25.0813 26.9337 26 27.4641C26.9188 27.9945 28.0106 28.1383 29.0353 27.8637C30.06 27.5891 30.9337 26.9187 31.4641 26C31.9945 25.0813 32.1383 23.9894 31.8637 22.9647L31.8594 22.9485L28.8616 10.957C28.6328 10.1097 28.1315 9.36101 27.4351 8.82659C26.7365 8.29055 25.8806 8 25 8C24.1195 8 23.2635 8.29055 22.565 8.82659C21.8664 9.36262 21.3642 10.1142 21.1363 10.9647L20.9377 11.7059L15.0623 11.7059L14.8637 10.9647C14.6358 10.1142 14.1336 9.36262 13.4351 8.82659C12.7365 8.29055 11.8806 8 11 8Z" fill="currentColor"/>
<path d="M14.0009 16C14.0009 17.6569 12.6577 19 11.0009 19C9.34404 19 8.0009 17.6569 8.0009 16C8.0009 14.3432 9.34404 13 11.0009 13C12.6577 13 14.0009 14.3432 14.0009 16Z" fill="currentColor"/>
<path d="M25.9994 13.9998C25.9994 14.5521 25.5517 14.9998 24.9994 14.9998C24.4472 14.9998 23.9995 14.5521 23.9995 13.9998C23.9995 13.4475 24.4472 12.9998 24.9994 12.9998C25.5517 12.9998 25.9994 13.4475 25.9994 13.9998Z" fill="currentColor"/>
<path d="M25.9994 18.0002C25.9994 18.5525 25.5517 19.0002 24.9994 19.0002C24.4472 19.0002 23.9995 18.5525 23.9995 18.0002C23.9995 17.4479 24.4472 17.0002 24.9994 17.0002C25.5517 17.0002 25.9994 17.4479 25.9994 18.0002Z" fill="currentColor"/>
<path d="M28 16C28 16.5523 27.5523 17 27 17C26.4477 17 26 16.5523 26 16C26 15.4477 26.4477 15 27 15C27.5523 15 28 15.4477 28 16Z" fill="currentColor"/>
<path d="M24 16C24 16.5523 23.5523 17 23 17C22.4477 17 22 16.5523 22 16C22 15.4477 22.4477 15 23 15C23.5523 15 24 15.4477 24 16Z" fill="currentColor"/>
</svg>
