<svg width="36" height="36" viewBox="0 0 36 36" fill="none" xmlns="http://www.w3.org/2000/svg">
<path fill-rule="evenodd" clip-rule="evenodd" d="M4.00697 18C4.00971 18.0125 4.01327 18.0278 4.01786 18.0462C4.04021 18.1358 4.07823 18.263 4.13589 18.4256C4.25082 18.7499 4.43242 19.183 4.6887 19.6882C5.20138 20.699 5.99686 21.9666 7.11654 23.2041C9.34575 25.668 12.8419 28 18 28C23.1581 28 26.6542 25.668 28.8835 23.2041C30.0031 21.9666 30.7986 20.699 31.3113 19.6882C31.5676 19.183 31.7492 18.7499 31.8641 18.4256C31.9218 18.263 31.9598 18.1358 31.9821 18.0462C31.9867 18.0278 31.9903 18.0125 31.993 18C31.9903 17.9875 31.9867 17.9722 31.9821 17.9538C31.9598 17.8642 31.9218 17.737 31.8641 17.5744C31.7492 17.2501 31.5676 16.817 31.3113 16.3118C30.7986 15.301 30.0031 14.0334 28.8835 12.7959C26.6542 10.332 23.1581 8 18 8C12.8419 8 9.34575 10.332 7.11654 12.7959C5.99686 14.0334 5.20138 15.301 4.6887 16.3118C4.43242 16.817 4.25082 17.2501 4.13589 17.5744C4.07823 17.737 4.04021 17.8642 4.01786 17.9538C4.01327 17.9722 4.00971 17.9875 4.00697 18ZM5.63346 11.4541C8.15425 8.66796 12.1581 6 18 6C23.8419 6 27.8458 8.66796 30.3665 11.4541C31.6219 12.8416 32.5139 14.2615 33.095 15.407C33.3855 15.9799 33.6024 16.492 33.7492 16.9061C33.8224 17.1126 33.881 17.3028 33.9226 17.4696C33.9592 17.6161 34 17.8108 34 18C34 18.1892 33.9592 18.3839 33.9226 18.5304C33.881 18.6972 33.8224 18.8874 33.7492 19.0939C33.6024 19.508 33.3855 20.0201 33.095 20.593C32.5139 21.7385 31.6219 23.1584 30.3665 24.5459C27.8458 27.332 23.8419 30 18 30C12.1581 30 8.15425 27.332 5.63346 24.5459C4.37814 23.1584 3.48612 21.7385 2.90505 20.593C2.61446 20.0201 2.39762 19.508 2.25083 19.0939C2.17763 18.8874 2.11897 18.6972 2.07736 18.5304C2.04079 18.3839 2 18.1892 2 18C2 17.8108 2.04079 17.6161 2.07736 17.4696C2.11897 17.3028 2.17763 17.1126 2.25083 16.9061C2.39762 16.492 2.61446 15.9799 2.90505 15.407C3.48612 14.2615 4.37814 12.8416 5.63346 11.4541ZM18 14C15.7909 14 14 15.7909 14 18C14 20.2091 15.7909 22 18 22C20.2091 22 22 20.2091 22 18C22 15.7909 20.2091 14 18 14ZM12 18C12 14.6863 14.6863 12 18 12C21.3137 12 24 14.6863 24 18C24 21.3137 21.3137 24 18 24C14.6863 24 12 21.3137 12 18Z" fill="currentColor"/>
</svg>
