<svg width="36" height="36" viewBox="0 0 36 36" fill="none" xmlns="http://www.w3.org/2000/svg">
<g clip-path="url(#clip0_2499_84)">
<path d="M32 29.2009C32 30.7409 30.74 32.001 29.1999 32.001H6.79912C5.25907 32.001 3.99902 30.7409 3.99902 29.2009V6.8001C3.99902 5.26004 5.25907 4 6.79912 4H29.1999C30.74 4 32 5.26004 32 6.8001V29.2009Z" fill="#1AB7EA"/>
<path d="M27.7307 13.1842C27.6467 15.1583 26.2607 17.8464 23.6006 21.2765C20.8425 24.8466 18.5184 26.6387 16.6143 26.6387C15.4383 26.6387 14.4302 25.5467 13.6182 23.3766C13.0722 21.3745 12.5262 19.3864 11.9802 17.3844C11.3781 15.2143 10.7201 14.1223 10.0341 14.1223C9.88008 14.1223 9.34806 14.4443 8.45203 15.0743L7.5 13.8423C8.49403 12.9602 9.48807 12.0922 10.4541 11.2102C11.7841 10.0621 12.7922 9.4601 13.4502 9.3901C15.0183 9.23609 15.9983 10.3141 16.3623 12.6242C16.7543 15.1163 17.0343 16.6564 17.1743 17.2584C17.6224 19.3164 18.1264 20.3525 18.6724 20.3525C19.0924 20.3525 19.7364 19.6805 20.5765 18.3504C21.4165 17.0064 21.8785 15.9983 21.9345 15.2983C22.0605 14.1503 21.5985 13.5622 20.5765 13.5622C20.0864 13.5622 19.5964 13.6742 19.0784 13.8983C20.0724 10.6361 21.9765 9.05409 24.7766 9.15209C26.8627 9.19409 27.8427 10.5521 27.7307 13.1842Z" fill="#F9F9FA"/>
</g>
<defs>
<clipPath id="clip0_2499_84">
<rect width="18" height="18" fill="white" transform="scale(2)"/>
</clipPath>
</defs>
</svg>
