<svg width="36" height="36" viewBox="0 0 36 36" fill="none" xmlns="http://www.w3.org/2000/svg">
<path d="M11.9893 8H8.98926C7.33273 8.00038 5.98926 9.34338 5.98926 11V16.4629L5.6377 16.7617L4.17676 18L5.6377 19.2383L5.98926 19.5371V25C5.98926 26.6566 7.33273 27.9996 8.98926 28H11.9893V30H8.98926C6.22816 29.9996 3.98926 27.7612 3.98926 25V20.4609L1.9834 18.7617V17.2383L3.98926 15.5371V11C3.98926 8.23881 6.22816 6.00038 8.98926 6H11.9893V8Z" fill="currentColor"/>
<path d="M27.0107 6C29.7724 6.00001 32.0107 8.2384 32.0107 11V15.5332L34.0166 17.2363V18.7637L32.0107 20.4648V25C32.0107 27.7616 29.7724 30 27.0107 30H24.0107V28H27.0107C28.6682 28 30.0107 26.6567 30.0107 25V19.5371L30.3643 19.2363L31.8232 18L30.3643 16.7637L30.0107 16.4629V11C30.0107 9.34334 28.6682 8.00001 27.0107 8H24.0107V6H27.0107Z" fill="currentColor"/>
<path d="M13.9912 26H9.99121V18H13.9912V26Z" fill="currentColor"/>
<path d="M19.9912 26H15.9912V16H19.9912V26Z" fill="currentColor"/>
<path d="M25.9912 26H21.9912V20H25.9912V26Z" fill="currentColor"/>
<path d="M17.9912 8C19.0958 8 19.9912 8.89543 19.9912 10C19.9912 10.1786 19.9648 10.3509 19.9209 10.5156L23.4736 14.0684C23.6388 14.0242 23.8122 14 23.9912 14C25.0958 14 25.9912 14.8954 25.9912 16C25.9912 17.1046 25.0958 18 23.9912 18C22.8866 18 21.9912 17.1046 21.9912 16C21.9912 15.8209 22.0154 15.6476 22.0596 15.4824L18.5068 11.9297C18.3421 11.9736 18.1698 12 17.9912 12C17.4822 12 17.02 11.8072 16.667 11.4941L13.9502 12.4004C13.7648 13.3128 12.9582 13.9995 11.9912 14C10.8866 14 9.99121 13.1046 9.99121 12C9.99121 10.8954 10.8866 10 11.9912 10C12.4986 10.0002 12.961 10.1904 13.3135 10.502L16.0303 9.59766C16.2164 8.68579 17.0244 8 17.9912 8Z" fill="currentColor"/>
</svg>
