<svg width="36" height="36" viewBox="0 0 36 36" fill="none" xmlns="http://www.w3.org/2000/svg">
<path fill-rule="evenodd" clip-rule="evenodd" d="M17.6565 27.9151C17.6565 27.9151 13.4365 28.1935 9.7201 23.9546C5.66539 19.3314 2.08615 10.1551 2.08615 10.1551C2.08615 10.1551 1.88038 9.55391 2.10486 9.26357C2.3574 8.93566 3.04332 8.91517 3.04332 8.91517L7.61558 8.88272C7.61558 8.88272 8.04584 8.96128 8.3545 9.20892C8.6086 9.41387 8.75046 9.79643 8.75046 9.79643C8.75046 9.79643 9.48938 11.8442 10.4684 13.6972C12.378 17.3127 13.2682 18.1035 13.9167 17.7158C14.8614 17.1522 14.5792 12.6041 14.5792 12.6041C14.5792 12.6041 14.5963 10.9544 14.1022 10.22C13.7202 9.64955 13.0016 9.48389 12.682 9.43778C12.4248 9.4002 12.8473 8.74609 13.3944 8.45234C14.2175 8.01 15.6704 7.98439 17.3883 8.00488C18.7259 8.01854 19.1109 8.11077 19.6332 8.2491C21.2092 8.66582 20.6745 10.2763 20.6745 14.1395C20.6745 15.376 20.4718 17.1163 21.2856 17.6919C21.6363 17.9412 22.4937 17.7294 24.6357 13.7433C25.6505 11.8544 26.4128 9.63418 26.4128 9.63418C26.4128 9.63418 26.5781 9.23796 26.8368 9.06888C27.1019 8.89468 27.4588 8.94762 27.4588 8.94762L32.2696 8.91517C32.2696 8.91517 33.7163 8.72731 33.9501 9.44119C34.1949 10.1927 33.4092 11.9449 31.4434 14.8141C28.2165 19.5278 27.8564 19.0872 30.5361 21.8112C33.0974 24.4157 33.6274 25.6812 33.7147 25.8401C34.7748 27.7648 32.5393 27.9151 32.5393 27.9151L28.2648 27.9817C28.2648 27.9817 27.3466 28.1798 26.1385 27.2713C24.5406 26.0689 23.0331 22.9435 21.8577 23.3517C20.6667 23.7667 20.7057 26.5779 20.7057 26.5779C20.7057 26.5779 20.7135 27.1773 20.4422 27.4984C20.146 27.8468 19.5692 27.9151 19.5692 27.9151H17.6565Z" fill="#4E76A1"/>
</svg>
