<svg width="36" height="36" viewBox="0 0 36 36" fill="none" xmlns="http://www.w3.org/2000/svg">
<path fill-rule="evenodd" clip-rule="evenodd" d="M34 18C34 26.8366 26.8366 34 18 34C14.8233 34 11.8628 33.0742 9.37359 31.4777L4.67932 32.7355C4.08447 32.8949 3.54014 32.3506 3.69953 31.7557L4.91683 27.2127C3.07931 24.6079 2 21.43 2 18C2 9.16344 9.16344 2 18 2C26.8366 2 34 9.16344 34 18ZM17.9858 10C18.1842 10 18.3259 10.1185 18.4109 10.2667L20.6498 14.9778L25.6093 15.7185C25.7794 15.7481 25.9211 15.8667 25.9778 16.0444C26.0344 16.2222 25.9778 16.4296 25.8644 16.5481L22.2652 20.2222L23.1154 25.3481C23.1437 25.4074 23.1437 25.437 23.1437 25.4963C23.1437 25.763 22.9454 25.9704 22.6903 25.9704C22.6053 25.9704 22.5203 25.9407 22.4636 25.9111L18.0425 23.4815L13.5931 25.9407C13.5754 25.9469 13.5588 25.9531 13.5431 25.959C13.4832 25.9814 13.4337 26 13.3664 26C13.253 26 13.168 25.9704 13.083 25.9111C12.9129 25.7926 12.8563 25.6148 12.8846 25.437L13.7348 20.2519L10.1356 16.5778C10.0222 16.4296 9.96556 16.2519 10.0222 16.0741C10.0789 15.8963 10.2206 15.7778 10.3907 15.7481L15.3502 14.9778L17.5607 10.2667C17.6457 10.1185 17.8158 10 17.9858 10Z" fill="currentColor"/>
</svg>
