<svg width="36" height="36" viewBox="0 0 36 36" fill="none" xmlns="http://www.w3.org/2000/svg">
<path fill-rule="evenodd" clip-rule="evenodd" d="M32.2929 2.29297L2.29289 32.293L3.70711 33.7072L11.7071 25.7072L16 30.0001L16.3902 30.3903L17.5172 31.5172L17.6586 31.6587C17.7846 31.7847 18 31.6954 18 31.5172V31.3172V29.7235V29.1717V19.4143L24.3194 13.0948C25.3722 14.4494 25.9991 16.1514 25.9991 17.9999C25.9991 20.9606 24.3907 23.5457 22 24.9291V27.1674C25.5313 25.6241 27.9991 22.1001 27.9991 17.9999C27.9991 15.5989 27.1529 13.3955 25.7425 11.6717L28.5823 8.83194C30.7124 11.2881 32.0014 14.4934 32.0014 17.9998C32.0014 24.3423 27.7837 29.6998 22 31.4204V33.4961C28.9016 31.7204 34.0014 25.4556 34.0014 17.9998C34.0014 13.9411 32.4902 10.2354 29.9997 7.41458L33.7071 3.70718L32.2929 2.29297ZM16 21.4143L13.1213 24.293L16 27.1717V21.4143ZM9.75781 22.0001H4V14.0001H10H10.8284L11.4142 13.4143L16 8.8285V15.7579L18 13.7579V10.0001V8.00008V6.8285V6.27667V4.68292V4.48292C18 4.30474 17.7846 4.2155 17.6586 4.3415L17.5172 4.48292L16.3902 5.60987L16 6.00008L10 12.0001H4C2.89543 12.0001 2 12.8955 2 14.0001V22.0001C2 23.1046 2.89543 24.0001 4 24.0001H7.75781L9.75781 22.0001ZM26.9939 4.76402L25.5505 6.20742C24.4609 5.50847 23.2681 4.95638 22 4.57913V2.50349C23.8081 2.96868 25.4924 3.74195 26.9939 4.76402ZM7.9991 17.9999C7.9991 17.9546 7.9994 17.9095 8 17.8644V18.1354C7.9994 18.0903 7.9991 18.0451 7.9991 17.9999Z" fill="currentColor"/>
</svg>
