<svg width="36" height="36" viewBox="0 0 36 36" fill="none" xmlns="http://www.w3.org/2000/svg">
<path fill-rule="evenodd" clip-rule="evenodd" d="M29.3374 6.65007C26.3297 3.65292 22.3294 2.00152 18.0672 2C9.28453 2 2.13675 9.11272 2.1337 17.8555C2.13217 20.6504 2.86635 23.3784 4.26061 25.7826L2 34L10.4465 31.7951C12.7736 33.0588 15.394 33.724 18.0604 33.7248H18.0672C26.8484 33.7248 33.997 26.6113 34 17.8685C34.0015 13.6313 32.346 9.64798 29.3374 6.65083V6.65007ZM18.0672 31.047H18.0619C15.6859 31.0462 13.355 30.4106 11.3213 29.21L10.8377 28.9242L5.82524 30.2327L7.16297 25.3689L6.8482 24.8702C5.5227 22.7717 4.82213 20.3463 4.82366 17.8563C4.82672 10.59 10.7674 4.67782 18.0726 4.67782C21.6098 4.67934 24.9347 6.05171 27.4351 8.54325C29.9356 11.034 31.3116 14.346 31.31 17.867C31.3069 25.134 25.3663 31.0462 18.0672 31.0462V31.047ZM25.3311 21.1766C24.9331 20.9782 22.9758 20.0201 22.6106 19.8879C22.2454 19.7555 21.9804 19.6895 21.7152 20.0863C21.4501 20.4832 20.6869 21.3758 20.4547 21.6396C20.2224 21.9042 19.9901 21.9369 19.5921 21.7384C19.1941 21.54 17.9114 21.1218 16.3903 19.7723C15.2069 18.7215 14.4077 17.4245 14.1756 17.0275C13.9433 16.6307 14.1511 16.4163 14.3497 16.2193C14.5284 16.0414 14.7477 15.7563 14.9471 15.5252C15.1466 15.294 15.2123 15.1283 15.3452 14.8645C15.4781 14.5999 15.4116 14.3688 15.3124 14.1703C15.213 13.9719 14.417 12.0216 14.0846 11.2287C13.7614 10.4562 13.433 10.5611 13.1892 10.5482C12.957 10.5368 12.6919 10.5345 12.426 10.5345C12.1602 10.5345 11.7292 10.6333 11.3641 11.0302C10.9989 11.4271 9.97059 12.3858 9.97059 14.3353C9.97059 16.2847 11.397 18.1696 11.5964 18.4342C11.7957 18.6988 14.4039 22.7003 18.3972 24.4171C19.3469 24.8253 20.0887 25.0694 20.667 25.2519C21.6205 25.5537 22.4884 25.5112 23.1744 25.4092C23.9392 25.2952 25.5298 24.4505 25.8613 23.5252C26.1929 22.5999 26.1929 21.8061 26.0936 21.6411C25.9943 21.4761 25.7284 21.3765 25.3304 21.1781L25.3311 21.1766Z" fill="#25D366"/>
</svg>
