<svg width="36" height="36" viewBox="0 0 36 36" fill="none" xmlns="http://www.w3.org/2000/svg">
<path fill-rule="evenodd" clip-rule="evenodd" d="M34 18C34 26.8366 26.8366 34 18 34C9.16344 34 2 26.8366 2 18C2 9.16344 9.16344 2 18 2C26.8366 2 34 9.16344 34 18ZM32 18C32 25.732 25.732 32 18 32C10.268 32 4 25.732 4 18C4 10.268 10.268 4 18 4C25.732 4 32 10.268 32 18Z" fill="currentColor"/>
<path fill-rule="evenodd" clip-rule="evenodd" d="M15.5 20L14 26H12L15.6213 11.5149C15.8439 10.6246 16.6438 10 17.5616 10H18.4384C19.3562 10 20.1561 10.6246 20.3787 11.5149L24 26H22L20.5 20H15.5ZM16 18H20L18.5 12H17.5L16 18Z" fill="currentColor"/>
</svg>
