<svg width="36" height="36" viewBox="0 0 36 36" fill="none" xmlns="http://www.w3.org/2000/svg">
<path fill-rule="evenodd" clip-rule="evenodd" d="M2 6H4V24H16V14H31C32.6569 14 34 15.3431 34 17V30H32V26H4V30H2V6ZM32 24V17C32 16.4477 31.5523 16 31 16H18V24H32ZM10 16C8.89543 16 8 16.8954 8 18C8 19.1046 8.89543 20 10 20C11.1046 20 12 19.1046 12 18C12 16.8954 11.1046 16 10 16ZM6 18C6 15.7909 7.79086 14 10 14C12.2091 14 14 15.7909 14 18C14 20.2091 12.2091 22 10 22C7.79086 22 6 20.2091 6 18Z" fill="currentColor"/>
</svg>
