<svg width="36" height="36" viewBox="0 0 36 36" fill="none" xmlns="http://www.w3.org/2000/svg">
<path fill-rule="evenodd" clip-rule="evenodd" d="M32.001 15.236C32.001 14.4927 31.2187 14.0092 30.5538 14.3416L23.6593 17.7888C23.3816 17.9277 23.0754 18 22.7649 18H17.001C16.2053 18 15.4423 18.316 14.8797 18.8787C14.317 19.4413 14.001 20.2043 14.001 21C14.001 21.7956 14.317 22.5587 14.8797 23.1213C15.4423 23.6839 16.2053 24 17.001 24H18.5813L22.8692 31.5038L21.1327 32.4961L17.4207 26H17.001C15.6749 26 14.4031 25.4732 13.4654 24.5355C12.5278 23.5978 12.001 22.3261 12.001 21C12.001 19.6739 12.5278 18.4021 13.4654 17.4644C14.4031 16.5268 15.6749 16 17.001 16H22.7649L29.6593 12.5528C31.654 11.5554 34.001 13.0059 34.001 15.236V26.0459C34.001 28.1683 31.8574 29.6196 29.8868 28.8313L22.8084 26H22.001V24H22.8084C23.0628 24 23.3149 24.0485 23.5512 24.143L30.6296 26.9744C31.2864 27.2371 32.001 26.7534 32.001 26.0459V15.236Z" fill="currentColor"/>
<path fill-rule="evenodd" clip-rule="evenodd" d="M5 6C4.44772 6 4 6.44772 4 7V21C4 21.5523 4.44772 22 5 22H8V24H5C3.34315 24 2 22.6569 2 21V7C2 5.34315 3.34315 4 5 4H9.76393C10.9002 4 11.939 4.64201 12.4472 5.65836L13.3416 7.44721C13.511 7.786 13.8573 8 14.2361 8H24V10H14.2361C13.0998 10 12.061 9.35799 11.5528 8.34164L10.6584 6.55279C10.489 6.214 10.1427 6 9.76393 6H5ZM9.00078 9.99995H6.00078V7.99995H9.00078V9.99995Z" fill="currentColor"/>
</svg>
