<svg width="36" height="36" viewBox="0 0 36 36" fill="none" xmlns="http://www.w3.org/2000/svg">
<path fill-rule="evenodd" clip-rule="evenodd" d="M30.0024 2C32.2108 2 34.001 3.79021 34.001 5.99854C34.001 8.20687 32.2108 9.99707 30.0024 9.99707C28.1318 9.99707 26.5613 8.71257 26.1246 6.9775H8.00126C7.44898 6.9775 7.00126 7.42522 7.00126 7.9775L7.00126 14.1255C8.40523 14.4877 9.51042 15.5933 9.87198 16.9976L26.13 16.9976C26.574 15.2731 28.1394 13.999 30.0024 13.999C32.2108 13.999 34.001 15.7892 34.001 17.9976C34.001 20.2059 32.2108 21.9961 30.0024 21.9961C28.1394 21.9961 26.574 20.722 26.13 18.9976H19.001V27.9976C19.001 28.5498 19.4487 28.9976 20.001 28.9976H26.13C26.574 27.2731 28.1394 25.999 30.0024 25.999C32.2108 25.999 34.001 27.7892 34.001 29.9976C34.001 32.2059 32.2108 33.9961 30.0024 33.9961C28.1394 33.9961 26.574 32.722 26.13 30.9976H20.001C18.3441 30.9976 17.001 29.6544 17.001 27.9976V18.9976H9.87198C9.42797 20.722 7.86254 21.9961 5.99951 21.9961C3.79118 21.9961 2.00098 20.2059 2.00098 17.9976C2.00098 16.1339 3.27597 14.568 5.00126 14.1246L5.00126 7.9775C5.00126 6.32065 6.34441 4.9775 8.00126 4.9775L26.1354 4.9775C26.5867 3.26377 28.147 2 30.0024 2ZM30.0024 4C31.1062 4 32.001 4.89477 32.001 5.99854C32.001 7.1023 31.1062 7.99707 30.0024 7.99707C28.8987 7.99707 28.0039 7.1023 28.0039 5.99854C28.0039 4.89477 28.8987 4 30.0024 4ZM7.99805 17.9976C7.99805 16.8938 7.10327 15.999 5.99951 15.999C4.89575 15.999 4.00098 16.8938 4.00098 17.9976C4.00098 19.1013 4.89575 19.9961 5.99951 19.9961C7.10327 19.9961 7.99805 19.1013 7.99805 17.9976ZM32.001 17.9976C32.001 16.8938 31.1062 15.999 30.0024 15.999C28.8987 15.999 28.0039 16.8938 28.0039 17.9976C28.0039 19.1013 28.8987 19.9961 30.0024 19.9961C31.1062 19.9961 32.001 19.1013 32.001 17.9976ZM32.001 29.9976C32.001 28.8938 31.1062 27.999 30.0024 27.999C28.8987 27.999 28.0039 28.8938 28.0039 29.9976C28.0039 31.1013 28.8987 31.9961 30.0024 31.9961C31.1062 31.9961 32.001 31.1013 32.001 29.9976Z" fill="currentColor"/>
<path d="M8.00098 24V28H12.001V30H8.00098V34H6.00098V30H2.00098V28H6.00098V24H8.00098Z" fill="currentColor"/>
</svg>
