<svg width="36" height="36" viewBox="0 0 36 36" fill="none" xmlns="http://www.w3.org/2000/svg">
<path fill-rule="evenodd" clip-rule="evenodd" d="M18 4C17.5323 4 17.2224 4.27335 17.0901 4.40942C16.9359 4.56808 16.8159 4.7548 16.724 4.91856C16.5363 5.25304 16.3587 5.68811 16.1936 6.15251C15.859 7.09365 15.5154 8.32992 15.2062 9.55315C14.5048 12.328 12.328 14.5048 9.55315 15.2062C8.32992 15.5154 7.09365 15.859 6.15251 16.1936C5.68811 16.3587 5.25304 16.5363 4.91856 16.724C4.7548 16.8159 4.56808 16.9359 4.40942 17.0901C4.27335 17.2224 4 17.5323 4 18C4 18.4677 4.27335 18.7776 4.40942 18.9099C4.56808 19.0641 4.7548 19.1841 4.91856 19.276C5.25304 19.4637 5.68811 19.6413 6.15251 19.8064C7.09365 20.141 8.32992 20.4846 9.55315 20.7938C12.328 21.4952 14.5048 23.672 15.2062 26.4469C15.5154 27.6701 15.859 28.9064 16.1936 29.8475C16.3587 30.3119 16.5363 30.747 16.724 31.0814C16.8159 31.2452 16.9359 31.4319 17.0901 31.5906C17.2224 31.7267 17.5323 32 18 32C18.4677 32 18.7776 31.7267 18.9099 31.5906C19.0641 31.4319 19.1841 31.2452 19.276 31.0814C19.4637 30.747 19.6413 30.3119 19.8064 29.8475C20.141 28.9064 20.4846 27.6701 20.7938 26.4469C21.4952 23.672 23.672 21.4952 26.4469 20.7938C27.6701 20.4846 28.9064 20.141 29.8475 19.8064C30.3119 19.6413 30.747 19.4637 31.0814 19.276C31.2452 19.1841 31.4319 19.0641 31.5906 18.9099C31.7267 18.7776 32 18.4677 32 18C32 17.5323 31.7267 17.2224 31.5906 17.0901C31.4319 16.9359 31.2452 16.8159 31.0814 16.724C30.747 16.5363 30.3119 16.3587 29.8475 16.1936C28.9064 15.859 27.6701 15.5154 26.4469 15.2062C23.672 14.5048 21.4952 12.328 20.7938 9.55315C20.4846 8.32992 20.141 7.09365 19.8064 6.15251C19.6413 5.68811 19.4637 5.25304 19.276 4.91856C19.1841 4.7548 19.0641 4.56808 18.9099 4.40942C18.7776 4.27335 18.4677 4 18 4ZM17.1452 10.0433C17.4244 8.93885 17.7203 7.87198 18 7.04738C18.2797 7.87198 18.5756 8.93885 18.8548 10.0433C19.7363 13.5306 22.4694 16.2637 25.9567 17.1452C27.0612 17.4244 28.128 17.7203 28.9526 18C28.128 18.2797 27.0612 18.5756 25.9567 18.8548C22.4694 19.7363 19.7363 22.4694 18.8548 25.9567C18.5756 27.0612 18.2797 28.128 18 28.9526C17.7203 28.128 17.4244 27.0612 17.1452 25.9567C16.2637 22.4694 13.5306 19.7363 10.0433 18.8548C8.93885 18.5756 7.87198 18.2797 7.04738 18C7.87198 17.7203 8.93885 17.4244 10.0433 17.1452C13.5306 16.2637 16.2637 13.5306 17.1452 10.0433Z" fill="currentColor"/>
<path d="M6 4V6H4V8H6V10H8V8H10V6H8V4H6Z" fill="currentColor"/>
</svg>
