<svg width="36" height="36" viewBox="0 0 36 36" fill="none" xmlns="http://www.w3.org/2000/svg">
<path d="M12 4H29C30.6569 4 32 5.34315 32 7V24H34V7C34 4.23858 31.7614 2 29 2H12V4Z" fill="currentColor"/>
<path d="M22 16C23.1046 16 24 15.1046 24 14C24 12.8954 23.1046 12 22 12C20.8954 12 20 12.8954 20 14C20 15.1046 20.8954 16 22 16Z" fill="currentColor"/>
<path fill-rule="evenodd" clip-rule="evenodd" d="M9 6C6.23858 6 4 8.23858 4 11V27C4 29.7614 6.23858 32 9 32H25C27.7614 32 30 29.7614 30 27V11C30 8.23858 27.7614 6 25 6H9ZM6 11C6 9.34315 7.34315 8 9 8H25C26.6569 8 28 9.34315 28 11V24.8795L25.5823 21.4948C24.8112 20.4152 23.2219 20.3719 22.3931 21.4078L20.0534 24.3325L14.5028 16.403C13.7896 15.3842 12.3294 15.2563 11.4501 16.1357L6 21.5858V11ZM23.9548 22.6572L27.8096 28.054C27.383 29.1909 26.286 30 25 30H9C7.34315 30 6 28.6569 6 27V24.4142L12.8643 17.5499L18.4149 25.4794C19.1803 26.5728 20.7814 26.624 21.6151 25.5819L23.9548 22.6572Z" fill="currentColor"/>
</svg>
