<svg width="36" height="36" viewBox="0 0 36 36" fill="none" xmlns="http://www.w3.org/2000/svg">
<g clip-path="url(#clip0_1812_184)">
<circle cx="18" cy="18" r="16" fill="#F9F9FA"/>
<path d="M18 2C9.14804 2 2 9.21863 2 18C2 26.7814 9.14804 34 18 34C26.852 34 34 26.7814 34 18C34 9.21863 26.852 2 18 2ZM15.491 33.7981V30.6261C15.4869 30.0732 15.3199 29.5337 15.0107 29.0752C14.7016 28.6167 14.2642 28.2595 13.7532 28.0484C11.7799 27.2109 10.0962 25.8119 8.91149 24.0254C7.72673 22.2389 7.09312 20.1436 7.08941 18C7.08941 12.0135 11.9635 7.08941 18 7.08941C24.0365 7.08941 28.9106 12.0135 28.9106 18C28.9106 25.0658 23.4441 31.7466 15.491 33.7981Z" fill="#00CAFF"/>
</g>
<defs>
<clipPath id="clip0_1812_184">
<rect width="18" height="18" fill="white" transform="scale(2)"/>
</clipPath>
</defs>
</svg>
