<svg width="36" height="36" viewBox="0 0 36 36" fill="none" xmlns="http://www.w3.org/2000/svg">
<g clip-path="url(#clip0_857_172)">
<rect x="4" y="4" width="28" height="28" fill="#008DFF"/>
<path d="M32 32V26.1083C30.95 25.1167 29.6667 24.475 28.0917 24.475C26.1083 24.475 24.3583 25.4667 23.3667 26.925C22.3167 24.2417 19.6333 22.375 16.5417 22.375C12.6333 22.375 9.425 25.35 9.19167 29.025C8.84167 28.9667 8.43333 28.9083 8.08333 28.9083C6.45 28.9083 4.99167 29.4917 4 30.6V32H32Z" fill="#F9F9FA"/>
<path fill-rule="evenodd" clip-rule="evenodd" d="M19.1668 10.5916C18.9878 10.6115 18.7986 10.6297 18.603 10.6485C17.6513 10.74 16.5477 10.8461 15.7251 11.2333C14.5585 11.6999 13.8001 12.7499 13.8001 14.2083C13.8001 16.1333 15.0251 17.0666 16.5418 17.0666C17.8251 17.0666 18.5251 16.7749 19.5751 15.7249C19.6459 15.8193 19.7071 15.9041 19.7646 15.9837C19.9914 16.2978 20.1597 16.5311 20.6251 16.9499C20.7418 17.0083 20.9168 17.0083 21.0335 16.8916C21.2085 16.7166 21.471 16.4978 21.7335 16.2791C21.996 16.0603 22.2585 15.8416 22.4335 15.6666C22.6085 15.5499 22.5501 15.3749 22.4335 15.1999C22.3962 15.1502 22.3589 15.1019 22.3221 15.0541C22.0129 14.6528 21.7335 14.2901 21.7335 13.5083V10.6499L21.7339 10.4337C21.7371 9.29475 21.74 8.26825 20.9168 7.49992C20.2168 6.79992 19.0501 6.56659 18.1751 6.56659C16.4251 6.56659 14.5001 7.20826 14.0918 9.36659C14.0335 9.59992 14.2085 9.71659 14.3835 9.77492L16.1335 9.94992C16.3085 9.94992 16.4251 9.77492 16.4251 9.59992C16.6001 8.84159 17.1835 8.49159 17.8835 8.49159C18.2335 8.49159 18.7001 8.60826 18.9335 8.95826C19.1668 9.42492 19.1668 9.94992 19.1668 10.3583V10.5916ZM22.1415 17.4749C22.9582 16.8916 24.2999 17.0666 24.4749 17.2416C24.6499 17.4749 24.4165 18.8166 23.6582 19.3999C23.5415 19.5166 23.4249 19.4582 23.4832 19.3416C23.6582 18.9332 24.0665 17.9416 23.8915 17.7082C23.7165 17.4749 22.6665 17.5916 22.1999 17.6499C22.0249 17.7082 22.0249 17.5916 22.1415 17.4749ZM18.1756 19.4C19.7506 19.4 21.5006 18.9917 23.0756 18.1167C23.3089 18 23.5422 18.2917 23.3089 18.525C21.9089 19.8667 19.8089 20.5667 18.0589 20.5667C15.6089 20.5667 13.3339 19.4 11.6422 17.475C11.4672 17.3583 11.5839 17.125 11.7589 17.2417C13.5672 18.5833 15.8422 19.4 18.1756 19.4ZM17.5335 15.2582C18.0585 15.2582 18.5251 14.9665 18.8168 14.4415C19.1668 13.7999 19.1668 13.2165 19.1668 12.4582V12.0499C17.8251 12.0499 16.4251 12.3415 16.4251 13.9165C16.4251 14.7332 16.8335 15.2582 17.5335 15.2582Z" fill="#F9F9FA"/>
</g>
<defs>
<clipPath id="clip0_857_172">
<rect width="18" height="18" fill="white" transform="scale(2)"/>
</clipPath>
</defs>
</svg>
