<svg width="36" height="36" viewBox="0 0 36 36" fill="none" xmlns="http://www.w3.org/2000/svg">
<path d="M16 18C16 16.8954 16.8954 16 18 16C19.1046 16 20 16.8954 20 18C20 19.1046 19.1046 20 18 20C16.8954 20 16 19.1046 16 18Z" fill="currentColor"/>
<path fill-rule="evenodd" clip-rule="evenodd" d="M28 4C25.7909 4 24 5.79086 24 8C24 8.74184 24.2019 9.43651 24.5539 10.032L22.1919 12.394C21.1126 11.5869 19.8168 11.1041 18.4578 11.015C16.7921 10.9058 15.1432 11.3955 13.8079 12.3941L11.446 10.0323C11.798 9.43668 12 8.74193 12 8C12 5.79086 10.2091 4 8 4C5.79086 4 4 5.79086 4 8C4 10.2091 5.79086 12 8 12C8.74169 12 9.43623 11.7981 10.0317 11.4464L12.3937 13.8084C11.7732 14.6384 11.3398 15.6023 11.1345 16.6344C10.9489 17.5674 10.9569 18.5204 11.149 19.4368L4 26.5858V32H9.41421L16.5632 24.851C17.4796 25.0431 18.4326 25.0511 19.3656 24.8655C20.3977 24.6602 21.3618 24.2267 22.1918 23.6061L24.5538 25.9681C24.2019 26.5636 24 27.2582 24 28C24 30.2091 25.7909 32 28 32C30.2091 32 32 30.2091 32 28C32 25.7909 30.2091 24 28 24C27.2582 24 26.5635 24.2019 25.968 24.5539L23.606 22.1919C24.6045 20.8567 25.0942 19.2078 24.985 17.5422C24.8959 16.1833 24.4132 14.8875 23.6061 13.8082L25.9681 11.4462C26.5636 11.7981 27.2582 12 28 12C30.2091 12 32 10.2091 32 8C32 5.79086 30.2091 4 28 4ZM26 8C26 6.89543 26.8954 6 28 6C29.1046 6 30 6.89543 30 8C30 9.10457 29.1046 10 28 10C26.8954 10 26 9.10457 26 8ZM18.327 13.0107C17.1166 12.9314 15.9186 13.2948 14.9562 14.0332C13.9938 14.7717 13.3327 15.8348 13.0961 17.0246C12.9345 17.8367 12.9783 18.67 13.2153 19.4514L13.3893 20.025L6 27.4142V30H8.58579L15.975 22.6108L16.5486 22.7847C17.33 23.0217 18.1633 23.0655 18.9755 22.9039C20.1652 22.6673 21.2283 22.0062 21.9668 21.0438C22.7052 20.0814 23.0686 18.8834 22.9893 17.673C22.91 16.4625 22.3933 15.3222 21.5355 14.4645C20.6778 13.6067 19.5375 13.0901 18.327 13.0107ZM28 26C26.8954 26 26 26.8954 26 28C26 29.1046 26.8954 30 28 30C29.1046 30 30 29.1046 30 28C30 26.8954 29.1046 26 28 26ZM6 8C6 6.89543 6.89543 6 8 6C9.10457 6 10 6.89543 10 8C10 9.10457 9.10457 10 8 10C6.89543 10 6 9.10457 6 8Z" fill="currentColor"/>
</svg>
