<svg width="36" height="36" viewBox="0 0 36 36" fill="none" xmlns="http://www.w3.org/2000/svg">
<path fill-rule="evenodd" clip-rule="evenodd" d="M4.05025 4.05025C5.36301 2.7375 7.14348 2 9 2C10.8565 2 12.637 2.7375 13.9497 4.05025L31.9497 22.0503C33.2625 23.363 34 25.1435 34 27C34 28.8565 33.2625 30.637 31.9497 31.9497C30.637 33.2625 28.8565 34 27 34C25.145 34 23.3659 33.2637 22.0535 31.953L12.4709 22.5419L12.4645 22.5355C11.5268 21.5979 11 20.3261 11 19C11 17.6739 11.5268 16.4021 12.4645 15.4645C13.4021 14.5268 14.6739 14 16 14C17.3261 14 18.5979 14.5268 19.5355 15.4645L24.7071 20.636L23.2929 22.0503L18.1213 16.8787C17.5587 16.3161 16.7956 16 16 16C15.2044 16 14.4413 16.3161 13.8787 16.8787C13.3161 17.4413 13 18.2043 13 19C13 19.7943 13.315 20.5561 13.8757 21.1184L23.4581 30.5292L23.4645 30.5355C24.4021 31.4732 25.6739 32 27 32C28.3261 32 29.5979 31.4732 30.5355 30.5355C31.4732 29.5979 32 28.3261 32 27C32 25.6739 31.4732 24.4021 30.5355 23.4645L12.5355 5.46447C11.5979 4.52678 10.3261 4 9 4C7.67392 4 6.40215 4.52678 5.46447 5.46447C4.52678 6.40215 4 7.67392 4 9C4 10.3261 4.52678 11.5979 5.46447 12.5355L8.22183 15.2929L6.80761 16.7071L4.05025 13.9497C2.7375 12.637 2 10.8565 2 9C2 7.14348 2.7375 5.36301 4.05025 4.05025Z" fill="currentColor"/>
</svg>
