<svg width="36" height="36" viewBox="0 0 36 36" fill="none" xmlns="http://www.w3.org/2000/svg">
<path d="M16 13V4H14V13H16Z" fill="currentColor"/>
<path d="M26 6V16H28V6H26Z" fill="currentColor"/>
<path d="M10 16V8H8V16H10Z" fill="currentColor"/>
<path d="M20 8V13H22V8H20Z" fill="currentColor"/>
<path d="M4 28V14H2V28H4Z" fill="currentColor"/>
<path d="M32 15V28H34V15H32Z" fill="currentColor"/>
<path fill-rule="evenodd" clip-rule="evenodd" d="M26.1213 20.1213C26.1213 20.1213 24.8874 20.6822 23.1792 21.5805C20.5984 22.9376 16.935 25.065 14.8076 27.1924C13.636 28.364 13.636 30.2635 14.8076 31.435C15.9792 32.6066 17.8787 32.6066 19.0503 31.435C21.1776 29.3077 23.305 25.6442 24.6621 23.0635C25.5605 21.3552 26.1213 20.1213 26.1213 20.1213ZM17.636 30.0208C17.2455 30.4113 16.6123 30.4113 16.2218 30.0208C15.8313 29.6303 15.8313 28.9971 16.2218 28.6066C17.4745 27.3539 19.4139 26.0367 21.3588 24.8838C20.206 26.8287 18.8887 28.7681 17.636 30.0208Z" fill="currentColor"/>
<path fill-rule="evenodd" clip-rule="evenodd" d="M10.9234 13.65C13.1245 12.5646 15.5458 12 18 12C20.4542 12 22.8755 12.5646 25.0766 13.65C27.2777 14.7355 29.1996 16.3128 30.6937 18.2598C32.1877 20.2069 33.2138 22.4715 33.6926 24.8786C34.1714 27.2856 34.09 29.7705 33.4548 32.1411L31.523 31.6235C32.0788 29.5492 32.1499 27.3749 31.731 25.2687C31.3121 23.1626 30.4142 21.181 29.1069 19.4773C27.7997 17.7737 26.118 16.3936 24.192 15.4438C22.2661 14.494 20.1474 14 18 14C15.8526 14 13.7339 14.494 11.808 15.4438C9.88199 16.3936 8.20032 17.7737 6.89305 19.4773C5.58578 21.181 4.68795 23.1626 4.26901 25.2687C3.85006 27.3749 3.92124 29.5492 4.47704 31.6235L2.54519 32.1411C1.90999 29.7705 1.82864 27.2856 2.30744 24.8786C2.78623 22.4715 3.81232 20.2069 5.30635 18.2598C6.80037 16.3128 8.72227 14.7355 10.9234 13.65Z" fill="currentColor"/>
</svg>
