<svg width="36" height="36" viewBox="0 0 36 36" fill="none" xmlns="http://www.w3.org/2000/svg">
<path fill-rule="evenodd" clip-rule="evenodd" d="M6 7C6 4.23858 8.23858 2 11 2H25C27.7614 2 30 4.23858 30 7V29C30 31.7614 27.7614 34 25 34H11C8.23858 34 6 31.7614 6 29V26H4V24H6V19H4V17H6V12H4V10H6V7ZM11 4C9.34315 4 8 5.34315 8 7V29C8 30.6569 9.34315 32 11 32H25C26.6569 32 28 30.6569 28 29V7C28 5.34315 26.6569 4 25 4H11ZM12 10C12 8.89543 12.8954 8 14 8H22C23.1046 8 24 8.89543 24 10V20C24 21.1046 23.1046 22 22 22H14C12.8954 22 12 21.1046 12 20V10ZM22 10H14V20H22V10ZM20 28H12V26H20V28Z" fill="currentColor"/>
</svg>
