<svg width="36" height="36" viewBox="0 0 36 36" fill="none" xmlns="http://www.w3.org/2000/svg">
<path d="M4 7C4 5.34315 5.34315 4 7 4H16V2H7C4.23858 2 2 4.23858 2 7V22H4V7Z" fill="currentColor"/>
<path d="M18 14H12V12H18V14Z" fill="currentColor"/>
<path d="M26 16C24.8954 16 24 16.8954 24 18V24C24 25.1046 24.8954 26 26 26H30V24H26V18H30V16H26Z" fill="currentColor"/>
<path fill-rule="evenodd" clip-rule="evenodd" d="M12 8C9.79086 8 8 9.79086 8 12V26C8 28.2091 9.79086 30 12 30H30C32.2091 30 34 28.2091 34 26V16C34 13.7909 32.2091 12 30 12H23.1029C22.3058 12 21.5847 11.5266 21.2678 10.7952L21.1007 10.4096C20.4668 8.94673 19.0247 8 17.4304 8H12ZM10 12C10 10.8954 10.8954 10 12 10H17.4304C18.2276 10 18.9486 10.4734 19.2656 11.2048L19.4327 11.5904C20.0666 13.0533 21.5086 14 23.1029 14H30C31.1046 14 32 14.8954 32 16V26C32 27.1046 31.1046 28 30 28H12C10.8954 28 10 27.1046 10 26V12Z" fill="currentColor"/>
</svg>
