<svg width="36" height="36" viewBox="0 0 36 36" fill="none" xmlns="http://www.w3.org/2000/svg">
<path fill-rule="evenodd" clip-rule="evenodd" d="M7 6C4.23858 6 2 8.23858 2 11V14C2.52529 14 3.04543 14.1035 3.53073 14.3045C4.01604 14.5055 4.45699 14.8001 4.82843 15.1716C5.19986 15.543 5.4945 15.984 5.69552 16.4693C5.89654 16.9546 6 17.4747 6 18H8C8 17.2121 7.84481 16.4319 7.54328 15.7039C7.24175 14.9759 6.79979 14.3145 6.24264 13.7574C5.68549 13.2002 5.02406 12.7583 4.2961 12.4567C4.19831 12.4162 4.09957 12.3783 4 12.3431V11C4 9.34315 5.34315 8 7 8H22V12H24V8H29C30.6569 8 32 9.34315 32 11V12.3431C31.1642 12.6387 30.3962 13.1185 29.7574 13.7574C28.6321 14.8826 28 16.4087 28 18C28 19.5913 28.6321 21.1174 29.7574 22.2426C30.3962 22.8815 31.1642 23.3613 32 23.6569V25C32 26.6569 30.6569 28 29 28H24V24H22V28H18V30H29C31.7614 30 34 27.7614 34 25V22C32.9391 22 31.9217 21.5786 31.1716 20.8284C30.4214 20.0783 30 19.0609 30 18C30 16.9391 30.4214 15.9217 31.1716 15.1716C31.9217 14.4214 32.9391 14 34 14V11C34 8.23858 31.7614 6 29 6H7ZM22 16V20H24V16H22ZM4 27C4 24.2386 6.23858 22 9 22C11.7614 22 14 24.2386 14 27C14 29.7614 11.7614 32 9 32C7.98106 32 7.0333 31.6952 6.24293 31.1718L3.4337 33.9809L2.01953 32.5666L4.82861 29.7577C4.30496 28.9672 4 28.0192 4 27ZM9 24C7.34315 24 6 25.3431 6 27C6 28.6569 7.34315 30 9 30C10.6569 30 12 28.6569 12 27C12 25.3431 10.6569 24 9 24Z" fill="currentColor"/>
</svg>
