<svg width="36" height="36" viewBox="0 0 36 36" fill="none" xmlns="http://www.w3.org/2000/svg">
<path fill-rule="evenodd" clip-rule="evenodd" d="M6 3.89795V27.0002C6 28.6571 7.34314 30.0002 9 30.0002L32 30.0003V32.0003L9 32.0002C6.23857 32.0002 4 29.7617 4 27.0002V3.89795H6ZM27 8.00024C26.4477 8.00024 26 8.44795 26 9.00024C26 9.55252 26.4477 10.0002 27 10.0002C27.5523 10.0002 28 9.55252 28 9.00024C28 8.44795 27.5523 8.00024 27 8.00024ZM24 9.00024C24 7.34338 25.3431 6.00024 27 6.00024C28.6569 6.00024 30 7.34338 30 9.00024C30 10.6571 28.6569 12.0002 27 12.0002C25.3431 12.0002 24 10.6571 24 9.00024ZM17 12.0002C16.4477 12.0002 16 12.448 16 13.0002C16 13.5525 16.4477 14.0002 17 14.0002C17.5523 14.0002 18 13.5525 18 13.0002C18 12.448 17.5523 12.0002 17 12.0002ZM14 13.0002C14 11.3434 15.3431 10.0002 17 10.0002C18.6569 10.0002 20 11.3434 20 13.0002C20 14.6571 18.6569 16.0002 17 16.0002C15.3431 16.0002 14 14.6571 14 13.0002ZM23 20.0002C22.4477 20.0002 22 20.448 22 21.0002C22 21.5525 22.4477 22.0002 23 22.0002C23.5523 22.0002 24 21.5525 24 21.0002C24 20.448 23.5523 20.0002 23 20.0002ZM20 21.0002C20 19.3434 21.3431 18.0002 23 18.0002C24.6569 18.0002 26 19.3434 26 21.0002C26 22.6571 24.6569 24.0002 23 24.0002C21.3431 24.0002 20 22.6571 20 21.0002ZM13 22.0002C12.4477 22.0002 12 22.448 12 23.0002C12 23.5525 12.4477 24.0002 13 24.0002C13.5523 24.0002 14 23.5525 14 23.0002C14 22.448 13.5523 22.0002 13 22.0002ZM10 23.0002C10 21.3434 11.3431 20.0002 13 20.0002C14.6569 20.0002 16 21.3434 16 23.0002C16 24.6571 14.6569 26.0002 13 26.0002C11.3431 26.0002 10 24.6571 10 23.0002Z" fill="currentColor"/>
</svg>
