<svg width="36" height="36" viewBox="0 0 36 36" fill="none" xmlns="http://www.w3.org/2000/svg">
<path fill-rule="evenodd" clip-rule="evenodd" d="M6 22.6183V27.0002C6 28.6571 7.34314 30.0002 9 30.0002L28 30.0003V21.3877L23.0806 23.0275L17.1564 22.0401L11 25.1183L6 22.6183ZM6 20.3822L11 22.8822L16.8436 19.9604L22.9194 20.973L28 19.2795V14.6183L22.9282 17.1542L17.1274 13.287L11.1975 19.217L6 16.6183V20.3822ZM6 14.3822V3.89795H4V27.0002C4 29.7617 6.23857 32.0002 9 32.0002L32 32.0003V30.0003L30 30.0003V11.3822L23.0718 14.8463L16.8726 10.7134L10.8025 16.7835L6 14.3822Z" fill="currentColor"/>
</svg>
