<svg width="36" height="36" viewBox="0 0 36 36" fill="none" xmlns="http://www.w3.org/2000/svg">
<path fill-rule="evenodd" clip-rule="evenodd" d="M13 4H10V2H26V4H23V15.6893L31.4444 27.9658L31.4641 28C31.8152 28.6081 32 29.2979 32 30C32 30.7021 31.8152 31.3919 31.4641 32C31.113 32.6081 30.6081 33.113 30 33.4641C29.3919 33.8152 28.7021 34 28 34H8C7.29785 34 6.60808 33.8152 6 33.4641C5.39192 33.113 4.88697 32.6081 4.5359 32C4.18482 31.3919 4 30.7021 4 30C4 29.2979 4.18483 28.6081 4.5359 28L4.55564 27.9658L13 15.6893V4ZM21 4H15V15.9689C15 16.1915 14.9325 16.4089 14.8063 16.5923L12.4623 20H23.5377L21.1937 16.5923C21.0675 16.4089 21 16.1915 21 15.9689V4ZM24.9134 22H11.0867L6.25047 29.0309C6.08628 29.3273 6 29.6608 6 30C6 30.3511 6.09241 30.696 6.26795 31C6.44349 31.304 6.69596 31.5565 7 31.732C7.30404 31.9076 7.64893 32 8 32H28C28.3511 32 28.696 31.9076 29 31.732C29.304 31.5565 29.5565 31.304 29.732 31C29.9076 30.696 30 30.3511 30 30C30 29.6608 29.9137 29.3273 29.7495 29.0309L24.9134 22Z" fill="currentColor"/>
</svg>
