<svg width="36" height="36" viewBox="0 0 36 36" fill="none" xmlns="http://www.w3.org/2000/svg">
<path fill-rule="evenodd" clip-rule="evenodd" d="M14.5514 16.8015L23.141 2.4856L24.856 3.51459L16.416 17.5812C17.7152 18.3602 19.1904 19.8354 19.1904 22.3181C19.1904 26.4081 21.5849 29.4424 23.2282 31.0359C23.7899 31.5807 23.8143 32.3392 23.6197 32.8731C23.4239 33.4103 22.8973 34.0001 22.0694 34.0001H6.06641C4.91854 34.0001 3.9772 33.0252 4.09609 31.8396C4.22186 30.5854 4.49015 28.3905 4.99619 26.1361C5.49408 23.9181 6.25262 21.4948 7.42762 19.8882C8.8769 17.9065 10.4462 16.9895 11.9282 16.7022C12.9387 16.5062 13.8424 16.6161 14.5514 16.8015ZM12.3089 18.6656C11.4 18.8418 10.2439 19.4253 9.04196 21.0688C8.12672 22.3203 7.43717 24.3933 6.94764 26.5742C6.47139 28.6958 6.21336 30.7804 6.09004 32.0001H9.61898C9.5869 31.873 9.55453 31.7371 9.5223 31.592C9.2552 30.3901 8.99848 28.567 8.99848 26.0001H10.9985C10.9985 28.4332 11.2418 30.1101 11.4747 31.1582C11.5521 31.5064 11.6283 31.7855 11.6943 32.0001H14.566C14.5564 31.9672 14.5467 31.9337 14.537 31.8998C14.2667 30.9538 13.9985 29.6103 13.9985 28.0001H15.9985C15.9985 29.3899 16.2303 30.5464 16.46 31.3504C16.5325 31.6042 16.6046 31.8221 16.6687 32.0001H21.3678C19.584 30.1328 17.1904 26.7991 17.1904 22.3181C17.1904 20.343 15.6989 19.3304 14.6476 18.9365L14.6286 18.9294L14.6287 18.9292C14.0656 18.7051 13.2436 18.4844 12.3089 18.6656ZM29.9985 22.0001H23.9985V20.0001H29.9985V22.0001ZM31.9985 28.0001H25.9985V26.0001H31.9985V28.0001ZM16.8943 32.5556C16.8945 32.5561 16.8945 32.5561 16.8942 32.5556L16.8943 32.5556ZM33.9985 34.0001H27.9985V32.0001H33.9985V34.0001Z" fill="currentColor"/>
</svg>
