<svg width="36" height="36" viewBox="0 0 36 36" fill="none" xmlns="http://www.w3.org/2000/svg">
<path d="M17.9497 8.05025C18.8186 8.91912 19.4435 10.0014 19.7615 11.1883L21.6933 10.6706C21.2844 9.14463 20.4811 7.75315 19.364 6.63604C18.2469 5.51893 16.8554 4.71556 15.3294 4.30667C13.8034 3.89778 12.1966 3.89778 10.6706 4.30667C9.14463 4.71556 7.75315 5.51893 6.63604 6.63604C5.51893 7.75315 4.71556 9.14463 4.30667 10.6706C3.89778 12.1966 3.89778 13.8034 4.30667 15.3294C4.71556 16.8554 5.51893 18.2469 6.63604 19.364C7.75315 20.4811 9.14463 21.2844 10.6706 21.6933L11.1883 19.7615C10.0014 19.4435 8.91912 18.8186 8.05025 17.9497C7.18139 17.0809 6.55654 15.9986 6.23852 14.8117C5.92049 13.6248 5.92049 12.3752 6.23852 11.1883C6.55655 10.0014 7.18139 8.91911 8.05025 8.05025C8.91912 7.18139 10.0014 6.55654 11.1883 6.23852C12.3752 5.92049 13.6248 5.92049 14.8117 6.23852C15.9986 6.55654 17.0809 7.18139 17.9497 8.05025Z" fill="currentColor"/>
<path fill-rule="evenodd" clip-rule="evenodd" d="M32.8722 17.5424L10.4677 10.4673L17.5428 32.8718L23.0004 27.4142L27.5862 32C28.3673 32.781 29.6336 32.781 30.4146 32L32.0004 30.4142C32.7815 29.6332 32.7815 28.3668 32.0004 27.5858L27.4146 23L32.8722 17.5424ZM18.458 29.1282L13.5331 13.5327L29.1286 18.4576L24.5862 23L30.5862 29L29.0004 30.5858L23.0004 24.5858L18.458 29.1282Z" fill="currentColor"/>
</svg>
