<svg width="36" height="36" viewBox="0 0 36 36" fill="none" xmlns="http://www.w3.org/2000/svg">
<path fill-rule="evenodd" clip-rule="evenodd" d="M10.2218 9.22182C12.2847 7.15892 15.0826 6 18 6C20.9174 6 23.7153 7.15893 25.7782 9.22183C27.2341 10.6777 28.2397 12.4997 28.7055 14.4714C29.8048 14.8664 30.815 15.5013 31.6569 16.3431C33.1571 17.8434 34 19.8783 34 22C34 24.1217 33.1571 26.1566 31.6569 27.6569C30.1566 29.1571 28.1217 30 26 30H10C7.87827 30 5.84344 29.1571 4.34314 27.6569C2.84285 26.1566 2 24.1217 2 22C2 19.8783 2.84285 17.8434 4.34315 16.3431C5.18502 15.5013 6.19521 14.8664 7.29455 14.4713C7.76031 12.4997 8.76592 10.6777 10.2218 9.22182ZM18 8C15.6131 8 13.3239 8.94821 11.636 10.636C10.3247 11.9473 9.45984 13.6216 9.13923 15.4228L9.0284 16.0455L8.41834 16.2122C7.42069 16.4849 6.50138 17.0133 5.75736 17.7574C4.63214 18.8826 4 20.4087 4 22C4 23.5913 4.63214 25.1174 5.75736 26.2426C6.88258 27.3679 8.4087 28 10 28H26C27.5913 28 29.1174 27.3679 30.2426 26.2426C31.3679 25.1174 32 23.5913 32 22C32 20.4087 31.3679 18.8826 30.2426 17.7574C29.4986 17.0133 28.5793 16.4849 27.5817 16.2122L26.9716 16.0455L26.8608 15.4228C26.5402 13.6216 25.6753 11.9473 24.364 10.636C22.6761 8.94821 20.3869 8 18 8Z" fill="currentColor"/>
</svg>
