<svg width="36" height="36" viewBox="0 0 36 36" fill="none" xmlns="http://www.w3.org/2000/svg">
<path fill-rule="evenodd" clip-rule="evenodd" d="M4 9C4 6.23858 6.23858 4 9 4H27C29.7614 4 32 6.23858 32 9V28C32 30.2091 30.2091 32 28 32V30C29.1046 30 30 29.1046 30 28V9C30 7.34315 28.6569 6 27 6H9C7.34315 6 6 7.34315 6 9V28C6 29.1046 6.89543 30 8 30V32C5.79086 32 4 30.2091 4 28V9ZM8 10C8 8.89543 8.89543 8 10 8H12C13.1046 8 14 8.89543 14 10V12C14 13.1046 13.1046 14 12 14H10C8.89543 14 8 13.1046 8 12V10ZM12 10H10V12H12V10ZM16 12L28 12V10L16 10V12ZM16 22C16 20.8954 16.8954 20 18 20C19.1046 20 20 20.8954 20 22C20 23.1046 19.1046 24 18 24C16.8954 24 16 23.1046 16 22ZM18 18C15.7909 18 14 19.7909 14 22C14 24.2091 15.7909 26 18 26C20.2091 26 22 24.2091 22 22C22 19.7909 20.2091 18 18 18ZM17 28C14.2386 28 12 30.2386 12 33V34H14V33C14 31.3431 15.3431 30 17 30H19C20.6569 30 22 31.3431 22 33V34H24V33C24 30.2386 21.7614 28 19 28H17Z" fill="currentColor"/>
</svg>
