<svg width="36" height="36" viewBox="0 0 36 36" fill="none" xmlns="http://www.w3.org/2000/svg">
<path fill-rule="evenodd" clip-rule="evenodd" d="M11.8771 3.21793C14.8007 2.00693 18.0178 1.69008 21.1214 2.30744C24.2251 2.92481 27.0761 4.44866 29.3137 6.6863C31.5514 8.92394 33.0752 11.7749 33.6926 14.8786C34.3099 17.9823 33.9931 21.1993 32.7821 24.1229C31.5711 27.0466 29.5203 29.5454 26.8891 31.3035C24.2579 33.0616 21.1645 34 18 34C15.7909 34 14 32.2091 14 30V28C14 25.7909 12.2091 24 10 24H8C4.68629 24 2 21.3137 2 18C2 14.8355 2.93838 11.7421 4.69649 9.11088C6.45459 6.4797 8.95345 4.42894 11.8771 3.21793ZM20.7313 4.26901C18.0155 3.72882 15.2006 4.00607 12.6424 5.06569C10.0843 6.12532 7.89777 7.91973 6.35943 10.222C4.82109 12.5243 4 15.2311 4 18C4 20.2091 5.79086 22 8 22H10C13.3137 22 16 24.6863 16 28V30C16 31.1046 16.8954 32 18 32C20.7689 32 23.4757 31.1789 25.778 29.6406C28.0803 28.1022 29.8747 25.9157 30.9343 23.3576C31.9939 20.7994 32.2712 17.9845 31.731 15.2687C31.1908 12.553 29.8574 10.0584 27.8995 8.10051C25.9416 6.14258 23.447 4.80921 20.7313 4.26901ZM16 10C16 8.89544 16.8954 8.00001 18 8.00001C19.1046 8.00001 20 8.89544 20 10C20 11.1046 19.1046 12 18 12C16.8954 12 16 11.1046 16 10ZM10 14C10 12.8954 10.8954 12 12 12C13.1046 12 14 12.8954 14 14C14 15.1046 13.1046 16 12 16C10.8954 16 10 15.1046 10 14ZM22 14C22 12.8954 22.8954 12 24 12C25.1046 12 26 12.8954 26 14C26 15.1046 25.1046 16 24 16C22.8954 16 22 15.1046 22 14ZM24 20C24 18.8954 24.8954 18 26 18C27.1046 18 28 18.8954 28 20C28 21.1046 27.1046 22 26 22C24.8954 22 24 21.1046 24 20ZM20 26C20 24.8954 20.8954 24 22 24C23.1046 24 24 24.8954 24 26C24 27.1046 23.1046 28 22 28C20.8954 28 20 27.1046 20 26Z" fill="currentColor"/>
</svg>
