<svg width="36" height="36" viewBox="0 0 36 36" fill="none" xmlns="http://www.w3.org/2000/svg">
<path fill-rule="evenodd" clip-rule="evenodd" d="M11 4C9.34315 4 8 5.34315 8 7C8 8.65685 9.34315 10 11 10C12.6569 10 14 8.65685 14 7C14 5.34315 12.6569 4 11 4ZM6 7C6 4.23858 8.23858 2 11 2C13.7614 2 16 4.23858 16 7C16 9.76142 13.7614 12 11 12C8.23858 12 6 9.76142 6 7ZM27 4C25.3431 4 24 5.34315 24 7C24 8.65685 25.3431 10 27 10C28.6569 10 30 8.65685 30 7C30 5.34315 28.6569 4 27 4ZM22 7C22 4.23858 24.2386 2 27 2C29.7614 2 32 4.23858 32 7C32 9.76142 29.7614 12 27 12C24.2386 12 22 9.76142 22 7ZM2 21C2 17.134 5.13401 14 9 14H10V16H9C6.23858 16 4 18.2386 4 21V22H2V21ZM18 16C16.3431 16 15 17.3431 15 19C15 20.6569 16.3431 22 18 22C19.6569 22 21 20.6569 21 19C21 17.3431 19.6569 16 18 16ZM13 19C13 16.2386 15.2386 14 18 14C20.7614 14 23 16.2386 23 19C23 21.7614 20.7614 24 18 24C15.2386 24 13 21.7614 13 19ZM27 16H26V14H27C30.866 14 34 17.134 34 21V22H32V21C32 18.2386 29.7614 16 27 16ZM9 33C9 29.134 12.134 26 16 26H20C23.866 26 27 29.134 27 33V34H25V33C25 30.2386 22.7614 28 20 28H16C13.2386 28 11 30.2386 11 33V34H9V33Z" fill="currentColor"/>
</svg>
