<svg width="36" height="36" viewBox="0 0 36 36" fill="none" xmlns="http://www.w3.org/2000/svg">
<path fill-rule="evenodd" clip-rule="evenodd" d="M21.0043 10.6415C21.6244 9.93688 22.0005 9.01236 22.0005 8C22.0005 5.79086 20.2096 4 18.0005 4C15.7913 4 14.0005 5.79086 14.0005 8C14.0005 9.01216 14.3764 9.93651 14.9963 10.6411C13.2757 11.3997 11.8624 12.7765 11.1842 14.4723C11.0553 14.7948 11.1381 15.1611 11.3879 15.4025C13.0507 17.0098 15.5333 18 18.0005 18C20.4662 18 22.9498 17.0085 24.6128 15.4023C24.8626 15.161 24.9456 14.7948 24.8168 14.4723C24.1391 12.7762 22.7253 11.4 21.0043 10.6415ZM20.0005 8C20.0005 9.10457 19.1051 10 18.0005 10C16.8959 10 16.0005 9.10457 16.0005 8C16.0005 6.89543 16.8959 6 18.0005 6C19.1051 6 20.0005 6.89543 20.0005 8ZM18.0005 16C16.329 16 14.6548 15.422 13.4084 14.4975C14.3255 13.0419 16.1009 12 17.9987 12C19.8987 12 21.6754 13.0418 22.5924 14.4968C21.3452 15.4213 19.6702 16 18.0005 16Z" fill="currentColor"/>
<path fill-rule="evenodd" clip-rule="evenodd" d="M13.0005 22C13.0005 23.0124 12.6244 23.9369 12.0043 24.6415C13.7253 25.4 15.1391 26.7762 15.8168 28.4723C15.9456 28.7948 15.8626 29.161 15.6128 29.4023C13.9498 31.0085 11.4662 32 9.00046 32C6.53334 32 4.0507 31.0098 2.38786 29.4025C2.13813 29.1611 2.05528 28.7948 2.18425 28.4723C2.86239 26.7765 4.27572 25.3997 5.99628 24.6411C5.37642 23.9365 5.00049 23.0122 5.00049 22C5.00049 19.7909 6.79135 18 9.00049 18C11.2096 18 13.0005 19.7909 13.0005 22ZM11.0005 22C11.0005 23.1046 10.1051 24 9.00049 24C7.89592 24 7.00049 23.1046 7.00049 22C7.00049 20.8954 7.89592 20 9.00049 20C10.1051 20 11.0005 20.8954 11.0005 22ZM4.40839 28.4975C5.6548 29.422 7.32899 30 9.00046 30C10.6702 30 12.3452 29.4213 13.5924 28.4968C12.6754 27.0418 10.8987 26 8.9987 26C7.10088 26 5.32554 27.0419 4.40839 28.4975Z" fill="currentColor"/>
<path fill-rule="evenodd" clip-rule="evenodd" d="M30.0043 24.6415C30.6244 23.9369 31.0005 23.0124 31.0005 22C31.0005 19.7909 29.2096 18 27.0005 18C24.7913 18 23.0005 19.7909 23.0005 22C23.0005 23.0122 23.3764 23.9365 23.9963 24.6411C22.2757 25.3997 20.8624 26.7765 20.1842 28.4723C20.0553 28.7948 20.1381 29.1611 20.3879 29.4025C22.0507 31.0098 24.5333 32 27.0005 32C29.4662 32 31.9498 31.0085 33.6128 29.4023C33.8626 29.161 33.9456 28.7948 33.8168 28.4723C33.1391 26.7762 31.7253 25.4 30.0043 24.6415ZM27.0005 24C28.1051 24 29.0005 23.1046 29.0005 22C29.0005 20.8954 28.1051 20 27.0005 20C25.8959 20 25.0005 20.8954 25.0005 22C25.0005 23.1046 25.8959 24 27.0005 24ZM27.0005 30C25.329 30 23.6548 29.422 22.4084 28.4975C23.3255 27.0419 25.1009 26 26.9987 26C28.8987 26 30.6754 27.0418 31.5924 28.4968C30.3452 29.4213 28.6702 30 27.0005 30Z" fill="currentColor"/>
</svg>
