<svg width="36" height="36" viewBox="0 0 36 36" fill="none" xmlns="http://www.w3.org/2000/svg">
<path fill-rule="evenodd" clip-rule="evenodd" d="M22.9457 5.97951L25.7609 8.79474L31.4185 3.13708L32.8327 4.5513L27.1751 10.209L30.0167 13.0506C30.4072 13.4411 30.4073 14.0742 30.0168 14.4647L25.0675 19.4151L26.4811 20.8287L25.0669 22.2429L13.7532 10.9292L15.1674 9.51496L16.5822 10.9298L21.5314 5.97958C21.9219 5.58899 22.5551 5.58895 22.9457 5.97951ZM17.9965 12.344L23.6533 18.0009L27.8955 13.7578L22.2386 8.1009L17.9965 12.344ZM4.54697 32.8347L10.204 27.1781L13.046 30.02C13.4365 30.4106 14.0697 30.4106 14.4602 30.02L19.41 25.0703L20.8249 26.4852L22.2391 25.071L10.9254 13.7573L9.51115 15.1715L10.9247 16.585L5.97494 21.5348C5.58441 21.9253 5.58441 22.5584 5.97494 22.949L8.78983 25.7639L3.13281 31.4204L4.54697 32.8347ZM12.3389 17.9992L8.09626 22.2419L13.7531 27.8987L17.9957 23.6561L12.3389 17.9992Z" fill="currentColor"/>
</svg>
