<svg width="36" height="36" viewBox="0 0 36 36" fill="none" xmlns="http://www.w3.org/2000/svg">
<path fill-rule="evenodd" clip-rule="evenodd" d="M33.9998 2H23.9998V4H30.5855L22.0078 12.5777L23.422 13.992L31.9998 5.41421V12H33.9998V2ZM6 9C6 7.34315 7.34315 6 9 6H20V4H9C6.23858 4 4 6.23858 4 9V27C4 29.7614 6.23858 32 9 32H27C29.7614 32 32 29.7614 32 27V16H30V27C30 28.6569 28.6569 30 27 30H9C7.34315 30 6 28.6569 6 27V9ZM10 8C8.89543 8 8 8.89543 8 10V12C8 13.1046 8.89543 14 10 14H12C13.1046 14 14 13.1046 14 12V10C14 8.89543 13.1046 8 12 8H10ZM10 10H12V12H10V10ZM8 26H28V24H8V26Z" fill="currentColor"/>
</svg>
