<svg width="36" height="36" viewBox="0 0 36 36" fill="none" xmlns="http://www.w3.org/2000/svg">
<path fill-rule="evenodd" clip-rule="evenodd" d="M4 9C4 6.23858 6.23858 4 9 4H27C29.7614 4 32 6.23858 32 9V27C32 29.7614 29.7614 32 27 32H9C6.23858 32 4 29.7614 4 27V9ZM9 6C7.34315 6 6 7.34315 6 9V27C6 28.6569 7.34315 30 9 30H27C28.6569 30 30 28.6569 30 27V9C30 7.34315 28.6569 6 27 6H9ZM8 10C8 8.89543 8.89543 8 10 8H12C13.1046 8 14 8.89543 14 10V12C14 13.1046 13.1046 14 12 14H10C8.89543 14 8 13.1046 8 12V10ZM12 10H10V12H12V10ZM28 12L16 12V10L28 10V12ZM12.0778 22C12.1193 22.0929 12.1712 22.2029 12.2342 22.3261C12.4465 22.7416 12.7789 23.2949 13.2557 23.8451C14.1986 24.9331 15.6913 26 18 26C20.3087 26 21.8014 24.9331 22.7443 23.8451C23.2211 23.2949 23.5535 22.7416 23.7658 22.3261C23.8288 22.2029 23.8807 22.0929 23.9222 22C23.8807 21.9071 23.8288 21.7971 23.7658 21.6739C23.5535 21.2584 23.2211 20.7051 22.7443 20.1549C21.8014 19.0669 20.3087 18 18 18C15.6913 18 14.1986 19.0669 13.2557 20.1549C12.7789 20.7051 12.4465 21.2584 12.2342 21.6739C12.1712 21.7971 12.1193 21.9071 12.0778 22ZM26.0541 22L25.9484 21.6828L25.9472 21.6793L25.945 21.6729L25.9388 21.6549L25.9182 21.5978C25.9008 21.5507 25.8761 21.486 25.8434 21.4062C25.7781 21.2467 25.6806 21.0257 25.5467 20.7636C25.2799 20.2416 24.8622 19.5449 24.2557 18.8451C23.0319 17.4331 21.0246 16 18 16C14.9754 16 12.9681 17.4331 11.7443 18.8451C11.1378 19.5449 10.7201 20.2416 10.4533 20.7636C10.3194 21.0257 10.2219 21.2467 10.1566 21.4062C10.1239 21.486 10.0992 21.5507 10.0818 21.5978L10.0612 21.6549L10.055 21.6729L10.0528 21.6793L10.052 21.6818L9.94591 22L10.0513 22.3162L10.052 22.3182L10.0528 22.3207L10.055 22.3271L10.0612 22.3451L10.0818 22.4022C10.0992 22.4493 10.1239 22.514 10.1566 22.5938C10.2219 22.7533 10.3194 22.9743 10.4533 23.2364C10.7201 23.7584 11.1378 24.4551 11.7443 25.1549C12.9681 26.5669 14.9754 28 18 28C21.0246 28 23.0319 26.5669 24.2557 25.1549C24.8622 24.4551 25.2799 23.7584 25.5467 23.2364C25.6806 22.9743 25.7781 22.7533 25.8434 22.5938C25.8761 22.514 25.9008 22.4493 25.9182 22.4022L25.9388 22.3451L25.945 22.3271L25.9472 22.3207L25.948 22.3182L26.0541 22ZM16 22C16 20.8954 16.8954 20 18 20C19.1046 20 20 20.8954 20 22C20 23.1046 19.1046 24 18 24C16.8954 24 16 23.1046 16 22Z" fill="currentColor"/>
</svg>
