<svg width="36" height="36" viewBox="0 0 36 36" fill="none" xmlns="http://www.w3.org/2000/svg">
<path fill-rule="evenodd" clip-rule="evenodd" d="M18 4C10.268 4 4 10.268 4 18C4 25.732 10.268 32 18 32C25.732 32 32 25.732 32 18C32 10.268 25.732 4 18 4ZM2 18C2 9.16344 9.16344 2 18 2C26.8366 2 34 9.16344 34 18C34 26.8366 26.8366 34 18 34C9.16344 34 2 26.8366 2 18ZM15 12C14.4477 12 14 12.4477 14 13V23C14 23.5523 14.4477 24 15 24H22V26H15C13.3431 26 12 24.6569 12 23V13C12 11.3431 13.3431 10 15 10H22V12H15Z" fill="currentColor"/>
</svg>
