<svg width="36" height="36" viewBox="0 0 36 36" fill="none" xmlns="http://www.w3.org/2000/svg">
<path fill-rule="evenodd" clip-rule="evenodd" d="M6 7C6 4.23858 8.23858 2 11 2H21.3431C22.6692 2 23.941 2.52678 24.8787 3.46447L28.5355 7.12132C29.4732 8.059 30 9.33077 30 10.6569V14H28V12H23C21.3431 12 20 10.6569 20 9V4H11C9.34315 4 8 5.34315 8 7V14H6V7ZM23.7071 5.12132L26.8787 8.29289C27.3557 8.76994 27.6939 9.35992 27.8671 10H23C22.4477 10 22 9.55228 22 9V4.1329C22.6401 4.30612 23.2301 4.64427 23.7071 5.12132Z" fill="currentColor"/>
<path d="M6 34V32H30V34H6Z" fill="currentColor"/>
<path d="M8 18H12V20H8L8 26H12V28H8C6.89543 28 6 27.1046 6 26V20C6 18.8954 6.89543 18 8 18Z" fill="currentColor"/>
<path d="M16 18H20V20H16V22H18C19.1046 22 20 22.8954 20 24V26C20 27.1046 19.1046 28 18 28H14V26H18L18 24H16C14.8954 24 14 23.1046 14 22V20C14 18.8954 14.8954 18 16 18Z" fill="currentColor"/>
<path d="M24 18H22L24 28H26L28 18H26L25 23L24 18Z" fill="currentColor"/>
</svg>
