<svg width="36" height="36" viewBox="0 0 36 36" fill="none" xmlns="http://www.w3.org/2000/svg">
<path fill-rule="evenodd" clip-rule="evenodd" d="M20 10H13V26H20C21.6569 26 23 24.6569 23 23V13C23 11.3431 21.6569 10 20 10ZM20 24H15V12H20C20.5523 12 21 12.4477 21 13V23C21 23.5523 20.5523 24 20 24Z" fill="currentColor"/>
<path fill-rule="evenodd" clip-rule="evenodd" d="M34 18C34 26.8366 26.8366 34 18 34C9.16344 34 2 26.8366 2 18C2 9.16344 9.16344 2 18 2C26.8366 2 34 9.16344 34 18ZM32 18C32 25.732 25.732 32 18 32C10.268 32 4 25.732 4 18C4 10.268 10.268 4 18 4C25.732 4 32 10.268 32 18Z" fill="currentColor"/>
</svg>
