<svg width="36" height="36" viewBox="0 0 36 36" fill="none" xmlns="http://www.w3.org/2000/svg">
<path fill-rule="evenodd" clip-rule="evenodd" d="M4 7.11111C4 5.39289 5.39289 4 7.11111 4H12.8889C14.6071 4 16 5.39289 16 7.11111V16.8889C16 18.6071 14.6071 20 12.8889 20H7.11111C5.39289 20 4 18.6071 4 16.8889V7.11111ZM7.11111 6H12.8889C13.5025 6 14 6.49746 14 7.11111V16.8889C14 17.5025 13.5025 18 12.8889 18H7.11111C6.49746 18 6 17.5025 6 16.8889V7.11111C6 6.49746 6.49746 6 7.11111 6Z" fill="currentColor"/>
<path fill-rule="evenodd" clip-rule="evenodd" d="M20 19.1111C20 17.3929 21.3929 16 23.1111 16H28.8889C30.6071 16 32 17.3929 32 19.1111V28.8889C32 30.6071 30.6071 32 28.8889 32H23.1111C21.3929 32 20 30.6071 20 28.8889V19.1111ZM22 19.1111C22 18.4975 22.4975 18 23.1111 18H28.8889C29.5025 18 30 18.4975 30 19.1111V28.8889C30 29.5025 29.5025 30 28.8889 30H23.1111C22.4975 30 22 29.5025 22 28.8889V19.1111Z" fill="currentColor"/>
<path fill-rule="evenodd" clip-rule="evenodd" d="M7.11111 22C5.39289 22 4 23.3929 4 25.1111V28.8889C4 30.6071 5.39289 32 7.11111 32H12.8889C14.6071 32 16 30.6071 16 28.8889V25.1111C16 23.3929 14.6071 22 12.8889 22H7.11111ZM12.8889 24H7.11111C6.49746 24 6 24.4975 6 25.1111V28.8889C6 29.5025 6.49746 30 7.11111 30H12.8889C13.5025 30 14 29.5025 14 28.8889V25.1111C14 24.4975 13.5025 24 12.8889 24Z" fill="currentColor"/>
<path fill-rule="evenodd" clip-rule="evenodd" d="M31 9C31 11.7614 28.7614 14 26 14C23.2386 14 21 11.7614 21 9C21 6.23858 23.2386 4 26 4C28.7614 4 31 6.23858 31 9ZM29 9C29 10.6569 27.6569 12 26 12C24.3431 12 23 10.6569 23 9C23 7.34315 24.3431 6 26 6C27.6569 6 29 7.34315 29 9Z" fill="currentColor"/>
</svg>
