<svg width="36" height="36" viewBox="0 0 36 36" fill="none" xmlns="http://www.w3.org/2000/svg">
<path d="M9.00098 6C5.13498 6 2.00098 9.13401 2.00098 13V23C2.00098 26.866 5.13498 30 9.00098 30H18.5868L23.2939 34.7071L24.7081 33.2929L19.4152 28H9.00098C6.23955 28 4.00098 25.7614 4.00098 23V13C4.00098 10.2386 6.23955 8 9.00098 8H27.001C29.7624 8 32.001 10.2386 32.001 13V23C32.001 25.7614 29.7624 28 27.001 28H26.001V30H27.001C30.867 30 34.001 26.866 34.001 23V13C34.001 9.13401 30.867 6 27.001 6H9.00098Z" fill="currentColor"/>
<path d="M12.001 10H10.001V16H12.001V10Z" fill="currentColor"/>
<path fill-rule="evenodd" clip-rule="evenodd" d="M16.001 10C14.8964 10 14.001 10.8954 14.001 12V14C14.001 15.1046 14.8964 16 16.001 16H20.001C21.1055 16 22.001 15.1046 22.001 14V12C22.001 10.8954 21.1055 10 20.001 10H16.001ZM16.001 12H20.001V14H16.001V12Z" fill="currentColor"/>
<path d="M26.001 10H24.001V16H26.001V10Z" fill="currentColor"/>
<path fill-rule="evenodd" clip-rule="evenodd" d="M12.001 20C10.8964 20 10.001 20.8954 10.001 22V24C10.001 25.1046 10.8964 26 12.001 26H16.001C17.1055 26 18.001 25.1046 18.001 24V22C18.001 20.8954 17.1055 20 16.001 20H12.001ZM12.001 22H16.001V24H12.001V22Z" fill="currentColor"/>
<path d="M22.001 20H20.001V26H22.001V20Z" fill="currentColor"/>
<path d="M26.001 20H24.001V26H26.001V20Z" fill="currentColor"/>
</svg>
