<svg width="36" height="36" viewBox="0 0 36 36" fill="none" xmlns="http://www.w3.org/2000/svg">
<path fill-rule="evenodd" clip-rule="evenodd" d="M4 9C4 6.23858 6.23858 4 9 4H27C29.7614 4 32 6.23858 32 9V20H30V9C30 7.34315 28.6569 6 27 6H9C7.34315 6 6 7.34315 6 9V27C6 28.6569 7.34315 30 9 30H20V32H9C6.23858 32 4 29.7614 4 27V9ZM10 16V10H12V16H10ZM16 10C14.8954 10 14 10.8954 14 12V14C14 15.1046 14.8954 16 16 16H20C21.1046 16 22 15.1046 22 14V12C22 10.8954 21.1046 10 20 10H16ZM16 12H20V14H16V12ZM24 16V10H26V16H24ZM12 20C10.8954 20 10 20.8954 10 22V24C10 25.1046 10.8954 26 12 26H16C17.1046 26 18 25.1046 18 24V22C18 20.8954 17.1046 20 16 20H12ZM12 24V22H16V24H12ZM20 20H22V24H20V20ZM30 24H28V28H24V30H28V34H30V30H34V28H30V24Z" fill="currentColor"/>
</svg>
