<svg width="36" height="36" viewBox="0 0 36 36" fill="none" xmlns="http://www.w3.org/2000/svg">
<path fill-rule="evenodd" clip-rule="evenodd" d="M21 8H6V6H21C23.419 6 25.4367 7.71776 25.9 10H27.7639C28.9002 10 29.939 10.642 30.4472 11.6584L34 18.7639V25C34 26.6569 32.6569 28 31 28H30C30 30.2091 28.2091 32 26 32C23.7909 32 22 30.2091 22 28H14C14 30.2091 12.2091 32 10 32C7.79086 32 6 30.2091 6 28C6 25.7909 7.79086 24 10 24C11.4806 24 12.7733 24.8044 13.4649 26H22.5351C22.8864 25.3927 23.3927 24.8864 24 24.5351V11C24 9.34315 22.6569 8 21 8ZM26 24C27.4806 24 28.7733 24.8044 29.4649 26H31C31.5523 26 32 25.5523 32 25V20H26V24ZM31.382 18H26V12H27.7639C28.1427 12 28.489 12.214 28.6584 12.5528L31.382 18ZM2 12H14V14H2V12ZM4 18H18V20H4V18ZM10 26C8.89543 26 8 26.8954 8 28C8 29.1046 8.89543 30 10 30C11.1046 30 12 29.1046 12 28C12 26.8954 11.1046 26 10 26ZM26 26C24.8954 26 24 26.8954 24 28C24 29.1046 24.8954 30 26 30C27.1046 30 28 29.1046 28 28C28 26.8954 27.1046 26 26 26Z" fill="currentColor"/>
</svg>
