<svg width="36" height="36" viewBox="0 0 36 36" fill="none" xmlns="http://www.w3.org/2000/svg">
<path fill-rule="evenodd" clip-rule="evenodd" d="M27.1792 10.2082L32.8362 4.5513L31.4219 3.13708L25.765 8.79402L22.9505 5.97948C22.5599 5.58893 21.9267 5.58896 21.5362 5.97956L16.5871 10.9298L15.1722 9.51494L13.758 10.9292L25.0717 22.2429L26.4859 20.8286L25.0723 19.4151L30.0216 14.4647C30.4121 14.0741 30.412 13.441 30.0215 13.0505L27.1792 10.2082ZM23.6581 18.0008L18.0013 12.344L22.2434 8.10088L27.9003 13.7577L23.6581 18.0008Z" fill="currentColor"/>
<path fill-rule="evenodd" clip-rule="evenodd" d="M10.208 27.1781L4.55086 32.8347L3.13672 31.4204L8.79379 25.7639L5.97879 22.9489C5.58826 22.5584 5.58826 21.9252 5.97879 21.5347L10.9285 16.585L9.51501 15.1714L10.9292 13.7572L22.2429 25.0709L20.8287 26.4852L19.4138 25.0702L14.4641 30.02C14.0735 30.4105 13.4404 30.4105 13.0499 30.02L10.208 27.1781ZM8.10011 22.2418L12.3427 17.9992L17.9996 23.656L13.757 27.8987L8.10011 22.2418Z" fill="currentColor"/>
<path d="M32.2944 24.2929L29.0013 27.5858L25.7084 24.2929L24.2942 25.7071L27.5871 29L24.2942 32.2929L25.7084 33.7071L29.0013 30.4142L32.2942 33.7071L33.7084 32.2929L30.4156 29L33.7086 25.7071L32.2944 24.2929Z" fill="currentColor"/>
</svg>
