<svg width="36" height="36" viewBox="0 0 36 36" fill="none" xmlns="http://www.w3.org/2000/svg">
<path fill-rule="evenodd" clip-rule="evenodd" d="M6 7C6 4.23858 8.23858 2 11 2H21.3431C22.6692 2 23.941 2.52678 24.8787 3.46447L28.5355 7.12132C29.4732 8.059 30 9.33077 30 10.6569V14H28V12H23C21.3431 12 20 10.6569 20 9V4H11C9.34315 4 8 5.34315 8 7V29C8 30.6569 9.34315 32 11 32H26C27.1046 32 28 31.1046 28 30H30C30 32.2091 28.2091 34 26 34H11C8.23858 34 6 31.7614 6 29V7ZM22 4.07278V9C22 9.55228 22.4477 10 23 10H27.9272C27.8037 9.44969 27.5264 8.94065 27.1213 8.53553L23.4645 4.87868C23.0594 4.47357 22.5503 4.19628 22 4.07278ZM18 20C18 18.8954 18.8954 18 20 18H30C31.1046 18 32 18.8954 32 20V24C32 25.1046 31.1046 26 30 26H20C18.8954 26 18 25.1046 18 24V20ZM30 20H20V24H30V20Z" fill="currentColor"/>
</svg>
