<svg width="36" height="36" viewBox="0 0 36 36" fill="none" xmlns="http://www.w3.org/2000/svg">
<path d="M12 6C12 4.89543 12.8954 4 14 4C15.1046 4 16 4.89543 16 6C16 7.10457 15.1046 8 14 8C12.8954 8 12 7.10457 12 6Z" fill="currentColor"/>
<path d="M20 6C20 4.89543 20.8954 4 22 4C23.1046 4 24 4.89543 24 6C24 7.10457 23.1046 8 22 8C20.8954 8 20 7.10457 20 6Z" fill="currentColor"/>
<path d="M12 14C12 12.8954 12.8954 12 14 12C15.1046 12 16 12.8954 16 14C16 15.1046 15.1046 16 14 16C12.8954 16 12 15.1046 12 14Z" fill="currentColor"/>
<path d="M20 14C20 12.8954 20.8954 12 22 12C23.1046 12 24 12.8954 24 14C24 15.1046 23.1046 16 22 16C20.8954 16 20 15.1046 20 14Z" fill="currentColor"/>
<path d="M12 30C12 28.8954 12.8954 28 14 28C15.1046 28 16 28.8954 16 30C16 31.1046 15.1046 32 14 32C12.8954 32 12 31.1046 12 30Z" fill="currentColor"/>
<path d="M20 30C20 28.8954 20.8954 28 22 28C23.1046 28 24 28.8954 24 30C24 31.1046 23.1046 32 22 32C20.8954 32 20 31.1046 20 30Z" fill="currentColor"/>
<path d="M12 22C12 20.8954 12.8954 20 14 20C15.1046 20 16 20.8954 16 22C16 23.1046 15.1046 24 14 24C12.8954 24 12 23.1046 12 22Z" fill="currentColor"/>
<path d="M20 22C20 20.8954 20.8954 20 22 20C23.1046 20 24 20.8954 24 22C24 23.1046 23.1046 24 22 24C20.8954 24 20 23.1046 20 22Z" fill="currentColor"/>
</svg>
