<svg width="36" height="36" viewBox="0 0 36 36" fill="none" xmlns="http://www.w3.org/2000/svg">
<path fill-rule="evenodd" clip-rule="evenodd" d="M9 7.27577C5.94305 9.84392 4 13.695 4 18C4 24.9915 9.12489 30.786 15.823 31.8317L15.0841 26.6601L10.1056 24.1708C9.42801 23.832 9 23.1395 9 22.382V18.677C9 17.8592 9.4979 17.1238 10.2572 16.8201L14.4498 15.143C14.686 15.0485 14.9381 15 15.1926 15H20V10L17.618 10L17.1708 10.8944C16.832 11.572 16.1395 12 15.382 12H11C9.89543 12 9 11.1046 9 10V7.27577ZM11 5.87295V10H15.382L15.8292 9.10557C16.168 8.428 16.8605 8 17.618 8H20C21.1046 8 22 8.89543 22 10V15C22 16.1046 21.1046 17 20 17H15.1926L11 18.677V22.382L15.9786 24.8713C16.5656 25.1648 16.9712 25.7276 17.064 26.3773L17.8672 31.9994C17.9114 31.9998 17.9557 32 18 32C20.1472 32 22.1815 31.5166 24 30.6527V26.3028C24 25.9079 24.1169 25.5219 24.3359 25.1934L25.9382 22.7899L25.0388 18.2932C25.013 18.1641 25 18.0327 25 17.901V16C25 14.8954 25.8954 14 27 14H31.4202C29.6991 8.21702 24.342 4 18 4C15.45 4 13.0592 4.68176 11 5.87295ZM31.8582 16H27V17.901L27.8993 22.3977C28.0034 22.9178 27.8965 23.458 27.6023 23.8993L26 26.3028V29.4906C29.627 26.9607 32 22.7575 32 18C32 17.321 31.9517 16.6532 31.8582 16ZM2 18C2 9.16344 9.16344 2 18 2C26.8366 2 34 9.16344 34 18C34 26.8366 26.8366 34 18 34C9.16344 34 2 26.8366 2 18Z" fill="currentColor"/>
</svg>
