<svg width="36" height="36" viewBox="0 0 36 36" fill="none" xmlns="http://www.w3.org/2000/svg">
<path fill-rule="evenodd" clip-rule="evenodd" d="M4.43845 6H2V4H4.43845C5.81505 4 7.015 4.93689 7.34887 6.27239L7.53078 7H29.2921C31.3105 7 32.753 8.9531 32.1594 10.8823L29.3902 19.8823C29.0029 21.141 27.8399 22 26.5229 22H11.2808L11.5914 23.2425C11.7027 23.6877 12.1027 24 12.5616 24H28V26H12.5616C11.185 26 9.985 25.0631 9.65113 23.7276L5.40859 6.75746C5.2973 6.3123 4.89731 6 4.43845 6ZM10.7808 20H26.5229C26.9619 20 27.3495 19.7137 27.4786 19.2941L30.2479 10.2941C30.4457 9.65103 29.9649 9 29.2921 9H8.03078L10.7808 20ZM10 30C10 28.8954 10.8954 28 12 28C13.1046 28 14 28.8954 14 30C14 31.1046 13.1046 32 12 32C10.8954 32 10 31.1046 10 30ZM24 30C24 28.8954 24.8954 28 26 28C27.1046 28 28 28.8954 28 30C28 31.1046 27.1046 32 26 32C24.8954 32 24 31.1046 24 30Z" fill="currentColor"/>
</svg>
