<svg width="36" height="36" viewBox="0 0 36 36" fill="none" xmlns="http://www.w3.org/2000/svg">
<path fill-rule="evenodd" clip-rule="evenodd" d="M28.7721 4.88454C27.6006 3.71297 25.7011 3.71297 24.5295 4.88454L21.4142 7.99982L26 12.5856L29.1153 9.47033C30.2869 8.29875 30.2868 6.39926 29.1153 5.22768L28.7721 4.88454ZM24.5858 13.9998L20 9.41404L6.00001 23.414L6 27.9998L10.5858 27.9998L24.5858 13.9998ZM23.1153 3.47033C25.0679 1.5177 28.2337 1.5177 30.1863 3.47033L30.5295 3.81347C32.4821 5.76609 32.4821 8.93192 30.5295 10.8845L11.4142 29.9998L4 29.9998L4.00001 22.5856L23.1153 3.47033ZM34 33.9998H2V31.9998H34V33.9998Z" fill="currentColor"/>
</svg>
