<svg width="36" height="36" viewBox="0 0 36 36" fill="none" xmlns="http://www.w3.org/2000/svg">
<path fill-rule="evenodd" clip-rule="evenodd" d="M17.9995 4C15.7904 4 13.9995 5.79086 13.9995 8H11.9995C11.9995 7.34579 12.1042 6.71603 12.2978 6.12657C11.5394 6.41078 10.9995 7.14235 10.9995 8C10.9995 8.13312 11.0124 8.26226 11.0367 8.38654C11.1212 8.81979 11.3468 9.2049 11.6664 9.49097L10.3326 10.9812C9.79856 10.5033 9.39264 9.88232 9.17575 9.17699C8.48211 9.49092 7.99952 10.1891 7.99952 11C7.99952 11.3653 8.09668 11.7061 8.26687 12H27.7322C27.9024 11.7061 27.9995 11.3653 27.9995 11C27.9995 10.1891 27.5169 9.49091 26.8233 9.17698C26.6064 9.88232 26.2005 10.5033 25.6664 10.9812L24.3326 9.49097C24.6522 9.2049 24.8778 8.81979 24.9624 8.38654C24.9867 8.26225 24.9995 8.13311 24.9995 8C24.9995 7.14235 24.4597 6.41079 23.7013 6.12658C23.8948 6.71603 23.9995 7.34579 23.9995 8H21.9995C21.9995 5.79086 20.2087 4 17.9995 4ZM22.4994 4.03107C21.3999 2.78555 19.7915 2 17.9995 2C16.2076 2 14.5991 2.78555 13.4997 4.03107C13.3356 4.01055 13.1687 4 12.9995 4C11.0994 4 9.50867 5.32493 9.10087 7.10135C7.32445 7.50915 5.99952 9.09985 5.99952 11C5.99952 11.345 6.04337 11.6802 6.12577 12H5.89453L7.64428 29.4975C7.89988 32.0535 10.0507 34 12.6195 34H23.3796C25.9483 34 28.0992 32.0535 28.3548 29.4975L30.1045 12H29.8733C29.9557 11.6802 29.9995 11.345 29.9995 11C29.9995 9.09984 28.6746 7.50915 26.8982 7.10135C26.4904 5.32493 24.8997 4 22.9995 4C22.8304 4 22.6634 4.01055 22.4994 4.03107ZM27.8945 14H21.9995V32H23.3796C24.9208 32 26.2113 30.8321 26.3647 29.2985L27.8945 14ZM19.9995 32V14H15.9995V32H19.9995ZM13.9995 32V14H8.10451L9.63436 29.2985C9.78772 30.8321 11.0782 32 12.6195 32H13.9995Z" fill="currentColor"/>
</svg>
