<svg width="36" height="36" viewBox="0 0 36 36" fill="none" xmlns="http://www.w3.org/2000/svg">
<g clip-path="url(#clip0_97_748)">
<path d="M18 34C26.8366 34 34 26.8366 34 18C34 9.16344 26.8366 2 18 2C9.16344 2 2 9.16344 2 18C2 26.8366 9.16344 34 18 34Z" fill="url(#paint0_linear_97_748)"/>
<path fill-rule="evenodd" clip-rule="evenodd" d="M17.859 28.8069C20.727 28.8069 23.052 28.4931 23.052 27.7088C23.052 27.3951 20.727 26.4209 17.859 26.4209C14.991 26.4209 12.666 27.552 12.666 27.7088C12.666 28.3153 14.991 28.8069 17.859 28.8069Z" fill="#252B39"/>
<path fill-rule="evenodd" clip-rule="evenodd" d="M6.41003 18.368C9.29296 19.9585 11.3922 20.3102 14.8378 20.2745C14.9228 20.2736 14.9938 20.2729 15.055 20.2723L15.456 20.27C15.8435 20.27 16.1577 20.5842 16.1577 20.9718C16.1577 21.3593 15.8435 21.6735 15.456 21.6735L15.221 21.6744C15.1316 21.6751 15.0198 21.6762 14.8523 21.6779C13.9473 21.6873 13.1245 21.6707 12.3512 21.6143C12.4657 21.834 12.5272 22.0852 12.5272 22.3508C12.5272 23.281 11.7731 24.035 10.843 24.035C9.91279 24.035 9.15874 23.281 9.15874 22.3508C9.15874 21.8985 9.33706 21.4878 9.62723 21.1852C8.36624 20.8733 7.13063 20.3685 5.73202 19.5968C5.39268 19.4096 5.26936 18.9827 5.45658 18.6434C5.64381 18.3041 6.07068 18.1807 6.41003 18.368ZM29.4326 18.368C29.772 18.1807 30.1988 18.3041 30.3861 18.6434C30.5733 18.9827 30.45 19.4096 30.1106 19.5968C28.7602 20.3419 27.5617 20.8382 26.3422 21.1588C26.6516 21.4586 26.8428 21.8824 26.8428 22.3508C26.8428 23.281 26.0888 24.035 25.1586 24.035C24.2285 24.035 23.4744 23.281 23.4744 22.3508C23.4744 22.0798 23.5384 21.8237 23.6522 21.5969C22.8362 21.6682 21.9605 21.688 20.9903 21.6779C20.8229 21.6762 20.7111 21.6751 20.6216 21.6744L20.3867 21.6735C19.9991 21.6735 19.6849 21.3593 19.6849 20.9718C19.6849 20.5842 19.9991 20.27 20.3867 20.27C20.55 20.27 20.6646 20.2709 21.0049 20.2745C24.4505 20.3102 26.5497 19.9585 29.4326 18.368Z" fill="#252B39"/>
</g>
<defs>
<linearGradient id="paint0_linear_97_748" x1="18" y1="2" x2="18" y2="34" gradientUnits="userSpaceOnUse">
<stop stop-color="#F65167"/>
<stop offset="1" stop-color="#FFDA69"/>
</linearGradient>
<clipPath id="clip0_97_748">
<rect width="18" height="18" fill="white" transform="scale(2)"/>
</clipPath>
</defs>
</svg>
