<svg width="36" height="36" viewBox="0 0 36 36" fill="none" xmlns="http://www.w3.org/2000/svg">
<g clip-path="url(#clip0_97_738)">
<path d="M18 34C26.8366 34 34 26.8366 34 18C34 9.16344 26.8366 2 18 2C9.16344 2 2 9.16344 2 18C2 26.8366 9.16344 34 18 34Z" fill="#F55065"/>
<path fill-rule="evenodd" clip-rule="evenodd" d="M22.4902 9.85962C25.2807 9.85962 27.5428 12.1218 27.5428 14.9123C27.5428 15.2753 27.5045 15.6295 27.4317 15.9708C27.4258 16.0362 27.4161 16.105 27.4024 16.1754C26.42 21.228 18.1393 26.9824 18.1393 26.9824C18.1393 26.9824 8.87613 20.9473 8.59543 16.1754L8.59496 16.0979C8.50352 15.7176 8.45508 15.3206 8.45508 14.9123C8.45508 12.1218 10.7172 9.85962 13.5077 9.85962C15.4653 9.85962 17.1628 10.9729 18.0018 12.6008C18.8351 10.9729 20.5326 9.85962 22.4902 9.85962Z" fill="#F9F9FA"/>
</g>
<defs>
<clipPath id="clip0_97_738">
<rect width="18" height="18" fill="white" transform="scale(2)"/>
</clipPath>
</defs>
</svg>
