<svg width="36" height="36" viewBox="0 0 36 36" fill="none" xmlns="http://www.w3.org/2000/svg">
<g clip-path="url(#clip0_97_740)">
<path d="M18 33.7217C26.8366 33.7217 34 26.6206 34 17.8609C34 9.10115 26.8366 2 18 2C9.16344 2 2 9.10115 2 17.8609C2 26.6206 9.16344 33.7217 18 33.7217Z" fill="#FFDA69"/>
<path d="M22.5474 26.1681C21.4142 24.9605 19.8281 24.2607 18.131 24.2607C16.4462 24.2607 14.8706 24.9503 13.7386 26.1426C13.4199 26.4783 13.4361 27.0066 13.7748 27.3226C14.1134 27.6386 14.6464 27.6225 14.9651 27.2868C15.782 26.4263 16.9154 25.9303 18.131 25.9303C19.3554 25.9303 20.4964 26.4337 21.3142 27.3052C21.631 27.6428 22.1638 27.6619 22.5044 27.3479C22.8449 27.0339 22.8642 26.5057 22.5474 26.1681Z" fill="#252B39"/>
<path fill-rule="evenodd" clip-rule="evenodd" d="M30.0691 31.2175C30.0691 32.7543 28.8124 34.0001 27.2621 34.0001C25.7118 34.0001 24.4551 32.7543 24.4551 31.2175C24.4551 30.7671 24.563 30.3417 24.7547 29.9653L27.2621 25.374L29.7695 29.9653C29.9612 30.3417 30.0691 30.7671 30.0691 31.2175Z" fill="#548CFF"/>
<path d="M25.0168 16.7684C26.102 16.7684 26.9817 17.7604 26.9817 18.9841C26.9817 20.2079 26.102 21.1999 25.0168 21.1999C23.9316 21.1999 23.0519 20.2079 23.0519 18.9841C23.0519 17.7604 23.9316 16.7684 25.0168 16.7684ZM10.9817 16.7684C12.0669 16.7684 12.9466 17.7604 12.9466 18.9841C12.9466 20.2079 12.0669 21.1999 10.9817 21.1999C9.8965 21.1999 9.01677 20.2079 9.01677 18.9841C9.01677 17.7604 9.8965 16.7684 10.9817 16.7684ZM26.821 13.1821C27.7921 13.5517 28.5616 14.2718 28.9944 15.1869C29.1589 15.5348 29.0078 15.949 28.6569 16.112C28.3059 16.2751 27.8881 16.1253 27.7236 15.7775C27.4433 15.1848 26.9471 14.7204 26.318 14.481C25.7458 14.2633 25.1293 14.2564 24.562 14.4501C24.1955 14.5752 23.7962 14.3822 23.6699 14.0189C23.5437 13.6557 23.7385 13.2598 24.1049 13.1346C24.9814 12.8354 25.9378 12.846 26.821 13.1821ZM11.8681 13.0217C12.2346 13.1468 12.4293 13.5427 12.3031 13.9059C12.1769 14.2692 11.7775 14.4622 11.411 14.3371C10.8438 14.1434 10.2272 14.1503 9.65497 14.3681C9.02593 14.6074 8.52971 15.0718 8.24943 15.6645C8.08491 16.0123 7.66707 16.1621 7.31615 15.9991C6.96523 15.836 6.81412 15.4218 6.97863 15.0739C7.41139 14.1588 8.18087 13.4387 9.152 13.0692C10.0353 12.7331 10.9916 12.7224 11.8681 13.0217Z" fill="#252B39"/>
</g>
<defs>
<clipPath id="clip0_97_740">
<rect width="18" height="18" fill="white" transform="scale(2)"/>
</clipPath>
</defs>
</svg>
