<svg width="36" height="36" viewBox="0 0 36 36" fill="none" xmlns="http://www.w3.org/2000/svg">
<circle cx="18" cy="18" r="16" fill="white"/>
<path d="M34 18C34 9.16345 26.8365 1.99999 18 1.99999C9.16346 1.99999 2 9.16345 2 18C2 25.5037 7.16576 31.7998 14.1348 33.5288V22.8893H10.8355V18H14.1348V15.8932C14.1348 10.4473 16.5993 7.92313 21.9459 7.92313C22.9595 7.92313 24.7085 8.12185 25.4241 8.32063V12.7529C25.0464 12.7131 24.3905 12.6932 23.5756 12.6932C20.9521 12.6932 19.9384 13.687 19.9384 16.2708V18H25.1645L24.2668 22.8893H19.9384V33.8828C27.8607 32.9259 34 26.1803 34 18Z" fill="#0866FF"/>
</svg>
