<svg width="36" height="36" viewBox="0 0 36 36" fill="none" xmlns="http://www.w3.org/2000/svg">
<path fill-rule="evenodd" clip-rule="evenodd" d="M4 18C4 10.268 10.268 4 18 4C25.732 4 32 10.268 32 18C32 25.732 25.732 32 18 32C10.268 32 4 25.732 4 18ZM18 2C9.16344 2 2 9.16344 2 18C2 26.8366 9.16344 34 18 34C26.8366 34 34 26.8366 34 18C34 9.16344 26.8366 2 18 2ZM12 16C13.1046 16 14 15.1046 14 14C14 12.8954 13.1046 12 12 12C10.8954 12 10 12.8954 10 14C10 15.1046 10.8954 16 12 16ZM26 14C26 15.1046 25.1046 16 24 16C22.8954 16 22 15.1046 22 14C22 12.8954 22.8954 12 24 12C25.1046 12 26 12.8954 26 14ZM11.6493 22.8663C11.5606 22.7508 11.5406 22.6603 11.5388 22.5979C11.5369 22.5301 11.5557 22.4483 11.6114 22.3599C11.7266 22.1769 11.9835 22 12.3399 22H23.6593C24.0157 22 24.2726 22.1769 24.3878 22.3599C24.4435 22.4483 24.4624 22.5301 24.4604 22.5979C24.4586 22.6603 24.4386 22.7508 24.3499 22.8663C22.8859 24.7735 20.5862 26 17.9996 26C15.413 26 13.1133 24.7735 11.6493 22.8663ZM12.3399 20C11.316 20 10.4107 20.5132 9.91897 21.2941C9.40797 22.1056 9.37042 23.1821 10.0628 24.0841C11.889 26.4632 14.765 28 17.9996 28C21.2342 28 24.1102 26.4632 25.9364 24.0841C26.6288 23.1821 26.5912 22.1056 26.0802 21.2941C25.5885 20.5132 24.6832 20 23.6593 20H12.3399Z" fill="currentColor"/>
</svg>
