<svg width="36" height="36" viewBox="0 0 36 36" fill="none" xmlns="http://www.w3.org/2000/svg">
<g clip-path="url(#clip0_97_739)">
<path d="M18 34C26.8366 34 34 26.8366 34 18C34 9.16344 26.8366 2 18 2C9.16344 2 2 9.16344 2 18C2 26.8366 9.16344 34 18 34Z" fill="#FFDA69"/>
<path d="M7.61523 17.7195C7.61523 23.4555 12.2652 28.1054 18.0012 28.1054C23.7372 28.1054 28.3872 23.4555 28.3872 17.7195" fill="#252B39"/>
<path d="M27.1941 22.554C25.8956 21.9719 23.088 21.0876 18.0123 21.0876C13.132 21.0876 10.2211 21.9051 8.76953 22.4855C10.4968 25.8237 13.9818 28.1052 17.9997 28.1052C21.99 28.1052 25.4548 25.8548 27.1941 22.554Z" fill="#F55065"/>
<path fill-rule="evenodd" clip-rule="evenodd" d="M7.73538 9.70656C7.97491 9.30791 8.49225 9.17891 8.89125 9.41865L12.7403 11.7314C13.1138 11.9558 13.4624 12.6339 12.7237 13.2676L8.95771 15.7133C8.56748 15.9667 8.04528 15.8551 7.79249 15.4659C7.53919 15.0758 7.65003 14.5543 8.04042 14.3008L10.7826 12.52L8.02382 10.8623C7.62498 10.6227 7.49633 10.1044 7.73538 9.70656ZM28.1957 9.70656C28.4348 10.1044 28.3061 10.6227 27.9073 10.8623L25.1485 12.52L27.8907 14.3008C28.2811 14.5543 28.3919 15.0758 28.1386 15.4659C27.8858 15.8551 27.3636 15.9667 26.9734 15.7133L23.2074 13.2676C22.4687 12.6339 22.8173 11.9558 23.1908 11.7314L27.0399 9.41865C27.4389 9.17891 27.9562 9.30791 28.1957 9.70656Z" fill="#252B39"/>
</g>
<defs>
<clipPath id="clip0_97_739">
<rect width="18" height="18" fill="white" transform="scale(2)"/>
</clipPath>
</defs>
</svg>
