<svg width="36" height="36" viewBox="0 0 36 36" fill="none" xmlns="http://www.w3.org/2000/svg">
<path fill-rule="evenodd" clip-rule="evenodd" d="M4 18C4 10.268 10.268 4 18 4C25.732 4 32 10.268 32 18C32 25.732 25.732 32 18 32C10.268 32 4 25.732 4 18ZM18 2C9.16344 2 2 9.16344 2 18C2 26.8366 9.16344 34 18 34C26.8366 34 34 26.8366 34 18C34 9.16344 26.8366 2 18 2ZM21 22.8038C21.9121 23.3305 22.6695 24.0879 23.1962 25L24.9282 24C24.2261 22.7838 23.2162 21.7739 22 21.0718C20.7838 20.3696 19.4043 20 18 20C16.5957 20 15.2162 20.3696 14 21.0718C12.7838 21.7739 11.7739 22.7838 11.0718 24L12.8038 25C13.3305 24.0879 14.0879 23.3305 15 22.8038C15.9121 22.2772 16.9468 22 18 22C19.0532 22 20.0879 22.2772 21 22.8038ZM14 14C14 15.1046 13.1046 16 12 16C10.8954 16 10 15.1046 10 14C10 12.8954 10.8954 12 12 12C13.1046 12 14 12.8954 14 14ZM24 16C25.1046 16 26 15.1046 26 14C26 12.8954 25.1046 12 24 12C22.8954 12 22 12.8954 22 14C22 15.1046 22.8954 16 24 16Z" fill="currentColor"/>
</svg>
