<svg width="36" height="36" viewBox="0 0 36 36" fill="none" xmlns="http://www.w3.org/2000/svg">
<g clip-path="url(#clip0_97_741)">
<path d="M18 34C26.8366 34 34 26.8366 34 18C34 9.16344 26.8366 2 18 2C9.16344 2 2 9.16344 2 18C2 26.8366 9.16344 34 18 34Z" fill="#FFDA69"/>
<path d="M17.9985 30.3509C20.634 30.3509 22.7704 27.586 22.7704 24.1754C22.7704 20.7648 20.634 18 17.9985 18C15.363 18 13.2266 20.7648 13.2266 24.1754C13.2266 27.586 15.363 30.3509 17.9985 30.3509Z" fill="#252B37"/>
<path fill-rule="evenodd" clip-rule="evenodd" d="M11.2217 10.86C12.5957 11.1023 13.4586 12.722 13.1491 14.4777C12.8395 16.2334 11.4746 17.4603 10.1006 17.218C8.72653 16.9757 7.86361 15.356 8.17319 13.6003C8.48277 11.8446 9.84762 10.6177 11.2217 10.86ZM28.0655 13.4914C28.3751 15.2471 27.5121 16.8668 26.1381 17.1091C24.7641 17.3514 23.3992 16.1245 23.0896 14.3687C22.78 12.613 23.643 10.9933 25.017 10.751C26.3911 10.5087 27.7559 11.7356 28.0655 13.4914ZM10.6822 5.05856C11.627 5.00905 12.5399 5.29434 13.2802 5.85232C13.5897 6.08559 13.6515 6.5256 13.4182 6.8351C13.1849 7.1446 12.7449 7.2064 12.4354 6.97312C11.9563 6.61198 11.3678 6.42806 10.7557 6.46015C10.0828 6.49541 9.46609 6.78761 9.01479 7.26959C8.74988 7.5525 8.3058 7.56709 8.02289 7.30219C7.73998 7.03729 7.72539 6.5932 7.99029 6.31029C8.68712 5.5661 9.64342 5.113 10.6822 5.05856ZM25.2864 4.93498C26.3252 4.98943 27.2815 5.44253 27.9784 6.18672C28.2433 6.46963 28.2287 6.91371 27.9458 7.17862C27.6629 7.44352 27.2188 7.42892 26.9539 7.14601C26.5026 6.66403 25.8858 6.37183 25.213 6.33657C24.6008 6.30449 24.0124 6.4884 23.5332 6.84954C23.2237 7.08282 22.7837 7.02103 22.5504 6.71153C22.3171 6.40203 22.3789 5.96202 22.6884 5.72874C23.2172 5.33019 23.8341 5.07076 24.4877 4.97309L24.8839 4.93408L25.2864 4.93498Z" fill="#252B37"/>
</g>
<defs>
<clipPath id="clip0_97_741">
<rect width="18" height="18" fill="white" transform="scale(2)"/>
</clipPath>
</defs>
</svg>
