<svg width="36" height="36" viewBox="0 0 36 36" fill="none" xmlns="http://www.w3.org/2000/svg">
<g clip-path="url(#clip0_896_1)">
<path fill-rule="evenodd" clip-rule="evenodd" d="M34 18C34 26.8 26.8 34 18 34C9.2 34 2 26.8 2 18C2 9.2 9.2 2 18 2C26.8 2 34 9.2 34 18Z" fill="url(#paint0_linear_896_1)"/>
<path fill-rule="evenodd" clip-rule="evenodd" d="M34 18C34 26.8 26.8 34 18 34C9.2 34 2 26.8 2 18C2 9.2 9.2 2 18 2C26.8 2 34 9.2 34 18Z" fill="url(#paint1_radial_896_1)"/>
<path fill-rule="evenodd" clip-rule="evenodd" d="M34 18C34 26.8 26.8 34 18 34C9.2 34 2 26.8 2 18C2 9.2 9.2 2 18 2C26.8 2 34 9.2 34 18Z" fill="url(#paint2_radial_896_1)"/>
<path fill-rule="evenodd" clip-rule="evenodd" d="M34 18C34 26.8 26.8 34 18 34C9.2 34 2 26.8 2 18C2 9.2 9.2 2 18 2C26.8 2 34 9.2 34 18Z" fill="url(#paint3_radial_896_1)"/>
<path fill-rule="evenodd" clip-rule="evenodd" d="M34 18C34 26.8 26.8 34 18 34C9.2 34 2 26.8 2 18C2 9.2 9.2 2 18 2C26.8 2 34 9.2 34 18Z" fill="url(#paint4_radial_896_1)"/>
<path fill-rule="evenodd" clip-rule="evenodd" d="M34 18C34 26.8 26.8 34 18 34C9.2 34 2 26.8 2 18C2 9.2 9.2 2 18 2C26.8 2 34 9.2 34 18Z" fill="url(#paint5_radial_896_1)"/>
<path fill-rule="evenodd" clip-rule="evenodd" d="M21.401 13.8001C21.201 13.2001 14.801 13.2001 14.601 13.8001C14.401 14.4001 15.801 15.2001 18.001 15.2001C20.201 15.2001 21.601 14.4001 21.401 13.8001Z" fill="url(#paint6_linear_896_1)"/>
<path fill-rule="evenodd" clip-rule="evenodd" d="M14.0008 10.1999C14.0008 11.5999 13.2008 11.9999 12.0008 12.1999C10.8008 12.3999 9.80078 11.7999 9.80078 10.1999C9.80078 8.9999 10.4008 7.3999 12.0008 7.3999C13.4008 7.3999 14.0008 8.9999 14.0008 10.1999Z" fill="url(#paint7_radial_896_1)"/>
<path fill-rule="evenodd" clip-rule="evenodd" d="M11.8023 8.20005C12.0023 8.40005 12.0023 9.00005 11.6023 9.20005C11.4023 9.40005 11.0023 9.60005 10.8023 9.20005C10.6023 8.80005 10.6023 8.60005 10.8023 8.20005C11.2023 8.00005 11.6023 8.00005 11.8023 8.20005Z" fill="#4E506A"/>
<path fill-rule="evenodd" clip-rule="evenodd" d="M22 10.1999C22 11.5999 22.8 11.9999 24.2 12.1999C25.4 12.3999 26.4 11.7999 26.4 10.1999C26.4 8.9999 25.8 7.3999 24.2 7.3999C22.6 7.3999 22 8.9999 22 10.1999Z" fill="url(#paint8_radial_896_1)"/>
<path fill-rule="evenodd" clip-rule="evenodd" d="M24.0008 8.1999C24.2008 8.3999 24.0008 8.7999 23.8008 9.1999C23.6008 9.3999 23.2008 9.3999 23.0008 9.1999C22.8008 8.9999 23.0008 8.5999 23.2008 8.1999C23.6008 7.7999 23.8008 7.7999 24.0008 8.1999Z" fill="#4E506A"/>
<path fill-rule="evenodd" clip-rule="evenodd" d="M8.80164 6.20017C8.40164 6.60017 8.80164 7.20017 9.40164 7.00017C10.6016 6.40017 13.0016 5.80017 15.0016 6.00017C15.6016 6.00017 15.8016 6.00017 15.6016 5.20017C15.6016 4.60017 14.8016 4.20017 13.2016 4.40017C10.8016 4.60017 9.20164 5.80017 8.80164 6.20017Z" fill="#CD6700"/>
<path fill-rule="evenodd" clip-rule="evenodd" d="M22.7992 4.40017C21.1992 4.20017 20.3992 4.60017 20.3992 5.20017C20.1992 6.00017 20.3992 6.00017 20.9992 6.00017C23.1992 5.80017 25.5992 6.40017 26.5992 7.00017C27.3992 7.40017 27.5992 6.60017 27.1992 6.20017C26.7992 5.80017 25.1992 4.60017 22.7992 4.40017Z" fill="#CD6700"/>
<path fill-rule="evenodd" clip-rule="evenodd" d="M21.4006 18.9998C17.2006 17.7998 15.8006 20.5998 15.8006 20.5998C15.8006 20.5998 16.2006 17.3998 12.0006 15.9998C8.00058 14.7998 5.60058 18.5998 5.40058 20.7998C5.00058 25.7998 9.40058 31.3998 11.0006 33.3998C11.2006 33.9998 11.8006 33.9998 12.4006 33.9998C14.8006 33.3998 21.6006 31.1998 24.2006 26.7998C25.2006 24.5998 25.4006 20.1998 21.4006 18.9998Z" fill="url(#paint9_linear_896_1)"/>
<path fill-rule="evenodd" clip-rule="evenodd" d="M21.4006 18.9998C17.2006 17.7998 15.8006 20.5998 15.8006 20.5998C15.8006 20.5998 16.2006 17.3998 12.0006 15.9998C8.00058 14.7998 5.60058 18.5998 5.40058 20.7998C5.00058 25.7998 9.40058 31.3998 11.0006 33.3998C11.2006 33.9998 11.8006 33.9998 12.4006 33.9998C14.8006 33.3998 21.6006 31.1998 24.2006 26.7998C25.2006 24.5998 25.4006 20.1998 21.4006 18.9998Z" fill="url(#paint10_radial_896_1)"/>
<path fill-rule="evenodd" clip-rule="evenodd" d="M21.4006 18.9998C17.2006 17.7998 15.8006 20.5998 15.8006 20.5998C15.8006 20.5998 16.2006 17.3998 12.0006 15.9998C8.00058 14.7998 5.60058 18.5998 5.40058 20.7998C5.00058 25.7998 9.40058 31.3998 11.0006 33.3998C11.2006 33.9998 11.8006 33.9998 12.4006 33.9998C14.8006 33.3998 21.6006 31.1998 24.2006 26.7998C25.2006 24.5998 25.4006 20.1998 21.4006 18.9998Z" fill="url(#paint11_radial_896_1)"/>
<path fill-rule="evenodd" clip-rule="evenodd" d="M21.4006 18.9998C17.2006 17.7998 15.8006 20.5998 15.8006 20.5998C15.8006 20.5998 16.2006 17.3998 12.0006 15.9998C8.00058 14.7998 5.60058 18.5998 5.40058 20.7998C5.00058 25.7998 9.40058 31.3998 11.0006 33.3998C11.2006 33.9998 11.8006 33.9998 12.4006 33.9998C14.8006 33.3998 21.6006 31.1998 24.2006 26.7998C25.2006 24.5998 25.4006 20.1998 21.4006 18.9998Z" fill="url(#paint12_radial_896_1)"/>
<path fill-rule="evenodd" clip-rule="evenodd" d="M21.4006 18.9998C17.2006 17.7998 15.8006 20.5998 15.8006 20.5998C15.8006 20.5998 16.2006 17.3998 12.0006 15.9998C8.00058 14.7998 5.60058 18.5998 5.40058 20.7998C5.00058 25.7998 9.40058 31.3998 11.0006 33.3998C11.2006 33.9998 11.8006 33.9998 12.4006 33.9998C14.8006 33.3998 21.6006 31.1998 24.2006 26.7998C25.2006 24.5998 25.4006 20.1998 21.4006 18.9998Z" fill="url(#paint13_radial_896_1)"/>
<path fill-rule="evenodd" clip-rule="evenodd" d="M21.4006 18.9998C17.2006 17.7998 15.8006 20.5998 15.8006 20.5998C15.8006 20.5998 16.2006 17.3998 12.0006 15.9998C8.00058 14.7998 5.60058 18.5998 5.40058 20.7998C5.00058 25.7998 9.40058 31.3998 11.0006 33.3998C11.2006 33.9998 11.8006 33.9998 12.4006 33.9998C14.8006 33.3998 21.6006 31.1998 24.2006 26.7998C25.2006 24.5998 25.4006 20.1998 21.4006 18.9998Z" fill="url(#paint14_radial_896_1)"/>
<path fill-rule="evenodd" clip-rule="evenodd" d="M21.4006 18.9998C17.2006 17.7998 15.8006 20.5998 15.8006 20.5998C15.8006 20.5998 16.2006 17.3998 12.0006 15.9998C8.00058 14.7998 5.60058 18.5998 5.40058 20.7998C5.00058 25.7998 9.40058 31.3998 11.0006 33.3998C11.2006 33.9998 11.8006 33.9998 12.4006 33.9998C14.8006 33.3998 21.6006 31.1998 24.2006 26.7998C25.2006 24.5998 25.4006 20.1998 21.4006 18.9998Z" fill="url(#paint15_radial_896_1)"/>
<path fill-rule="evenodd" clip-rule="evenodd" d="M4.60001 17.3999C3.60001 16.3999 2.2 15.5999 2 17.9999C2 19.3333 2.20001 23.1999 4.40001 24.9999C10 29.3999 15 26.9999 15.2 23.7999C15.4 21.3999 12.4 21.5999 11.6 21.5999C11.6 21.5999 11.6 21.5999 11.6 21.3999C11.8 21.1999 12.2 20.9999 12.4 20.7999C13.2 20.1999 12.8 19.1999 11.8 19.3999C11.6 19.3999 9.20001 20.1999 7.60001 19.5999C6.00001 18.9999 5.80001 18.3999 4.60001 17.3999Z" fill="url(#paint16_radial_896_1)"/>
<path d="M30.6014 17.6002C31.2014 16.4002 32.668 16.6668 32.668 16.6668C32.668 16.6668 34.0013 16.8002 34.0013 18.0002C34.0013 20.6668 33.2014 24.4588 30.6014 27.2588C26.0014 32.4588 18.8014 32.0002 18.0014 28.8002C17.4014 26.4002 20.2014 26.0002 21.2014 26.0002V25.8002C20.8014 25.6002 20.6014 25.4002 20.2014 25.2002C19.4014 24.6002 19.6014 23.4002 20.6014 23.6002C21.8014 23.8002 23.4014 24.2002 24.6014 24.0002C28.4014 23.6002 29.0014 20.6002 30.6014 17.6002Z" fill="url(#paint17_radial_896_1)"/>
</g>
<defs>
<linearGradient id="paint0_linear_896_1" x1="17.984" y1="32.416" x2="17.984" y2="4.384" gradientUnits="userSpaceOnUse">
<stop stop-color="#F28A2D"/>
<stop offset="1" stop-color="#FDE86F"/>
</linearGradient>
<radialGradient id="paint1_radial_896_1" cx="0" cy="0" r="1" gradientUnits="userSpaceOnUse" gradientTransform="translate(17.984 17.984) scale(16)">
<stop stop-color="#F28A2D" stop-opacity="0"/>
<stop offset="1" stop-color="#F08423" stop-opacity="0.34"/>
</radialGradient>
<radialGradient id="paint2_radial_896_1" cx="0" cy="0" r="1" gradientUnits="userSpaceOnUse" gradientTransform="translate(5.46137 18.6412) rotate(24.1484) scale(3.23199 2.49992)">
<stop stop-color="#F28A2D" stop-opacity="0.5"/>
<stop offset="1" stop-color="#F28A2D" stop-opacity="0"/>
</radialGradient>
<radialGradient id="paint3_radial_896_1" cx="0" cy="0" r="1" gradientUnits="userSpaceOnUse" gradientTransform="translate(25.7354 25.5472) rotate(-38.243) scale(9.05602 3.29466)">
<stop stop-color="#F28A2D" stop-opacity="0.5"/>
<stop offset="1" stop-color="#F28A2D" stop-opacity="0"/>
</radialGradient>
<radialGradient id="paint4_radial_896_1" cx="0" cy="0" r="1" gradientUnits="userSpaceOnUse" gradientTransform="translate(12.1874 6.05952) rotate(-10.3559) scale(3.42401 0.680892)">
<stop stop-color="#D45F00" stop-opacity="0.15"/>
<stop offset="1" stop-color="#F28A2D" stop-opacity="0"/>
</radialGradient>
<radialGradient id="paint5_radial_896_1" cx="0" cy="0" r="1" gradientUnits="userSpaceOnUse" gradientTransform="translate(23.7829 6.29409) rotate(11.5352) scale(3.39199 0.674557)">
<stop stop-color="#D45F00" stop-opacity="0.15"/>
<stop offset="1" stop-color="#D45F00" stop-opacity="0"/>
</radialGradient>
<linearGradient id="paint6_linear_896_1" x1="18.0004" y1="12.6187" x2="18.0004" y2="15.4666" gradientUnits="userSpaceOnUse">
<stop stop-color="#482314"/>
<stop offset="1" stop-color="#9A4111"/>
</linearGradient>
<radialGradient id="paint7_radial_896_1" cx="0" cy="0" r="1" gradientUnits="userSpaceOnUse" gradientTransform="translate(11.9864 10.5422) rotate(-90) scale(3.71925 3.71943)">
<stop stop-color="#3B446B"/>
<stop offset="0.688" stop-color="#202340"/>
</radialGradient>
<radialGradient id="paint8_radial_896_1" cx="0" cy="0" r="1" gradientUnits="userSpaceOnUse" gradientTransform="translate(24.0136 10.5399) rotate(-90) scale(3.71925 3.71943)">
<stop stop-color="#3B446B"/>
<stop offset="0.688" stop-color="#202340"/>
</radialGradient>
<linearGradient id="paint9_linear_896_1" x1="15.5073" y1="21.4952" x2="11.4459" y2="34.5794" gradientUnits="userSpaceOnUse">
<stop stop-color="#F34462"/>
<stop offset="1" stop-color="#CC0820"/>
</linearGradient>
<radialGradient id="paint10_radial_896_1" cx="0" cy="0" r="1" gradientUnits="userSpaceOnUse" gradientTransform="translate(19.6816 23.8698) rotate(20.3927) scale(5.26583 5.26585)">
<stop stop-color="#FF7091" stop-opacity="0.7"/>
<stop offset="1" stop-color="#FE6D8E" stop-opacity="0"/>
</radialGradient>
<radialGradient id="paint11_radial_896_1" cx="0" cy="0" r="1" gradientUnits="userSpaceOnUse" gradientTransform="translate(10.5371 21.2174) rotate(20.3927) scale(5.26583 5.26585)">
<stop stop-color="#FF7091" stop-opacity="0.7"/>
<stop offset="1" stop-color="#FE6D8E" stop-opacity="0"/>
</radialGradient>
<radialGradient id="paint12_radial_896_1" cx="0" cy="0" r="1" gradientUnits="userSpaceOnUse" gradientTransform="translate(9.96935 25.5245) rotate(101.61) scale(4.52132 6.22587)">
<stop stop-color="#9C0600"/>
<stop offset="1" stop-color="#9C0600" stop-opacity="0"/>
</radialGradient>
<radialGradient id="paint13_radial_896_1" cx="0" cy="0" r="1" gradientUnits="userSpaceOnUse" gradientTransform="translate(24.8288 25.9852) rotate(30.6331) scale(2.7237 3.41833)">
<stop stop-color="#9C0600" stop-opacity="0.5"/>
<stop offset="1" stop-color="#9C0600" stop-opacity="0"/>
</radialGradient>
<radialGradient id="paint14_radial_896_1" cx="0" cy="0" r="1" gradientUnits="userSpaceOnUse" gradientTransform="translate(6.11404 20.2267) rotate(-20.1593) scale(2.36054 3.04194)">
<stop stop-color="#9C0600" stop-opacity="0.5"/>
<stop offset="1" stop-color="#9C0600" stop-opacity="0"/>
</radialGradient>
<radialGradient id="paint15_radial_896_1" cx="0" cy="0" r="1" gradientUnits="userSpaceOnUse" gradientTransform="translate(19.8706 29.829) rotate(34.0715) scale(3.17765 3.44158)">
<stop stop-color="#9C0600" stop-opacity="0.999"/>
<stop offset="1" stop-color="#9C0600" stop-opacity="0"/>
</radialGradient>
<radialGradient id="paint16_radial_896_1" cx="0" cy="0" r="1" gradientUnits="userSpaceOnUse" gradientTransform="translate(1.83832 16.9382) rotate(36.5187) scale(13.297 13.2969)">
<stop stop-color="#EDA83A"/>
<stop offset="1" stop-color="#FFDC5E"/>
</radialGradient>
<radialGradient id="paint17_radial_896_1" cx="0" cy="0" r="1" gradientUnits="userSpaceOnUse" gradientTransform="translate(33.3094 17.4742) scale(17.692 17.692)">
<stop stop-color="#EDA83A"/>
<stop offset="1" stop-color="#FFDC5E"/>
</radialGradient>
<clipPath id="clip0_896_1">
<rect width="18" height="18" fill="white" transform="scale(2)"/>
</clipPath>
</defs>
</svg>
