<svg width="36" height="36" viewBox="0 0 36 36" fill="none" xmlns="http://www.w3.org/2000/svg">
<path fill-rule="evenodd" clip-rule="evenodd" d="M17.9998 4.02295L22.8608 12.3143L32.0132 14.372L30.6169 16H27.9821L28.3304 15.5939L21.5747 14.075L17.9998 7.97737L14.425 14.0749L7.67564 15.5939L12.2241 20.9053L11.2159 28.6532L18 25.8049L17.9998 27.974L8.78385 31.8435L10.126 21.53L3.99609 14.372L13.1388 12.3144L17.9998 4.02295ZM34 20C32.9357 20 32.0655 20.8314 32.0035 21.8802L29.0169 23.3735C28.2836 22.5319 27.2039 22 26 22C23.7909 22 22 23.7909 22 26C22 28.2091 23.7909 30 26 30C27.2039 30 28.2836 29.4681 29.0169 28.6265L32.0035 30.1198C32.0655 31.1686 32.9357 32 34 32C35.1046 32 36 31.1046 36 30C36 28.8954 35.1046 28 34 28C33.5927 28 33.2138 28.1218 32.8978 28.3309L29.9121 26.838C29.9697 26.5678 30 26.2874 30 26C30 25.7126 29.9697 25.4322 29.9121 25.162L32.8978 23.6691C33.2138 23.8782 33.5927 24 34 24C35.1046 24 36 23.1046 36 22C36 20.8954 35.1046 20 34 20ZM24 26C24 24.8954 24.8954 24 26 24C27.1046 24 28 24.8954 28 26C28 27.1046 27.1046 28 26 28C24.8954 28 24 27.1046 24 26Z" fill="currentColor"/>
</svg>
