<svg width="36" height="36" viewBox="0 0 36 36" fill="none" xmlns="http://www.w3.org/2000/svg">
<path fill-rule="evenodd" clip-rule="evenodd" d="M17.9998 4.02295L22.8608 12.3143L32.0132 14.372L30.6169 16H27.9821L28.3304 15.5939L21.5747 14.075L17.9998 7.97737L14.425 14.0749L7.67564 15.5939L12.2241 20.9053L11.2159 28.6532L16 26.6445V28.8137L8.78385 31.8435L10.126 21.53L3.99609 14.372L13.1388 12.3144L17.9998 4.02295ZM22 28C22 24.6863 24.6863 22 28 22C31.3137 22 34 24.6863 34 28C34 31.3137 31.3137 34 28 34C24.6863 34 22 31.3137 22 28ZM28 20C23.5817 20 20 23.5817 20 28C20 32.4183 23.5817 36 28 36C32.4183 36 36 32.4183 36 28C36 23.5817 32.4183 20 28 20ZM29 27.5858V24H27V28.4142L29.2929 30.7071L30.7071 29.2929L29 27.5858Z" fill="currentColor"/>
</svg>
