<svg width="36" height="36" viewBox="0 0 36 36" fill="none" xmlns="http://www.w3.org/2000/svg">
<path fill-rule="evenodd" clip-rule="evenodd" d="M6 34V2H8V4.53157C8.20819 4.68561 8.52399 4.89427 8.94711 5.10577C9.82483 5.5445 11.1727 5.99994 13 5.99992C14.8134 5.9999 16.17 5.5411 17.6699 5.03384L17.6796 5.03054C19.1836 4.52191 20.8273 3.96801 23.0149 4.00065C25.1793 4.03294 26.8242 4.57522 27.9418 5.12551C28.4991 5.39997 28.9235 5.67546 29.2152 5.88873C29.3611 5.99541 29.4741 6.0867 29.5541 6.15479C29.5942 6.18884 29.626 6.21713 29.6497 6.23867C29.7688 6.34878 29.8835 6.46386 30 6.5768V20.9947C30 21.0849 29.9883 21.2701 29.88 21.4713C29.8338 21.557 29.6593 21.8537 29.2633 21.9623C28.7903 22.092 28.4418 21.8488 28.3084 21.7218C28.3489 21.7603 26.5782 20.054 22.9851 20.0004C21.1727 19.9734 19.8164 20.4192 18.3204 20.9251C18.2938 20.9341 18.2673 20.9431 18.2406 20.9521C16.7657 21.4511 15.1439 21.9999 13 21.9999C10.8273 21.9999 9.17517 21.4557 8.05289 20.8947C8.03513 20.8858 8.0175 20.877 8 20.8681V34H6ZM8 18.5316C8.20819 18.6856 8.52399 18.8943 8.94711 19.1058C9.82483 19.5445 11.1727 19.9999 13 19.9999C14.8134 19.9999 16.17 19.5411 17.6699 19.0338L17.6796 19.0305C19.1836 18.5219 20.8273 17.968 23.0149 18.0007C25.2232 18.0336 26.8854 18.5958 28 19.1542V7.47802C27.791 7.32787 27.477 7.12597 27.0582 6.91979C26.1758 6.48527 24.8207 6.02782 22.9851 6.00043C21.1727 5.97339 19.8164 6.41915 18.3204 6.92512C18.2938 6.9341 18.2673 6.94309 18.2406 6.9521C16.7657 7.45114 15.144 7.99989 13 7.99992C10.8273 7.99994 9.17517 7.4557 8.05289 6.89473C8.03513 6.88585 8.0175 6.87696 8 6.86808V18.5316Z" fill="currentColor"/>
</svg>
