<svg width="36" height="36" viewBox="0 0 36 36" fill="none" xmlns="http://www.w3.org/2000/svg">
<path d="M4 17V19H32V17H4Z" fill="currentColor"/>
<path fill-rule="evenodd" clip-rule="evenodd" d="M27.2394 4.28653C27.9873 3.37243 27.337 2 26.1559 2H9.8441C8.66302 2 8.01265 3.37243 8.76056 4.28653L16.9165 14.2549C17.4766 14.9395 18.5234 14.9395 19.0835 14.2549L27.2394 4.28653ZM11.1102 4L24.8898 4L18 12.4208L11.1102 4Z" fill="currentColor"/>
<path d="M26.1559 34C27.337 34 27.9874 32.6276 27.2395 31.7135L19.0836 21.7452C18.5234 21.0605 17.4766 21.0605 16.9165 21.7452L8.76059 31.7135C8.01269 32.6276 8.66306 34 9.84413 34H26.1559Z" fill="currentColor"/>
</svg>
