<svg width="36" height="36" viewBox="0 0 36 36" fill="none" xmlns="http://www.w3.org/2000/svg">
<path d="M17 32H19V4H17V32Z" fill="currentColor"/>
<path fill-rule="evenodd" clip-rule="evenodd" d="M4.28653 8.76056C3.37243 8.01265 2 8.66302 2 9.8441V26.1559C2 27.337 3.37243 27.9873 4.28653 27.2394L14.2549 19.0835C14.9395 18.5234 14.9395 17.4766 14.2549 16.9165L4.28653 8.76056ZM12.4208 18L4 24.8898V11.1102L12.4208 18Z" fill="currentColor"/>
<path d="M33.9998 9.84406C33.9998 8.66299 32.6273 8.01262 31.7132 8.76052L21.7449 16.9164C21.0603 17.4766 21.0603 18.5234 21.7449 19.0835L31.7132 27.2394C32.6273 27.9873 33.9998 27.3369 33.9998 26.1559V9.84406Z" fill="currentColor"/>
</svg>
