<svg width="36" height="36" viewBox="0 0 36 36" fill="none" xmlns="http://www.w3.org/2000/svg">
<path fill-rule="evenodd" clip-rule="evenodd" d="M15.1715 3.17157C15.9216 2.42143 16.939 2 17.9999 2C19.0608 2 20.0782 2.42143 20.8283 3.17157C21.3752 3.71847 21.7474 4.40739 21.9089 5.15166C22.5975 4.95646 23.3321 4.94792 24.0352 5.1363C25.0599 5.41087 25.9336 6.08126 26.464 7C26.9944 7.91874 27.1382 9.01056 26.8636 10.0353C26.6583 10.8014 26.2318 11.4831 25.6457 12C25.8389 12.1704 26.0157 12.3595 26.1733 12.565C26.4931 12.9817 26.7276 13.4573 26.8636 13.9647C26.9996 14.4721 27.0342 15.0013 26.9657 15.5221C26.8971 16.0429 26.7266 16.5451 26.464 17C26.2014 17.4549 25.8517 17.8536 25.4349 18.1734C25.0182 18.4932 24.5426 18.7277 24.0352 18.8637C23.5278 18.9997 22.9986 19.0343 22.4778 18.9658C22.2851 18.9404 22.095 18.9011 21.9089 18.8483C21.7474 19.5926 21.3752 20.2815 20.8283 20.8284C20.0782 21.5786 19.0608 22 17.9999 22C16.939 22 15.9216 21.5786 15.1715 20.8284C14.6246 20.2815 14.2524 19.5926 14.0909 18.8483C13.9048 18.9011 13.7147 18.9404 13.522 18.9658C13.0012 19.0343 12.472 18.9997 11.9646 18.8637C11.4572 18.7277 10.9816 18.4932 10.5649 18.1734C10.1481 17.8536 9.79844 17.4549 9.5358 17C9.27316 16.5451 9.10269 16.0429 9.03412 15.5221C8.96556 15.0013 9.00024 14.4721 9.1362 13.9647C9.27215 13.4573 9.50671 12.9817 9.82649 12.565C9.9841 12.3595 10.1609 12.1704 10.3542 12C10.1609 11.8296 9.98411 11.6405 9.82649 11.435C9.50671 11.0183 9.27215 10.5427 9.1362 10.0353C9.00024 9.52789 8.96556 8.99869 9.03412 8.4779C9.10269 7.9571 9.27316 7.45491 9.5358 7C9.79844 6.54509 10.1481 6.14636 10.5649 5.82659C10.9816 5.50681 11.4572 5.27225 11.9646 5.1363C12.472 5.00034 13.0012 4.96566 13.522 5.03422C13.7147 5.05958 13.9048 5.0989 14.0909 5.15166C14.2524 4.40739 14.6246 3.71847 15.1715 3.17157ZM17.9999 4C17.4695 4 16.9608 4.21071 16.5857 4.58579C16.2523 4.91916 16.0488 5.35815 16.0076 5.82409C15.9733 6.21332 15.798 6.64151 15.4206 6.94489C14.9046 7.35964 14.256 7.3584 13.7747 7.15617C13.6107 7.08728 13.438 7.04042 13.261 7.01711C13.0006 6.98283 12.736 7.00017 12.4823 7.06815C12.2286 7.13613 11.9907 7.25341 11.7824 7.41329C11.574 7.57318 11.3992 7.77254 11.2679 8C11.1365 8.22746 11.0513 8.47855 11.017 8.73895C10.9827 8.99934 11.0001 9.26394 11.068 9.51764C11.136 9.77133 11.2533 10.0092 11.4132 10.2175C11.5186 10.3549 11.6411 10.4776 11.7775 10.583C12.1596 10.878 12.4999 11.3729 12.4999 12C12.4999 12.6271 12.1596 13.122 11.7775 13.417C11.6411 13.5224 11.5186 13.6451 11.4132 13.7825C11.2533 13.9908 11.136 14.2287 11.068 14.4824C11.0001 14.7361 10.9827 15.0007 11.017 15.2611C11.0513 15.5214 11.1365 15.7725 11.2679 16C11.3992 16.2275 11.574 16.4268 11.7824 16.5867C11.9907 16.7466 12.2286 16.8639 12.4823 16.9319C12.736 16.9998 13.0006 17.0172 13.261 16.9829C13.438 16.9596 13.6107 16.9127 13.7747 16.8438C14.256 16.6416 14.9046 16.6404 15.4206 17.0551C15.798 17.3585 15.9733 17.7867 16.0076 18.1759C16.0488 18.6419 16.2523 19.0808 16.5857 19.4142C16.9608 19.7893 17.4695 20 17.9999 20C18.5303 20 19.039 19.7893 19.4141 19.4142C19.7475 19.0808 19.951 18.6419 19.9922 18.1759C20.0265 17.7867 20.2018 17.3585 20.5792 17.0551C21.0952 16.6404 21.7438 16.6416 22.2251 16.8438C22.3891 16.9127 22.5618 16.9596 22.7388 16.9829C22.9992 17.0172 23.2638 16.9998 23.5175 16.9319C23.7712 16.8639 24.0091 16.7466 24.2174 16.5867C24.4258 16.4268 24.6006 16.2275 24.732 16C24.8633 15.7725 24.9485 15.5214 24.9828 15.2611C25.0171 15.0007 24.9997 14.7361 24.9318 14.4824C24.8638 14.2287 24.7465 13.9908 24.5866 13.7825C24.4812 13.6452 24.3587 13.5224 24.2223 13.417C23.8402 13.122 23.4999 12.6271 23.4999 12C23.4999 11.3728 23.8402 10.878 24.2223 10.5829C24.5672 10.3166 24.8177 9.94316 24.9318 9.51764C25.069 9.00528 24.9972 8.45937 24.732 8C24.4667 7.54063 24.0299 7.20543 23.5175 7.06815C23.0867 6.9527 22.632 6.98515 22.2251 7.15615C21.7439 7.35838 21.0952 7.35967 20.5792 6.94489C20.2018 6.64151 20.0265 6.21332 19.9922 5.82409C19.951 5.35815 19.7475 4.91916 19.4141 4.58579C19.039 4.21071 18.5303 4 17.9999 4ZM17.9999 10C17.4695 10 16.9608 10.2107 16.5857 10.5858C16.2106 10.9609 15.9999 11.4696 15.9999 12C15.9999 12.5304 16.2106 13.0391 16.5857 13.4142C16.9608 13.7893 17.4695 14 17.9999 14C18.5303 14 19.039 13.7893 19.4141 13.4142C19.7892 13.0391 19.9999 12.5304 19.9999 12C19.9999 11.4696 19.7892 10.9609 19.4141 10.5858C19.039 10.2107 18.5303 10 17.9999 10ZM15.1715 9.17157C15.9216 8.42143 16.939 8 17.9999 8C19.0608 8 20.0782 8.42143 20.8283 9.17157C21.5785 9.92172 21.9999 10.9391 21.9999 12C21.9999 13.0609 21.5785 14.0783 20.8283 14.8284C20.0782 15.5786 19.0608 16 17.9999 16C16.939 16 15.9216 15.5786 15.1715 14.8284C14.4213 14.0783 13.9999 13.0609 13.9999 12C13.9999 10.9391 14.4213 9.92172 15.1715 9.17157ZM2.59004 22.3054C2.40403 21.6396 2.92029 20.9853 3.61134 21.0117C6.91689 21.1381 10.1078 22.2865 12.7401 24.3063C15.1368 26.1454 16.9556 28.6188 17.9999 31.4322C19.0442 28.6188 20.863 26.1454 23.2597 24.3063C25.892 22.2865 29.0829 21.1381 32.3885 21.0117C33.0794 20.9853 33.5959 21.6395 33.4097 22.3054C32.4781 25.64 30.4893 28.5841 27.7401 30.6937C25.1 32.7194 21.8981 33.8687 18.5822 33.9894C18.3885 33.9965 18.1943 34 17.9999 34C17.8055 34 17.6113 33.9965 17.4176 33.9894C14.1017 33.8687 10.8998 32.7194 8.25972 30.6937C5.51046 28.5841 3.52167 25.64 2.59004 22.3054ZM16.0221 31.8596C15.0942 29.5091 13.5431 27.4435 11.5226 25.8931C9.605 24.4217 7.34867 23.4787 4.97773 23.1404C5.90556 25.4909 7.45669 27.5565 9.47724 29.1069C11.3948 30.5783 13.6511 31.5213 16.0221 31.8596ZM19.9777 31.8596C22.3487 31.5213 24.605 30.5783 26.5226 29.1069C28.5431 27.5565 30.0942 25.4909 31.0221 23.1404C28.6511 23.4787 26.3948 24.4217 24.4772 25.8931C22.4567 27.4435 20.9056 29.5091 19.9777 31.8596Z" fill="currentColor"/>
</svg>
