<svg width="36" height="36" viewBox="0 0 36 36" fill="none" xmlns="http://www.w3.org/2000/svg">
<path fill-rule="evenodd" clip-rule="evenodd" d="M18 4C10.268 4 4 10.268 4 18C4 25.732 10.268 32 18 32V30C17.6883 30 17.2792 29.8396 16.7936 29.3056C16.3078 28.7713 15.8244 27.9425 15.3978 26.8334C14.6292 24.8349 14.1082 22.0922 14.015 19H18V17H14.015C14.1082 13.9078 14.6292 11.1651 15.3978 9.16659C15.8244 8.05754 16.3078 7.22865 16.7936 6.69438C17.2792 6.16039 17.6883 6 18 6C18.3117 6 18.7208 6.16039 19.2064 6.69438C19.6922 7.22865 20.1756 8.05754 20.6022 9.16659C21.1111 10.4897 21.5114 12.139 21.7509 14H23.7663C23.514 11.9 23.0666 10.0027 22.4689 8.44863C22.2002 7.7501 21.895 7.10475 21.5532 6.53476C25.1728 7.65526 28.0599 10.4427 29.3172 14H31.4202C29.6991 8.21702 24.342 4 18 4ZM6.04107 17H12.0142C12.1077 13.7102 12.6596 10.7146 13.5311 8.44863C13.7998 7.7501 14.105 7.10475 14.4468 6.53476C9.8598 7.95472 6.4493 12.0517 6.04107 17ZM14.4468 29.4652C14.105 28.8952 13.7998 28.2499 13.5311 27.5514C12.6596 25.2854 12.1077 22.2898 12.0142 19H6.04107C6.44929 23.9483 9.8598 28.0453 14.4468 29.4652Z" fill="currentColor"/>
<path fill-rule="evenodd" clip-rule="evenodd" d="M28 18C25.7909 18 24 19.7909 24 22C24 24.2091 25.7909 26 28 26C30.2091 26 32 24.2091 32 22C32 19.7909 30.2091 18 28 18ZM26 22C26 20.8954 26.8954 20 28 20C29.1046 20 30 20.8954 30 22C30 23.1046 29.1046 24 28 24C26.8954 24 26 23.1046 26 22Z" fill="currentColor"/>
<path d="M27 28C24.2386 28 22 30.2386 22 33V34H24V33C24 31.3431 25.3431 30 27 30H29C30.6569 30 32 31.3431 32 33V34H34V33C34 30.2386 31.7614 28 29 28H27Z" fill="currentColor"/>
</svg>
