<svg width="36" height="36" viewBox="0 0 36 36" fill="none" xmlns="http://www.w3.org/2000/svg">
<path fill-rule="evenodd" clip-rule="evenodd" d="M6.04107 17H12.0142C12.1077 13.7102 12.6596 10.7146 13.5311 8.44863C13.7998 7.7501 14.105 7.10475 14.4468 6.53476C9.8598 7.95472 6.4493 12.0517 6.04107 17ZM18 4C10.268 4 4 10.268 4 18C4 25.732 10.268 32 18 32C25.732 32 32 25.732 32 18C32 10.268 25.732 4 18 4ZM18 6C17.6883 6 17.2792 6.16039 16.7936 6.69438C16.3078 7.22865 15.8244 8.05754 15.3978 9.16659C14.6292 11.1651 14.1082 13.9078 14.015 17H21.985C21.8918 13.9078 21.3708 11.1651 20.6022 9.16659C20.1756 8.05754 19.6922 7.22865 19.2064 6.69438C18.7208 6.16039 18.3117 6 18 6ZM23.9858 17C23.8923 13.7102 23.3404 10.7146 22.4689 8.44863C22.2002 7.7501 21.895 7.10475 21.5532 6.53476C26.1402 7.95472 29.5507 12.0517 29.9589 17H23.9858ZM21.985 19H14.015C14.1082 22.0922 14.6292 24.8349 15.3978 26.8334C15.8244 27.9425 16.3078 28.7713 16.7936 29.3056C17.2792 29.8396 17.6883 30 18 30C18.3117 30 18.7208 29.8396 19.2064 29.3056C19.6922 28.7713 20.1756 27.9425 20.6022 26.8334C21.3708 24.8349 21.8918 22.0922 21.985 19ZM21.5532 29.4652C21.895 28.8952 22.2002 28.2499 22.4689 27.5514C23.3404 25.2854 23.8923 22.2898 23.9858 19H29.9589C29.5507 23.9483 26.1402 28.0453 21.5532 29.4652ZM14.4468 29.4652C14.105 28.8952 13.7998 28.2499 13.5311 27.5514C12.6596 25.2854 12.1077 22.2898 12.0142 19H6.04107C6.44929 23.9483 9.8598 28.0453 14.4468 29.4652Z" fill="currentColor"/>
</svg>
