<svg width="36" height="36" viewBox="0 0 36 36" fill="none" xmlns="http://www.w3.org/2000/svg">
<g clip-path="url(#clip0_1812_226)">
<path d="M12 20C16.4183 20 20 16.4183 20 12C20 7.58172 16.4183 4 12 4C7.58172 4 4 7.58172 4 12C4 16.4183 7.58172 20 12 20Z" fill="#4285F4"/>
<path d="M34 12C34 13.1047 33.1043 14 32 14C30.8957 14 30 13.1047 30 12C30 10.8953 30.8957 10 32 10C33.1043 10 34 10.8953 34 12Z" fill="#34A853"/>
<path d="M30 18.0001C30 20.2091 28.2093 22 26 22C23.7906 22 22 20.2091 22 18.0001C22 15.7909 23.7906 14 26 14C28.2094 14 30 15.791 30 18.0001Z" fill="#EA4335"/>
<path d="M32 29.0001C32 31.7616 29.7617 34 27 34C24.2383 34 22 31.7616 22 29.0001C22 26.2387 24.2383 24 27 24C29.7617 24 32 26.2387 32 29.0001Z" fill="#FBBC05"/>
</g>
<defs>
<clipPath id="clip0_1812_226">
<rect width="18" height="18" fill="white" transform="scale(2)"/>
</clipPath>
</defs>
</svg>
