<svg width="36" height="36" viewBox="0 0 36 36" fill="none" xmlns="http://www.w3.org/2000/svg">
<path d="M12 28C12 30.2091 10.2091 32 8 32C5.79086 32 4 30.2091 4 28C4 25.7909 5.79086 24 8 24C10.2091 24 12 25.7909 12 28Z" fill="#F57E02"/>
<path d="M14 20C14 17.7909 15.7909 16 18 16C20.2091 16 22 17.7909 22 20V28C22 30.2091 20.2091 32 18 32C15.7909 32 14 30.2091 14 28V20Z" fill="#F57E02"/>
<path d="M24 10C24 7.79086 25.7909 6 28 6C30.2091 6 32 7.79086 32 10V28C32 30.2091 30.2091 32 28 32C25.7909 32 24 30.2091 24 28V10Z" fill="#F57E02"/>
<rect x="24" y="6" width="8" height="26" rx="2" fill="#F9AB00"/>
</svg>
