<svg width="36" height="36" viewBox="0 0 36 36" fill="none" xmlns="http://www.w3.org/2000/svg">
<g clip-path="url(#clip0_857_173)">
<path d="M4.17801 30.0098H9.26701V17.6537L2 12.2087V27.8527C2 29.0464 2.98429 30.0098 4.17801 30.0098Z" fill="#557EBF"/>
<path d="M26.7334 30.0097H31.8224C33.0371 30.0097 34.0004 29.0254 34.0004 27.8317V12.1877L26.7334 17.6328V30.0097Z" fill="#36A852"/>
<path d="M26.7334 8.18774V17.6328L34.0004 12.1877V9.27674C34.0004 6.57517 30.9219 5.04637 28.7648 6.65894L26.7334 8.18774Z" fill="#F9BC15"/>
<path d="M9.2666 17.6536V8.20859L17.9996 14.7636L26.7326 8.20859V17.6536L17.9996 24.1876L9.2666 17.6536Z" fill="#EA4535"/>
<path d="M2 9.27678V12.1878L9.26701 17.6328V8.18777L7.2356 6.65898C5.07853 5.04641 2 6.59615 2 9.27678Z" fill="#C52627"/>
</g>
<defs>
<clipPath id="clip0_857_173">
<rect width="18" height="18" fill="white" transform="scale(2)"/>
</clipPath>
</defs>
</svg>
