<svg width="36" height="36" viewBox="0 0 36 36" fill="none" xmlns="http://www.w3.org/2000/svg">
<g clip-path="url(#clip0_12741_11036)">
<path d="M30.4978 11.0115H4.71658C4.10402 11.0115 3.60742 11.5093 3.60742 12.1234V30.888C3.60742 31.5021 4.10402 32 4.71658 32H30.4978C31.1103 32 31.607 31.5021 31.607 30.888V12.1234C31.607 11.5093 31.1103 11.0115 30.4978 11.0115Z" fill="#4989F5"/>
<path d="M30.1743 10.8536H5.0092C4.22965 10.8536 3.62305 16.9016 3.62305 17.6831L17.4041 31.9998H30.1743C30.9561 31.9977 31.5895 31.3626 31.5916 30.5788V12.2743C31.5893 11.4905 30.956 10.8557 30.1743 10.8536Z" fill="url(#paint0_linear_12741_11036)"/>
<path d="M10 14.5263H17.9999V4.00037H11.1979L10 14.5263Z" fill="#3C4BA6"/>
<path d="M25.9999 14.5263H18V4.00037H24.802L25.9999 14.5263ZM31.6065 5.99569L31.6164 6.03156C31.614 6.01891 31.6091 6.00715 31.6065 5.99569Z" fill="#7BABF7"/>
<path d="M31.617 6.0312L31.6072 5.99532C31.3536 4.83102 30.3256 4.00075 29.1368 4H24.8027L25.9997 14.5262H33.9996L31.617 6.0312Z" fill="#3F51B5"/>
<path d="M4.39468 5.99561L4.38477 6.03139C4.38716 6.01877 4.39197 6.00704 4.39468 5.99561Z" fill="#7BABF7"/>
<path d="M4.38403 6.0312L4.39396 5.99532C4.64758 4.83102 5.67553 4.00075 6.86429 4H11.1986L9.99987 14.5262H2L4.38403 6.0312Z" fill="#7BABF7"/>
<path fill-rule="evenodd" clip-rule="evenodd" d="M9.99987 14.522C9.99987 16.7329 8.20903 18.5254 5.99994 18.5254C3.79086 18.5254 2 16.7329 2 14.522H9.99987Z" fill="#709BE0"/>
<path fill-rule="evenodd" clip-rule="evenodd" d="M17.9999 14.522C17.9999 16.7329 16.209 18.5254 13.9999 18.5254C11.7908 18.5254 10 16.7329 10 14.522H17.9999Z" fill="#3C4BA6"/>
<path fill-rule="evenodd" clip-rule="evenodd" d="M25.9999 14.522C25.9999 16.7329 24.209 18.5254 21.9999 18.5254C19.7908 18.5254 18 16.7329 18 14.522H25.9999Z" fill="#709BE0"/>
<path fill-rule="evenodd" clip-rule="evenodd" d="M33.9999 14.522C33.9999 16.7329 32.209 18.5254 29.9999 18.5254C27.7908 18.5254 26 16.7329 26 14.522H33.9999Z" fill="#3C4BA6"/>
<path d="M30.0018 25.3813C29.9877 25.1906 29.9641 25.0163 29.9307 24.7937H25.57C25.57 25.4051 25.57 26.0724 25.5675 26.6842H28.0938C28.0402 26.9693 27.9308 27.2409 27.7721 27.4836C27.6134 27.7261 27.4085 27.9349 27.169 28.0978C27.169 28.0978 27.169 28.0873 27.1672 28.087C26.8581 28.2905 26.5097 28.4268 26.1446 28.487C25.7788 28.5542 25.4036 28.5527 25.0383 28.4823C24.6673 28.4053 24.3161 28.2527 24.0064 28.034C23.5492 27.709 23.1968 27.2575 22.9919 26.7346C22.9763 26.6938 22.9618 26.6529 22.9472 26.6112V26.6067L22.951 26.6037C22.7524 26.0188 22.7518 25.3846 22.9496 24.7995C23.0889 24.3891 23.3181 24.0151 23.6205 23.705C24.3299 22.9695 25.3898 22.6928 26.3669 22.988C26.7417 23.1034 27.084 23.3053 27.3662 23.5778L28.2186 22.7234C28.3689 22.5712 28.5252 22.4237 28.6697 22.2663C28.2377 21.8623 27.7304 21.5473 27.1768 21.3395C26.1696 20.9733 25.0678 20.9636 24.0543 21.3121C24.0188 21.3241 23.9837 21.3367 23.949 21.3497C22.8555 21.7618 21.956 22.57 21.4281 23.6145C21.2417 23.9843 21.1059 24.3777 21.0245 24.7839C20.5417 27.1889 22.0056 29.5563 24.369 30.1927C25.1416 30.4001 25.9631 30.395 26.7417 30.2178C27.4492 30.0576 28.1032 29.7167 28.6406 29.2285C29.2012 28.7114 29.6029 28.0226 29.8134 27.2907C29.9896 26.6707 30.0533 26.0241 30.0018 25.3813Z" fill="white"/>
</g>
<defs>
<linearGradient id="paint0_linear_12741_11036" x1="3.62305" y1="21.4266" x2="31.5914" y2="21.4266" gradientUnits="userSpaceOnUse">
<stop offset="0.03" stop-color="#4079D8"/>
<stop offset="1" stop-color="#4989F5"/>
</linearGradient>
<clipPath id="clip0_12741_11036">
<rect width="18" height="18" fill="white" transform="scale(2)"/>
</clipPath>
</defs>
</svg>
