<svg width="36" height="36" viewBox="0 0 36 36" fill="none" xmlns="http://www.w3.org/2000/svg">
<path fill-rule="evenodd" clip-rule="evenodd" d="M12.5132 5.06206C14.2535 4.36067 16.1178 4 17.9999 4C19.8821 4 21.7464 4.36067 23.4867 5.06206C25.227 5.76347 26.81 6.79223 28.1447 8.0909C29.4795 9.38963 30.5397 10.9329 31.2637 12.6334C31.5509 13.3083 31.783 14.0026 31.9584 14.7098C32.1217 15.3685 31.6218 16 30.949 16H5.05087C4.37807 16 3.87816 15.3685 4.04151 14.7098C4.2169 14.0026 4.44895 13.3083 4.73624 12.6334C5.46015 10.9329 6.52044 9.38963 7.85519 8.0909C9.18989 6.79223 10.7729 5.76347 12.5132 5.06206ZM17.9999 6C16.373 6 14.7626 6.31184 13.2609 6.91707C11.7592 7.52229 10.3965 8.40867 9.24993 9.52433C8.10338 10.6399 7.1954 11.9628 6.57644 13.4168C6.49442 13.6095 6.41769 13.8039 6.34628 14H29.6536C29.5822 13.8039 29.5055 13.6095 29.4235 13.4168C28.8045 11.9628 27.8965 10.6399 26.75 9.52432C25.6034 8.40867 24.2407 7.52229 22.739 6.91707C21.2373 6.31184 19.6269 6 17.9999 6ZM32.4472 19.8944L29.3416 21.4472C28.497 21.8695 27.5029 21.8695 26.6583 21.4472L24.4472 20.3416C24.1656 20.2009 23.8343 20.2009 23.5527 20.3416L21.3416 21.4472C20.497 21.8695 19.5029 21.8695 18.6583 21.4472L16.4472 20.3416C16.1656 20.2009 15.8343 20.2009 15.5527 20.3416L13.3416 21.4472C12.497 21.8695 11.5029 21.8695 10.6583 21.4472L8.44716 20.3416C8.16563 20.2009 7.83426 20.2009 7.55273 20.3416L4.44716 21.8944L3.55273 20.1056L6.65831 18.5528C7.50289 18.1305 8.49701 18.1305 9.34159 18.5528L11.5527 19.6584C11.8343 19.7991 12.1656 19.7991 12.4472 19.6584L14.6583 18.5528C15.5029 18.1305 16.497 18.1305 17.3416 18.5528L19.5527 19.6584C19.8343 19.7991 20.1656 19.7991 20.4472 19.6584L22.6583 18.5528C23.5029 18.1305 24.497 18.1305 25.3416 18.5528L27.5527 19.6584C27.8343 19.7991 28.1656 19.7991 28.4472 19.6584L31.5527 18.1056L32.4472 19.8944ZM3.99995 24H31.9999V27C31.9999 29.7614 29.7614 32 26.9999 32H8.99995C6.23852 32 3.99995 29.7614 3.99995 27V24ZM5.99995 26V27C5.99995 28.6569 7.34309 30 8.99995 30H26.9999C28.6568 30 29.9999 28.6569 29.9999 27V26H5.99995Z" fill="currentColor"/>
</svg>
