<svg width="36" height="36" viewBox="0 0 36 36" fill="none" xmlns="http://www.w3.org/2000/svg">
<g clip-path="url(#clip0_2499_107)">
<path d="M18 2C10.268 2 4 8.268 4 16C4 23.3638 10.6362 29.3337 18 29.3337V33.9975C26.4771 29.8597 32 23.0394 32 16C32 8.268 25.732 2 18 2Z" fill="#0F9D58"/>
<path d="M11.3291 17.9985H14.6603V21.3297C16.1331 21.3297 17.3253 19.8395 17.3253 17.9985V12.0023H11.3291V17.9985ZM19.3329 12.0023V17.9985H22.6641V21.3297C24.1369 21.3297 25.3291 19.8395 25.3291 17.9985V12.0023H19.3329Z" fill="#F1F1F1"/>
<path opacity="0.08" d="M18 2C10.268 2 4 8.268 4 16C4 23.3638 10.6362 29.3337 18 29.3337V33.9975C26.4771 29.8597 32 23.0394 32 16C32 8.268 25.732 2 18 2Z" fill="url(#paint0_radial_2499_107)"/>
</g>
<defs>
<radialGradient id="paint0_radial_2499_107" cx="0" cy="0" r="1" gradientUnits="userSpaceOnUse" gradientTransform="translate(8.09737 6.11113) scale(29.5435)">
<stop stop-color="white"/>
<stop offset="1" stop-color="white"/>
</radialGradient>
<clipPath id="clip0_2499_107">
<rect width="18" height="18" fill="white" transform="scale(2)"/>
</clipPath>
</defs>
</svg>
