<svg width="36" height="36" viewBox="0 0 36 36" fill="none" xmlns="http://www.w3.org/2000/svg">
<path fill-rule="evenodd" clip-rule="evenodd" d="M32.293 2.29297L2.29297 32.293L3.70718 33.7072L11.3432 26.0711L18 32.7279L31.364 19.364C33.0518 17.6761 34 15.3869 34 13C34 10.6131 33.0518 8.32387 31.364 6.63604C31.2661 6.53818 31.1662 6.4428 31.0644 6.34995L33.7072 3.70718L32.293 2.29297ZM29.6483 7.7661L12.7574 24.6569L18 29.8995L29.9497 17.9497C31.2625 16.637 32 14.8565 32 13C32 11.1435 31.2625 9.36301 29.9497 8.05025C29.8518 7.95231 29.7513 7.85757 29.6483 7.7661Z" fill="currentColor"/>
<path d="M6.05025 17.9497L9.92916 21.8287L8.51495 23.2429L4.63604 19.364C3.80031 18.5282 3.13738 17.5361 2.68508 16.4442C2.23279 15.3522 2 14.1819 2 13C2 11.8181 2.23279 10.6478 2.68508 9.55585C3.13738 8.46392 3.80031 7.47177 4.63604 6.63604C5.47177 5.80031 6.46392 5.13738 7.55585 4.68508C8.64778 4.23279 9.8181 4 11 4C12.1819 4 13.3522 4.23279 14.4441 4.68508C15.5361 5.13738 16.5282 5.80031 17.364 6.63604L18 7.27208L18.636 6.63604C20.3239 4.94821 22.6131 4 25 4C25.827 4 26.6424 4.11384 27.425 4.33283L25.7206 6.03717C25.4823 6.01251 25.2418 6 25 6C23.1435 6 21.363 6.7375 20.0503 8.05025L18 10.1005L15.9497 8.05025C15.2997 7.40024 14.5281 6.88463 13.6788 6.53284C12.8295 6.18106 11.9193 6 11 6C10.0807 6 9.17049 6.18106 8.32122 6.53284C7.47194 6.88463 6.70026 7.40024 6.05025 8.05025C5.40024 8.70026 4.88463 9.47194 4.53284 10.3212C4.18106 11.1705 4 12.0807 4 13C4 13.9193 4.18106 14.8295 4.53284 15.6788C4.88463 16.5281 5.40024 17.2997 6.05025 17.9497Z" fill="currentColor"/>
</svg>
