<svg width="36" height="36" viewBox="0 0 36 36" fill="none" xmlns="http://www.w3.org/2000/svg">
<path fill-rule="evenodd" clip-rule="evenodd" d="M34 18C34 26.8366 26.8366 34 18 34C9.16344 34 2 26.8366 2 18C2 9.16344 9.16344 2 18 2C26.8366 2 34 9.16344 34 18ZM20 4.14178C26.1414 5.02023 30.997 9.88443 31.8625 16.03H25.7556C25.0401 13.2045 22.8212 10.9782 20 10.252V4.14178ZM16 4.14178V10.252C13.1788 10.9782 10.9599 13.2045 10.2444 16.03H4.13752C5.00301 9.88443 9.85863 5.02023 16 4.14178ZM4.1461 20.03C5.03462 26.1472 9.87861 30.9826 16 31.8582V25.748C13.1988 25.027 10.9913 22.8269 10.2598 20.03H4.1461ZM20 31.8582V25.748C22.8012 25.027 25.0087 22.8269 25.7402 20.03H31.8539C30.9654 26.1472 26.1214 30.9826 20 31.8582ZM24 18C24 21.3137 21.3137 24 18 24C14.6863 24 12 21.3137 12 18C12 14.6863 14.6863 12 18 12C21.3137 12 24 14.6863 24 18Z" fill="currentColor"/>
</svg>
