<svg width="36" height="36" viewBox="0 0 36 36" fill="none" xmlns="http://www.w3.org/2000/svg">
<path fill-rule="evenodd" clip-rule="evenodd" d="M4 9C4 6.23858 6.23858 4 9 4H27C29.7614 4 32 6.23858 32 9V27C32 29.7614 29.7614 32 27 32H9C6.23858 32 4 29.7614 4 27V9ZM9 6C7.34315 6 6 7.34315 6 9V22H14C14 24.2091 15.7909 26 18 26C20.2091 26 22 24.2091 22 22H30V9C30 7.34315 28.6569 6 27 6H9ZM23.6586 24C22.8349 26.3304 20.6124 28 18 28C15.3876 28 13.1651 26.3304 12.3414 24H6V27C6 28.6569 7.34315 30 9 30H27C28.6569 30 30 28.6569 30 27V24H23.6586Z" fill="currentColor"/>
</svg>
