<svg width="36" height="36" viewBox="0 0 36 36" fill="none" xmlns="http://www.w3.org/2000/svg">
<path fill-rule="evenodd" clip-rule="evenodd" d="M17.9998 13.3C15.4041 13.3 13.2998 15.4043 13.2998 18C13.2998 20.5957 15.4041 22.7 17.9998 22.7C20.5955 22.7 22.6998 20.5957 22.6998 18C22.6998 15.4043 20.5955 13.3 17.9998 13.3ZM10.6998 18C10.6998 13.9683 13.9681 10.7 17.9998 10.7C22.0315 10.7 25.2998 13.9683 25.2998 18C25.2998 22.0317 22.0315 25.3 17.9998 25.3C13.9681 25.3 10.6998 22.0317 10.6998 18Z" fill="url(#paint0_linear_100_474)"/>
<path fill-rule="evenodd" clip-rule="evenodd" d="M25.4639 12.3578C26.458 12.3578 27.2639 11.5519 27.2639 10.5578C27.2639 9.5637 26.458 8.75781 25.4639 8.75781C24.4698 8.75781 23.6639 9.5637 23.6639 10.5578C23.6639 11.5519 24.4698 12.3578 25.4639 12.3578Z" fill="url(#paint1_linear_100_474)"/>
<path fill-rule="evenodd" clip-rule="evenodd" d="M4 11.6C4 7.40264 7.40263 4 11.6 4H24.4C28.5974 4 32 7.40263 32 11.6V24.4C32 28.5974 28.5974 32 24.4 32H11.6C7.40264 32 4 28.5974 4 24.4V11.6ZM11.6 6.4C8.72812 6.4 6.4 8.72812 6.4 11.6V24.4C6.4 27.2719 8.72812 29.6 11.6 29.6H24.4C27.2719 29.6 29.6 27.2719 29.6 24.4V11.6C29.6 8.72812 27.2719 6.4 24.4 6.4H11.6Z" fill="url(#paint2_linear_100_474)"/>
<defs>
<linearGradient id="paint0_linear_100_474" x1="22.2333" y1="52.8778" x2="61.9859" y2="13.7006" gradientUnits="userSpaceOnUse">
<stop stop-color="white"/>
<stop offset="0.147864" stop-color="#F6640E"/>
<stop offset="0.443974" stop-color="#BA03A7"/>
<stop offset="0.733337" stop-color="#6A01B9"/>
<stop offset="1" stop-color="#6B01B9"/>
</linearGradient>
<linearGradient id="paint1_linear_100_474" x1="22.2333" y1="52.8778" x2="61.9859" y2="13.7006" gradientUnits="userSpaceOnUse">
<stop stop-color="white"/>
<stop offset="0.147864" stop-color="#F6640E"/>
<stop offset="0.443974" stop-color="#BA03A7"/>
<stop offset="0.733337" stop-color="#6A01B9"/>
<stop offset="1" stop-color="#6B01B9"/>
</linearGradient>
<linearGradient id="paint2_linear_100_474" x1="22.2333" y1="52.8778" x2="61.9859" y2="13.7006" gradientUnits="userSpaceOnUse">
<stop stop-color="white"/>
<stop offset="0.147864" stop-color="#F6640E"/>
<stop offset="0.443974" stop-color="#BA03A7"/>
<stop offset="0.733337" stop-color="#6A01B9"/>
<stop offset="1" stop-color="#6B01B9"/>
</linearGradient>
</defs>
</svg>
