<svg width="36" height="36" viewBox="0 0 36 36" fill="none" xmlns="http://www.w3.org/2000/svg">
<path fill-rule="evenodd" clip-rule="evenodd" d="M26.5662 4.69361C27.034 4.35536 27.7793 3.9272 28.6171 4.01181C29.1296 4.06357 29.5731 4.2053 29.9796 4.45228C30.3701 4.68955 30.682 4.99783 30.9613 5.31043C31.7154 6.15437 32.0225 7.07103 31.9994 8.09041C31.9763 9.11255 31.5626 10.0867 30.8439 10.8131L26.0005 16.0587L21.157 10.8131C20.4381 10.0865 20.0244 9.11204 20.0015 8.08963C19.9783 7.06011 20.3532 6.06133 21.0479 5.30122C21.6705 4.62005 22.5498 3.96731 23.8296 4.00712C24.576 4.03033 25.2131 4.44619 25.6207 4.77389C25.7663 4.89097 25.9026 5.01331 26.0269 5.13326C26.1891 4.98633 26.3708 4.83497 26.5662 4.69361ZM27.7382 6.31428C27.3999 6.55891 27.0966 6.87181 26.9182 7.07223C26.4219 7.6301 25.5401 7.61261 25.0659 7.03682C24.9108 6.84852 24.6556 6.56419 24.3675 6.3326C24.0487 6.07624 23.842 6.00847 23.7675 6.00615C23.3035 5.99172 22.9437 6.19152 22.5242 6.65052C22.1768 7.03058 21.9894 7.52997 22.001 8.04473C22.0125 8.55949 22.2222 9.04996 22.5862 9.41405L22.6003 9.42813L26.0005 13.1106L29.4006 9.42813L29.4147 9.41405C29.7787 9.05006 29.9883 8.55974 29.9999 8.04512C30.0118 7.52063 29.878 7.09972 29.47 6.64304C29.2402 6.38592 29.0827 6.2476 28.941 6.1615C28.8153 6.08511 28.6638 6.02671 28.4161 6.00169C28.3427 5.99427 28.1153 6.04158 27.7382 6.31428ZM8.21915 5.09612C8.9613 3.64156 11.0396 3.64136 11.782 5.09578L15.863 13.0905C16.5423 14.4212 15.5757 15.9998 14.0817 15.9998H5.92158C4.4277 15.9998 3.46113 14.4216 4.14007 13.0909L8.21915 5.09612ZM14.0817 13.9998L10.0007 6.00508L5.92158 13.9998H14.0817ZM10.0005 21.9998C7.79132 21.9998 6.00045 23.7907 6.00045 25.9998C6.00045 28.209 7.79132 29.9998 10.0005 29.9998C12.2096 29.9998 14.0005 28.209 14.0005 25.9998C14.0005 23.7907 12.2096 21.9998 10.0005 21.9998ZM4.00045 25.9998C4.00045 22.6861 6.68675 19.9998 10.0005 19.9998C13.3142 19.9998 16.0005 22.6861 16.0005 25.9998C16.0005 29.3135 13.3142 31.9998 10.0005 31.9998C6.68675 31.9998 4.00045 29.3135 4.00045 25.9998ZM20.0005 22.9998C20.0005 21.343 21.3436 19.9998 23.0005 19.9998H29.0005C30.6573 19.9998 32.0005 21.343 32.0005 22.9998V28.9998C32.0005 30.6567 30.6573 31.9998 29.0005 31.9998H23.0005C21.3436 31.9998 20.0005 30.6567 20.0005 28.9998V22.9998ZM23.0005 21.9998C22.4482 21.9998 22.0005 22.4475 22.0005 22.9998V28.9998C22.0005 29.5521 22.4482 29.9998 23.0005 29.9998H29.0005C29.5527 29.9998 30.0005 29.5521 30.0005 28.9998V22.9998C30.0005 22.4475 29.5527 21.9998 29.0005 21.9998H23.0005Z" fill="currentColor"/>
</svg>
