<svg width="36" height="36" viewBox="0 0 36 36" fill="none" xmlns="http://www.w3.org/2000/svg">
<path fill-rule="evenodd" clip-rule="evenodd" d="M15.6569 4C14.8613 4 14.0982 4.31607 13.5356 4.87868L13.492 4.92234C13.5665 5.03896 13.6297 5.16452 13.6797 5.29775L14.693 8H21.307L22.3203 5.29775C22.3703 5.16448 22.4335 5.03889 22.5081 4.92224L22.4645 4.87868C21.9019 4.31607 21.1389 4 20.3432 4H15.6569ZM12.1214 3.46447L11.5859 4H11C8.23858 4 6 6.23858 6 9V29C6 31.7614 8.23858 34 11 34H25C27.7614 34 30 31.7614 30 29V9C30 6.23858 27.7614 4 25 4H24.4143L23.8788 3.46447C22.9411 2.52678 21.6693 2 20.3432 2H15.6569C14.3308 2 13.0591 2.52678 12.1214 3.46447ZM24 18H12V16H24V18ZM24 22H12V20H24V22ZM12 26H18V24H12V26Z" fill="currentColor"/>
</svg>
