<svg width="36" height="36" viewBox="0 0 36 36" fill="none" xmlns="http://www.w3.org/2000/svg">
<path d="M32.0001 4V14H30.0001V7.41421L25.0001 12.4142C24.625 12.7893 24.1163 13 23.5859 13L14.4143 13L23.0001 21.5858C24.26 22.8457 23.3677 25 21.5859 25L12.4143 25L5.70718 31.7071L4.29297 30.2929L11.0001 23.5858C11.3752 23.2107 11.8839 23 12.4143 23H21.5859L13.0001 14.4142C11.7402 13.1543 12.6325 11 14.4143 11L23.5859 11L28.5859 6L22 6.00001V4.00001L32.0001 4Z" fill="currentColor"/>
<path d="M12.0001 18C12.0001 19.1046 11.1047 20 10.0001 20C8.89555 20 8.00012 19.1046 8.00012 18C8.00012 16.8954 8.89555 16 10.0001 16C11.1047 16 12.0001 16.8954 12.0001 18Z" fill="currentColor"/>
<path d="M26.0001 20C27.1047 20 28.0001 19.1046 28.0001 18C28.0001 16.8954 27.1047 16 26.0001 16C24.8956 16 24.0001 16.8954 24.0001 18C24.0001 19.1046 24.8956 20 26.0001 20Z" fill="currentColor"/>
</svg>
