<svg width="36" height="36" viewBox="0 0 36 36" fill="none" xmlns="http://www.w3.org/2000/svg">
<path fill-rule="evenodd" clip-rule="evenodd" d="M6 7C6 4.23858 8.23858 2 11 2H21.3431C22.6692 2 23.941 2.52678 24.8787 3.46447L28.5355 7.12132C29.4732 8.059 30 9.33077 30 10.6569V14H28V12H23C21.3431 12 20 10.6569 20 9V4H11C9.34315 4 8 5.34315 8 7V14H6V7ZM23.7071 5.12132L26.8787 8.29289C27.3557 8.76994 27.6939 9.35992 27.8671 10H23C22.4477 10 22 9.55228 22 9V4.1329C22.6401 4.30612 23.2301 4.64427 23.7071 5.12132Z" fill="currentColor"/>
<path d="M6 34V32H30V34H6Z" fill="currentColor"/>
<path d="M10 18V26H8L8 24H6V26C6 27.1046 6.89543 28 8 28H10C11.1046 28 12 27.1046 12 26L12 18H10Z" fill="currentColor"/>
<path fill-rule="evenodd" clip-rule="evenodd" d="M14 18V28H16V24H18C19.1046 24 20 23.1046 20 22V20C20 18.8954 19.1046 18 18 18H14ZM16 22V20H18V22H16Z" fill="currentColor"/>
<path d="M22 20C22 18.8954 22.8954 18 24 18H28V20H24V26H26V24H25V22H28V28H24C22.8954 28 22 27.1046 22 26V20Z" fill="currentColor"/>
</svg>
