<svg width="36" height="36" viewBox="0 0 36 36" fill="none" xmlns="http://www.w3.org/2000/svg">
<path d="M7.2 12V14H21.2V12H7.2Z" fill="currentColor"/>
<path d="M7.2 18H17.2V16H7.2V18Z" fill="currentColor"/>
<path fill-rule="evenodd" clip-rule="evenodd" d="M14 2C7.37258 2 2 7.37258 2 14C2 20.6274 7.37258 26 14 26C16.9537 26 19.6581 24.9328 21.7488 23.1631L30.2929 31.7072L31.7071 30.2929L23.163 21.7489C24.9328 19.6582 26 16.9537 26 14C26 7.37258 20.6274 2 14 2ZM4 14C4 8.47715 8.47715 4 14 4C19.5228 4 24 8.47715 24 14C24 19.5228 19.5228 24 14 24C8.47715 24 4 19.5228 4 14Z" fill="currentColor"/>
</svg>
