<svg width="36" height="36" viewBox="0 0 36 36" fill="none" xmlns="http://www.w3.org/2000/svg">
<path d="M18 10C19.1046 10 20 10.8954 20 12C20 13.1046 19.1046 14 18 14C16.8954 14 16 13.1046 16 12C16 10.8954 16.8954 10 18 10Z" fill="currentColor"/>
<path d="M20 20V18H12V30H14V26H18V24H14V20H20Z" fill="currentColor"/>
<path fill-rule="evenodd" clip-rule="evenodd" d="M16.5858 1.99985C17.3668 1.2188 18.6332 1.2188 19.4142 1.99985L28.5355 11.1212C29.4732 12.0589 30 13.3306 30 14.6567V28.9998C30 31.7613 27.7614 33.9998 25 33.9998H11C8.23858 33.9998 6 31.7613 6 28.9998V14.6567C6 13.3306 6.52679 12.0588 7.46447 11.1212L16.5858 1.99985ZM18 3.41406L8.87868 12.5354C8.31607 13.098 8 13.8611 8 14.6567V28.9998C8 30.6567 9.34315 31.9998 11 31.9998H25C26.6569 31.9998 28 30.6567 28 28.9998V14.6567C28 13.8611 27.6839 13.098 27.1213 12.5354L18 3.41406Z" fill="currentColor"/>
</svg>
