<svg width="36" height="36" viewBox="0 0 36 36" fill="none" xmlns="http://www.w3.org/2000/svg">
<path fill-rule="evenodd" clip-rule="evenodd" d="M4 9C4 7.34315 5.34315 6 7 6H12.7639C13.7556 6 14.6621 6.56027 15.1056 7.44721C15.8878 9.01173 17.4869 10 19.2361 10H29C30.6569 10 32 11.3431 32 13V14H34V13C34 10.2386 31.7614 8 29 8H19.2361C18.2444 8 17.3379 7.43973 16.8944 6.55279C16.1122 4.98827 14.5131 4 12.7639 4H7C4.23858 4 2 6.23858 2 9V25C2 27.7614 4.23858 30 7 30H18V28H7C5.34315 28 4 26.6569 4 25V9ZM6 10H12V8H6V10ZM29.4594 16.6501C28.6692 15.8068 27.3308 15.8068 26.5406 16.6501L22.5406 20.9188C22.1933 21.2895 22 21.7784 22 22.2863V32.0002C22 33.1048 22.8954 34.0002 24 34.0002H32C33.1046 34.0002 34 33.1048 34 32.0002V22.2863C34 21.7784 33.8067 21.2895 33.4594 20.9188L29.4594 16.6501ZM28 18.0176L32 22.2863V32.0002L24 32.0002V22.2863L28 18.0176ZM28 24.0002C28.5523 24.0002 29 23.5525 29 23.0002C29 22.4479 28.5523 22.0002 28 22.0002C27.4477 22.0002 27 22.4479 27 23.0002C27 23.5525 27.4477 24.0002 28 24.0002Z" fill="currentColor"/>
</svg>
