<svg width="36" height="36" viewBox="0 0 36 36" fill="none" xmlns="http://www.w3.org/2000/svg">
<path fill-rule="evenodd" clip-rule="evenodd" d="M16.5858 1.99985C17.3668 1.2188 18.6332 1.2188 19.4142 1.99985L28.5355 11.1212C29.4732 12.0589 30 13.3306 30 14.6567V28.9998C30 31.7613 27.7614 33.9999 25 33.9999H11C8.23858 33.9999 6 31.7613 6 28.9998V14.6567C6 13.3306 6.52679 12.0588 7.46447 11.1212L16.5858 1.99985ZM18 3.41406L8.87868 12.5354C8.31607 13.098 8 13.8611 8 14.6567V28.9998C8 30.6567 9.34315 31.9998 11 31.9998H25C26.6569 31.9998 28 30.6567 28 28.9998V14.6567C28 13.8611 27.6839 13.098 27.1213 12.5354L18 3.41406ZM18 9.99985C19.1046 9.99985 20 10.8953 20 11.9998C20 13.1044 19.1046 13.9998 18 13.9998C16.8954 13.9998 16 13.1044 16 11.9998C16 10.8953 16.8954 9.99985 18 9.99985ZM12 17.9998H18C19.1046 17.9998 20 18.8953 20 19.9998V23.9998C20 25.1044 19.1046 25.9998 18 25.9998H14V29.9998H12V17.9998ZM14 19.9998V23.9998H18V19.9998H14Z" fill="currentColor"/>
</svg>
