<svg width="36" height="36" viewBox="0 0 36 36" fill="none" xmlns="http://www.w3.org/2000/svg">
<path d="M22.4488 15.9202C23.5236 16.481 23.5236 18.019 22.4488 18.5798L15.6935 22.105C14.6948 22.6262 13.4995 21.9017 13.4995 20.7752L13.4995 13.7247C13.4995 12.5982 14.6948 11.8737 15.6935 12.3949L22.4488 15.9202Z" fill="currentColor"/>
<path d="M15 28C14.4477 28 14 28.4477 14 29C14 29.5523 14.4477 30 15 30H21C21.5523 30 22 29.5523 22 29C22 28.4477 21.5523 28 21 28H15Z" fill="currentColor"/>
<path fill-rule="evenodd" clip-rule="evenodd" d="M6 7C6 4.23858 8.23858 2 11 2H25C27.7614 2 30 4.23858 30 7V29C30 31.7614 27.7614 34 25 34H11C8.23858 34 6 31.7614 6 29V7ZM11 4C9.34315 4 8 5.34315 8 7V29C8 30.6569 9.34315 32 11 32H25C26.6569 32 28 30.6569 28 29V7C28 5.34315 26.6569 4 25 4H11Z" fill="currentColor"/>
</svg>
