<svg width="36" height="36" viewBox="0 0 36 36" fill="none" xmlns="http://www.w3.org/2000/svg">
<path fill-rule="evenodd" clip-rule="evenodd" d="M18 4C14.6863 4 12 6.68629 12 10V16H24V10C24 6.68629 21.3137 4 18 4ZM26 16V10C26 5.58172 22.4183 2 18 2C13.5817 2 10 5.58172 10 10V16H9C7.34315 16 6 17.3431 6 19V31C6 32.6569 7.34314 34 9 34H27C28.6569 34 30 32.6569 30 31V19C30 17.3431 28.6569 16 27 16H26ZM9 18C8.44772 18 8 18.4477 8 19V31C8 31.5523 8.44772 32 9 32H27C27.5523 32 28 31.5523 28 31V19C28 18.4477 27.5523 18 27 18H9Z" fill="currentColor"/>
</svg>
