<svg width="36" height="36" viewBox="0 0 36 36" fill="none" xmlns="http://www.w3.org/2000/svg">
<path d="M18 26.4142L24.7071 19.7071L23.2929 18.2929L19 22.5858V10H17V22.5858L12.7071 18.2929L11.2929 19.7071L18 26.4142Z" fill="currentColor"/>
<path fill-rule="evenodd" clip-rule="evenodd" d="M9 4C6.23858 4 4 6.23858 4 9V27C4 29.7614 6.23858 32 9 32H27C29.7614 32 32 29.7614 32 27V9C32 6.23858 29.7614 4 27 4H9ZM6 9C6 7.34315 7.34315 6 9 6H27C28.6569 6 30 7.34315 30 9V27C30 28.6569 28.6569 30 27 30H9C7.34315 30 6 28.6569 6 27V9Z" fill="currentColor"/>
</svg>
