<svg width="36" height="36" viewBox="0 0 36 36" fill="none" xmlns="http://www.w3.org/2000/svg">
<g clip-path="url(#clip0_4688_5905)">
<path fill-rule="evenodd" clip-rule="evenodd" d="M4.29304 3.70701C4.13128 3.54525 3.86902 3.54525 3.70726 3.70701C3.5455 3.86877 3.5455 4.13104 3.70726 4.2928C3.86902 4.45456 4.13128 4.45456 4.29304 4.2928C4.4548 4.13104 4.4548 3.86877 4.29304 3.70701ZM2.29304 2.2928C3.23585 1.34999 4.76445 1.34999 5.70726 2.2928C6.65007 3.23561 6.65007 4.7642 5.70726 5.70701C4.76445 6.64982 3.23585 6.64982 2.29304 5.70701C1.35024 4.7642 1.35024 3.23561 2.29304 2.2928ZM19.293 3.70701C19.1313 3.54525 18.869 3.54525 18.7073 3.70701C18.5455 3.86877 18.5455 4.13104 18.7073 4.2928C18.869 4.45456 19.1313 4.45456 19.293 4.2928C19.4548 4.13104 19.4548 3.86877 19.293 3.70701ZM17.293 2.2928C18.2359 1.34999 19.7644 1.34999 20.7073 2.2928C21.6501 3.23561 21.6501 4.7642 20.7073 5.70701C19.7644 6.64982 18.2359 6.64982 17.293 5.70701C16.3502 4.7642 16.3502 3.23561 17.293 2.2928ZM9.58594 6.99991C10.367 6.21886 11.6333 6.21886 12.4144 6.99991L34.0002 28.5857C34.7812 29.3667 34.7812 30.6331 34.0002 31.4141L31.4144 33.9999C30.6333 34.781 29.367 34.781 28.5859 33.9999L7.00015 12.4141C6.2191 11.6331 6.2191 10.3667 7.00015 9.58569L9.58594 6.99991ZM11.0002 8.41412L8.41436 10.9999L14.5771 17.1626L17.1629 14.5768L11.0002 8.41412ZM18.5771 15.991L15.9913 18.5768L30.0002 32.5857L32.5859 29.9999L18.5771 15.991ZM4.29304 18.707C4.13128 18.5453 3.86902 18.5453 3.70726 18.707C3.5455 18.8688 3.5455 19.131 3.70726 19.2928C3.86902 19.4546 4.13128 19.4546 4.29304 19.2928C4.4548 19.131 4.4548 18.8688 4.29304 18.707ZM2.29304 17.2928C3.23585 16.35 4.76445 16.35 5.70726 17.2928C6.65007 18.2356 6.65007 19.7642 5.70726 20.707C4.76445 21.6498 3.23585 21.6498 2.29304 20.707C1.35024 19.7642 1.35024 18.2356 2.29304 17.2928Z" fill="currentColor"/>
</g>
<defs>
<clipPath id="clip0_4688_5905">
<rect width="18" height="18" fill="white" transform="scale(2)"/>
</clipPath>
</defs>
</svg>
