<svg width="36" height="36" viewBox="0 0 36 36" fill="none" xmlns="http://www.w3.org/2000/svg">
<path fill-rule="evenodd" clip-rule="evenodd" d="M14 6.47696V26.3314C14.0691 26.3534 14.1375 26.3779 14.2053 26.405L22 29.5229V9.66846C21.9309 9.64651 21.8625 9.62198 21.7947 9.59487L14 6.47696ZM24 9.604V29.3819L29.4472 26.6583C29.786 26.4889 30 26.1426 30 25.7639L30 6.61796L24.2505 9.49272C24.1684 9.53379 24.0848 9.57089 24 9.604ZM12 26.3959V6.61796L6.55278 9.3416C6.214 9.51099 6 9.85725 6 10.236V29.3819L11.7495 26.5072C11.8316 26.4661 11.9152 26.429 12 26.3959ZM11.7495 4.50715C12.5159 4.12392 13.4097 4.08675 14.2053 4.40501L22.5375 7.73792C22.8027 7.84401 23.1006 7.83161 23.3561 7.70387L29.1056 4.82911C30.4354 4.1642 32 5.13119 32 6.61796V25.7639C32 26.9002 31.358 27.939 30.3417 28.4471L24.2505 31.4927C23.4841 31.876 22.5903 31.9131 21.7947 31.5949L13.4625 28.262C13.1973 28.1559 12.8994 28.1683 12.6439 28.296L6.89443 31.1708C5.56463 31.8357 4 30.8687 4 29.3819V10.236C4 9.09971 4.642 8.06093 5.65835 7.55275L11.7495 4.50715Z" fill="currentColor"/>
</svg>
