<svg width="36" height="36" viewBox="0 0 36 36" fill="none" xmlns="http://www.w3.org/2000/svg">
<g clip-path="url(#clip0_2499_202)">
<path d="M34 17.9984C34 9.16374 26.8363 2 17.9984 2C9.1605 2 2 9.16374 2 17.9984C2 23.9195 5.21849 29.0911 10.0008 31.8587C10.0333 31.6932 10.0625 31.5277 10.0949 31.3623C10.0981 31.3428 10.1111 31.3233 10.1209 31.3039C10.1695 30.9632 10.2149 30.6225 10.2669 30.2819C10.3382 29.8244 10.3934 29.3637 10.4421 28.903C10.5751 27.6571 10.6237 26.408 10.7308 25.1621C10.747 24.9804 10.7178 24.7955 10.7665 24.6138C10.7438 24.0363 10.8281 23.462 10.8411 22.8845C10.8671 21.7619 10.8768 20.6394 10.8606 19.5135C10.8476 18.683 10.773 17.8556 10.6594 17.0315C10.64 16.905 10.6432 16.772 10.6335 16.6454C10.5556 16.4573 10.5621 16.2561 10.5264 16.0614C10.4193 15.5066 10.3058 14.9518 10.202 14.397C10.0819 13.7481 9.99108 13.0993 10.0527 12.4374C10.0981 11.9507 10.1955 11.4803 10.4161 11.0423C10.4291 11.0163 10.4421 10.9969 10.4745 10.9936C10.481 10.9612 10.4648 10.919 10.5069 10.8963C10.5686 10.64 10.7373 10.4485 10.893 10.2539C11.5257 9.45899 12.353 8.93663 13.268 8.52459C13.6995 8.32992 14.131 8.1385 14.5722 7.96979C14.7831 7.88867 14.9908 7.79783 15.2114 7.75241C15.3574 7.65507 15.5294 7.62912 15.6916 7.58045C16.1458 7.44094 16.6065 7.34036 17.0737 7.25925C18.0762 7.0873 19.0658 7.12623 20.0229 7.47987C20.6264 7.7005 21.1714 8.04116 21.6581 8.46943C21.7295 8.53108 21.8301 8.56676 21.8658 8.66734C22.44 9.1313 22.9754 9.63419 23.4912 10.1598C23.7605 10.4096 24.0395 10.6497 24.2699 10.9385C24.4905 11.0228 24.6495 11.1948 24.8409 11.3245C25.2757 11.6165 25.7331 11.8307 26.2555 11.928C26.7 12.0124 27.1185 12.1973 27.4949 12.4569C27.9718 12.7878 28.1697 13.2485 28.1016 13.826C28.1113 13.9947 28.1016 14.1569 28.0367 14.3159C27.9588 14.9746 27.6895 15.5326 27.151 15.9382C27.0277 16.0322 26.9141 16.1393 26.7714 16.2042C26.3496 16.5286 25.8954 16.8044 25.4217 17.051C25.0388 17.2489 24.643 17.4144 24.2342 17.5409C23.8189 17.6707 23.3939 17.7615 22.9624 17.8232C22.6736 17.8654 22.3849 17.8946 22.0961 17.8848C22.0767 17.8848 22.0572 17.8848 22.0377 17.8848C21.8885 17.9432 21.7295 17.9108 21.577 17.927C21.0903 17.9757 20.6037 17.9919 20.1202 18.0795C19.7861 18.1703 19.7374 18.4688 19.6758 18.7349C19.4746 19.6011 19.5233 20.4836 19.5427 21.3629C19.559 21.9793 19.6433 22.5893 19.799 23.183C19.9678 23.8416 20.2662 24.4516 20.5485 25.068C20.8632 25.7461 21.1747 26.4275 21.4764 27.1088C21.7165 27.6474 21.9501 28.1892 22.1772 28.7343C22.3297 29.1009 22.4692 29.474 22.6055 29.8471C22.771 30.3078 22.9267 30.7718 23.0824 31.2325C23.2382 31.69 23.3679 32.1604 23.4815 32.6308C23.5107 32.7541 23.5399 32.8807 23.5659 33.004C29.6589 30.7458 34 24.8799 34 17.9984Z" fill="#FBE001"/>
<path d="M24.1302 12.3303C23.9971 12.2394 23.8511 12.1648 23.7473 12.0383C23.3937 11.8047 23.1114 11.49 22.8097 11.198C22.1251 10.5264 21.4308 9.86125 20.6813 9.26103C20.3763 9.0177 20.0389 8.83601 19.6885 8.6673C19.5393 8.67054 19.4095 8.58943 19.2732 8.5505C18.7379 8.40125 18.1961 8.40125 17.651 8.44667C16.9048 8.50832 16.1943 8.71272 15.4902 8.95605C15.0035 9.12476 14.5234 9.31619 14.0529 9.52383C13.2872 9.86125 12.5442 10.2344 11.9797 10.88C11.5482 11.3699 11.3146 11.9377 11.2886 12.5931C11.2594 13.2452 11.347 13.8844 11.4833 14.5203C11.7039 15.5488 11.8791 16.5838 11.9765 17.635C12.1257 19.2312 12.1614 20.8275 12.0835 22.427C12.0511 23.0759 12.0478 23.7248 12.0089 24.3704C11.9278 25.6844 11.8532 27.0017 11.7396 28.3157C11.6747 29.0587 11.5904 29.7984 11.493 30.5349C11.4249 31.0475 11.3211 31.5536 11.2335 32.0663C11.2108 32.2025 11.1881 32.3356 11.1621 32.4718C12.4534 33.0818 13.8388 33.5263 15.289 33.7761C15.1268 33.3738 15.0198 32.9552 14.9614 32.5237C14.851 31.7126 14.9484 30.921 15.1722 30.1391C15.3507 29.5161 15.6038 28.9256 15.9022 28.3546C15.9412 28.28 15.9671 28.1956 16.0223 28.1275C16.1294 27.988 16.2883 27.9426 16.4311 28.0204C16.5771 28.1015 16.6323 28.2638 16.5576 28.426C16.4538 28.6499 16.3435 28.8705 16.2364 29.0943C16.0126 29.5551 15.8406 30.0352 15.7173 30.5316C15.5973 31.0151 15.5226 31.505 15.5454 32.0046C15.5746 32.6632 15.7303 33.2862 16.0191 33.8832C16.6712 33.9643 17.3331 34.0064 18.0047 34.0064C18.1247 34.0064 18.2447 34.0064 18.3648 34.0032C18.368 33.8345 18.381 33.6625 18.4037 33.4938C18.4654 33.0396 18.5595 32.5919 18.6308 32.1376C18.7476 31.4174 18.8742 30.7003 18.8839 29.9703C18.8871 29.7497 19.0039 29.6037 19.1824 29.6005C19.3706 29.5972 19.5295 29.7562 19.536 29.9703C19.549 30.4148 19.4744 30.8528 19.4192 31.2908C19.3381 31.917 19.2408 32.54 19.1143 33.1564C19.0591 33.4289 19.0299 33.7015 19.0234 33.974C20.1817 33.9026 21.3075 33.7047 22.3847 33.3997C22.2549 32.7087 22.0537 32.0306 21.8299 31.3655C21.6514 30.8301 21.4503 30.3045 21.2459 29.7789C21.0252 29.2144 20.7981 28.6531 20.5613 28.0951C20.2758 27.4235 19.9643 26.7648 19.6626 26.103C19.416 25.5579 19.1435 25.0193 18.9228 24.4613C18.6016 23.6404 18.394 22.7904 18.3388 21.9046C18.2999 21.2622 18.2415 20.6198 18.2739 19.9774C18.3064 19.3188 18.3843 18.6634 18.5951 18.034C18.7931 17.4403 19.2019 17.0574 19.8183 16.8985C20.3569 16.7622 20.9052 16.72 21.4535 16.6973C22.1024 16.6681 22.7448 16.6194 23.3839 16.4929C23.4164 16.4864 23.4488 16.4832 23.4715 16.4378C23.2801 16.3599 23.0855 16.282 22.894 16.2042C22.5242 16.0517 22.1705 15.8732 21.8331 15.6623C21.6644 15.5553 21.6027 15.3833 21.6774 15.2503C21.7812 15.0653 21.9726 15.0037 22.1608 15.1173C22.5242 15.3379 22.907 15.5228 23.2996 15.6818C23.6597 15.8278 24.0296 15.9381 24.3995 16.0484C24.6104 16.1101 24.7693 15.9965 24.9316 15.9154C25.3923 15.6818 25.8173 15.3898 26.2358 15.0848C26.3234 15.0199 26.3299 14.9583 26.265 14.8674C25.8952 14.3353 25.5934 13.7676 25.4085 13.1414C25.3988 13.1057 25.3825 13.0733 25.3663 13.0441C25.3468 13.0181 25.3241 12.9954 25.2982 12.9727C25.2755 12.9565 25.2495 12.9435 25.2203 12.9337C24.818 12.7942 24.4741 12.5639 24.1302 12.3303ZM17.2974 13.0797C17.1838 13.1122 17.054 13.0149 16.9924 12.8753C16.7685 12.3692 16.3889 12.0058 15.9185 11.7268C15.5389 11.5029 15.1268 11.4153 14.705 11.5321C13.9069 11.7528 13.1023 12.5282 13.2094 13.4691C13.2807 14.0985 13.6117 14.5852 14.0724 14.9972C14.1535 15.0686 14.2378 15.1367 14.3125 15.2113C14.3968 15.299 14.3871 15.406 14.3222 15.4904C14.2508 15.5812 14.1567 15.6526 14.027 15.591C13.4851 15.3314 13.0666 14.9453 12.7649 14.4262C12.541 14.0369 12.4242 13.6248 12.4307 13.1738C12.4566 12.3205 12.8719 11.6846 13.5468 11.198C14.0756 10.8151 14.6596 10.6042 15.3215 10.7145C16.1553 10.8541 16.7588 11.3407 17.2098 12.035C17.3493 12.2492 17.4466 12.4828 17.4985 12.7326C17.5212 12.8753 17.4271 13.0441 17.2974 13.0797ZM22.0343 13.0051C21.8688 13.096 21.6968 13.1381 21.4535 13.1349C21.3464 13.1284 21.1842 13.1154 21.0382 13.0278C20.9441 12.9727 20.8403 12.9759 20.7397 12.9759C20.584 12.9759 20.425 12.9792 20.2725 12.937C20.2011 12.9143 20.1265 12.8786 20.1395 12.7813C20.1525 12.6774 20.2303 12.6612 20.3179 12.6612C20.5905 12.6645 20.5905 12.6645 20.5094 12.3984C20.412 12.0837 20.6067 11.623 20.9279 11.4186C21.434 11.0974 22.1738 11.2337 22.4431 11.8306C22.6507 12.2881 22.4463 12.7715 22.0343 13.0051Z" fill="#FEFEFE"/>
<path fill-rule="evenodd" clip-rule="evenodd" d="M27.4921 12.4535C27.9691 12.7877 28.1637 13.2484 28.0988 13.8227C28.1086 13.9881 28.0988 14.1536 28.0339 14.2996C27.9561 14.9582 27.6835 15.513 27.1482 15.9218C27.1166 15.946 27.0858 15.9711 27.0551 15.9963C26.966 16.0693 26.8772 16.142 26.7686 16.1879C26.3468 16.5123 25.8926 16.7881 25.4189 17.0347C25.0361 17.2326 24.6402 17.3981 24.2314 17.5246C23.8194 17.6511 23.3911 17.7452 22.9596 17.8069C22.6709 17.849 22.3854 17.8782 22.0934 17.8685H22.035C21.9378 17.9065 21.8365 17.906 21.7355 17.9056C21.6814 17.9053 21.6274 17.905 21.5742 17.9107C21.4225 17.9259 21.2704 17.9379 21.1183 17.9499C20.7829 17.9764 20.4479 18.0029 20.1175 18.0632C19.8026 18.1488 19.7412 18.4188 19.6836 18.6723C19.6801 18.6878 19.6765 18.7032 19.673 18.7186C19.4929 19.4943 19.5131 20.283 19.5332 21.0707C19.5356 21.1627 19.5379 21.2546 19.54 21.3466C19.5562 21.963 19.6438 22.5697 19.7963 23.1667C19.9546 23.7846 20.2242 24.3625 20.4927 24.938C20.5104 24.9759 20.5281 25.0138 20.5458 25.0517L20.5458 25.0517C20.8572 25.7298 21.1687 26.4079 21.4737 27.0925C21.7138 27.6311 21.9474 28.1729 22.1745 28.7179C22.327 29.0846 22.4665 29.4577 22.6027 29.8308C22.7186 30.1512 22.8282 30.4749 22.938 30.7995C22.985 30.9383 23.0321 31.0772 23.0797 31.2162C23.2354 31.6769 23.3652 32.1441 23.4787 32.6145C23.5084 32.7271 23.5326 32.8424 23.5563 32.9554C23.5586 32.9662 23.5608 32.9769 23.5631 32.9876C23.1867 33.1271 22.8039 33.2537 22.4178 33.364C22.4113 33.3656 22.404 33.3681 22.3967 33.3705C22.3894 33.3729 22.3821 33.3754 22.3756 33.377C22.2426 32.6859 22.0414 32.0111 21.8208 31.3427C21.6424 30.8106 21.4412 30.2818 21.2368 29.7562C21.0194 29.1916 20.7891 28.6303 20.5522 28.0723C20.3509 27.6009 20.1366 27.1344 19.9219 26.667C19.8322 26.4717 19.7425 26.2762 19.6535 26.0802C19.57 25.8945 19.4835 25.7103 19.3971 25.5262C19.2283 25.1667 19.0597 24.8076 18.9138 24.4385C18.5893 23.6209 18.3849 22.7676 18.3298 21.8819C18.3229 21.7685 18.3154 21.6552 18.308 21.5418C18.2731 21.0128 18.2382 20.4837 18.2649 19.9547C18.2973 19.2961 18.3752 18.6407 18.5861 18.0113C18.784 17.4175 19.1928 17.0347 19.8093 16.8757C20.3446 16.7394 20.8929 16.6973 21.4445 16.6745C22.0934 16.6453 22.739 16.5934 23.3749 16.4701C23.3771 16.4697 23.3794 16.4693 23.3816 16.4688C23.4118 16.463 23.4414 16.4573 23.4625 16.415C23.2678 16.3371 23.0764 16.2593 22.885 16.1814C22.5151 16.0321 22.1615 15.8505 21.8241 15.6396C21.6554 15.5325 21.5937 15.3605 21.6683 15.2275C21.7722 15.0426 21.9636 14.9809 22.1518 15.0945C22.5151 15.3151 22.898 15.4968 23.2906 15.659C23.6474 15.805 24.0173 15.9153 24.3904 16.0257C24.5709 16.0784 24.7134 16.0029 24.8524 15.9291C24.8758 15.9167 24.8991 15.9043 24.9225 15.8926C25.3832 15.659 25.8115 15.367 26.2268 15.0621C26.3144 14.9972 26.3176 14.9355 26.256 14.8447C25.8861 14.3126 25.5844 13.7448 25.3994 13.1186C25.3897 13.0829 25.3767 13.0505 25.3573 13.0213C25.3346 12.9954 25.3119 12.9726 25.2892 12.9499L25.2891 12.9499C25.2664 12.9337 25.2405 12.9207 25.2113 12.911C24.8122 12.7845 24.465 12.5541 24.1244 12.3205C24.091 12.2971 24.0565 12.2748 24.0219 12.2524C23.922 12.1878 23.821 12.1225 23.7415 12.0285C23.4561 11.84 23.2151 11.5986 22.9758 11.359C22.9186 11.3017 22.8615 11.2445 22.8039 11.1882C22.1161 10.5166 21.425 9.85147 20.6755 9.25125C20.3706 9.00792 20.0299 8.82623 19.6827 8.65751C19.5837 8.65967 19.4946 8.62467 19.4052 8.5895C19.3598 8.57168 19.3144 8.55381 19.2674 8.54071C18.7321 8.39147 18.1903 8.39147 17.6452 8.43689C16.9022 8.49854 16.1885 8.70294 15.4844 8.94627C14.9977 9.11498 14.5176 9.30641 14.0471 9.51405C13.2814 9.85147 12.5385 10.2246 11.9739 10.8702C11.5456 11.3601 11.312 11.9279 11.2828 12.5833C11.2569 13.2354 11.3412 13.8746 11.4775 14.5105C11.6981 15.539 11.8733 16.5772 11.9707 17.6252C12.1199 19.2214 12.1556 20.8177 12.0777 22.4172C12.0632 22.7088 12.0545 23.0004 12.0458 23.2916C12.0352 23.6486 12.0246 24.0051 12.0031 24.3606C11.9252 25.6779 11.8474 26.9919 11.7338 28.3059C11.6722 29.0489 11.5878 29.7886 11.4872 30.5251C11.4423 30.8476 11.3846 31.1689 11.3269 31.4896C11.2929 31.6787 11.259 31.8676 11.2277 32.0565L11.2277 32.0565C11.205 32.1928 11.1823 32.329 11.1563 32.462C11.1498 32.4588 11.1425 32.4556 11.1352 32.4523C11.1279 32.4491 11.1206 32.4458 11.1141 32.4426C10.7313 32.2609 10.3614 32.0662 9.99805 31.8553C10.0305 31.6899 10.0629 31.5244 10.0921 31.3589C10.0945 31.3425 10.102 31.3294 10.1096 31.3161C10.1125 31.311 10.1154 31.3059 10.1181 31.3005C10.1343 31.187 10.1502 31.0734 10.166 30.9599C10.1978 30.7328 10.2295 30.5056 10.2641 30.2785C10.3355 29.8211 10.3906 29.3603 10.4393 28.8996C10.5179 28.1653 10.5671 27.4275 10.6162 26.6897C10.6502 26.179 10.6843 25.6684 10.728 25.1588C10.7325 25.0954 10.7324 25.032 10.7322 24.9688C10.732 24.8478 10.7318 24.7277 10.7637 24.6105C10.7481 24.2621 10.7737 23.915 10.7994 23.5675C10.8163 23.339 10.8332 23.1103 10.8384 22.8812C10.8643 21.7554 10.8773 20.6328 10.8578 19.5102C10.8448 18.6796 10.7702 17.8523 10.6567 17.0282C10.642 16.9331 10.6384 16.8363 10.6348 16.7389C10.6335 16.7067 10.6323 16.6744 10.6307 16.6421C10.5828 16.5214 10.5684 16.3953 10.5538 16.2691C10.5457 16.1985 10.5376 16.1279 10.5236 16.0581C10.4808 15.8362 10.437 15.6143 10.3931 15.3923C10.3273 15.0595 10.2615 14.7266 10.1992 14.3937C10.0792 13.7481 9.98831 13.0959 10.05 12.4341C10.0954 11.9506 10.1927 11.4769 10.4133 11.0389C10.4263 11.013 10.4425 10.9935 10.4717 10.9903C10.4735 10.9806 10.4738 10.9706 10.4741 10.9608C10.475 10.9346 10.4758 10.9095 10.5042 10.8929C10.561 10.6595 10.709 10.4758 10.8538 10.2959C10.866 10.2808 10.8782 10.2657 10.8903 10.2505C11.5229 9.45565 12.3503 8.93005 13.2652 8.52125L13.2652 8.52124C13.6967 8.32982 14.1282 8.1384 14.5695 7.96645C14.6023 7.95363 14.6351 7.94058 14.6679 7.9275C14.8431 7.85777 15.0201 7.78732 15.2086 7.74907C15.319 7.67551 15.4441 7.64271 15.5687 7.61007C15.609 7.59953 15.6492 7.589 15.6888 7.57711C16.1398 7.4376 16.6037 7.33702 17.0709 7.25591C18.0735 7.0872 19.063 7.12613 20.0202 7.47654C20.6236 7.69716 21.1687 8.03783 21.6554 8.46609C21.6779 8.4866 21.7031 8.50419 21.7281 8.52173C21.7824 8.55969 21.8364 8.59743 21.863 8.664C22.4373 9.12472 22.9758 9.63085 23.4885 10.1565C23.5518 10.2167 23.6161 10.276 23.6803 10.3354C23.886 10.5252 24.0916 10.7151 24.2671 10.9351C24.4145 10.9914 24.5343 11.0868 24.6546 11.1826C24.7145 11.2303 24.7746 11.2781 24.8382 11.3212C25.2729 11.6132 25.7304 11.8241 26.2527 11.9247C26.6972 12.009 27.1158 12.1907 27.4921 12.4535ZM17.2032 12.0318C16.7522 11.3375 16.152 10.8509 15.3149 10.7113C14.653 10.601 14.069 10.8119 13.5402 11.1948C12.8686 11.6814 12.45 12.3173 12.4241 13.1706C12.4176 13.6216 12.5344 14.0337 12.7583 14.423C13.0568 14.9454 13.4785 15.3314 14.0204 15.5878C14.1501 15.6494 14.2442 15.578 14.3156 15.4872C14.3837 15.4028 14.3935 15.2958 14.3059 15.2082C14.2539 15.1539 14.1972 15.106 14.1401 15.0577L14.1401 15.0577C14.1153 15.0367 14.0904 15.0157 14.0658 14.994C13.6051 14.582 13.2741 14.0953 13.2028 13.4659C13.0989 12.525 13.9036 11.7496 14.6984 11.5289C15.1202 11.4121 15.5323 11.4997 15.9119 11.7236C16.3823 12.0026 16.7619 12.366 16.9858 12.8722C17.0474 13.0117 17.1772 13.109 17.2908 13.0766C17.4205 13.0409 17.5146 12.8722 17.4854 12.7294C17.44 12.4796 17.3427 12.2492 17.2032 12.0318ZM20.3218 12.6645C20.2309 12.6645 20.1563 12.6807 20.1433 12.7845C20.1304 12.8818 20.2017 12.9208 20.2764 12.9402C20.4119 12.9806 20.5499 12.98 20.6906 12.9793L20.7436 12.9792L20.76 12.9792C20.8583 12.979 20.956 12.9788 21.042 13.0311C21.188 13.1154 21.347 13.1317 21.4573 13.1381C21.6974 13.1414 21.8726 13.1025 22.0381 13.0084C22.4501 12.7748 22.6545 12.2913 22.4501 11.8339C22.1808 11.2369 21.4411 11.1006 20.935 11.4218C20.6138 11.6262 20.4191 12.0869 20.5164 12.4017C20.5556 12.5354 20.575 12.6019 20.5501 12.6345C20.5255 12.6669 20.4573 12.6661 20.3218 12.6645ZM16.0194 28.121C16.1233 27.9815 16.2855 27.9361 16.4282 28.0139C16.5742 28.0918 16.6294 28.254 16.5515 28.4195C16.4868 28.5635 16.4168 28.7061 16.3465 28.8492L16.3465 28.8492C16.3075 28.9285 16.2685 29.008 16.2303 29.0878C16.0065 29.5486 15.8345 30.0287 15.7112 30.5251C15.5912 31.0086 15.5165 31.4985 15.5393 31.9981C15.5685 32.6567 15.7242 33.2797 16.0129 33.8767C16.0032 33.875 15.9935 33.8742 15.9838 33.8734L15.9837 33.8734C15.974 33.8726 15.9643 33.8718 15.9545 33.8702C15.7501 33.8442 15.5457 33.8118 15.3413 33.7793L15.2862 33.7696C15.1272 33.3673 15.0169 32.9487 14.9585 32.5172C14.8482 31.7029 14.9455 30.9145 15.1694 30.1326C15.3478 29.5096 15.6009 28.9224 15.8994 28.3481C15.9153 28.3199 15.9285 28.2908 15.9417 28.2616L15.9417 28.2616C15.9634 28.2135 15.9851 28.1654 16.0194 28.121ZM19.1758 29.5907C18.9941 29.5939 18.8773 29.7399 18.8773 29.9605C18.8683 30.6379 18.7587 31.3069 18.6496 31.9726L18.6242 32.1278C18.5979 32.2868 18.5696 32.4458 18.5413 32.6049L18.5412 32.6051C18.4892 32.8973 18.437 33.19 18.3971 33.484C18.3744 33.6527 18.3614 33.8247 18.3582 33.9934H18.4036C18.5872 33.9902 18.7677 33.9809 18.9512 33.9714L18.9649 33.9707C18.9726 33.9707 18.9804 33.9699 18.9885 33.9692L18.9885 33.9692C18.9974 33.9683 19.0066 33.9674 19.0168 33.9674C19.0233 33.6949 19.0525 33.4224 19.1077 33.1498C19.2342 32.5334 19.3315 31.9072 19.4127 31.2843C19.4226 31.2053 19.4332 31.1263 19.4438 31.0473C19.4919 30.6881 19.5401 30.3281 19.5294 29.9638C19.523 29.7497 19.364 29.5874 19.1758 29.5907Z" fill="black"/>
</g>
<defs>
<clipPath id="clip0_2499_202">
<rect width="18" height="18" fill="white" transform="scale(2)"/>
</clipPath>
</defs>
</svg>
