<svg width="36" height="36" viewBox="0 0 36 36" fill="none" xmlns="http://www.w3.org/2000/svg">
<path fill-rule="evenodd" clip-rule="evenodd" d="M34 21.8157C34 21.6974 34 21.5861 33.993 21.4678C33.993 21.3496 33.993 21.2313 33.9861 21.12C33.8817 17.7461 32.9704 14.5043 31.2243 11.9026C29.513 9.35652 27.28 8 24.9357 8C23.5374 8 22.153 8.61913 20.8661 9.73913C20.1565 10.3513 19.4957 11.0957 18.8696 11.8957C18.8567 11.9124 18.8436 11.9294 18.8303 11.9466C18.7719 12.0222 18.7106 12.1015 18.6539 12.1809C18.578 12.2775 18.5089 12.3741 18.4399 12.4708C17.5159 11.3026 16.6569 10.4126 15.8245 9.73426C14.2518 8.45229 12.7463 8.00252 11.2313 8.00001L11.2186 8C8.59594 8 6.30864 9.70504 4.72464 12.1433C2.94911 14.882 2.00769 18.4682 2.00005 21.8713C2.00005 21.8778 2 21.8843 2.00001 21.8908C2 21.8982 2 21.9056 2 21.913C2 22.2884 2.01595 22.6529 2.04751 23.0059C2.16919 24.4146 2.52553 25.6573 3.12696 26.6504C4.05217 28.1948 5.55478 29.2174 7.92 29.2174C9.91652 29.2174 11.433 28.32 13.207 25.9617C14.2157 24.6191 14.7304 23.7983 16.7548 20.2157L17.6174 18.6922L17.7635 18.4348C17.7774 18.407 17.7983 18.3722 17.8191 18.3443C17.8504 18.2852 17.8835 18.2261 17.9165 18.167C17.9485 18.1098 17.9804 18.0527 18.0107 17.9955C18.0915 18.1277 18.1728 18.2618 18.2544 18.3979L21.1246 23.1833C22.0895 24.7937 23.3438 26.5857 24.4165 27.5944C25.8119 28.9085 27.0739 29.2174 28.4985 29.2174C30.79 29.2174 32.1521 28.0097 32.8505 26.8014C33.574 25.552 34 23.9687 34 21.8157ZM30.953 21.9123C30.953 21.8012 30.953 21.6832 30.9461 21.5652C30.9461 21.4539 30.9461 21.3357 30.9391 21.2174C30.8417 18.4765 30.1461 15.5409 28.7548 13.3913C27.6835 11.7426 26.313 10.9565 24.7826 10.9565C23.1757 10.9565 21.8678 11.9165 20.4209 14.0035C20.4055 14.0266 20.3891 14.0497 20.3725 14.0732C20.3441 14.1133 20.315 14.1544 20.2887 14.1983C20.2681 14.2241 20.2513 14.2498 20.2326 14.2785C20.2261 14.2885 20.2194 14.2988 20.2122 14.3096C20.1433 14.4128 20.0745 14.5161 20.0056 14.6262C20.5382 15.4149 21.0948 16.2918 21.6812 17.2668L22.5034 18.6351C24.4888 21.9367 25.6179 23.6348 26.2794 24.4362C27.1295 25.465 27.6603 25.7391 28.4339 25.7391C30.3956 25.7391 30.95 23.9722 30.95 21.9123L30.953 21.9123ZM16.3769 15.4955C15.712 14.55 15.1399 13.8306 14.7288 13.3948C13.9066 12.5224 12.8909 11.479 11.2039 11.479C11.1565 11.479 11.1093 11.4801 11.0622 11.4824C9.76349 11.5513 8.61838 12.4815 7.68696 13.8887C6.31722 15.9562 5.47826 19.0351 5.47826 21.9923V22.0139C5.47826 22.2156 5.47826 22.4089 5.47987 22.5938C5.55079 23.5232 5.78263 24.244 6.07652 24.7165C6.53565 25.4539 7.21043 25.7391 7.91304 25.7391C8.81043 25.7391 9.64522 25.5513 11.2313 23.353C12.1465 22.0878 13.1803 20.4594 14.064 19.0675C14.4095 18.5233 14.7321 18.0152 15.0157 17.5791L15.9687 16.1252L16.1704 15.8052L16.3769 15.4955Z" fill="currentColor"/>
</svg>
