<svg width="36" height="36" viewBox="0 0 36 36" fill="none" xmlns="http://www.w3.org/2000/svg">
<path d="M34 21.8157L32.4744 22.9725L30.953 21.913C30.953 21.8017 30.953 21.6835 30.9461 21.5652C30.9461 21.4539 30.9461 21.3357 30.9391 21.2174C30.8417 18.4765 30.1461 15.5409 28.7548 13.3913C27.6835 11.7426 26.313 10.9565 24.7826 10.9565C23.1757 10.9565 21.8678 11.9165 20.4209 14.0035C20.3791 14.0661 20.3304 14.1287 20.2887 14.1983C20.2609 14.233 20.24 14.2678 20.2122 14.3096C20.1426 14.4139 20.073 14.5183 20.0035 14.6296C19.3774 15.6035 18.7235 16.7374 18.0139 17.9896C17.9513 18.1078 17.8817 18.2261 17.8191 18.3443C17.7983 18.3722 17.7774 18.407 17.7635 18.4348L17.6174 18.6922L16.7548 20.2157C14.7304 23.7983 14.2157 24.6191 13.207 25.9617C11.433 28.32 9.91652 29.2174 7.92 29.2174C5.55478 29.2174 4.05217 28.1948 3.12696 26.6504C2.3687 25.3983 2 23.7496 2 21.8713L5.45739 21.9896C5.45739 23.2139 5.72174 24.1461 6.07652 24.7165C6.53565 25.4539 7.21043 25.7391 7.91304 25.7391C8.81043 25.7391 9.64522 25.5513 11.2313 23.353C12.5043 21.593 14.007 19.1304 15.0157 17.5791L15.9687 16.1252L16.1704 15.8052L16.3791 15.4922L16.727 14.9565C17.2557 14.1496 17.8261 13.2939 18.4383 12.473C18.5078 12.3757 18.5774 12.2783 18.6539 12.1809C18.7235 12.0835 18.8 11.9861 18.8696 11.8957C19.4957 11.0957 20.1565 10.3513 20.8661 9.73913C22.153 8.61913 23.5374 8 24.9357 8C27.28 8 29.513 9.35652 31.2243 11.9026C32.9704 14.5043 33.8817 17.7461 33.9861 21.12C33.993 21.2313 33.993 21.3496 33.993 21.4678C34 21.5861 34 21.6974 34 21.8157Z" fill="#0081FB"/>
<path d="M4.72461 12.1433C6.30861 9.70504 8.59591 8 11.2185 8C12.7378 8 14.2474 8.4487 15.8244 9.73426C17.549 11.1395 19.3876 13.4532 21.6811 17.2668L22.5034 18.6351C24.4888 21.9367 25.6178 23.6348 26.2794 24.4362C27.1295 25.465 27.6603 25.7391 28.4338 25.7391C30.3956 25.7391 30.95 23.9722 30.95 21.9123L33.999 21.817C33.999 23.9701 33.574 25.552 32.8505 26.8014C32.1521 28.0097 30.79 29.2174 28.4985 29.2174C27.0738 29.2174 25.8119 28.9085 24.4164 27.5944C23.3437 26.5857 22.0895 24.7937 21.1246 23.1833L18.2543 18.3979C16.8144 15.9965 15.4933 14.2052 14.7288 13.3948C13.9065 12.5224 12.8909 11.479 11.2039 11.479C9.83835 11.479 8.63765 12.4264 7.66722 13.8894L4.72461 12.1433Z" fill="url(#paint0_linear_16534_19506)"/>
<path d="M11.2174 11.4783C9.85461 11.4783 8.6553 12.4257 7.68696 13.8887C6.31722 15.9562 5.47826 19.0351 5.47826 21.9923C5.47826 23.2118 5.47617 24.1294 5.82609 24.6957L3.15478 26.6525C2.3993 25.3962 2 23.7913 2 21.913C2 18.4974 2.94261 14.8932 4.72557 12.1433C6.30748 9.70504 8.61357 8 11.2313 8L11.2174 11.4783Z" fill="url(#paint1_linear_16534_19506)"/>
<path opacity="0.05" d="M16.3772 15.4925L16.1685 15.8056L15.9668 16.1256C16.4607 16.8421 17.0242 17.7047 17.6155 18.6925L17.7616 18.4351C17.7755 18.4073 17.7964 18.3725 17.8172 18.3447C17.8798 18.2264 17.9494 18.1082 18.012 17.9899C17.4346 17.0438 16.8781 16.2021 16.3772 15.4925ZM18.652 12.1812C18.5755 12.2786 18.5059 12.376 18.4364 12.4734C18.9442 13.1064 19.459 13.823 20.0016 14.6299C20.0711 14.5186 20.1407 14.4143 20.2103 14.3099C20.2381 14.2682 20.259 14.2334 20.2868 14.1986C20.3285 14.129 20.3772 14.0664 20.419 14.0038C19.8903 13.2247 19.3755 12.5221 18.8677 11.896C18.7981 11.9864 18.7216 12.0838 18.652 12.1812Z" fill="black"/>
<path opacity="0.07" d="M16.3786 15.4925L16.1699 15.8055C16.6638 16.5151 17.2204 17.3638 17.8186 18.3446C17.8812 18.2264 17.9508 18.1081 18.0134 17.9898C17.436 17.0438 16.8795 16.202 16.3786 15.4925ZM18.4377 12.4733C18.9456 13.1064 19.4604 13.8229 20.003 14.6298C20.0725 14.5185 20.1421 14.4142 20.2117 14.3098C19.676 13.5168 19.1543 12.8072 18.6534 12.1812C18.5769 12.2785 18.5073 12.3759 18.4377 12.4733Z" fill="black"/>
<defs>
<linearGradient id="paint0_linear_16534_19506" x1="30.7323" y1="18.6087" x2="10.7177" y2="18.6087" gradientUnits="userSpaceOnUse">
<stop stop-color="#0081FB"/>
<stop offset="0.995" stop-color="#0064E1"/>
</linearGradient>
<linearGradient id="paint1_linear_16534_19506" x1="6.61565" y1="24.2574" x2="6.61565" y2="10.4431" gradientUnits="userSpaceOnUse">
<stop stop-color="#0081FB"/>
<stop offset="0.995" stop-color="#0064E1"/>
</linearGradient>
</defs>
</svg>
