<svg width="36" height="36" viewBox="0 0 36 36" fill="none" xmlns="http://www.w3.org/2000/svg">
<path d="M25.8892 13.3345C25.9621 12.9005 26 12.4547 26 12C26 7.58172 22.4183 4 18 4C13.5817 4 10 7.58172 10 12C10 12.4547 10.0379 12.9005 10.1108 13.3345C12.1095 11.2778 14.9056 10 18 10C21.0944 10 23.8905 11.2778 25.8892 13.3345Z" fill="currentColor"/>
<path d="M7.2924 18.4698C4.20662 19.5795 2 22.5321 2 26C2 30.4183 5.58172 34 10 34C12.1702 34 14.1386 33.1359 15.5798 31.7329C10.669 30.6303 7 26.2436 7 21C7 20.1293 7.10117 19.2822 7.2924 18.4698Z" fill="currentColor"/>
<path d="M20.4202 31.7329C21.8614 33.1359 23.8298 34 26 34C30.4183 34 34 30.4183 34 26C34 22.5321 31.7934 19.5795 28.7076 18.4698C28.8988 19.2822 29 20.1293 29 21C29 26.2436 25.331 30.6303 20.4202 31.7329Z" fill="currentColor"/>
<path fill-rule="evenodd" clip-rule="evenodd" d="M18 16C15.2386 16 13 18.2386 13 21C13 23.7614 15.2386 26 18 26C20.7614 26 23 23.7614 23 21C23 18.2386 20.7614 16 18 16ZM11 21C11 17.134 14.134 14 18 14C21.866 14 25 17.134 25 21C25 24.866 21.866 28 18 28C14.134 28 11 24.866 11 21Z" fill="currentColor"/>
</svg>
