<svg width="36" height="36" viewBox="0 0 36 36" fill="none" xmlns="http://www.w3.org/2000/svg">
<path fill-rule="evenodd" clip-rule="evenodd" d="M4 18C4 10.268 10.268 4 18 4C25.732 4 32 10.268 32 18C32 25.732 25.732 32 18 32C10.268 32 4 25.732 4 18ZM18 2C9.16344 2 2 9.16344 2 18C2 26.8366 9.16344 34 18 34C26.8366 34 34 26.8366 34 18C34 9.16344 26.8366 2 18 2ZM16.9337 10.8815L18 8L19.0663 10.8815L19.4243 11.8492C20.2346 14.0389 21.9611 15.7654 24.1508 16.5757L25.1185 16.9337L28 18L25.1185 19.0663L24.1508 19.4243C21.9611 20.2346 20.2346 21.9611 19.4243 24.1508L19.0663 25.1185L18 28L16.9337 25.1185L16.5757 24.1508C15.7654 21.9611 14.0389 20.2346 11.8492 19.4243L10.8815 19.0663L8 18L10.8815 16.9337L11.8492 16.5757C14.0389 15.7654 15.7654 14.0389 16.5757 11.8492L16.9337 10.8815ZM13.5792 18C15.487 17.0371 17.0371 15.487 18 13.5792C18.9629 15.487 20.513 17.0371 22.4208 18C20.513 18.9629 18.9629 20.513 18 22.4208C17.0371 20.513 15.487 18.9629 13.5792 18Z" fill="currentColor"/>
</svg>
