<svg width="36" height="36" viewBox="0 0 36 36" fill="none" xmlns="http://www.w3.org/2000/svg">
<path d="M25 15.0001C25 13.8955 25.8954 13.0001 27 13.0001C28.1046 13.0001 29 13.8955 29 15.0001C29 16.1046 28.1046 17.0001 27 17.0001C25.8954 17.0001 25 16.1046 25 15.0001Z" fill="currentColor"/>
<path fill-rule="evenodd" clip-rule="evenodd" d="M32.293 2.29297L2.29297 32.293L3.70719 33.7072L7.4143 30.0001H34V28.0001H9.4143L13.4143 24.0001H31C32.6569 24.0001 34 22.6569 34 21.0001V9.00006C34 7.47513 32.8622 6.21594 31.3893 6.02509L33.7072 3.70718L32.293 2.29297ZM29.4143 8.00006L15.4143 22.0001H31C31.5523 22.0001 32 21.5523 32 21.0001V9.00006C32 8.44778 31.5523 8.00006 31 8.00006H29.4143Z" fill="currentColor"/>
<path d="M7.75781 24.0001L9.75781 22.0001H5C4.44772 22.0001 4 21.5523 4 21.0001V9.00006C4 8.44778 4.44772 8.00006 5 8.00006H23.7578L25.7578 6.00006H5C3.34315 6.00006 2 7.34321 2 9.00006V21.0001C2 22.6569 3.34315 24.0001 5 24.0001H7.75781Z" fill="currentColor"/>
<path d="M14.6191 17.1387L16.1079 15.6499C16.038 15.4462 16 15.2276 16 15.0001C16 13.8955 16.8954 13.0001 18 13.0001C18.2275 13.0001 18.4461 13.038 18.6499 13.108L20.1387 11.6192C19.5201 11.2271 18.7866 11.0001 18 11.0001C15.7909 11.0001 14 12.7909 14 15.0001C14 15.7866 14.227 16.5202 14.6191 17.1387Z" fill="currentColor"/>
<path d="M2 29.7579L3.75781 28.0001H2V29.7579Z" fill="currentColor"/>
<path d="M7 15.0001C7 13.8955 7.89543 13.0001 9 13.0001C10.1046 13.0001 11 13.8955 11 15.0001C11 16.1046 10.1046 17.0001 9 17.0001C7.89543 17.0001 7 16.1046 7 15.0001Z" fill="currentColor"/>
</svg>
