<svg width="36" height="36" viewBox="0 0 36 36" fill="none" xmlns="http://www.w3.org/2000/svg">
<path fill-rule="evenodd" clip-rule="evenodd" d="M4 9C4 6.23858 6.23858 4 9 4H13V6H9C7.34315 6 6 7.34315 6 9V13H4V9ZM27 6H23V4H27C29.7614 4 32 6.23858 32 9V13H30V9C30 7.34315 28.6569 6 27 6ZM18 12C14.6863 12 12 14.6863 12 18C12 21.3137 14.6863 24 18 24C20.6124 24 22.8349 22.3304 23.6586 20H16V18H24C24 17.2987 23.8797 16.6256 23.6586 16H18V14H22.4722C21.3736 12.7725 19.777 12 18 12ZM10 18C10 13.5817 13.5817 10 18 10C22.4183 10 26 13.5817 26 18C26 22.4183 22.4183 26 18 26C13.5817 26 10 22.4183 10 18ZM6 23V27C6 28.6569 7.34315 30 9 30H13V32H9C6.23858 32 4 29.7614 4 27V23H6ZM30 27V23H32V27C32 29.7614 29.7614 32 27 32H23V30H27C28.6569 30 30 28.6569 30 27Z" fill="currentColor"/>
</svg>
