<svg width="36" height="36" viewBox="0 0 36 36" fill="none" xmlns="http://www.w3.org/2000/svg">
<path fill-rule="evenodd" clip-rule="evenodd" d="M4 9C4 6.23858 6.23858 4 9 4H27C29.7614 4 32 6.23858 32 9V27C32 29.7614 29.7614 32 27 32H9C6.23858 32 4 29.7614 4 27V9ZM9 6C7.34315 6 6 7.34315 6 9V27C6 28.6569 7.34315 30 9 30H27C28.6569 30 30 28.6569 30 27V9C30 7.34315 28.6569 6 27 6H9ZM10 12C10 10.8954 10.8954 10 12 10H14V12H12V14H10V12ZM16 10H20V12H16V10ZM22 10H24C25.1046 10 26 10.8954 26 12V14H24V12H22V10ZM10 20V16H12V20H10ZM26 16V20H24V16H26ZM10 24V22H12V24H14V26H12C10.8954 26 10 25.1046 10 24ZM26 22V24C26 25.1046 25.1046 26 24 26H22V24H24V22H26ZM20 26H16V24H20V26Z" fill="currentColor"/>
</svg>
