<svg width="36" height="36" viewBox="0 0 36 36" fill="none" xmlns="http://www.w3.org/2000/svg">
<path fill-rule="evenodd" clip-rule="evenodd" d="M18 2C26.8366 2 34 9.16344 34 18C34 26.8366 26.8366 34 18 34C9.16344 34 2 26.8366 2 18C2 9.16344 9.16344 2 18 2ZM9.56445 6.82617C6.18434 9.38195 4 13.4358 4 18C4 25.715 10.2406 31.9707 17.9492 31.998L20.2949 31.7109C22.9929 31.3807 25.029 29.1047 25.0586 26.3867C25.08 24.4174 24.0333 22.5906 22.3223 21.6152L17.5039 18.8691L17.4941 18.8633L12.6719 16.0488C10.398 14.7213 9 12.2854 9 9.65234C9.00006 8.65465 9.2029 7.70042 9.56445 6.82617ZM15.7402 4.28906C13.0334 4.62533 11.0002 6.92474 11 9.65234C11 11.574 12.0204 13.3512 13.6797 14.3203L18.4922 17.1309L23.3125 19.8789C25.6542 21.2139 27.0878 23.7128 27.0586 26.4082C27.0482 27.3603 26.8531 28.2709 26.5137 29.1094C29.8479 26.5503 32 22.5279 32 18C32 10.2843 25.7584 4.02632 18.0488 4L15.7402 4.28906Z" fill="currentColor"/>
</svg>
