<svg width="36" height="36" viewBox="0 0 36 36" fill="none" xmlns="http://www.w3.org/2000/svg">
<g clip-path="url(#clip0_8132_8332)">
<g clip-path="url(#clip1_8132_8332)">
<path d="M31.5 1.5H12C11.6022 1.5 11.2206 1.65804 10.9393 1.93934C10.658 2.22064 10.5 2.60218 10.5 3V4.5L22.5 8.175L33 4.5V3C33 2.60218 32.842 2.22064 32.5607 1.93934C32.2794 1.65804 31.8978 1.5 31.5 1.5Z" fill="#0364B8"/>
<path d="M36.0005 17.88C36.0001 17.7412 35.964 17.6049 35.8957 17.484C35.8274 17.3632 35.7292 17.262 35.6105 17.19L22.6955 9.84C22.6374 9.79349 22.5713 9.75791 22.5005 9.735C22.2522 9.61646 21.9806 9.55493 21.7055 9.55493C21.4304 9.55493 21.1588 9.61646 20.9105 9.735C20.8503 9.76097 20.7946 9.79642 20.7455 9.84L7.9205 17.145C7.80242 17.2155 7.70466 17.3155 7.63678 17.4351C7.56889 17.5548 7.5332 17.69 7.5332 17.8275C7.5332 17.965 7.56889 18.1002 7.63678 18.2199C7.70466 18.3395 7.80242 18.4395 7.9205 18.51L20.8055 25.905L20.9705 25.995C21.2161 26.1225 21.4888 26.1891 21.7655 26.1891C22.0422 26.1891 22.3149 26.1225 22.5605 25.995L22.7255 25.905L35.6105 18.555C35.728 18.4854 35.8256 18.3868 35.8939 18.2686C35.9622 18.1504 35.9989 18.0165 36.0005 17.88Z" fill="#0A2767"/>
<path d="M22.5 4.5H10.5V15L22.5 27H33V15L22.5 4.5Z" fill="#28A8EA"/>
<path d="M35.3399 34.2299L7.93492 18.5549H7.91992" fill="#35B8F1"/>
<path d="M33 4.5H22.5V15H33V4.5Z" fill="#50D9FF"/>
<path d="M22.5 15H10.5V30H22.5V15Z" fill="#0078D4"/>
<path opacity="0.5" d="M21.7505 29.25L7.93555 18.525L8.67055 17.235L21.5855 24.645C21.7016 24.6887 21.8295 24.6887 21.9455 24.645L34.6955 17.37L35.4455 18.675L21.7505 29.25Z" fill="#0A2767"/>
<path d="M20.7754 25.905L20.8204 25.92L20.7754 25.905Z" fill="#1490DF"/>
<path d="M35.6095 18.54L22.7995 25.875L22.5445 25.995C22.2929 26.1209 22.0158 26.1876 21.7345 26.19C21.4576 26.1897 21.185 26.1228 20.9395 25.995L25.0945 31.77L35.3395 34.215C35.5389 34.0803 35.7029 33.8995 35.8178 33.6881C35.9327 33.4766 35.995 33.2406 35.9995 33V17.85C35.9963 17.9882 35.959 18.1235 35.891 18.2439C35.8229 18.3642 35.7262 18.4659 35.6095 18.54Z" fill="#1490DF"/>
<path opacity="0.1" d="M36 33V32.895L23.25 25.62L22.8 25.89L22.545 26.025C22.2952 26.1391 22.0246 26.2003 21.75 26.205H21.645C21.4218 26.1892 21.2033 26.1333 21 26.04L27 31.5L35.34 34.215C35.5394 34.0803 35.7035 33.8995 35.8183 33.6881C35.9332 33.4766 35.9955 33.2406 36 33Z" fill="black"/>
<path d="M20.775 25.905L10.5 19.785L7.89002 18.54C7.77034 18.4691 7.67134 18.3681 7.6029 18.247C7.53447 18.126 7.49899 17.9891 7.50002 17.85V33C7.50002 33.3978 7.65806 33.7793 7.93936 34.0606C8.22067 34.3419 8.6022 34.5 9.00002 34.5H34.2C34.6016 34.54 35.0046 34.4393 35.34 34.215L20.775 25.905Z" fill="#28A8EA"/>
<path opacity="0.5" d="M20.4 30C20.9335 29.9669 21.4379 29.745 21.8227 29.374C22.2074 29.0029 22.4476 28.507 22.5 27.975V10.755C22.4961 10.2908 22.3099 9.84664 21.9816 9.51836C21.6534 9.19008 21.2092 9.00392 20.745 9H10.5V15.705L7.89 17.205C7.77293 17.2635 7.67444 17.3534 7.60556 17.4646C7.53668 17.5759 7.50013 17.7041 7.5 17.835V30H20.4Z" fill="black"/>
<path d="M19.245 7.5H1.755C0.78574 7.5 0 8.28574 0 9.255V26.745C0 27.7143 0.78574 28.5 1.755 28.5H19.245C20.2143 28.5 21 27.7143 21 26.745V9.255C21 8.28574 20.2143 7.5 19.245 7.5Z" fill="#0078D4"/>
<path d="M5.18986 14.745C5.64797 13.7769 6.38434 12.9675 7.30486 12.42C8.32208 11.8394 9.47903 11.5489 10.6499 11.58C11.7378 11.5586 12.8111 11.8334 13.7549 12.375C14.6363 12.9054 15.349 13.6753 15.8099 14.595C16.2851 15.6238 16.521 16.747 16.4999 17.88C16.5279 19.062 16.276 20.2339 15.7649 21.3C15.3011 22.2565 14.5654 23.0549 13.6499 23.595C12.696 24.1551 11.6058 24.4406 10.4999 24.42C9.39025 24.448 8.29463 24.1676 7.33486 23.61C6.43855 23.0888 5.71391 22.3172 5.24986 21.39C4.7467 20.3847 4.48964 19.2742 4.49986 18.15C4.46834 16.9774 4.70431 15.8129 5.18986 14.745ZM7.49986 20.22C7.74639 20.8212 8.15702 21.341 8.68486 21.72C9.21352 22.1006 9.84847 22.3052 10.4999 22.305C11.1992 22.3322 11.8886 22.1323 12.4649 21.735C12.9869 21.3573 13.3881 20.8362 13.6199 20.235C13.8889 19.5218 14.0113 18.7616 13.9799 18C13.9861 17.2609 13.8695 16.5259 13.6349 15.825C13.4188 15.1987 13.0286 14.6471 12.5099 14.235C11.9258 13.8209 11.2128 13.6294 10.4999 13.695C9.82244 13.6762 9.15619 13.8703 8.59486 14.25C8.06425 14.6299 7.64896 15.149 7.39486 15.75C7.12011 16.4669 6.99751 17.2332 7.03486 18C7.03998 18.7637 7.1981 19.5185 7.49986 20.22Z" fill="white"/>
</g>
</g>
<defs>
<clipPath id="clip0_8132_8332">
<rect width="18" height="18" fill="white" transform="scale(2)"/>
</clipPath>
<clipPath id="clip1_8132_8332">
<rect width="18" height="18" fill="white" transform="scale(2)"/>
</clipPath>
</defs>
</svg>
