<svg width="36" height="36" viewBox="0 0 36 36" fill="none" xmlns="http://www.w3.org/2000/svg">
<path fill-rule="evenodd" clip-rule="evenodd" d="M6 7C6 4.23858 8.23858 2 11 2H21.3431C22.6692 2 23.941 2.52678 24.8787 3.46447L28.5355 7.12132C29.4732 8.059 30 9.33077 30 10.6569V14H28V12H23C21.3431 12 20 10.6569 20 9V4H11C9.34315 4 8 5.34315 8 7V14H6V7ZM23.7071 5.12132L26.8787 8.29289C27.3557 8.76994 27.6939 9.35992 27.8671 10H23C22.4477 10 22 9.55228 22 9V4.1329C22.6401 4.30612 23.2301 4.64427 23.7071 5.12132Z" fill="currentColor"/>
<path d="M6 34V32H30V34H6Z" fill="currentColor"/>
<path fill-rule="evenodd" clip-rule="evenodd" d="M14 28V18H16C18.2091 18 20 19.7909 20 22V24C20 26.2091 18.2091 28 16 28H14ZM16 20V26C17.1046 26 18 25.1046 18 24V22C18 20.8954 17.1046 20 16 20Z" fill="currentColor"/>
<path fill-rule="evenodd" clip-rule="evenodd" d="M6 18H10C11.1046 18 12 18.8954 12 20V22C12 23.1046 11.1046 24 10 24H8V28H6V18ZM8 20V22H10V20H8Z" fill="currentColor"/>
<path d="M28 20H24V22H28V24H24V28H22V18H28V20Z" fill="currentColor"/>
</svg>
