<svg width="36" height="36" viewBox="0 0 36 36" fill="none" xmlns="http://www.w3.org/2000/svg">
<path fill-rule="evenodd" clip-rule="evenodd" d="M14.2361 6C13.2444 6 12.3379 6.56027 11.8944 7.44721C11.1122 9.01173 9.51311 10 7.76393 10H7C5.34315 10 4 11.3431 4 13V25C4 26.6569 5.34315 28 7 28H29C30.6569 28 32 26.6569 32 25V13C32 11.3431 30.6569 10 29 10C27.4262 10 25.9443 9.25903 25 8L24.4 7.2C23.8334 6.44458 22.9443 6 22 6H14.2361ZM10.1056 6.55279C10.8878 4.98827 12.4869 4 14.2361 4H22C23.5738 4 25.0557 4.74097 26 6L26.6 6.8C27.1666 7.55542 28.0557 8 29 8C31.7614 8 34 10.2386 34 13V25C34 27.7614 31.7614 30 29 30H7C4.23858 30 2 27.7614 2 25V13C2 10.2386 4.23858 8 7 8H7.76393C8.75557 8 9.6621 7.43973 10.1056 6.55279ZM18 12C14.6863 12 12 14.6863 12 18C12 21.3137 14.6863 24 18 24C21.3137 24 24 21.3137 24 18C24 14.6863 21.3137 12 18 12ZM10 18C10 13.5817 13.5817 10 18 10C22.4183 10 26 13.5817 26 18C26 22.4183 22.4183 26 18 26C13.5817 26 10 22.4183 10 18Z" fill="currentColor"/>
</svg>
