<svg width="36" height="36" viewBox="0 0 36 36" fill="none" xmlns="http://www.w3.org/2000/svg">
<circle cx="18" cy="18" r="16" fill="#F9F9FA"/>
<path fill-rule="evenodd" clip-rule="evenodd" d="M18.0009 2C9.16505 2 2 9.16317 2 18.0009C2 24.5507 5.94002 30.1804 11.5791 32.6547C11.534 31.5389 11.5716 30.1954 11.8557 28.9799C12.1643 27.6817 13.9142 20.2626 13.9142 20.2626C13.9142 20.2626 13.4042 19.2409 13.4042 17.73C13.4042 15.3592 14.7797 13.5886 16.49 13.5886C17.9445 13.5886 18.6482 14.6818 18.6482 15.9914C18.6482 17.4534 17.7149 19.6417 17.2351 21.6681C16.8344 23.3672 18.0856 24.7502 19.7602 24.7502C22.7914 24.7502 24.833 20.8572 24.833 16.2435C24.833 12.7382 22.4716 10.1134 18.1759 10.1134C13.3233 10.1134 10.2996 13.7316 10.2996 17.7733C10.2996 19.1694 10.7098 20.1516 11.3533 20.9117C11.6506 21.2636 11.6901 21.4028 11.5829 21.8055C11.5076 22.0971 11.3307 22.8084 11.2574 23.0887C11.1501 23.4933 10.8227 23.64 10.4577 23.4895C8.2205 22.5769 7.17999 20.129 7.17999 17.3763C7.17999 12.8322 11.0128 7.37943 18.6143 7.37943C24.7238 7.37943 28.7448 11.803 28.7448 16.5465C28.7448 22.8234 25.2563 27.5123 20.1102 27.5123C18.3848 27.5123 16.7591 26.5791 16.2022 25.5197C16.2022 25.5197 15.2727 29.2057 15.077 29.917C14.7383 31.1494 14.0741 32.3837 13.4663 33.3433C14.9057 33.7686 16.4261 34 18.0009 34C26.8368 34 34 26.8368 34 18.0009C34 9.16317 26.8368 2 18.0009 2Z" fill="#BB0F23"/>
</svg>
