<svg width="36" height="36" viewBox="0 0 36 36" fill="none" xmlns="http://www.w3.org/2000/svg">
<path fill-rule="evenodd" clip-rule="evenodd" d="M10.0004 4.1436C12.4327 2.7393 15.1918 2 18.0004 2C20.809 2 23.5681 2.7393 26.0004 4.14359C28.3972 5.52735 30.3934 7.50874 31.7948 9.89354C32.0155 10.2691 32.0128 10.7299 31.7991 11.1L18.9529 33.35C18.5295 34.0833 17.4711 34.0833 17.0477 33.35L4.20176 11.1C3.98809 10.7299 3.98536 10.2691 4.20604 9.89355C5.60749 7.50874 7.6037 5.52735 10.0004 4.1436ZM18.0004 4C15.5429 4 13.1287 4.64689 11.0004 5.87565C9.03715 7.00915 7.38101 8.60096 6.17147 10.5116L18.0003 31L20.3413 26.9453C20.1114 26.9069 19.8842 26.8483 19.6625 26.7696C18.9169 26.505 18.2666 26.0252 17.7937 25.391C17.3208 24.7568 17.0466 23.9965 17.0058 23.2065C16.9649 22.4164 17.1593 21.632 17.5643 20.9524C17.9693 20.2728 18.5667 19.7285 19.281 19.3884C19.9953 19.0483 20.7944 18.9277 21.5772 19.0418C22.3601 19.1559 23.0915 19.4996 23.6791 20.0293C23.8262 20.162 23.9627 20.3049 24.0876 20.4565L29.8294 10.5116C28.6199 8.60096 26.9637 7.00914 25.0004 5.87564C22.8722 4.64689 20.4579 4 18.0004 4ZM22.9277 22.4656C22.8262 22.0995 22.6224 21.7695 22.3398 21.5147C22.046 21.2498 21.6803 21.0779 21.2888 21.0209C20.8974 20.9639 20.4979 21.0242 20.1407 21.1942C19.7836 21.3643 19.4848 21.6364 19.2824 21.9762C19.0799 22.316 18.9827 22.7082 19.0031 23.1032C19.0235 23.4983 19.1606 23.8784 19.3971 24.1955C19.6335 24.5126 19.9587 24.7525 20.3315 24.8848C20.7043 25.0171 21.1079 25.0359 21.4914 24.9388L21.4939 24.9489L22.9277 22.4656ZM14.0004 10C12.8959 10 12.0004 10.8954 12.0004 12C12.0004 13.1046 12.8959 14 14.0004 14C15.105 14 16.0004 13.1046 16.0004 12C16.0004 10.8954 15.105 10 14.0004 10ZM10.0004 12C10.0004 9.79086 11.7913 8 14.0004 8C16.2096 8 18.0004 9.79086 18.0004 12C18.0004 14.2091 16.2096 16 14.0004 16C11.7913 16 10.0004 14.2091 10.0004 12Z" fill="currentColor"/>
</svg>
