<svg width="36" height="36" viewBox="0 0 36 36" fill="none" xmlns="http://www.w3.org/2000/svg">
<path fill-rule="evenodd" clip-rule="evenodd" d="M12 3.6077C13.8242 2.55448 15.8936 2 18 2C20.1064 2 22.1758 2.55447 24 3.60769C25.8242 4.66091 27.3391 6.17577 28.3923 8C29.4455 9.82423 30 11.8936 30 14C30 16.0462 29.6258 18.1799 28.3547 20.0601L28.3425 20.0782L18 34.023L7.65475 20.0745L7.64013 20.0524C6.39283 18.1701 6 16.0543 6 14C6 11.8936 6.55447 9.82423 7.60769 8C8.66091 6.17577 10.1758 4.66092 12 3.6077ZM18 4C16.2446 4 14.5202 4.46206 13 5.33975C11.4798 6.21743 10.2174 7.47981 9.33975 9C8.46206 10.5202 8 12.2446 8 14C8 15.7987 8.34239 17.48 9.29321 18.9263L18 30.6656L26.7096 18.9224C27.6692 17.4933 28 15.8083 28 14C28 12.2446 27.5379 10.5202 26.6603 9C25.7826 7.47981 24.5202 6.21743 23 5.33975C21.4798 4.46206 19.7554 4 18 4ZM18 10C15.7909 10 14 11.7909 14 14C14 16.2091 15.7909 18 18 18C20.2091 18 22 16.2091 22 14C22 11.7909 20.2091 10 18 10ZM12 14C12 10.6863 14.6863 8 18 8C21.3137 8 24 10.6863 24 14C24 17.3137 21.3137 20 18 20C14.6863 20 12 17.3137 12 14Z" fill="currentColor"/>
</svg>
