<svg width="36" height="36" viewBox="0 0 36 36" fill="none" xmlns="http://www.w3.org/2000/svg">
<path fill-rule="evenodd" clip-rule="evenodd" d="M4 9C4 6.23858 6.23858 4 9 4H27C29.7614 4 32 6.23858 32 9V27C32 29.7614 29.7614 32 27 32H9C6.23858 32 4 29.7614 4 27V9ZM9 6C7.34315 6 6 7.34315 6 9V27C6 28.6569 7.34315 30 9 30H27C28.6569 30 30 28.6569 30 27V9C30 7.34315 28.6569 6 27 6H9ZM8 10C8 8.89543 8.89543 8 10 8H12C13.1046 8 14 8.89543 14 10V12C14 13.1046 13.1046 14 12 14H10C8.89543 14 8 13.1046 8 12V10ZM12 10H10V12H12V10ZM28 12L16 12V10L28 10V12ZM28 26H8V24H28V26Z" fill="currentColor"/>
</svg>
