<svg width="36" height="36" viewBox="0 0 36 36" fill="none" xmlns="http://www.w3.org/2000/svg">
<path d="M11.9893 8H8.98926C7.33273 8.00038 5.98926 9.34338 5.98926 11V16.4629L5.6377 16.7617L4.17676 18L5.6377 19.2383L5.98926 19.5371V25C5.98926 26.6566 7.33273 27.9996 8.98926 28H11.9893V30H8.98926C6.22816 29.9996 3.98926 27.7612 3.98926 25V20.4609L1.9834 18.7617V17.2383L3.98926 15.5371V11C3.98926 8.23881 6.22816 6.00038 8.98926 6H11.9893V8Z" fill="currentColor"/>
<path d="M27.0107 6C29.7724 6.00001 32.0107 8.2384 32.0107 11V15.5332L34.0166 17.2363V18.7637L32.0107 20.4648V25C32.0107 27.7616 29.7724 30 27.0107 30H24.0107V28H27.0107C28.6682 28 30.0107 26.6567 30.0107 25V19.5371L30.3643 19.2363L31.8232 18L30.3643 16.7637L30.0107 16.4629V11C30.0107 9.34334 28.6682 8.00001 27.0107 8H24.0107V6H27.0107Z" fill="currentColor"/>
<path d="M18.9912 10.082C20.5673 10.1177 22.0717 10.7535 23.1924 11.8672L22.4873 12.5762L21.7842 13.2852C21.0053 12.5109 19.9508 12.0764 18.8525 12.0762H17.167C15.8075 12.0762 14.7061 13.1796 14.7061 14.5391C14.7064 15.8982 15.8077 17 17.167 17H18.8154C21.2792 17 23.276 18.9972 23.2764 21.4609C23.2764 23.866 21.3736 25.8216 18.9912 25.9141V28H16.9912V25.875C15.2228 25.6823 13.5608 24.8976 12.2861 23.6328L12.9912 22.9238L13.6963 22.2129C14.8001 23.308 16.2918 23.9238 17.8467 23.9238H18.8154C20.1749 23.9238 21.2764 22.8204 21.2764 21.4609C21.276 20.1018 20.1747 19 18.8154 19H17.167C14.7032 19 12.7064 17.0028 12.7061 14.5391C12.7061 12.134 14.6087 10.1764 16.9912 10.084V8H18.9912V10.082Z" fill="currentColor"/>
</svg>
