<svg width="36" height="36" viewBox="0 0 36 36" fill="none" xmlns="http://www.w3.org/2000/svg">
<path fill-rule="evenodd" clip-rule="evenodd" d="M2 9C2 7.34315 3.34315 6 5 6H31C32.6569 6 34 7.34315 34 9V19C34 20.6569 32.6569 22 31 22H5C3.34315 22 2 20.6569 2 19V9ZM5 8C4.44772 8 4 8.44772 4 9V19C4 19.5523 4.44772 20 5 20H31C31.5523 20 32 19.5523 32 19V9C32 8.44772 31.5523 8 31 8H5ZM18 12C16.8954 12 16 12.8954 16 14C16 15.1046 16.8954 16 18 16C19.1046 16 20 15.1046 20 14C20 12.8954 19.1046 12 18 12ZM14 14C14 11.7909 15.7909 10 18 10C20.2091 10 22 11.7909 22 14C22 16.2091 20.2091 18 18 18C15.7909 18 14 16.2091 14 14ZM7 14C7 12.8954 7.89543 12 9 12C10.1046 12 11 12.8954 11 14C11 15.1046 10.1046 16 9 16C7.89543 16 7 15.1046 7 14ZM25 14C25 12.8954 25.8954 12 27 12C28.1046 12 29 12.8954 29 14C29 15.1046 28.1046 16 27 16C25.8954 16 25 15.1046 25 14ZM34 26V28H2V26H34ZM2 32V30H34V32H2Z" fill="currentColor"/>
</svg>
