<svg width="36" height="36" viewBox="0 0 36 36" fill="none" xmlns="http://www.w3.org/2000/svg">
<path fill-rule="evenodd" clip-rule="evenodd" d="M17.9978 4.01758L20.4445 8.20603L25.0367 9.24221L21.9632 12.8388L22.6321 17.9975L17.9978 16.0446L13.3635 17.9975L14.0324 12.8384L10.9639 9.24222L15.551 8.20614L17.9978 4.01758ZM17.9978 7.98265L16.8395 9.96549L14.635 10.4634L16.1299 12.2154L15.7945 14.8028L17.9978 13.8743L20.2011 14.8028L19.8655 12.2149L21.3623 10.4634L19.1561 9.96561L17.9978 7.98265Z" fill="currentColor"/>
<path fill-rule="evenodd" clip-rule="evenodd" d="M26.9578 18.0176L29.4045 22.206L33.9967 23.2422L30.9232 26.8388L31.5921 31.9975L26.9578 30.0446L22.3235 31.9975L22.9924 26.8384L19.9239 23.2422L24.511 22.2061L26.9578 18.0176ZM26.9578 21.9827L25.7995 23.9655L23.595 24.4634L25.0899 26.2154L24.7545 28.8028L26.9578 27.8743L29.1611 28.8028L28.8255 26.2149L30.3223 24.4634L28.1161 23.9656L26.9578 21.9827Z" fill="currentColor"/>
<path fill-rule="evenodd" clip-rule="evenodd" d="M9.03776 18.0176L11.4845 22.206L16.0767 23.2422L13.0032 26.8388L13.6721 31.9975L9.03776 30.0446L4.40348 31.9975L5.07242 26.8384L2.00391 23.2422L6.59097 22.2061L9.03776 18.0176ZM9.03776 21.9827L7.87946 23.9655L5.67504 24.4634L7.16994 26.2154L6.83445 28.8028L9.03776 27.8743L11.2411 28.8028L10.9055 26.2149L12.4023 24.4634L10.1961 23.9656L9.03776 21.9827Z" fill="currentColor"/>
</svg>
