<svg width="36" height="36" viewBox="0 0 36 36" fill="none" xmlns="http://www.w3.org/2000/svg">
<path fill-rule="evenodd" clip-rule="evenodd" d="M14.5281 16.1183C14.8533 15.9443 15.2478 15.9634 15.5547 16.1679L21.5547 20.1679C21.8329 20.3534 22 20.6656 22 21C22 21.3344 21.8329 21.6466 21.5547 21.8321L15.5547 25.8321C15.2478 26.0366 14.8533 26.0557 14.5281 25.8817C14.203 25.7077 14 25.3688 14 25V17C14 16.6312 14.203 16.2923 14.5281 16.1183ZM16 23.1315L19.1972 21L16 18.8685V23.1315Z" fill="currentColor"/>
<path fill-rule="evenodd" clip-rule="evenodd" d="M9 4C6.23858 4 4 6.23858 4 9V27C4 29.7614 6.23858 32 9 32H27C29.7614 32 32 29.7614 32 27V9C32 6.23858 29.7614 4 27 4H9ZM6 9C6 7.34315 7.34315 6 9 6H10.4648L13.1315 10H6V9ZM15.5352 10H23.1315L20.4648 6H12.8685L15.5352 10ZM22.8685 6L25.5352 10H30V9C30 7.34315 28.6569 6 27 6H22.8685ZM6 12V27C6 28.6569 7.34315 30 9 30H27C28.6569 30 30 28.6569 30 27V12H6Z" fill="currentColor"/>
</svg>
