<svg width="36" height="36" viewBox="0 0 36 36" fill="none" xmlns="http://www.w3.org/2000/svg">
<path d="M9 6C5.13401 6 2 9.13401 2 13V16H4V13C4 10.2386 6.23858 8 9 8H27C29.7614 8 32 10.2386 32 13V23C32 25.7614 29.7614 28 27 28H26V30H27C30.866 30 34 26.866 34 23V13C34 9.13401 30.866 6 27 6H9Z" fill="currentColor"/>
<path d="M19.4142 28H18V30H18.5858L23.2929 34.7071L24.7071 33.2929L19.4142 28Z" fill="currentColor"/>
<path d="M8 14H28V12H8V14Z" fill="currentColor"/>
<path d="M22 20L16 20V18L22 18V20Z" fill="currentColor"/>
<path d="M2.00008 22H8.58586L0.00390625 30.582L1.41812 31.9962L10.0001 23.4142V30H12.0001V20H2.00008V22Z" fill="currentColor"/>
</svg>
