<svg width="36" height="36" viewBox="0 0 36 36" fill="none" xmlns="http://www.w3.org/2000/svg">
<path fill-rule="evenodd" clip-rule="evenodd" d="M34 10C34 8.89543 33.1046 8 32 8V6C32 3.79086 30.2091 2 28 2C25.7909 2 24 3.79086 24 6V8C22.8954 8 22 8.89543 22 10V14C22 15.1046 22.8954 16 24 16H32C33.1046 16 34 15.1046 34 14V10ZM30 6V8H26V6C26 4.89543 26.8954 4 28 4C29.1046 4 30 4.89543 30 6ZM32 10V14H24V10H32ZM12.7072 9.29304L7.00008 3.58594L1.29297 9.29304L2.70718 10.7073L6.00008 7.41436V27.0002C6.00008 29.7616 8.23865 32.0002 11.0001 32.0002H18.0001V30.0002H11.0001C9.34322 30.0002 8.00008 28.657 8.00008 27.0002V7.41436L11.293 10.7073L12.7072 9.29304ZM28.0001 20.0002V28.5859L24.7072 25.293L23.293 26.7073L29.0001 32.4144L34.7072 26.7073L33.293 25.293L30.0001 28.5859V20.0002H28.0001Z" fill="currentColor"/>
</svg>
