<svg width="36" height="36" viewBox="0 0 36 36" fill="none" xmlns="http://www.w3.org/2000/svg">
<path fill-rule="evenodd" clip-rule="evenodd" d="M12.823 2.05779C14.7869 1.86436 16.7682 2.15826 18.5914 2.91345C20.4146 3.66864 22.0234 4.86182 23.2753 6.38728C24.5272 7.91275 25.3836 9.72343 25.7686 11.6589C26.1536 13.5944 26.0553 15.595 25.4825 17.4834C25.0067 19.0518 24.2158 20.5026 23.1621 21.7487L31.7063 30.2929L30.2921 31.7072L20.3632 21.7782L21.0703 21.0711C22.2331 19.9082 23.0912 18.4765 23.5686 16.9028C24.046 15.3292 24.1279 13.662 23.8071 12.0491C23.4862 10.4362 22.7726 8.92729 21.7293 7.65607C20.686 6.38485 19.3454 5.39053 17.826 4.76121C16.3067 4.13188 14.6556 3.88697 13.019 4.04816C11.3824 4.20935 9.81086 4.77167 8.4435 5.68531C7.07614 6.59895 5.95521 7.83571 5.17999 9.28603C4.69329 10.1966 4.35229 11.1737 4.16588 12.1818L2.19922 11.8182C2.42291 10.6084 2.83211 9.43591 3.41615 8.34324C4.34641 6.60285 5.69153 5.11874 7.33236 4.02237C8.9732 2.926 10.8591 2.25121 12.823 2.05779ZM3.9992 18C3.9992 16.8954 4.89464 16 5.9992 16H13.9992C15.1038 16 15.9992 16.8954 15.9992 18V32.0868L9.9992 29.1159L3.9992 32.0868V18ZM13.9992 18L5.9992 18V28.8647L9.9992 26.8841L13.9992 28.8647V18Z" fill="currentColor"/>
</svg>
