<svg width="36" height="36" viewBox="0 0 36 36" fill="none" xmlns="http://www.w3.org/2000/svg">
<path d="M18.5914 2.91345C16.7682 2.15826 14.7869 1.86436 12.823 2.05779C10.8591 2.25121 8.9732 2.926 7.33236 4.02237C5.69153 5.11874 4.34641 6.60285 3.41615 8.34324C2.83211 9.43591 2.42291 10.6084 2.19922 11.8182L4.16588 12.1818C4.35229 11.1737 4.69329 10.1966 5.17999 9.28603C5.95521 7.83571 7.07614 6.59895 8.4435 5.68531C9.81086 4.77167 11.3824 4.20935 13.019 4.04816C14.6556 3.88697 16.3067 4.13188 17.826 4.76121C19.3454 5.39053 20.686 6.38485 21.7293 7.65607C22.7726 8.92729 23.4862 10.4362 23.8071 12.0491C24.1279 13.662 24.046 15.3292 23.5686 16.9028C23.0912 18.4765 22.2331 19.9082 21.0703 21.0711L20.3632 21.7781L30.2921 31.7072L31.7063 30.2929L23.1621 21.7487C24.2158 20.5026 25.0067 19.0518 25.4825 17.4834C26.0553 15.595 26.1536 13.5944 25.7686 11.6589C25.3836 9.72343 24.5272 7.91275 23.2753 6.38728C22.0234 4.86182 20.4146 3.66864 18.5914 2.91345Z" fill="currentColor"/>
<path d="M5.99902 16C4.89445 16 3.99902 16.8954 3.99902 18V32.0868L9.99902 29.1159L15.999 32.0868V18C15.999 16.8954 15.1036 16 13.999 16H5.99902Z" fill="currentColor"/>
</svg>
