<svg width="36" height="36" viewBox="0 0 36 36" fill="none" xmlns="http://www.w3.org/2000/svg">
<path fill-rule="evenodd" clip-rule="evenodd" d="M6 27V12H32V9C32 6.23858 29.7614 4 27 4H9C6.23858 4 4 6.23858 4 9V27C4 29.7614 6.23858 32 9 32H16V30H9C7.34315 30 6 28.6569 6 27ZM30 9C30 7.34315 28.6569 6 27 6H9C7.34315 6 6 7.34315 6 9V10H30V9Z" fill="currentColor"/>
<path d="M8 16H12V18H8V16Z" fill="currentColor"/>
<path d="M8.00001 20L14 20L14 22L7.99999 22L8.00001 20Z" fill="currentColor"/>
<path d="M8 24H12V26H8V24Z" fill="currentColor"/>
<path fill-rule="evenodd" clip-rule="evenodd" d="M22 16C20.8954 16 20 16.8954 20 18V32.0868L26 29.1159L32 32.0868V18C32 16.8954 31.1046 16 30 16H22ZM22 18L30 18V28.8647L26 26.8841L22 28.8647V18Z" fill="currentColor"/>
</svg>
