<svg width="36" height="36" viewBox="0 0 36 36" fill="none" xmlns="http://www.w3.org/2000/svg">
<path fill-rule="evenodd" clip-rule="evenodd" d="M10 2V4H9C6.23858 4 4 6.23858 4 9V27C4 29.7614 6.23858 32 9 32H14V30H9C7.34315 30 6 28.6569 6 27V12H30V14H32V9C32 6.23858 29.7614 4 27 4H26V2H24V4H12V2H10ZM10 6V8H12V6H24V8H26V6H27C28.6569 6 30 7.34315 30 9V10H6V9C6 7.34315 7.34315 6 9 6H10ZM20 26C20 22.6863 22.6863 20 26 20C29.3137 20 32 22.6863 32 26C32 29.3137 29.3137 32 26 32C22.6863 32 20 29.3137 20 26ZM26 18C21.5817 18 18 21.5817 18 26C18 30.4183 21.5817 34 26 34C30.4183 34 34 30.4183 34 26C34 21.5817 30.4183 18 26 18ZM27 25.5858V22H25V26.4142L27.2929 28.7071L28.7071 27.2929L27 25.5858Z" fill="currentColor"/>
</svg>
