<svg width="36" height="36" viewBox="0 0 36 36" fill="none" xmlns="http://www.w3.org/2000/svg">
<path d="M15 23.8038C14.0879 24.3305 13.3304 25.0879 12.8038 26L11.0718 25C11.7739 23.7838 12.7838 22.7739 14 22.0718C15.2161 21.3696 16.5957 21 18 21C19.4043 21 20.7838 21.3696 22 22.0718C23.2161 22.7739 24.226 23.7838 24.9282 25L23.1961 26C22.6695 25.0879 21.9121 24.3305 21 23.8038C20.0879 23.2772 19.0532 23 18 23C16.9468 23 15.9121 23.2772 15 23.8038Z" fill="#C52020"/>
<path d="M13 16C14.1046 16 15 15.1046 15 14C15 12.8954 14.1046 12 13 12C11.8954 12 11 12.8954 11 14C11 15.1046 11.8954 16 13 16Z" fill="#C52020"/>
<path d="M25 14C25 15.1046 24.1046 16 23 16C21.8954 16 21 15.1046 21 14C21 12.8954 21.8954 12 23 12C24.1046 12 25 12.8954 25 14Z" fill="#C52020"/>
<path fill-rule="evenodd" clip-rule="evenodd" d="M18 2C9.16344 2 2 9.16344 2 18C2 26.8366 9.16344 34 18 34C20.183 34 22.2663 33.5623 24.165 32.7688C24.3259 32.7016 24.7777 32.643 25.5744 32.685C26.3151 32.724 27.1999 32.8386 28.1053 32.9886C29.9126 33.2878 31.714 33.713 32.4332 33.8893C33.311 34.1045 34.1058 33.3094 33.8876 32.4306C33.7097 31.7142 33.2815 29.9219 32.9813 28.1191C32.831 27.216 32.7165 26.3325 32.6785 25.5908C32.6377 24.7956 32.6972 24.3365 32.7688 24.165C33.5623 22.2663 34 20.183 34 18C34 9.16344 26.8366 2 18 2ZM4 18C4 10.268 10.268 4 18 4C25.732 4 32 10.268 32 18C32 19.9136 31.6166 21.7351 30.9235 23.3938C30.6597 24.025 30.6403 24.8973 30.6811 25.6932C30.7247 26.5426 30.8523 27.5097 31.0085 28.4476C31.2025 29.6126 31.4463 30.7668 31.6471 31.6509C30.7596 31.4515 29.6003 31.2089 28.4321 31.0154C27.4929 30.8599 26.526 30.7324 25.6796 30.6878C24.8892 30.6461 24.0186 30.6624 23.3938 30.9235C21.7351 31.6166 19.9136 32 18 32C10.268 32 4 25.732 4 18Z" fill="#C52020"/>
</svg>
