<svg width="36" height="36" viewBox="0 0 36 36" fill="none" xmlns="http://www.w3.org/2000/svg">
<path d="M18 4C10.268 4 4 10.268 4 18C4 20.7803 4.81045 23.3713 6.208 25.5496L4.76461 26.993C3.01985 24.4302 2 21.3342 2 18C2 9.16344 9.16344 2 18 2C21.3342 2 24.4302 3.01985 26.993 4.76461L25.5496 6.208C23.3713 4.81045 20.7803 4 18 4Z" fill="currentColor"/>
<path fill-rule="evenodd" clip-rule="evenodd" d="M7.41546 29.9989L3.70718 33.7072L2.29297 32.293L32.293 2.29297L33.7072 3.70718L29.9989 7.41546C32.489 10.2361 34 13.9416 34 18C34 20.183 33.5623 22.2663 32.7688 24.165C32.6972 24.3365 32.6377 24.7956 32.6785 25.5908C32.7165 26.3325 32.831 27.216 32.9813 28.1191C33.2815 29.9219 33.7097 31.7142 33.8876 32.4306C34.1058 33.3094 33.311 34.1045 32.4332 33.8893C31.714 33.713 29.9126 33.2878 28.1053 32.9886C27.1999 32.8386 26.3151 32.724 25.5744 32.685C24.7777 32.643 24.3259 32.7016 24.165 32.7688C22.2663 33.5623 20.183 34 18 34C13.9416 34 10.2361 32.489 7.41546 29.9989ZM28.5815 8.83282C30.7112 11.2889 32 14.494 32 18C32 19.9136 31.6166 21.7351 30.9235 23.3938C30.6597 24.025 30.6403 24.8973 30.6811 25.6932C30.7247 26.5426 30.8523 27.5097 31.0085 28.4476C31.2025 29.6126 31.4463 30.7668 31.6471 31.6509C30.7596 31.4515 29.6003 31.2089 28.4321 31.0154C27.4929 30.8599 26.526 30.7324 25.6796 30.6878C24.8892 30.6461 24.0186 30.6624 23.3938 30.9235C21.7351 31.6166 19.9136 32 18 32C14.494 32 11.2889 30.7112 8.83282 28.5815L28.5815 8.83282Z" fill="currentColor"/>
</svg>
