<svg width="36" height="36" viewBox="0 0 36 36" fill="none" xmlns="http://www.w3.org/2000/svg">
<path fill-rule="evenodd" clip-rule="evenodd" d="M2 18C2 9.16344 9.16344 2 18 2C26.8366 2 34 9.16344 34 18C34 20.183 33.5623 22.2663 32.7688 24.165C32.6972 24.3365 32.6377 24.7956 32.6785 25.5908C32.7165 26.3325 32.831 27.216 32.9813 28.1191C33.2815 29.9219 33.7097 31.7142 33.8876 32.4306C34.1058 33.3094 33.311 34.1045 32.4332 33.8893C31.714 33.713 29.9126 33.2878 28.1053 32.9886C27.1999 32.8386 26.3151 32.724 25.5744 32.685C24.7777 32.643 24.3259 32.7016 24.165 32.7688C22.2663 33.5623 20.183 34 18 34C9.16344 34 2 26.8366 2 18ZM13 16C14.1046 16 15 14.6569 15 13C15 11.3431 14.1046 10 13 10C11.8954 10 11 11.3431 11 13C11 14.6569 11.8954 16 13 16ZM23 16C24.1046 16 25 14.6569 25 13C25 11.3431 24.1046 10 23 10C21.8954 10 21 11.3431 21 13C21 14.6569 21.8954 16 23 16ZM24.0001 21C24.5524 21 25.0074 21.45 24.9288 21.9967C24.7148 23.4847 24.0254 24.8742 22.9498 25.9497C21.6371 27.2625 19.8566 28 18.0001 28C16.1436 28 14.3631 27.2625 13.0503 25.9497C11.9748 24.8742 11.2854 23.4847 11.0714 21.9967C10.9927 21.45 11.4478 21 12.0001 21H24.0001Z" fill="#15662D"/>
</svg>
