<svg width="36" height="36" viewBox="0 0 36 36" fill="none" xmlns="http://www.w3.org/2000/svg">
<path d="M28.707 5.29248L27.2927 6.70669L30.573 9.98697H26.3731C23.4644 9.98697 20.7351 11.3927 19.046 13.7606L18.4789 14.5557L19.7072 16.2778L20.6743 14.922C21.988 13.0803 24.1108 11.987 26.3731 11.987H30.5856V11.9996L27.2927 15.2925L28.707 16.7067L34.4141 10.9996L28.707 5.29248Z" fill="currentColor"/>
<path d="M14.7939 19.7219L13.8268 21.0776C12.5131 22.9194 10.3903 24.0127 8.12803 24.0127H2V26.0127H8.12803C11.0367 26.0127 13.766 24.607 15.4551 22.239L16.0222 21.4439L14.7939 19.7219Z" fill="currentColor"/>
<path d="M8.12803 11.9871H2V9.98706H8.12803C11.0367 9.98706 13.766 11.3927 15.4551 13.7607L20.6743 21.0777C21.988 22.9195 24.1108 24.0128 26.3731 24.0128H30.5856V24.0001L27.2927 20.7072L28.707 19.293L34.4141 25.0001L28.707 30.7072L27.2927 29.293L30.5729 26.0128H26.3731C23.4644 26.0128 20.7351 24.6071 19.046 22.2391L13.8268 14.9221C12.5131 13.0804 10.3903 11.9871 8.12803 11.9871Z" fill="currentColor"/>
</svg>
