<svg width="36" height="36" viewBox="0 0 36 36" fill="none" xmlns="http://www.w3.org/2000/svg">
<path fill-rule="evenodd" clip-rule="evenodd" d="M8 6C6.89543 6 6 6.89543 6 8V28H4V8C4 5.79086 5.79086 4 8 4C10.2091 4 12 5.79086 12 8V28C12 29.1046 12.8954 30 14 30C15.1046 30 16 29.1046 16 28V19C16 16.2386 18.2386 14 21 14H28.5858L24.2929 9.70711L25.7071 8.29289L32.4142 15L25.7071 21.7071L24.2929 20.2929L28.5858 16H21C19.3431 16 18 17.3431 18 19V28C18 30.2091 16.2091 32 14 32C11.7909 32 10 30.2091 10 28V8C10 6.89543 9.10457 6 8 6Z" fill="currentColor"/>
</svg>
