<svg width="36" height="36" viewBox="0 0 36 36" fill="none" xmlns="http://www.w3.org/2000/svg">
<path d="M30.9576 24.8205L30.9576 24.8206L30.9616 24.8313C31.0328 25.0226 31.0312 25.3076 30.7094 25.6452C30.5087 25.8486 30.3529 25.9778 30.189 26.0674L30.189 26.0674L30.1803 26.0722C29.9836 26.1824 29.7511 26.2567 29.3949 26.3706C29.3611 26.3814 29.3262 26.3925 29.2901 26.4041C28.9283 26.5202 28.4202 26.6871 27.9794 27.007L27.9371 27.0376L27.8983 27.0725C27.56 27.3765 27.3031 27.6724 27.0954 27.9188C27.0634 27.9567 27.0333 27.9925 27.0047 28.0266C26.8355 28.228 26.7198 28.3658 26.5917 28.4882C26.3785 28.6919 26.1291 28.8649 25.4467 28.8944C25.3934 28.8963 25.3404 28.898 25.2877 28.8998C24.1772 28.937 23.1757 28.9706 21.9639 29.718L21.9619 29.7192L21.9555 29.7232C21.0163 30.3054 19.8959 31 17.984 31C16.0688 31 14.9541 30.3095 14.0263 29.7301C12.8284 28.9707 11.7587 28.9362 10.6758 28.9011C10.6081 28.8989 10.5404 28.8968 10.4725 28.8944C10.1049 28.8785 9.8835 28.8196 9.74051 28.7587C9.60383 28.7005 9.49357 28.6214 9.36921 28.4974C9.25601 28.3846 9.15761 28.2642 9.0162 28.0912C8.97381 28.0393 8.92755 27.9827 8.87587 27.9202C8.66772 27.6683 8.4087 27.3692 8.06018 27.064L8.01349 27.0231L7.9621 26.9883C7.52569 26.6928 7.03863 26.5297 6.67975 26.4119C6.65366 26.4033 6.62815 26.3949 6.60319 26.3867C6.24165 26.2682 5.99622 26.1877 5.78381 26.07L5.78045 26.0682C5.49472 25.9113 5.25068 25.676 5.11534 25.4329C4.98958 25.207 4.97176 25.0102 5.03809 24.8231C5.16532 24.4791 5.54063 24.0863 6.23898 23.6115C6.57082 23.3859 6.93287 23.1689 7.31554 22.9415C7.33892 22.9276 7.36241 22.9136 7.386 22.8996C7.73784 22.6907 8.10988 22.4697 8.44755 22.2441C8.8052 22.0052 9.17233 21.73 9.46967 21.4115C9.76691 21.0932 10.053 20.6691 10.134 20.1323C10.3068 18.9864 9.49032 18.0612 8.419 17.299C7.55518 16.6782 7.22308 15.8813 7.49924 15.1566L7.50088 15.1523C7.76082 14.4605 8.55506 14.1006 9.49344 14.3389L10.7537 14.6589L10.7395 13.3587C10.7326 12.7264 10.7466 12.0701 10.8003 11.4283C11.1312 7.63629 14.2007 5 17.9912 5C21.7807 5 24.8714 7.63573 25.1891 11.4267C25.2429 12.069 25.2569 12.7259 25.25 13.3587L25.2358 14.6589L26.4961 14.3389C27.4421 14.0987 28.2372 14.459 28.4949 15.1499L28.4949 15.1499L28.4974 15.1566C28.7736 15.8813 28.4415 16.6781 27.5777 17.2989C26.5041 18.0627 25.6839 18.9893 25.8578 20.1366C25.9393 20.6745 26.2271 21.0985 26.5253 21.4161C26.8237 21.7339 27.192 22.0082 27.5505 22.2463C27.8863 22.4694 28.2562 22.688 28.6061 22.8948C28.6325 22.9104 28.6587 22.9259 28.6848 22.9413C29.068 23.1679 29.4304 23.3843 29.762 23.6094C30.4623 24.0847 30.8343 24.4773 30.9576 24.8205Z" fill="white" stroke="black"/>
</svg>
