<svg width="36" height="36" viewBox="0 0 36 36" fill="none" xmlns="http://www.w3.org/2000/svg">
<path fill-rule="evenodd" clip-rule="evenodd" d="M9 4C6.23858 4 4 6.23858 4 9C4 11.419 5.71776 13.4367 8 13.9V22H7C5.34315 22 4 23.3431 4 25V29C4 30.6569 5.34315 32 7 32H11C12.6569 32 14 30.6569 14 29V28H22.1C22.5633 30.2822 24.581 32 27 32C29.7614 32 32 29.7614 32 27C32 24.581 30.2822 22.5633 28 22.1V14H29C30.6569 14 32 12.6569 32 11V7C32 5.34315 30.6569 4 29 4H25C23.3431 4 22 5.34315 22 7V11C22 11.4632 22.105 11.9018 22.2924 12.2935L12.2935 22.2924C11.9018 22.105 11.4632 22 11 22H10V13.9C12.2822 13.4367 14 11.419 14 9C14 6.23858 11.7614 4 9 4ZM6 9C6 7.34315 7.34315 6 9 6C10.6569 6 12 7.34315 12 9C12 10.6569 10.6569 12 9 12C7.34315 12 6 10.6569 6 9ZM13.7077 23.7066C13.8951 24.0983 14 24.5369 14 25V26H22.1C22.4977 24.0409 24.0409 22.4977 26 22.1V14H25C24.5369 14 24.0983 13.8951 23.7066 13.7077L13.7077 23.7066ZM24 27C24 25.3431 25.3431 24 27 24C28.6569 24 30 25.3431 30 27C30 28.6569 28.6569 30 27 30C25.3431 30 24 28.6569 24 27ZM25 6C24.4477 6 24 6.44772 24 7V11C24 11.5523 24.4477 12 25 12H29C29.5523 12 30 11.5523 30 11V7C30 6.44772 29.5523 6 29 6H25ZM6 25C6 24.4477 6.44772 24 7 24H11C11.5523 24 12 24.4477 12 25V29C12 29.5523 11.5523 30 11 30H7C6.44772 30 6 29.5523 6 29V25Z" fill="currentColor"/>
</svg>
