<svg width="36" height="36" viewBox="0 0 36 36" fill="none" xmlns="http://www.w3.org/2000/svg">
<path d="M15.3756 2.21606C18.6736 1.66853 22.0602 2.16779 25.0599 3.64372C28.0595 5.11965 30.5215 7.4981 32.1001 10.445C33.6787 13.392 34.2945 16.7593 33.8611 20.0742L31.878 19.815C32.2572 16.9144 31.7183 13.968 30.3371 11.3894C28.9559 8.81084 26.8016 6.7297 24.1769 5.43826C21.5522 4.14682 18.5889 3.70997 15.7032 4.18906C12.8175 4.66814 10.1543 6.0391 8.08776 8.10939C6.02117 10.1797 4.65499 12.8453 4.18107 15.7318C3.70715 18.6184 4.1493 21.5809 5.44544 24.2033C6.74157 26.8257 8.82657 28.9762 11.4076 30.3528C13.9886 31.7294 16.9361 32.263 19.8359 31.8786L20.0987 33.8613C16.7846 34.3006 13.4162 33.6908 10.4664 32.1175C7.51664 30.5442 5.13378 28.0865 3.65249 25.0895C2.17119 22.0925 1.66587 18.7067 2.20749 15.4078C2.74911 12.1089 4.31047 9.06248 6.67228 6.69644C9.03408 4.3304 12.0777 2.76359 15.3756 2.21606Z" fill="currentColor"/>
<path d="M22.2897 23.7068L16.9969 18.4139L16.9968 7.99963L18.9968 7.99963L18.9969 17.5855L23.7039 22.2926L22.2897 23.7068Z" fill="currentColor"/>
<path d="M33.5108 30.3787L34.925 28.9645L29.9605 24L24.9961 28.9645L26.4103 30.3787L28.9605 27.8284V35.9875H30.9605V27.8284L33.5108 30.3787Z" fill="currentColor"/>
</svg>
