<svg width="36" height="36" viewBox="0 0 36 36" fill="none" xmlns="http://www.w3.org/2000/svg">
<path d="M11.293 12.7072L16.586 18.0002L11.2931 23.2931L12.7073 24.7073L18.0002 19.4144L23.293 24.7072L24.7072 23.293L19.4144 18.0002L24.7073 12.7073L23.2931 11.2931L18.0002 16.586L12.7072 11.293L11.293 12.7072Z" fill="currentColor"/>
<path fill-rule="evenodd" clip-rule="evenodd" d="M18 2C9.16344 2 2 9.16344 2 18C2 26.8366 9.16344 34 18 34C26.8366 34 34 26.8366 34 18C34 9.16344 26.8366 2 18 2ZM4 18C4 10.268 10.268 4 18 4C25.732 4 32 10.268 32 18C32 25.732 25.732 32 18 32C10.268 32 4 25.732 4 18Z" fill="currentColor"/>
</svg>
