<svg width="36" height="36" viewBox="0 0 36 36" fill="none" xmlns="http://www.w3.org/2000/svg">
<path d="M18 2C9.168 2 2 9.168 2 18C2 26.832 9.168 34 18 34C26.832 34 34 26.832 34 18C33.984 9.168 26.832 2 18 2ZM25.328 25.072C25.04 25.536 24.432 25.696 23.952 25.408C20.192 23.12 15.472 22.592 9.904 23.872C9.36 24 8.832 23.664 8.704 23.12C8.576 22.576 8.912 22.048 9.456 21.92C15.552 20.528 20.768 21.12 24.992 23.696C25.472 23.984 25.616 24.608 25.328 25.072ZM27.296 20.72C26.928 21.312 26.16 21.488 25.584 21.136C21.28 18.496 14.736 17.728 9.648 19.264C8.992 19.456 8.288 19.088 8.096 18.432C7.904 17.776 8.272 17.072 8.928 16.88C14.736 15.12 21.952 15.968 26.896 19.008C27.472 19.36 27.648 20.128 27.296 20.72ZM27.456 16.176C22.304 13.12 13.792 12.832 8.88 14.336C8.096 14.576 7.248 14.128 7.008 13.344C6.768 12.56 7.216 11.712 8 11.472C13.648 9.76 23.04 10.096 28.976 13.616C29.68 14.032 29.92 14.96 29.504 15.664C29.088 16.368 28.16 16.608 27.456 16.176Z" fill="#1ED760"/>
</svg>
