<svg width="36" height="36" viewBox="0 0 36 36" fill="none" xmlns="http://www.w3.org/2000/svg">
<path fill-rule="evenodd" clip-rule="evenodd" d="M18 4C10.268 4 4 10.268 4 18C4 25.732 10.268 32 18 32C25.732 32 32 25.732 32 18C32 10.268 25.732 4 18 4ZM2 18C2 9.16344 9.16344 2 18 2C26.8366 2 34 9.16344 34 18C34 26.8366 26.8366 34 18 34C9.16344 34 2 26.8366 2 18ZM16.8001 18.4019C15.7417 17.6963 14.3535 17.7349 13.336 18.498L11.6 19.8L10.4 18.2L12.136 16.898C13.8319 15.6261 16.1456 15.5619 17.9095 16.7378L19.1999 17.5981C20.2583 18.3037 21.6465 18.2651 22.664 17.502L24.4 16.2L25.6 17.8L23.864 19.102C22.1681 20.3739 19.8544 20.4381 18.0905 19.2622L16.8001 18.4019Z" fill="#9B5E0D"/>
</svg>
