<svg width="36" height="36" viewBox="0 0 36 36" fill="none" xmlns="http://www.w3.org/2000/svg">
<g clip-path="url(#clip0_2499_41)">
<path fill-rule="evenodd" clip-rule="evenodd" d="M18.4992 13.78C18.0911 13.0292 17.8559 12.4863 17.3855 11.7489C16.7906 10.8238 16.2579 10.2004 15.5316 9.50994C14.4801 8.51783 13.6362 7.80057 12.1696 7.11682C8.89072 5.60184 4.00691 5.54151 2.3882 8.31003C1.35057 10.0797 2.63032 11.95 3.46043 12.9756C4.31821 14.0347 6.2067 14.9799 7.66631 15.3486C9.56172 15.8313 11.6508 15.7642 13.5462 15.4022C14.5839 15.2011 17.9942 14.2694 18.4992 13.78Z" fill="#FFA633"/>
<path fill-rule="evenodd" clip-rule="evenodd" d="M29.774 30.4115C29.4903 30.2372 29.0614 30.1366 28.7363 29.9757C28.4043 29.8082 28.0515 29.5735 27.8301 29.3992C24.2537 26.6307 21.8672 21.7708 22.0816 17.1856C22.1439 15.9053 22.3722 15.7377 22.6627 14.7188C20.2208 15.1008 17.8273 17.0851 17.018 18.7609C14.8666 23.2254 18.9618 33.2738 26.3705 31.8661C27.3113 31.6918 29.3105 30.9343 29.774 30.4115Z" fill="#F06D1F"/>
<path fill-rule="evenodd" clip-rule="evenodd" d="M26.8141 14.8192C25.1331 15.275 24.8218 16.4749 24.9463 18.4726C25.0432 20.0412 25.5205 21.5628 26.1223 22.8231C26.4267 23.4532 26.7241 23.9895 27.0908 24.5526C28.0385 26.034 29.9754 28.4137 32.1267 27.6093C34.368 26.7714 34.4441 22.0455 33.1644 19.3909C32.0645 17.1051 28.8686 14.2628 26.8141 14.8192Z" fill="#F06D1F"/>
<path fill-rule="evenodd" clip-rule="evenodd" d="M20.532 12.9758C21.0785 12.8886 22.5866 11.9568 23.0016 11.6552C23.7695 11.1055 24.3782 10.5223 24.9524 9.75142C27.1937 6.7684 25.6649 2.30392 21.9501 4.66352C19.1485 6.43993 19.2385 11.0519 20.532 12.9758Z" fill="#FFA633"/>
<path fill-rule="evenodd" clip-rule="evenodd" d="M18.465 31.8593C18.1952 31.5242 17.9254 31.2828 17.5865 30.9343C17.3513 30.6929 17.0054 30.2572 16.7771 29.9421C15.7256 28.5344 14.8678 26.7982 14.4113 25.0486C14.1138 23.8957 14.1069 23.0577 13.934 21.8779C13.3529 22.5818 10.3368 27.9982 10.3438 29.0372C10.3507 29.8416 11.2154 29.969 11.921 30.2036C13.7126 30.8069 16.6318 31.7253 18.465 31.8593Z" fill="#F06D1F"/>
</g>
<defs>
<clipPath id="clip0_2499_41">
<rect width="18" height="18" fill="white" transform="scale(2)"/>
</clipPath>
</defs>
</svg>
