<svg width="36" height="36" viewBox="0 0 36 36" fill="none" xmlns="http://www.w3.org/2000/svg">
<path fill-rule="evenodd" clip-rule="evenodd" d="M4.86422 8.28144C5.0964 7.72093 5.64335 7.35547 6.25004 7.35547H28.75C29.2859 7.35547 29.781 7.64128 30.049 8.10526C30.3169 8.56924 30.3171 9.14094 30.0493 9.60505L18.7993 29.1051C18.4959 29.6309 17.9055 29.9221 17.3036 29.8426C16.7017 29.763 16.2071 29.3286 16.0507 28.742L13.1545 17.8812L5.18938 9.91613C4.76039 9.48713 4.63205 8.84196 4.86422 8.28144ZM16.2452 17.8283L18.0143 24.4624L24.6484 12.9634L16.2452 17.8283ZM23.1653 10.3555H9.87136L14.7458 15.2299L23.1653 10.3555Z" fill="currentColor"/>
</svg>
