<svg width="36" height="36" viewBox="0 0 36 36" fill="none" xmlns="http://www.w3.org/2000/svg">
<path fill-rule="evenodd" clip-rule="evenodd" d="M18.5011 7.54366C19.3757 6.83867 20.551 6.0694 21.9234 5.59983C24.0544 4.8707 26.6758 4.87405 29.1882 6.88397C34.078 10.7959 34.8027 18.6249 28.5618 24.8659C25.6345 27.7932 23.2992 29.5523 21.6607 30.5906C20.8414 31.1097 20.1969 31.4483 19.7405 31.6624C19.5123 31.7694 19.3314 31.8452 19.1993 31.8968C19.1332 31.9226 19.0794 31.9423 19.0381 31.9569L18.9855 31.975L18.9662 31.9813L18.9584 31.9838L18.9549 31.9849C18.9541 31.9852 18.9517 31.9859 18.5011 30.5552C18.0505 31.9859 18.0497 31.9857 18.0489 31.9855L18.0438 31.9838L18.036 31.9813L18.0167 31.975L17.9641 31.9569C17.9228 31.9423 17.869 31.9226 17.8029 31.8968C17.6708 31.8452 17.4899 31.7694 17.2617 31.6624C16.8053 31.4483 16.1608 31.1097 15.3415 30.5906C13.7031 29.5523 11.3678 27.7932 8.44047 24.8659C2.19951 18.6249 2.92419 10.7959 7.81409 6.88397C10.3265 4.87406 12.9479 4.87069 15.0788 5.59983C16.4512 6.06941 17.6265 6.83867 18.5011 7.54366ZM18.5011 30.5552L18.0489 31.9855L18.5011 32.1279L18.9517 31.9859L18.5011 30.5552ZM18.5011 28.93C18.8405 28.769 19.3624 28.4953 20.0549 28.0565C21.4875 27.1487 23.6522 25.5328 26.4404 22.7446C31.6305 17.5545 30.5822 11.8411 27.3141 9.22657C25.7474 7.97326 24.2438 7.97661 22.8946 8.43828C21.4622 8.92837 20.2358 9.94192 19.5618 10.6159L18.5011 11.6766L17.4404 10.6159C16.7664 9.94191 15.54 8.92837 14.1076 8.43828C12.7584 7.97661 11.2548 7.97326 9.68818 9.22657C6.42005 11.8411 5.3717 17.5545 10.5618 22.7446C13.35 25.5328 15.5147 27.1487 16.9473 28.0565C17.6398 28.4953 18.1617 28.769 18.5011 28.93Z" fill="currentColor"/>
</svg>
