<svg width="36" height="36" viewBox="0 0 36 36" fill="none" xmlns="http://www.w3.org/2000/svg">
<path fill-rule="evenodd" clip-rule="evenodd" d="M14.8178 6.39527C14.9889 5.02688 16.1521 4 17.5311 4C19.9992 4 22 6.00078 22 8.46887V14H27C29.7614 14 32 16.2386 32 19V23C32 27.9706 27.9706 32 23 32H6C4.89543 32 4 31.1046 4 30V20C4 18.8954 4.89543 18 6 18H10.4648L14.037 12.6417L14.8178 6.39527ZM10 20H6V30H10V20ZM12 30H23C26.866 30 30 26.866 30 23V19C30 17.3431 28.6569 16 27 16H20V8.46887C20 7.10535 18.8946 6 17.5311 6C17.1607 6 16.8483 6.27581 16.8024 6.64334L15.963 13.3583L12 19.3028V30Z" fill="currentColor"/>
</svg>
