<svg width="36" height="36" viewBox="0 0 36 36" fill="none" xmlns="http://www.w3.org/2000/svg">
<path d="M33.707 25.707L30.4141 29L33.707 32.293L32.293 33.707L29 30.4141L25.707 33.707L24.293 32.293L27.5859 29L24.293 25.707L25.707 24.293L29 27.5859L32.293 24.293L33.707 25.707Z" fill="currentColor"/>
<path d="M29 6C31.7614 6 34 8.23858 34 11V14C32.9391 14 31.922 14.4217 31.1719 15.1719C30.4217 15.922 30 16.9391 30 18C30 18.5559 30.1159 19.0997 30.334 19.5996L28.5 20.4004C28.1728 19.6506 28 18.834 28 18C28 16.4087 28.6326 14.883 29.7578 13.7578C30.3961 13.1195 31.165 12.6452 32 12.3496V11C32 9.34315 30.6569 8 29 8H14V12H12V8H7C5.34315 8 4 9.34315 4 11V12.3496C4.09888 12.3846 4.19975 12.4168 4.29688 12.457C5.02453 12.7586 5.68523 13.2009 6.24219 13.7578C6.79914 14.3148 7.24145 14.9755 7.54297 15.7031C7.8445 16.4311 8 17.2121 8 18C8 18.7879 7.8445 19.5689 7.54297 20.2969C7.24145 21.0245 6.79914 21.6852 6.24219 22.2422C5.68523 22.7991 5.02453 23.2414 4.29688 23.543C4.19995 23.5831 4.09867 23.6135 4 23.6484V25C4 26.6569 5.34315 28 7 28H12V24H14V28H20V30H7C4.23858 30 2 27.7614 2 25V22C2.52529 22 3.04595 21.8963 3.53125 21.6953C4.01635 21.4943 4.45682 21.1994 4.82812 20.8281C5.19943 20.4568 5.4943 20.0163 5.69531 19.5312C5.89633 19.0459 6 18.5253 6 18C6 17.4747 5.89633 16.9541 5.69531 16.4688C5.4943 15.9837 5.19943 15.5432 4.82812 15.1719C4.45682 14.8006 4.01635 14.5057 3.53125 14.3047C3.04595 14.1037 2.52529 14 2 14V11C2 8.23858 4.23858 6 7 6H29Z" fill="currentColor"/>
<path d="M14 20H12V16H14V20Z" fill="currentColor"/>
</svg>
