<svg width="36" height="36" viewBox="0 0 36 36" fill="none" xmlns="http://www.w3.org/2000/svg">
<path fill-rule="evenodd" clip-rule="evenodd" d="M2 11C2 8.23858 4.23858 6 7 6H29C31.7614 6 34 8.23858 34 11V14C32.9391 14 31.9217 14.4214 31.1716 15.1716C30.4214 15.9217 30 16.9391 30 18C30 19.0609 30.4214 20.0783 31.1716 20.8284C31.9217 21.5786 32.9391 22 34 22V25C34 27.7614 31.7614 30 29 30H7C4.23858 30 2 27.7614 2 25L2 22C2.52529 22 3.04543 21.8965 3.53074 21.6955C4.01604 21.4945 4.45699 21.1999 4.82843 20.8284C5.19986 20.457 5.4945 20.016 5.69552 19.5307C5.89654 19.0454 6 18.5253 6 18C6 17.4747 5.89654 16.9546 5.69552 16.4693C5.4945 15.984 5.19987 15.543 4.82843 15.1716C4.457 14.8001 4.01604 14.5055 3.53074 14.3045C3.04544 14.1035 2.52529 14 2 14L2 11ZM4 12.3431C4.09958 12.3783 4.19831 12.4162 4.29611 12.4567C5.02406 12.7583 5.68549 13.2002 6.24265 13.7574C6.7998 14.3145 7.24175 14.9759 7.54328 15.7039C7.84481 16.4319 8 17.2121 8 18C8 18.7879 7.84481 19.5681 7.54328 20.2961C7.24175 21.0241 6.79979 21.6855 6.24264 22.2426C5.68549 22.7998 5.02406 23.2418 4.2961 23.5433C4.19831 23.5838 4.09957 23.6217 4 23.6569V25C4 26.6569 5.34315 28 7 28H22V24H24V28H29C30.6569 28 32 26.6569 32 25V23.6569C31.1642 23.3613 30.3962 22.8815 29.7574 22.2426C28.6321 21.1174 28 19.5913 28 18C28 16.4087 28.6321 14.8826 29.7574 13.7574C30.3962 13.1185 31.1642 12.6387 32 12.3431V11C32 9.34315 30.6569 8 29 8H24V12H22V8H7C5.34315 8 4 9.34315 4 11V12.3431ZM22 20V16H24V20H22Z" fill="currentColor"/>
</svg>
