<svg width="36" height="36" viewBox="0 0 36 36" fill="none" xmlns="http://www.w3.org/2000/svg">
<path d="M33.4922 21.0859L29.1992 25.3789L27.7852 23.9648L29.6641 22.0859H27.002C26.0138 22.0859 25.0464 22.3791 24.2246 22.9277C23.4026 23.477 22.7612 24.2586 22.3828 25.1719C22.0044 26.0854 21.9048 27.0908 22.0977 28.0605C22.2906 29.0301 22.7678 29.9201 23.4668 30.6191C24.1658 31.3179 25.056 31.7954 26.0254 31.9883C26.9948 32.1809 28.0009 32.0814 28.9141 31.7031C29.8272 31.3247 30.6091 30.6832 31.1582 29.8613C31.707 29.0395 32 28.0722 32 27.084H34C34 28.468 33.5891 29.8218 32.8203 30.9727C32.0514 32.1233 30.9582 33.021 29.6797 33.5508C28.401 34.0804 26.9922 34.219 25.6348 33.9492C24.2776 33.6791 23.0313 33.0116 22.0527 32.0332C21.0742 31.0546 20.4069 29.8085 20.1367 28.4512C19.8667 27.0935 20.0054 25.6852 20.5352 24.4062C21.0649 23.1276 21.9625 22.0346 23.1133 21.2656C24.2641 20.497 25.618 20.0859 27.002 20.0859H29.6641L27.7852 18.207L29.1992 16.793L33.4922 21.0859Z" fill="currentColor"/>
<path d="M29 6C31.7614 6 34 8.23858 34 11V12H32V11C32 9.34315 30.6569 8 29 8H14V12H12V8H7C5.34315 8 4 9.34315 4 11V12.3496C4.09888 12.3846 4.19975 12.4168 4.29688 12.457C5.02453 12.7586 5.68523 13.2009 6.24219 13.7578C6.79914 14.3148 7.24145 14.9755 7.54297 15.7031C7.8445 16.4311 8 17.2121 8 18C8 18.7879 7.8445 19.5689 7.54297 20.2969C7.24145 21.0245 6.79914 21.6852 6.24219 22.2422C5.68523 22.7991 5.02453 23.2414 4.29688 23.543C4.19995 23.5831 4.09867 23.6135 4 23.6484V25C4 26.6569 5.34315 28 7 28H12V24H14V28H16V30H7C4.23858 30 2 27.7614 2 25V22C2.52529 22 3.04595 21.8963 3.53125 21.6953C4.01635 21.4943 4.45682 21.1994 4.82812 20.8281C5.19943 20.4568 5.4943 20.0163 5.69531 19.5312C5.89633 19.0459 6 18.5253 6 18C6 17.4747 5.89633 16.9541 5.69531 16.4688C5.4943 15.9837 5.19943 15.5432 4.82812 15.1719C4.45682 14.8006 4.01635 14.5057 3.53125 14.3047C3.04595 14.1037 2.52529 14 2 14V11C2 8.23858 4.23858 6 7 6H29Z" fill="currentColor"/>
<path d="M14 20H12V16H14V20Z" fill="currentColor"/>
</svg>
