<svg width="36" height="36" viewBox="0 0 36 36" fill="none" xmlns="http://www.w3.org/2000/svg">
<path fill-rule="evenodd" clip-rule="evenodd" d="M18 4C14.6863 4 12 6.68629 12 10V16H27C28.6569 16 30 17.3431 30 19V31C30 32.6569 28.6569 34 27 34H9C7.34314 34 6 32.6569 6 31V19C6 17.3431 7.34315 16 9 16H10V10C10 5.58172 13.5817 2 18 2C22.4183 2 26 5.58172 26 10H24C24 6.68629 21.3137 4 18 4ZM9 18C8.44772 18 8 18.4477 8 19V31C8 31.5523 8.44772 32 9 32H27C27.5523 32 28 31.5523 28 31V19C28 18.4477 27.5523 18 27 18H9Z" fill="currentColor"/>
</svg>
