<svg width="36" height="36" viewBox="0 0 36 36" fill="none" xmlns="http://www.w3.org/2000/svg">
<path fill-rule="evenodd" clip-rule="evenodd" d="M3.70601 2.29297L33.7061 32.2929L32.2918 33.7071L24.4399 25.8552L21.7753 33.2701C21.1677 34.9609 18.8121 35.0553 18.0711 33.4186L13.2447 22.7578L2.47485 17.9295C0.83101 17.1926 0.923064 14.8284 2.61922 14.2214L10.1216 11.5369L2.29179 3.70718L3.70601 2.29297ZM11.686 13.1013L3.29302 16.1045L13.7797 20.8058L16.5851 18.0004L11.686 13.1013ZM17.9993 19.4147L15.1958 22.2181L19.8931 32.5937L22.8765 24.2918L17.9993 19.4147Z" fill="currentColor"/>
<path d="M31.0245 7.53145L25.934 21.6974L24.3706 20.134L29.1424 6.85509L15.8485 11.6119L14.2841 10.0475L28.4686 4.97201C30.0597 4.40267 31.596 5.94108 31.0245 7.53145Z" fill="currentColor"/>
</svg>
