<svg width="36" height="36" viewBox="0 0 36 36" fill="none" xmlns="http://www.w3.org/2000/svg">
<path fill-rule="evenodd" clip-rule="evenodd" d="M6 12C8.20914 12 10 10.2091 10 8C10 5.79086 8.20914 4 6 4C3.79086 4 2 5.79086 2 8C2 10.2091 3.79086 12 6 12ZM14 8H21C22.6569 8 24 9.34315 24 11V13.6C24 14.5889 25.1289 15.1533 25.92 14.56L32 10V26L25.92 21.44C25.1289 20.8467 24 21.4112 24 22.4V25C24 26.6569 22.6569 28 21 28H7C5.34315 28 4 26.6569 4 25V16H2V25C2 27.7614 4.23858 30 7 30H21C23.7614 30 26 27.7614 26 25V24L30.8 27.6C32.1185 28.5889 34 27.6481 34 26V10C34 8.35191 32.1185 7.41115 30.8 8.4L26 12V11C26 8.23858 23.7614 6 21 6H14V8ZM12.377 12.6211C11.3106 12.0286 10 12.7997 10 14.0197V21.9803C10 23.2003 11.3106 23.9714 12.377 23.3789L19.5416 19.3987C20.6388 18.789 20.6388 17.211 19.5416 16.6013L12.377 12.6211ZM17.9409 18L12 21.3005V14.6995L17.9409 18Z" fill="currentColor"/>
</svg>
