<svg width="36" height="36" viewBox="0 0 36 36" fill="none" xmlns="http://www.w3.org/2000/svg">
<path fill-rule="evenodd" clip-rule="evenodd" d="M7 6C4.23858 6 2 8.23858 2 11V18H4V11C4 9.34315 5.34315 8 7 8H21C22.6569 8 24 9.34315 24 11V14.5592C24 15.5902 25.2143 16.1413 25.9902 15.4623L32 10.2038V26L25.92 21.44C25.1289 20.8467 24 21.4112 24 22.4V25C24 26.6569 22.6569 28 21 28H20V30H21C23.7614 30 26 27.7614 26 25V24L30.8 27.6C32.1185 28.5889 34 27.6481 34 26V10.2038C34 8.48546 31.9762 7.56709 30.683 8.69861L26 12.7962V11C26 8.23858 23.7614 6 21 6H7ZM14 22C12.9357 22 12.0655 22.8314 12.0035 23.8802L9.01694 25.3735C8.28363 24.5319 7.20393 24 6 24C3.79086 24 2 25.7909 2 28C2 30.2091 3.79086 32 6 32C7.20393 32 8.28363 31.4681 9.01694 30.6265L12.0035 32.1198C12.0655 33.1686 12.9357 34 14 34C15.1046 34 16 33.1046 16 32C16 30.8954 15.1046 30 14 30C13.5927 30 13.2138 30.1218 12.8978 30.3309L9.91208 28.838C9.96968 28.5678 10 28.2874 10 28C10 27.7126 9.96968 27.4322 9.91208 27.162L12.8978 25.6691C13.2138 25.8782 13.5927 26 14 26C15.1046 26 16 25.1046 16 24C16 22.8954 15.1046 22 14 22ZM4 28C4 26.8954 4.89543 26 6 26C7.10457 26 8 26.8954 8 28C8 29.1046 7.10457 30 6 30C4.89543 30 4 29.1046 4 28Z" fill="currentColor"/>
</svg>
