<svg width="36" height="36" viewBox="0 0 36 36" fill="none" xmlns="http://www.w3.org/2000/svg">
<g clip-path="url(#clip0_1812_181)">
<path fill-rule="evenodd" clip-rule="evenodd" d="M2 14.668C2 17.5684 3.57277 20.2181 6.00341 21.9727C6.21787 22.1159 6.32511 22.3307 6.32511 22.6172C6.32511 22.6888 6.28936 22.7962 6.28936 22.8679C6.11064 23.584 5.78894 24.7656 5.75319 24.8014C5.71745 24.9089 5.6817 24.9805 5.6817 25.0879C5.6817 25.3027 5.86043 25.4818 6.07489 25.4818C6.14638 25.4818 6.21787 25.446 6.28936 25.4102L8.82724 23.9421C9.00596 23.8346 9.22043 23.763 9.4349 23.763C9.54213 23.763 9.68511 23.763 9.79234 23.7988C10.9719 24.1569 12.2587 24.3359 13.5813 24.3359C19.9796 24.3359 25.1626 20.0033 25.1626 14.668C25.1626 9.33268 19.9796 5 13.5813 5C7.18298 5 2 9.33268 2 14.668Z" fill="url(#paint0_linear_1812_181)"/>
<path fill-rule="evenodd" clip-rule="evenodd" d="M24.3739 30.0262C25.4793 30.0262 26.5491 29.8819 27.5119 29.5933C27.5832 29.5572 27.6901 29.5572 27.7971 29.5572C27.9754 29.5572 28.1537 29.6293 28.2963 29.7015L30.4002 30.9281C30.4715 30.9642 30.5072 31.0002 30.5785 31.0002C30.7568 31.0002 30.8994 30.8559 30.8994 30.6756C30.8994 30.6034 30.8638 30.5313 30.8638 30.423C30.8638 30.3869 30.5785 29.4129 30.4359 28.7996C30.4002 28.7274 30.4002 28.6553 30.4002 28.5831C30.4002 28.3667 30.5072 28.1863 30.6855 28.042C32.718 26.5628 34.0017 24.3622 34.0017 21.909C34.0017 17.4355 29.687 13.7918 24.3739 13.7918C19.0608 13.7918 14.7461 17.3994 14.7461 21.909C14.7461 26.3825 19.0608 30.0262 24.3739 30.0262Z" fill="url(#paint1_linear_1812_181)"/>
<path fill-rule="evenodd" clip-rule="evenodd" d="M11.2091 11.5467C11.2091 12.3819 10.5515 13.0431 9.72078 13.0431C8.89007 13.0431 8.23242 12.3819 8.23242 11.5467C8.23242 10.7115 8.89007 10.0503 9.72078 10.0503C10.5515 10.0503 11.2091 10.7115 11.2091 11.5467Z" fill="#187E28"/>
<path fill-rule="evenodd" clip-rule="evenodd" d="M18.9298 11.5467C18.9298 12.3819 18.2722 13.0431 17.4415 13.0431C16.6108 13.0431 15.9531 12.3819 15.9531 11.5467C15.9531 10.7115 16.6108 10.0503 17.4415 10.0503C18.2722 10.0503 18.9298 10.7115 18.9298 11.5467Z" fill="#187E28"/>
<path fill-rule="evenodd" clip-rule="evenodd" d="M26.373 19.403C26.373 20.1304 26.9519 20.7124 27.6754 20.7124C28.3989 20.7124 28.9777 20.1304 28.9777 19.403C28.9777 18.6756 28.3989 18.0937 27.6754 18.0937C26.9519 18.0937 26.373 18.6756 26.373 19.403Z" fill="#858C8C"/>
<path fill-rule="evenodd" clip-rule="evenodd" d="M19.9531 19.403C19.9531 20.1304 20.5319 20.7124 21.2554 20.7124C21.9789 20.7124 22.5577 20.1304 22.5577 19.403C22.5577 18.6756 21.9789 18.0937 21.2554 18.0937C20.5319 18.0937 19.9531 18.6756 19.9531 19.403Z" fill="#858C8C"/>
</g>
<defs>
<linearGradient id="paint0_linear_1812_181" x1="13.5941" y1="24.2837" x2="13.5941" y2="5.08941" gradientUnits="userSpaceOnUse">
<stop stop-color="#78D431"/>
<stop offset="1" stop-color="#9EEE69"/>
</linearGradient>
<linearGradient id="paint1_linear_1812_181" x1="24.391" y1="29.8877" x2="24.391" y2="13.7856" gradientUnits="userSpaceOnUse">
<stop stop-color="#E4E6E6"/>
<stop offset="1" stop-color="#F5F5FF"/>
</linearGradient>
<clipPath id="clip0_1812_181">
<rect width="18" height="18" fill="white" transform="scale(2)"/>
</clipPath>
</defs>
</svg>
