<svg width="36" height="36" viewBox="0 0 36 36" fill="none" xmlns="http://www.w3.org/2000/svg">
<path d="M2 12.0828C2 9.14973 4.12324 6.67388 7.04618 6.43073C9.74963 6.20583 13.4632 6 18 6C22.5368 6 26.2504 6.20583 28.9538 6.43073C31.8768 6.67388 34 9.14973 34 12.0828V23.9172C34 26.8503 31.8768 29.3261 28.9538 29.5693C26.2504 29.7942 22.5368 30 18 30C13.4632 30 9.74963 29.7942 7.04619 29.5693C4.12325 29.3261 2 26.8503 2 23.9172V12.0828Z" fill="white"/>
<path fill-rule="evenodd" clip-rule="evenodd" d="M7.04618 6.43073C4.12324 6.67388 2 9.14973 2 12.0828V23.9172C2 26.8503 4.12325 29.3261 7.04619 29.5693C9.74963 29.7942 13.4632 30 18 30C22.5368 30 26.2504 29.7942 28.9538 29.5693C31.8768 29.3261 34 26.8503 34 23.9172V12.0828C34 9.14973 31.8768 6.67388 28.9538 6.43073C26.2504 6.20583 22.5368 6 18 6C13.4632 6 9.74963 6.20583 7.04618 6.43073ZM23.0913 18.0003L14.7277 23.0651V12.9352L23.0913 18.0003Z" fill="#FF0000"/>
</svg>
