<svg width="36" height="36" viewBox="0 0 36 36" fill="none" xmlns="http://www.w3.org/2000/svg">
<path fill-rule="evenodd" clip-rule="evenodd" d="M32 10.9082C32 8.78586 29.8564 7.33458 27.8858 8.12282L18.5502 11.8571C18.314 11.9516 18.0619 12.0001 17.8074 12.0001H9C7.67392 12.0001 6.40215 12.5269 5.46447 13.4646C4.52678 14.4023 4 15.674 4 17.0001C4 18.3262 4.52678 19.598 5.46447 20.5357C6.40215 21.4733 7.67392 22.0001 9 22.0001H10.5815L15.9917 31.5055L14.2535 32.4948L9.41854 24.0001H9C7.14348 24.0001 5.36301 23.2626 4.05025 21.9499C2.7375 20.6371 2 18.8566 2 17.0001C2 15.1436 2.7375 13.3631 4.05025 12.0504C5.36301 10.7376 7.14348 10.0001 9 10.0001L17.8074 10.0001L27.143 6.26587C30.4274 4.95214 34 7.37093 34 10.9082V23.092C34 26.6293 30.4274 29.0481 27.143 27.7344L17.8074 24.0001H16V22.0001H17.8074C18.0619 22.0001 18.314 22.0487 18.5502 22.1432L27.8858 25.8774C29.8564 26.6657 32 25.2144 32 23.092V10.9082Z" fill="currentColor"/>
</svg>
