<svg width="36" height="36" viewBox="0 0 36 36" fill="none" xmlns="http://www.w3.org/2000/svg">
<path fill-rule="evenodd" clip-rule="evenodd" d="M18 4C10.268 4 4 10.268 4 18C4 25.732 10.268 32 18 32C25.732 32 32 25.732 32 18C32 10.268 25.732 4 18 4ZM2 18C2 9.16344 9.16344 2 18 2C26.8366 2 34 9.16344 34 18C34 26.8366 26.8366 34 18 34C9.16344 34 2 26.8366 2 18ZM19 7V10H24V12H14V17H22C23.1046 17 24 17.8954 24 19V24C24 25.1046 23.1046 26 22 26H19V29H17V26H12V24H22V19H14C12.8954 19 12 18.1046 12 17V12C12 10.8954 12.8954 10 14 10H17V7H19Z" fill="currentColor"/>
</svg>
