<svg width="36" height="36" viewBox="0 0 36 36" fill="none" xmlns="http://www.w3.org/2000/svg">
<path fill-rule="evenodd" clip-rule="evenodd" d="M14 20C14 18.8954 14.8954 18 16 18H20C21.1046 18 22 18.8954 22 20V24C22 25.1046 21.1046 26 20 26H16C14.8954 26 14 25.1046 14 24V20ZM16 20H20V24H16V20Z" fill="currentColor"/>
<path fill-rule="evenodd" clip-rule="evenodd" d="M7 6C4.23858 6 2 8.23858 2 11V25C2 27.7614 4.23858 30 7 30H29C31.7614 30 34 27.7614 34 25V11C34 8.23858 31.7614 6 29 6H7ZM4 11C4 9.34315 5.34315 8 7 8H29C30.6569 8 32 9.34315 32 11V25C32 26.6569 30.6569 28 29 28H7C5.34315 28 4 26.6569 4 25V11Z" fill="currentColor"/>
</svg>
