<svg width="36" height="36" viewBox="0 0 36 36" fill="none" xmlns="http://www.w3.org/2000/svg">
<path d="M26 9C26 7.34315 27.3431 6 29 6H31C32.6569 6 34 7.34315 34 9V27C34 28.6569 32.6569 30 31 30H29C27.3431 30 26 28.6569 26 27V9Z" fill="currentColor"/>
<path d="M14 13C14 11.3431 15.3431 10 17 10H19C20.6569 10 22 11.3431 22 13V27C22 28.6569 20.6569 30 19 30H17C15.3431 30 14 28.6569 14 27V13Z" fill="currentColor"/>
<path d="M5 14C3.34315 14 2 15.3431 2 17V27C2 28.6569 3.34315 30 5 30H7C8.65685 30 10 28.6569 10 27V17C10 15.3431 8.65685 14 7 14H5Z" fill="currentColor"/>
</svg>
