<svg width="36" height="36" viewBox="0 0 36 36" fill="none" xmlns="http://www.w3.org/2000/svg">
<path fill-rule="evenodd" clip-rule="evenodd" d="M29 6C27.3431 6 26 7.34315 26 9V27C26 28.6569 27.3431 30 29 30H31C32.6569 30 34 28.6569 34 27V9C34 7.34315 32.6569 6 31 6H29ZM31 8H29C28.4477 8 28 8.44772 28 9V27C28 27.5523 28.4477 28 29 28H31C31.5523 28 32 27.5523 32 27V9C32 8.44772 31.5523 8 31 8Z" fill="currentColor"/>
<path fill-rule="evenodd" clip-rule="evenodd" d="M17 10C15.3431 10 14 11.3431 14 13V27C14 28.6569 15.3431 30 17 30H19C20.6569 30 22 28.6569 22 27V13C22 11.3431 20.6569 10 19 10H17ZM19 12H17C16.4477 12 16 12.4477 16 13V27C16 27.5523 16.4477 28 17 28H19C19.5523 28 20 27.5523 20 27V13C20 12.4477 19.5523 12 19 12Z" fill="currentColor"/>
<path fill-rule="evenodd" clip-rule="evenodd" d="M2 17C2 15.3431 3.34315 14 5 14H7C8.65685 14 10 15.3431 10 17V27C10 28.6569 8.65685 30 7 30H5C3.34315 30 2 28.6569 2 27V17ZM5 16H7C7.55228 16 8 16.4477 8 17V27C8 27.5523 7.55228 28 7 28H5C4.44772 28 4 27.5523 4 27V17C4 16.4477 4.44772 16 5 16Z" fill="currentColor"/>
</svg>
