<svg width="36" height="36" viewBox="0 0 36 36" fill="none" xmlns="http://www.w3.org/2000/svg">
<path fill-rule="evenodd" clip-rule="evenodd" d="M11 12C8.23858 12 6 14.2386 6 17C6 19.7614 8.23858 22 11 22C13.7614 22 16 19.7614 16 17C16 14.2386 13.7614 12 11 12ZM4 17C4 13.134 7.13401 10 11 10C14.866 10 18 13.134 18 17C18 20.866 14.866 24 11 24C7.13401 24 4 20.866 4 17ZM23 24C21.3431 24 20 25.3431 20 27C20 28.6569 21.3431 30 23 30C24.6569 30 26 28.6569 26 27C26 25.3431 24.6569 24 23 24ZM18 27C18 24.2386 20.2386 22 23 22C25.7614 22 28 24.2386 28 27C28 29.7614 25.7614 32 23 32C20.2386 32 18 29.7614 18 27Z" fill="currentColor"/>
<path d="M26 16C29.3137 16 32 13.3137 32 10C32 6.68629 29.3137 4 26 4C22.6863 4 20 6.68629 20 10C20 13.3137 22.6863 16 26 16Z" fill="currentColor"/>
</svg>
