<svg width="36" height="36" viewBox="0 0 36 36" fill="none" xmlns="http://www.w3.org/2000/svg">
<path fill-rule="evenodd" clip-rule="evenodd" d="M12.3009 12.3013H4.30088V10.3013H8.88676L3.29297 4.70714L4.70722 3.29297L10.3009 8.88695V4.30126H12.3009V12.3013ZM28.0001 3.99999C25.791 3.99999 24.0001 5.79086 24.0001 7.99999C24.0001 8.74184 24.202 9.43652 24.554 10.032L21.4767 13.1093C20.4959 12.4108 19.296 12 18.0001 12C14.6864 12 12.0001 14.6863 12.0001 18C12.0001 19.2959 12.4109 20.4958 13.1094 21.4766L10.0321 24.5539C9.43661 24.2019 8.74194 24 8.0001 24C5.79096 24 4.0001 25.7909 4.0001 28C4.0001 30.2091 5.79096 32 8.0001 32C10.2092 32 12.0001 30.2091 12.0001 28C12.0001 27.2582 11.7982 26.5636 11.4463 25.9681L14.5236 22.8908C15.5044 23.5892 16.7043 24 18.0001 24C19.2959 24 20.4957 23.5892 21.4765 22.8908L23.293 24.7071L24.7071 23.2929L22.8907 21.4767C23.5893 20.4958 24.0001 19.2959 24.0001 18C24.0001 16.7042 23.5893 15.5043 22.8909 14.5235L25.9682 11.4462C26.5637 11.7981 27.2583 12 28.0001 12C30.2092 12 32.0001 10.2091 32.0001 7.99999C32.0001 5.79086 30.2092 3.99999 28.0001 3.99999ZM26.0001 7.99999C26.0001 6.89542 26.8955 5.99999 28.0001 5.99999C29.1047 5.99999 30.0001 6.89542 30.0001 7.99999C30.0001 9.10456 29.1047 9.99999 28.0001 9.99999C26.8955 9.99999 26.0001 9.10456 26.0001 7.99999ZM22.0001 18C22.0001 20.2091 20.2092 22 18.0001 22C15.791 22 14.0001 20.2091 14.0001 18C14.0001 15.7909 15.791 14 18.0001 14C20.2092 14 22.0001 15.7909 22.0001 18ZM8.0001 26C6.89553 26 6.0001 26.8954 6.0001 28C6.0001 29.1046 6.89553 30 8.0001 30C9.10467 30 10.0001 29.1046 10.0001 28C10.0001 26.8954 9.10467 26 8.0001 26ZM28 24V28H24V30H28V34H30V30H34V28H30V24H28Z" fill="currentColor"/>
</svg>
