<svg width="36" height="36" viewBox="0 0 36 36" fill="none" xmlns="http://www.w3.org/2000/svg">
<path d="M4.30088 12.3013H12.3009V4.30126H10.3009V8.88695L4.70722 3.29297L3.29297 4.70714L8.88676 10.3013H4.30088V12.3013Z" fill="currentColor"/>
<path fill-rule="evenodd" clip-rule="evenodd" d="M24.0001 7.99999C24.0001 5.79086 25.791 3.99999 28.0001 3.99999C30.2092 3.99999 32.0001 5.79086 32.0001 7.99999C32.0001 10.2091 30.2092 12 28.0001 12C27.2583 12 26.5637 11.7981 25.9682 11.4462L22.8909 14.5235C23.5893 15.5043 24.0001 16.7042 24.0001 18C24.0001 19.2959 23.5893 20.4959 22.8907 21.4767L25.9681 24.5539C26.5636 24.2019 27.2583 24 28.0001 24C30.2092 24 32.0001 25.7909 32.0001 28C32.0001 30.2091 30.2092 32 28.0001 32C25.791 32 24.0001 30.2091 24.0001 28C24.0001 27.2582 24.202 26.5636 24.5539 25.9681L21.4764 22.8909C20.4957 23.5893 19.2958 24 18.0001 24C16.7043 24 15.5044 23.5892 14.5236 22.8908L11.4463 25.9681C11.7982 26.5636 12.0001 27.2582 12.0001 28C12.0001 30.2091 10.2092 32 8.0001 32C5.79096 32 4.0001 30.2091 4.0001 28C4.0001 25.7909 5.79096 24 8.0001 24C8.74194 24 9.43661 24.2019 10.0321 24.5539L13.1094 21.4766C12.4109 20.4958 12.0001 19.2959 12.0001 18C12.0001 14.6863 14.6864 12 18.0001 12C19.296 12 20.4959 12.4108 21.4767 13.1093L24.554 10.032C24.202 9.43652 24.0001 8.74184 24.0001 7.99999ZM28.0001 5.99999C26.8955 5.99999 26.0001 6.89542 26.0001 7.99999C26.0001 9.10456 26.8955 9.99999 28.0001 9.99999C29.1047 9.99999 30.0001 9.10456 30.0001 7.99999C30.0001 6.89542 29.1047 5.99999 28.0001 5.99999ZM18.0001 22C20.2092 22 22.0001 20.2091 22.0001 18C22.0001 15.7909 20.2092 14 18.0001 14C15.791 14 14.0001 15.7909 14.0001 18C14.0001 20.2091 15.791 22 18.0001 22ZM28.0001 26C26.8955 26 26.0001 26.8954 26.0001 28C26.0001 29.1046 26.8955 30 28.0001 30C29.1047 30 30.0001 29.1046 30.0001 28C30.0001 26.8954 29.1047 26 28.0001 26ZM6.0001 28C6.0001 26.8954 6.89553 26 8.0001 26C9.10467 26 10.0001 26.8954 10.0001 28C10.0001 29.1046 9.10467 30 8.0001 30C6.89553 30 6.0001 29.1046 6.0001 28Z" fill="currentColor"/>
</svg>
