<svg width="36" height="36" viewBox="0 0 36 36" fill="none" xmlns="http://www.w3.org/2000/svg">
<path fill-rule="evenodd" clip-rule="evenodd" d="M4 8C4 5.79086 5.79086 4 8 4C10.2091 4 12 5.79086 12 8C12 8.74188 11.798 9.43659 11.4461 10.0321L14.5233 13.1094C15.5041 12.4108 16.7041 12 18 12C19.2958 12 20.4957 12.4108 21.4765 13.1093L24.5538 10.032C24.2019 9.43646 24 8.74181 24 8C24 5.79086 25.7909 4 28 4C30.2091 4 32 5.79086 32 8C32 10.2091 30.2091 12 28 12C27.2582 12 26.5636 11.7981 25.968 11.4462L22.8908 14.5235C23.5892 15.5043 24 16.7042 24 18C24 19.2959 23.5892 20.4958 22.8907 21.4767L25.968 24.5538C26.5635 24.2019 27.2582 24 28 24C30.2091 24 32 25.7909 32 28C32 30.2091 30.2091 32 28 32C25.7909 32 24 30.2091 24 28C24 27.2582 24.2019 26.5635 24.5538 25.968L21.4764 22.8908C20.4956 23.5892 19.2958 24 18 24C16.7042 24 15.5043 23.5892 14.5235 22.8908L11.4462 25.968C11.7981 26.5635 12 27.2582 12 28C12 30.2091 10.2091 32 8 32C5.79086 32 4 30.2091 4 28C4 25.7909 5.79086 24 8 24C8.74181 24 9.43645 24.2019 10.032 24.5538L13.1093 21.4765C12.4108 20.4957 12 19.2958 12 18C12 16.7042 12.4107 15.5044 13.1091 14.5236L10.0318 11.4463C9.43631 11.7981 8.74173 12 8 12C5.79086 12 4 10.2091 4 8ZM8 6C6.89543 6 6 6.89543 6 8C6 9.10457 6.89543 10 8 10C9.10457 10 10 9.10457 10 8C10 6.89543 9.10457 6 8 6ZM22 18C22 20.2091 20.2091 22 18 22C15.7909 22 14 20.2091 14 18C14 15.7909 15.7909 14 18 14C20.2091 14 22 15.7909 22 18ZM6 28C6 26.8954 6.89543 26 8 26C9.10457 26 10 26.8954 10 28C10 29.1046 9.10457 30 8 30C6.89543 30 6 29.1046 6 28ZM28 6C26.8954 6 26 6.89543 26 8C26 9.10457 26.8954 10 28 10C29.1046 10 30 9.10457 30 8C30 6.89543 29.1046 6 28 6ZM26 28C26 26.8954 26.8954 26 28 26C29.1046 26 30 26.8954 30 28C30 29.1046 29.1046 30 28 30C26.8954 30 26 29.1046 26 28Z" fill="currentColor"/>
</svg>
