<svg width="36" height="36" viewBox="0 0 36 36" fill="none" xmlns="http://www.w3.org/2000/svg">
<path d="M28.4598 12.228C28.2858 12.363 25.2135 14.0942 25.2135 17.9436C25.2135 22.396 29.1229 23.9712 29.2399 24.0102C29.2219 24.1062 28.6188 26.1674 27.1787 28.2676C25.8946 30.1158 24.5534 31.961 22.5132 31.961C20.473 31.961 19.948 30.7759 17.5927 30.7759C15.2975 30.7759 14.4814 32 12.6152 32C10.749 32 9.44692 30.2898 7.94977 28.1896C6.21559 25.7234 4.81445 21.892 4.81445 18.2556C4.81445 12.423 8.60683 9.32973 12.3392 9.32973C14.3224 9.32973 15.9756 10.6319 17.2207 10.6319C18.4058 10.6319 20.254 9.25173 22.5102 9.25173C23.3653 9.25173 26.4376 9.32973 28.4598 12.228ZM21.4391 6.78248C22.3722 5.67537 23.0323 4.13921 23.0323 2.60306C23.0323 2.39004 23.0143 2.17402 22.9753 2C21.4571 2.05701 19.6509 3.0111 18.5618 4.27423C17.7067 5.24632 16.9087 6.78248 16.9087 8.33963C16.9087 8.57366 16.9477 8.80768 16.9657 8.88269C17.0617 8.90069 17.2177 8.92169 17.3737 8.92169C18.7358 8.92169 20.449 8.0096 21.4391 6.78248Z" fill="currentColor"/>
</svg>
