<svg width="36" height="36" viewBox="0 0 36 36" fill="none" xmlns="http://www.w3.org/2000/svg">
<path fill-rule="evenodd" clip-rule="evenodd" d="M4 4C4 2.89543 4.89543 2 6 2H12C13.1046 2 14 2.89543 14 4V6H26C27.5913 6 29.1174 6.63214 30.2426 7.75736C31.3679 8.88258 32 10.4087 32 12C32 13.5913 31.3679 15.1174 30.2426 16.2426C29.1174 17.3679 27.5913 18 26 18V16C27.0609 16 28.0783 15.5786 28.8284 14.8284C29.5786 14.0783 30 13.0609 30 12C30 10.9391 29.5786 9.92172 28.8284 9.17157C28.0783 8.42143 27.0609 8 26 8H14V10C14 11.1046 13.1046 12 12 12H6C4.89543 12 4 11.1046 4 10V4ZM12 4H6V10H12V4Z" fill="currentColor"/>
<path fill-rule="evenodd" clip-rule="evenodd" d="M22 26C22 24.8954 22.8954 24 24 24H30C31.1046 24 32 24.8954 32 26V32C32 33.1046 31.1046 34 30 34H24C22.8954 34 22 33.1046 22 32V30H10C8.4087 30 6.88258 29.3679 5.75736 28.2426C4.63214 27.1174 4 25.5913 4 24C4 22.4087 4.63214 20.8826 5.75736 19.7574C6.88258 18.6321 8.4087 18 10 18V20C8.93913 20 7.92172 20.4214 7.17157 21.1716C6.42143 21.9217 6 22.9391 6 24C6 25.0609 6.42143 26.0783 7.17157 26.8284C7.92172 27.5786 8.93913 28 10 28H22V26ZM30 26H24V32H30V26Z" fill="currentColor"/>
<path fill-rule="evenodd" clip-rule="evenodd" d="M23 18C23 20.7614 20.7614 23 18 23C15.2386 23 13 20.7614 13 18C13 15.2386 15.2386 13 18 13C20.7614 13 23 15.2386 23 18ZM21 18C21 19.6569 19.6569 21 18 21C16.3431 21 15 19.6569 15 18C15 16.3431 16.3431 15 18 15C19.6569 15 21 16.3431 21 18Z" fill="currentColor"/>
</svg>
