<svg width="36" height="36" viewBox="0 0 36 36" fill="none" xmlns="http://www.w3.org/2000/svg">
<path fill-rule="evenodd" clip-rule="evenodd" d="M15 6C14.4477 6 14 6.44771 14 7V10H28V7C28 6.44771 27.5523 6 27 6H15ZM14 12V27C14 29.7614 11.7614 32 9 32C6.23858 32 4 29.7614 4 27C4 24.2386 6.23858 22 9 22C10.1256 22 11.1643 22.3719 12 22.9996V7C12 5.34314 13.3431 4 15 4H27C28.6569 4 30 5.34314 30 7V27C30 29.7614 27.7614 32 25 32C22.2386 32 20 29.7614 20 27C20 24.2386 22.2386 22 25 22C26.1256 22 27.1643 22.3719 28 22.9996V12H14ZM28 27C28 25.3431 26.6569 24 25 24C23.3431 24 22 25.3431 22 27C22 28.6569 23.3431 30 25 30C26.6569 30 28 28.6569 28 27ZM12 27C12 25.3431 10.6569 24 9 24C7.34315 24 6 25.3431 6 27C6 28.6569 7.34315 30 9 30C10.6569 30 12 28.6569 12 27Z" fill="currentColor"/>
</svg>
