<svg width="36" height="36" viewBox="0 0 36 36" fill="none" xmlns="http://www.w3.org/2000/svg">
<path d="M21.5654 4.47739C18.5705 3.67915 15.3944 3.88626 12.53 5.06641C9.67563 6.24248 7.29058 8.31899 5.74114 10.9746L5.23141 12H10V14H2V6H4V9.99014C5.77076 6.94336 8.50133 4.5632 11.7681 3.21722C15.0377 1.87011 18.6624 1.63384 22.0805 2.54485C25.4986 3.45587 28.52 5.46359 30.6755 8.25778C32.8311 11.0521 34 14.4765 34 18H32C32 14.9195 30.9781 11.9244 29.0919 9.47938C27.2057 7.03424 24.5603 5.27561 21.5654 4.47739Z" fill="currentColor"/>
<path d="M4 18C4 21.0805 5.02186 24.0756 6.90802 26.5206C8.79424 28.9658 11.4396 30.7244 14.4345 31.5226C17.4295 32.3209 20.6056 32.1137 23.4699 30.9336C26.3243 29.7575 28.7094 27.681 30.2588 25.0254L30.7686 24H26V22H34V30H32V26.0098C30.2292 29.0566 27.4986 31.4368 24.2318 32.7828C20.9623 34.1299 17.3375 34.3662 13.9195 33.4552C10.5014 32.5441 7.47994 30.5364 5.32445 27.7422C3.16888 24.9479 2 21.5235 2 18H4Z" fill="currentColor"/>
<path fill-rule="evenodd" clip-rule="evenodd" d="M16 10C14.3431 10 13 11.3431 13 13V26H15V20H21V26H23V13C23 11.3431 21.6569 10 20 10H16ZM21 18H15V13C15 12.4477 15.4477 12 16 12H20C20.5523 12 21 12.4477 21 13V18Z" fill="currentColor"/>
</svg>
