<svg width="36" height="36" viewBox="0 0 36 36" fill="none" xmlns="http://www.w3.org/2000/svg">
<path d="M26.3683 10.0738C25.2162 9.8335 25.0845 10.4182 25.5454 11.4834C28.154 17.09 25.8334 22.5605 23.3482 23.9221C23.3054 23.7408 23.2833 23.5554 23.2824 23.3694C22.9861 20.7103 21.9493 18.3956 21.2498 18.3956C20.6902 18.3956 21.0359 20.6702 20.8877 22.6806C19.9661 22.152 19.4065 21.7755 18.419 21.9437C17.0119 22.184 15.1274 25.0914 15.0698 24.6749C14.5103 21.311 15.8516 16.1369 17.7113 15.5843C17.9994 15.4721 18.5342 15.9046 19.6369 16.3131C20.5174 16.6415 20.4105 15.7845 20.0072 15.4641C19.3635 15.0113 18.6027 14.7422 17.8105 14.687C17.0182 14.6318 16.2259 14.7928 15.5224 15.1518C12.7246 16.4813 11.4573 22.5364 12.9632 25.0113C13.2555 25.5109 13.6595 25.9402 14.1452 26.2673C14.6309 26.5945 15.1859 26.8113 15.7693 26.9016C17.6455 27.1098 18.238 26.7254 19.7275 24.9232C19.9371 25.0863 20.1818 25.2013 20.4434 25.2596C19.209 28.992 14.5925 32.1397 13.5968 31.6031C8.75818 28.3993 10.0995 18.1553 13.5145 9.17673C14.1512 7.5422 14.7006 5.87668 15.1604 4.18687C15.6706 1.78404 12.5271 1.28746 10.3711 3.06555C8.79933 4.36307 7.29342 7.34258 6.06729 10.8427C2.15851 21.9838 3.82077 31.3548 10.8154 33.3972C18.8634 35.7359 22.6981 30.8502 23.2906 25.9404C23.7817 26.0016 24.2769 26.0257 24.7718 26.0125C27.2405 25.9645 30.8037 24.715 31.857 19.4128C32.6552 15.4081 30.0137 10.7706 26.3683 10.0738Z" fill="#00BEF0"/>
</svg>
