<svg width="36" height="36" viewBox="0 0 36 36" fill="none" xmlns="http://www.w3.org/2000/svg">
<path fill-rule="evenodd" clip-rule="evenodd" d="M13.2099 4H8V2H13.2099C14.7386 2 16.0228 3.14941 16.1916 4.66871L16.5617 8H21.0225C21.0076 7.83519 21 7.66841 21 7.5C21 4.46243 23.4624 2 26.5 2C29.5376 2 32 4.46243 32 7.5C32 10.5376 29.5376 13 26.5 13C26.2201 13 25.9446 12.979 25.6753 12.9384L24.1494 31.2491C24.0198 32.804 22.72 34 21.1597 34H12.8403C11.28 34 9.9802 32.804 9.85063 31.2491L8.18396 11.2491C8.03821 9.50008 9.41848 8 11.1736 8H14.5494L14.2038 4.88957C14.1475 4.38314 13.7195 4 13.2099 4ZM14.7716 10H11.1736C10.5886 10 10.1285 10.5 10.1771 11.083L10.9201 20H15.8827L14.7716 10ZM17.895 20H23.0799L23.8229 11.083C23.8715 10.5 23.4114 10 22.8264 10H16.7839L17.895 20ZM22.9132 22H11.0868L11.8437 31.083C11.8869 31.6013 12.3202 32 12.8403 32H21.1597C21.6798 32 22.1131 31.6013 22.1563 31.083L22.9132 22ZM25.826 10.9354C26.0436 10.9777 26.2689 11 26.5 11C28.433 11 30 9.433 30 7.5C30 5.567 28.433 4 26.5 4C24.567 4 23 5.567 23 7.5C23 7.6726 23.0124 7.84191 23.0364 8.0072C24.5861 8.11395 25.7951 9.3934 25.826 10.9354Z" fill="currentColor"/>
</svg>
