<svg width="36" height="36" viewBox="0 0 36 36" fill="none" xmlns="http://www.w3.org/2000/svg">
<path fill-rule="evenodd" clip-rule="evenodd" d="M7 8C5.34315 8 4 9.34315 4 11V25C4 26.6569 5.34315 28 7 28H10V30H7C4.23858 30 2 27.7614 2 25V11C2 8.23858 4.23858 6 7 6H10V8H7ZM29 8H26V6H29C31.7614 6 34 8.23858 34 11V25C34 27.7614 31.7614 30 29 30H26V28H29C30.6569 28 32 26.6569 32 25V11C32 9.34315 30.6569 8 29 8ZM17 10V8H19V10H23V12H15V17H21C22.1046 17 23 17.8954 23 19V24C23 25.1046 22.1046 26 21 26H19V28H17V26H13V24H21V19H15C13.8954 19 13 18.1046 13 17V12C13 10.8954 13.8954 10 15 10H17Z" fill="currentColor"/>
</svg>
