<svg width="36" height="36" viewBox="0 0 36 36" fill="none" xmlns="http://www.w3.org/2000/svg">
<path fill-rule="evenodd" clip-rule="evenodd" d="M9.01038 5.57607C9.55711 5.02933 10.4435 5.02933 10.9903 5.57607L14.4145 9.00024H16.0002V11.0002H14.4146L8.4145 17.0004L18.4646 27.0505C20.4172 29.0031 23.5831 29.0031 25.5357 27.0505L27.8788 24.7073C28.2694 24.3168 28.2694 23.6837 27.8788 23.2931L23.293 18.7074L24.7073 17.2931L26.0002 18.5861L27.586 17.0003L21.586 11.0002H20.4145L14.5227 16.892L14.825 17.1187C16.0193 18.0145 17.6906 17.8957 18.7463 16.8401L21.2932 14.2931L22.7074 15.7074L20.1605 18.2543C18.401 20.0137 15.6156 20.2117 13.625 18.7187L12.7693 18.077C12.0877 17.5658 12.0169 16.5695 12.6193 15.967L19.176 9.41029C19.4386 9.14774 19.7947 9.00024 20.166 9.00024H21.5862L25.0103 5.57607C25.5571 5.02933 26.4435 5.02933 26.9902 5.57607L33.4245 12.0104C33.9713 12.5571 33.9713 13.4435 33.4245 13.9903L27.4144 20.0003L29.293 21.8789C30.4646 23.0505 30.4646 24.95 29.293 26.1216L26.9499 28.4647C24.5267 30.8879 20.7688 31.1631 18.0425 29.2903C15.4325 31.2899 11.6812 31.0956 9.29306 28.7074L6.70727 26.1216C5.5357 24.9501 5.5357 23.0506 6.70728 21.879L8.58598 20.0003L2.57607 13.9903C2.02933 13.4435 2.02933 12.5571 2.57607 12.0104L9.01038 5.57607ZM10.0002 21.4145L8.12149 23.2932C7.73096 23.6837 7.73096 24.3169 8.12149 24.7074L10.7073 27.2932C12.2832 28.8691 14.7075 29.0794 16.5099 27.9242L10.0002 21.4145ZM10.0003 7.41454L12.586 10.0002L7.0002 15.586L4.41454 13.0003L10.0003 7.41454ZM29.0003 15.5861L31.5861 13.0003L26.0003 7.41454L23.4145 10.0003L29.0003 15.5861Z" fill="currentColor"/>
</svg>
