<svg width="36" height="36" viewBox="0 0 36 36" fill="none" xmlns="http://www.w3.org/2000/svg">
<path d="M15 13C15 12.4477 15.4477 12 16 12H22V10H16C14.3431 10 13 11.3431 13 13V23C13 24.6569 14.3431 26 16 26H22V24H16C15.4477 24 15 23.5523 15 23V13Z" fill="currentColor"/>
<path fill-rule="evenodd" clip-rule="evenodd" d="M34 18C34 26.8366 26.8366 34 18 34C9.16344 34 2 26.8366 2 18C2 9.16344 9.16344 2 18 2C26.8366 2 34 9.16344 34 18ZM32 18C32 25.732 25.732 32 18 32C10.268 32 4 25.732 4 18C4 10.268 10.268 4 18 4C25.732 4 32 10.268 32 18Z" fill="currentColor"/>
</svg>
