<svg width="36" height="36" viewBox="0 0 36 36" fill="none" xmlns="http://www.w3.org/2000/svg">
<path d="M12.6425 5.06569C15.4897 3.88631 18.6466 3.6794 21.6235 4.47704L22.1411 2.54519C18.739 1.63359 15.1311 1.87007 11.8771 3.21793C8.62305 4.5658 5.90469 6.94973 4.14362 10C2.38254 13.0503 1.67717 16.5964 2.1369 20.0884C2.59664 23.5804 4.19578 26.8232 6.68631 29.3137C9.17685 31.8042 12.4196 33.4034 15.9116 33.8631C19.4036 34.3229 22.9498 33.6175 26 31.8564C29.0503 30.0953 31.4342 27.377 32.7821 24.1229C34.13 20.8689 34.3664 17.261 33.4548 13.8589L31.523 14.3765C32.3206 17.3534 32.1137 20.5103 30.9343 23.3576C29.7549 26.2049 27.669 28.5834 25 30.1244C22.331 31.6653 19.2282 32.2825 16.1727 31.8802C13.1171 31.478 10.2797 30.0787 8.10053 27.8995C5.92131 25.7203 4.52206 22.8829 4.11979 19.8274C3.71753 16.7719 4.33473 13.669 5.87567 11C7.41661 8.33102 9.79517 6.24508 12.6425 5.06569Z" fill="currentColor"/>
<path d="M28.0001 2V6.58579L17.293 17.2929L18.7072 18.7071L29.4143 8H34.0001V6H30.0001V2H28.0001Z" fill="currentColor"/>
<path d="M16.5858 16.5858C16.4001 16.7716 16.2528 16.992 16.1522 17.2347C16.0517 17.4773 16 17.7374 16 18.0001C16 18.2627 16.0517 18.5228 16.1522 18.7654C16.2528 19.0081 16.4001 19.2286 16.5858 19.4143C16.7715 19.6 16.992 19.7473 17.2346 19.8478C17.4773 19.9483 17.7374 20.0001 18 20.0001C18.2626 20.0001 18.5227 19.9483 18.7654 19.8478C19.008 19.7473 19.2285 19.6 19.4142 19.4143L20.8284 20.8285C20.457 21.1999 20.016 21.4946 19.5307 21.6956C19.0454 21.8966 18.5253 22.0001 18 22.0001C17.4747 22.0001 16.9546 21.8966 16.4693 21.6956C15.984 21.4946 15.543 21.1999 15.1716 20.8285C14.8001 20.4571 14.5055 20.0161 14.3045 19.5308C14.1035 19.0455 14 18.5253 14 18.0001C14 17.4748 14.1035 16.9546 14.3045 16.4693C14.5055 15.984 14.8001 15.5431 15.1716 15.1716L16.5858 16.5858Z" fill="currentColor"/>
<path d="M14.9385 10.609C16.5656 9.93503 18.3695 9.8168 20.0706 10.2726L20.5882 8.34075C18.4619 7.771 16.207 7.91879 14.1732 8.76121C12.1394 9.60362 10.4404 11.0936 9.33976 13C8.23909 14.9064 7.79823 17.1228 8.08557 19.3053C8.3729 21.4878 9.37236 23.5145 10.9289 25.0711C12.4855 26.6277 14.5122 27.6271 16.6947 27.9145C18.8773 28.2018 21.0936 27.7609 23 26.6603C24.9064 25.5596 26.3964 23.8606 27.2388 21.8268C28.0812 19.7931 28.229 17.5381 27.6593 15.4118L25.7274 15.9295C26.1832 17.6305 26.065 19.4345 25.391 21.0615C24.7171 22.6885 23.5251 24.0477 22 24.9282C20.4749 25.8087 18.7018 26.1614 16.9558 25.9316C15.2098 25.7017 13.5884 24.9021 12.3432 23.6569C11.0979 22.4116 10.2983 20.7902 10.0685 19.0442C9.83859 17.2982 10.1913 15.5251 11.0718 14C11.9523 12.4749 13.3115 11.2829 14.9385 10.609Z" fill="currentColor"/>
</svg>
