<svg width="36" height="36" viewBox="0 0 36 36" fill="none" xmlns="http://www.w3.org/2000/svg">
<path fill-rule="evenodd" clip-rule="evenodd" d="M10 10C9.68524 10 9.38885 10.1482 9.2 10.4L5 16H12V18H4V23C4 23.5523 4.44772 24 5 24H6.53513C7.22675 22.8044 8.51944 22 10 22C11.4806 22 12.7733 22.8044 13.4649 24H22.5351C23.2267 22.8044 24.5194 22 26 22C27.4806 22 28.7733 22.8044 29.4649 24H31C31.5523 24 32 23.5523 32 23V20.5311C32 19.0182 30.8734 17.742 29.3721 17.5543L25.2596 17.0402C24.7659 16.9785 24.3129 16.735 23.9891 16.3573L18.8394 10.3492C18.6494 10.1276 18.3721 10 18.0801 10H10ZM30 26C30 28.2091 28.2091 30 26 30C23.7909 30 22 28.2091 22 26H14C14 28.2091 12.2091 30 10 30C7.79086 30 6 28.2091 6 26H5C3.34315 26 2 24.6569 2 23V17.6667C2 17.0176 2.21053 16.386 2.6 15.8667L7.6 9.2C8.16656 8.44458 9.05573 8 10 8H18.0801C18.9559 8 19.788 8.38269 20.3579 9.04763L25.5077 15.0557L29.6202 15.5697C32.1223 15.8825 34 18.0095 34 20.5311V23C34 24.6569 32.6569 26 31 26H30ZM10 24C8.89543 24 8 24.8954 8 26C8 27.1046 8.89543 28 10 28C11.1046 28 12 27.1046 12 26C12 24.8954 11.1046 24 10 24ZM26 24C24.8954 24 24 24.8954 24 26C24 27.1046 24.8954 28 26 28C27.1046 28 28 27.1046 28 26C28 24.8954 27.1046 24 26 24Z" fill="currentColor"/>
</svg>
