<svg width="36" height="36" viewBox="0 0 36 36" fill="none" xmlns="http://www.w3.org/2000/svg">
<path fill-rule="evenodd" clip-rule="evenodd" d="M2 11C2 8.23858 4.23858 6 7 6H29C31.7614 6 34 8.23858 34 11V25C34 27.7614 31.7614 30 29 30H7C4.23858 30 2 27.7614 2 25V11ZM7 8C5.34315 8 4 9.34315 4 11V25C4 26.6569 5.34315 28 7 28H29C30.6569 28 32 26.6569 32 25V11C32 9.34315 30.6569 8 29 8H7ZM8 14C8 12.8954 8.89543 12 10 12H14C15.1046 12 16 12.8954 16 14V22C16 23.1046 15.1046 24 14 24H10C8.89543 24 8 23.1046 8 22V14ZM14 14H10V22H14V14ZM20 24V12H22V24H20ZM26 24V12H28V24H26Z" fill="currentColor"/>
</svg>
