<svg width="36" height="36" viewBox="0 0 36 36" fill="none" xmlns="http://www.w3.org/2000/svg">
<path d="M24 12C24 13.1046 23.1046 14 22 14C20.8954 14 20 13.1046 20 12C20 10.8954 20.8954 10 22 10C23.1046 10 24 10.8954 24 12Z" fill="currentColor"/>
<path fill-rule="evenodd" clip-rule="evenodd" d="M6 11C6 8.23858 8.23858 6 11 6H25C27.7614 6 30 8.23858 30 11V25C30 27.7614 27.7614 30 25 30H11C8.23858 30 6 27.7614 6 25V11ZM11 8C9.34315 8 8 9.34315 8 11V19L11.3721 14.5039C12.1885 13.4153 13.8302 13.4422 14.6105 14.557L20.0534 22.3325L22.3931 19.4078C23.2219 18.3719 24.8112 18.4152 25.5823 19.4948L28 22.8795V11C28 9.34315 26.6569 8 25 8H11ZM27.8096 26.054L23.9548 20.6572L21.6151 23.5819C20.7814 24.624 19.1803 24.5728 18.4149 23.4794L12.9721 15.7039L8 22.3333V25C8 26.6569 9.34315 28 11 28H25C26.286 28 27.383 27.1909 27.8096 26.054Z" fill="currentColor"/>
<path d="M2 26V10H4V26H2Z" fill="currentColor"/>
<path d="M32 26V10H34V26H32Z" fill="currentColor"/>
</svg>
