<svg width="36" height="36" viewBox="0 0 36 36" fill="none" xmlns="http://www.w3.org/2000/svg">
<path fill-rule="evenodd" clip-rule="evenodd" d="M6 26.0002L6 27.0002C6 28.6571 7.34314 30.0002 9 30.0002L32 30.0003V32.0003L9 32.0002C6.23857 32.0002 4 29.7617 4 27.0002V3.89795H6V6.00024H26C27.1046 6.00024 28 6.89567 28 8.00024V12.0002C28 13.1048 27.1046 14.0002 26 14.0002H6L6 18.0002H18C19.1046 18.0002 20 18.8957 20 20.0002V24.0002C20 25.1048 19.1046 26.0002 18 26.0002H6ZM6 20.0002V24.0002H18V20.0002L6 20.0002ZM6 8.00024V12.0002H26V8.00024H6Z" fill="currentColor"/>
</svg>
