<svg width="36" height="36" viewBox="0 0 36 36" fill="none" xmlns="http://www.w3.org/2000/svg">
<path fill-rule="evenodd" clip-rule="evenodd" d="M11.8771 3.21792C13.8183 2.41385 15.8989 2 18 2C20.1012 2 22.1817 2.41385 24.1229 3.21793C26.0641 4.022 27.828 5.20055 29.3137 6.68629C30.7994 8.17203 31.978 9.93586 32.7821 11.8771C33.5861 13.8183 34 15.8989 34 18C34 20.1012 33.5861 22.1817 32.7821 24.1229C31.978 26.0641 30.7994 27.828 29.3137 29.3137C27.828 30.7994 26.0641 31.978 24.1229 32.7821C22.1817 33.5861 20.1011 34 18 34C15.8988 34 13.8183 33.5861 11.8771 32.7821C9.93585 31.978 8.17202 30.7994 6.68629 29.3137C5.20055 27.828 4.022 26.0641 3.21792 24.1229C2.41385 22.1817 2 20.1011 2 18C2 15.8988 2.41385 13.8183 3.21793 11.8771C4.02201 9.93585 5.20056 8.17202 6.6863 6.68629C8.17204 5.20055 9.93586 4.022 11.8771 3.21792ZM12.6424 5.06568C14.0323 4.48999 15.5038 4.1429 17 4.03576V11.0718C16.4247 11.1548 15.8607 11.3094 15.3212 11.5328C14.4719 11.8846 13.7003 12.4002 13.0503 13.0503C12.4002 13.7003 11.8846 14.4719 11.5328 15.3212C11.1811 16.1705 11 17.0807 11 18C11 18.9193 11.1811 19.8295 11.5328 20.6788C11.8846 21.5281 12.4002 22.2997 13.0503 22.9497C13.7003 23.5998 14.4719 24.1154 15.3212 24.4672C16.1705 24.8189 17.0807 25 18 25C18.9193 25 19.8295 24.8189 20.6788 24.4672C21.2182 24.2437 21.7263 23.9542 22.1919 23.6061L27.1671 28.5813C26.0334 29.5635 24.7474 30.3586 23.3576 30.9343C21.659 31.6379 19.8385 32 18 32C16.1615 32 14.341 31.6379 12.6424 30.9343C10.9439 30.2307 9.40052 29.1995 8.1005 27.8995C6.80048 26.5995 5.76925 25.0561 5.06568 23.3576C4.36212 21.659 4 19.8385 4 18C4 16.1615 4.36212 14.341 5.06569 12.6424C5.76926 10.9439 6.80049 9.40052 8.10051 8.1005C9.40053 6.80048 10.9439 5.76925 12.6424 5.06568ZM23.6061 22.1919L24 22.5858L31.6586 14.9272C31.4834 14.1482 31.2414 13.3837 30.9343 12.6424C30.7272 12.1424 30.4917 11.6558 30.2293 11.185L24.851 16.5633C24.9498 17.0346 25 17.5161 25 18C25 18.9193 24.8189 19.8295 24.4672 20.6788C24.2437 21.2182 23.9542 21.7263 23.6061 22.1919ZM24.0708 14.515L29.1076 9.47821C28.7362 8.99412 28.3328 8.5338 27.8995 8.10051C27.4662 7.66723 27.0059 7.26381 26.5218 6.89242L21.4851 11.9292C22.0195 12.236 22.5122 12.6127 22.9497 13.0503C23.3873 13.4878 23.764 13.9806 24.0708 14.515ZM19.4369 11.1491L24.8151 5.77075C24.3442 5.50833 23.8576 5.27281 23.3576 5.06569C21.9677 4.48999 20.4962 4.1429 19 4.03576V11.0718C19.1464 11.0929 19.2921 11.1187 19.4369 11.1491ZM18 13C17.3434 13 16.6932 13.1293 16.0866 13.3806C15.48 13.6319 14.9288 14.0002 14.4645 14.4645C14.0002 14.9288 13.6319 15.48 13.3806 16.0866C13.1293 16.6932 13 17.3434 13 18C13 18.6566 13.1293 19.3068 13.3806 19.9134C13.6319 20.52 14.0002 21.0712 14.4645 21.5355C14.9288 21.9998 15.48 22.3681 16.0866 22.6194C16.6932 22.8707 17.3434 23 18 23C18.6566 23 19.3068 22.8707 19.9134 22.6194C20.52 22.3681 21.0712 21.9998 21.5355 21.5355C21.9998 21.0712 22.3681 20.52 22.6194 19.9134C22.8707 19.3068 23 18.6566 23 18C23 17.3434 22.8707 16.6932 22.6194 16.0866C22.3681 15.48 21.9998 14.9288 21.5355 14.4645C21.0712 14.0002 20.52 13.6319 19.9134 13.3806C19.3068 13.1293 18.6566 13 18 13ZM25.4142 24L31.9882 17.426C31.9961 17.6171 32 17.8084 32 18C32 19.8385 31.6379 21.659 30.9343 23.3576C30.3586 24.7474 29.5635 26.0334 28.5813 27.1671L25.4142 24Z" fill="currentColor"/>
</svg>
