<svg width="36" height="36" viewBox="0 0 36 36" fill="none" xmlns="http://www.w3.org/2000/svg">
<path fill-rule="evenodd" clip-rule="evenodd" d="M9 4C6.23858 4 4 6.23858 4 9V27C4 29.7614 6.23858 32 9 32H11C13.7614 32 16 29.7614 16 27V9C16 6.23858 13.7614 4 11 4H9ZM6 9C6 7.34315 7.34315 6 9 6H11C12.6569 6 14 7.34315 14 9V27C14 28.6569 12.6569 30 11 30H9C7.34315 30 6 28.6569 6 27V9ZM25 4C22.2386 4 20 6.23858 20 9V18H22V9C22 7.34315 23.3431 6 25 6H27C28.6569 6 30 7.34315 30 9V16H32V9C32 6.23858 29.7614 4 27 4H25ZM26 20V22.1C25.3616 22.2296 24.7674 22.4808 24.2426 22.8284L22.7574 21.3432L21.3432 22.7574L22.8284 24.2426C22.4808 24.7674 22.2296 25.3616 22.1 26H20V28H22.1C22.2296 28.6384 22.4808 29.2326 22.8284 29.7574L21.3431 31.2427L22.7573 32.6569L24.2426 31.1716C24.7674 31.5192 25.3616 31.7704 26 31.9V34H28V31.9C28.6384 31.7704 29.2326 31.5192 29.7574 31.1716L31.2427 32.6569L32.6569 31.2427L31.1716 29.7574C31.5192 29.2326 31.7704 28.6384 31.9 28H34V26H31.9C31.7704 25.3616 31.5192 24.7674 31.1716 24.2426L32.6568 22.7574L31.2426 21.3432L29.7574 22.8284C29.2326 22.4808 28.6384 22.2296 28 22.1V20H26ZM24 27C24 25.3431 25.3431 24 27 24C28.6569 24 30 25.3431 30 27C30 28.6569 28.6569 30 27 30C25.3431 30 24 28.6569 24 27Z" fill="currentColor"/>
</svg>
