<svg width="36" height="36" viewBox="0 0 36 36" fill="none" xmlns="http://www.w3.org/2000/svg">
<path fill-rule="evenodd" clip-rule="evenodd" d="M26 6C23.7909 6 22 7.79086 22 10C22 12.2091 23.7909 14 26 14C28.2091 14 30 12.2091 30 10C30 7.79086 28.2091 6 26 6ZM20 10C20 6.68629 22.6863 4 26 4C29.3137 4 32 6.68629 32 10C32 13.3137 29.3137 16 26 16C22.6863 16 20 13.3137 20 10ZM4 6H11C13.7614 6 16 8.23858 16 11V30.6C16 31.3732 15.3732 32 14.6 32H9C6.23858 32 4 29.7614 4 27V12H6V27C6 28.6569 7.34315 30 9 30H14V11C14 9.34315 12.6569 8 11 8H4V6ZM23 22C21.3431 22 20 23.3431 20 25V30H25C26.6569 30 28 28.6569 28 27V26H30V27C30 29.7614 27.7614 32 25 32H19.2C18.5373 32 18 31.4627 18 30.8V25C18 22.2386 20.2386 20 23 20H30V22H23Z" fill="currentColor"/>
</svg>
