<svg width="36" height="36" viewBox="0 0 36 36" fill="none" xmlns="http://www.w3.org/2000/svg">
<path fill-rule="evenodd" clip-rule="evenodd" d="M12 10C7.58172 10 4 13.5817 4 18C4 22.4183 7.58172 26 12 26C16.4183 26 20 22.4183 20 18C20 13.5817 16.4183 10 12 10ZM2 18C2 12.4772 6.47715 8 12 8C17.5228 8 22 12.4772 22 18C22 23.5228 17.5228 28 12 28C6.47715 28 2 23.5228 2 18Z" fill="currentColor"/>
<path d="M21.9986 27.7997C24.4739 25.2745 26.0003 21.8155 26.0003 18C26.0003 14.1845 24.4739 10.7255 21.9986 8.20032C22.6452 8.06896 23.3146 8 24 8C29.5229 8 34 12.4772 34 18C34 23.5228 29.5229 28 24 28C23.3146 28 22.6452 27.931 21.9986 27.7997Z" fill="currentColor"/>
</svg>
