<svg width="36" height="36" viewBox="0 0 36 36" fill="none" xmlns="http://www.w3.org/2000/svg">
<path fill-rule="evenodd" clip-rule="evenodd" d="M25.0581 12.314L32.8362 4.5358L31.422 3.12158L23.6438 10.8998L20.8289 8.08487C20.4384 7.69431 19.8052 7.69435 19.4147 8.08494L14.4655 13.0352L13.0507 11.6203L11.6365 13.0345L13.0507 14.4487L8.10095 19.3985C7.71042 19.789 7.71042 20.4222 8.10095 20.8127L10.9147 23.6265L3.13672 31.405L4.55098 32.8191L12.3289 25.0407L15.172 27.8838C15.5625 28.2743 16.1957 28.2743 16.5862 27.8838L21.536 22.934L22.9502 24.3482L24.3644 22.934L22.9508 21.5204L27.9001 16.5701C28.2905 16.1795 28.2905 15.5464 27.9 15.1559L25.0581 12.314ZM21.5366 20.1062L25.7788 15.8631L20.1219 10.2063L15.8797 14.4494L21.5366 20.1062ZM20.1218 21.5198L14.4649 15.863L10.2223 20.1056L15.8791 25.7625L20.1218 21.5198Z" fill="currentColor"/>
<path d="M12.4076 10.2834L9.9076 5.95324L11.6396 4.95324L14.1396 9.28336L12.4076 10.2834Z" fill="currentColor"/>
<path d="M21.8763 26.7219L24.3763 31.052L26.1084 30.052L23.6084 25.7219L21.8763 26.7219Z" fill="currentColor"/>
<path d="M9.2846 14.1042L4.95447 11.6042L5.95447 9.87219L10.2846 12.3722L9.2846 14.1042Z" fill="currentColor"/>
<path d="M25.724 23.6023L30.0541 26.1023L31.0541 24.3702L26.724 21.8702L25.724 23.6023Z" fill="currentColor"/>
</svg>
