<svg width="36" height="36" viewBox="0 0 36 36" fill="none" xmlns="http://www.w3.org/2000/svg">
<path fill-rule="evenodd" clip-rule="evenodd" d="M9 4C6.23858 4 4 6.23858 4 9V27C4 29.7614 6.23858 32 9 32H20V30H9C7.34315 30 6 28.6569 6 27V9C6 7.34315 7.34315 6 9 6H27C28.6569 6 30 7.34315 30 9V20H32V9C32 6.23858 29.7614 4 27 4H9ZM10 8C8.89543 8 8 8.89543 8 10V12C8 13.1046 8.89543 14 10 14H12C13.1046 14 14 13.1046 14 12V10C14 8.89543 13.1046 8 12 8H10ZM10 10H12V12H10V10ZM16 12L28 12V10L16 10V12ZM20 26V24H8V26H20ZM32.2932 24.293L29.0001 27.5859L25.7072 24.293L24.293 25.7072L27.5859 29.0001L24.293 32.293L25.7072 33.7072L29.0001 30.4143L32.293 33.7072L33.7072 32.293L30.4143 29.0001L33.7074 25.7072L32.2932 24.293Z" fill="currentColor"/>
</svg>
