<svg width="36" height="36" viewBox="0 0 36 36" fill="none" xmlns="http://www.w3.org/2000/svg">
<path fill-rule="evenodd" clip-rule="evenodd" d="M4 8C4 5.79086 5.79086 4 8 4H12C14.2091 4 16 5.79086 16 8V12C16 14.2091 14.2091 16 12 16H8C5.79086 16 4 14.2091 4 12V8ZM8 6C6.89543 6 6 6.89543 6 8V12C6 13.1046 6.89543 14 8 14H12C13.1046 14 14 13.1046 14 12V8C14 6.89543 13.1046 6 12 6H8ZM4 24C4 21.7909 5.79086 20 8 20H12C14.2091 20 16 21.7909 16 24V28C16 30.2091 14.2091 32 12 32H8C5.79086 32 4 30.2091 4 28V24ZM8 22C6.89543 22 6 22.8954 6 24V28C6 29.1046 6.89543 30 8 30H12C13.1046 30 14 29.1046 14 28V24C14 22.8954 13.1046 22 12 22H8ZM20 24C20 21.7909 21.7909 20 24 20H28C30.2091 20 32 21.7909 32 24V28C32 30.2091 30.2091 32 28 32H24C21.7909 32 20 30.2091 20 28V24ZM24 22C22.8954 22 22 22.8954 22 24V28C22 29.1046 22.8954 30 24 30H28C29.1046 30 30 29.1046 30 28V24C30 22.8954 29.1046 22 28 22H24Z" fill="#0038E5"/>
<path fill-rule="evenodd" clip-rule="evenodd" d="M30 4H26C24.8954 4 24 4.89543 24 6V10C24 11.1046 24.8954 12 26 12H30C31.1046 12 32 11.1046 32 10V6C32 4.89543 31.1046 4 30 4ZM26 2C23.7909 2 22 3.79086 22 6V10C22 12.2091 23.7909 14 26 14H30C32.2091 14 34 12.2091 34 10V6C34 3.79086 32.2091 2 30 2H26Z" fill="#F57E02"/>
</svg>
