<svg width="36" height="36" viewBox="0 0 36 36" fill="none" xmlns="http://www.w3.org/2000/svg">
<path d="M6.35687 15.4536H18.0027C18.3515 15.4539 18.6966 15.5258 19.0165 15.6649C19.3365 15.8041 19.6244 16.0074 19.8626 16.2623C20.1008 16.5173 20.2841 16.8184 20.4012 17.1471C20.5182 17.4758 20.5666 17.825 20.5433 18.1731C20.4843 18.8275 20.1805 19.4355 19.6927 19.8755C19.2049 20.3155 18.569 20.5551 17.9121 20.5464H15.0892V25.4741H17.8802C19.877 25.472 21.7913 24.6777 23.2033 23.2655C24.6152 21.8533 25.4094 19.9386 25.4115 17.9414C25.4094 15.9443 24.6152 14.0295 23.2033 12.6173C21.7913 11.2051 19.877 10.4108 17.8802 10.4087H4.00001V13.0963C4.00001 13.7215 4.24833 14.3211 4.69033 14.7631C5.13232 15.2052 5.73179 15.4536 6.35687 15.4536Z" fill="currentColor"/>
<path d="M8.43147 28.9235L13.4914 31.9441V20.605L8.43147 23.6282V28.9235Z" fill="currentColor"/>
<path d="M6.83357 27.9673V24.5818L4.00001 26.2759L6.83357 27.9673Z" fill="currentColor"/>
<path d="M18.0027 4H4V8.81051H17.8802C20.3005 8.81333 22.6209 9.77625 24.3323 11.488C26.0438 13.1998 27.0065 15.5206 27.0093 17.9414C27.0065 20.3622 26.0438 22.683 24.3323 24.3948C22.6209 26.1066 20.3005 27.0695 17.8802 27.0723H15.0892V32H17.7656C25.4328 32 31.8509 25.9349 31.9973 18.2717C32.0313 16.4113 31.6945 14.5627 31.0067 12.8338C30.3188 11.1049 29.2936 9.53029 27.991 8.20183C26.6883 6.87338 25.1342 5.81765 23.4193 5.09624C21.7044 4.37483 19.8631 4.00217 18.0027 4Z" fill="currentColor"/>
</svg>
