<svg width="36" height="36" viewBox="0 0 36 36" fill="none" xmlns="http://www.w3.org/2000/svg">
<path fill-rule="evenodd" clip-rule="evenodd" d="M9 6C5.13401 6 2 9.13401 2 13V18H4V13C4 10.2386 6.23858 8 9 8H27C29.7614 8 32 10.2386 32 13V23C32 25.7614 29.7614 28 27 28H26V30H27C30.866 30 34 26.866 34 23V13C34 9.13401 30.866 6 27 6H9ZM19.4142 28H18V30H18.5858L23.2929 34.7071L24.7071 33.2929L19.4142 28ZM18 20C20.2091 20 22 18.2091 22 16C22 13.7909 20.2091 12 18 12C15.7909 12 14 13.7909 14 16C14 18.2091 15.7909 20 18 20ZM18 18C19.1046 18 20 17.1046 20 16C20 14.8954 19.1046 14 18 14C16.8954 14 16 14.8954 16 16C16 17.1046 16.8954 18 18 18ZM19.0001 23H18.0002V21H19.0001C21.7615 21 24.0001 23.2386 24.0001 26H22.0001C22.0001 24.3431 20.657 23 19.0001 23ZM4 27C4 24.2386 6.23858 22 9 22C11.7614 22 14 24.2386 14 27C14 29.7614 11.7614 32 9 32C7.98106 32 7.0333 31.6952 6.24293 31.1718L3.4337 33.9809L2.01953 32.5666L4.82861 29.7577C4.30496 28.9672 4 28.0192 4 27ZM9 24C7.34315 24 6 25.3431 6 27C6 28.6569 7.34315 30 9 30C10.6569 30 12 28.6569 12 27C12 25.3431 10.6569 24 9 24Z" fill="currentColor"/>
</svg>
