<svg width="36" height="36" viewBox="0 0 36 36" fill="none" xmlns="http://www.w3.org/2000/svg">
<path fill-rule="evenodd" clip-rule="evenodd" d="M4.57976 14C4.20255 15.2674 4 16.6101 4 18C4 25.0529 9.21541 30.8878 16 31.8582L16 27.4142L13 24.4142C12.219 23.6332 12.2189 22.3668 13 21.5858L15.4776 19.1082L8.66667 14H4.57976ZM5.34726 12H8.66667C9.09941 12 9.52047 12.1404 9.86667 12.4L16.6776 17.5082C17.6513 18.2385 17.7524 19.6618 16.8918 20.5224L14.4142 23L17.4142 26C17.7893 26.3751 18 26.8838 18 27.4142V32C20.1688 32 22.2225 31.5068 24.0549 30.6265L25.9015 21.3933L16.222 13.4737C15.3062 12.7244 15.2376 11.3482 16.0742 10.5115L18 8.58579C18.3751 8.21071 18.8838 8 19.4142 8L25.382 8L26.0942 6.57563C23.8089 4.95356 21.0158 4 18 4C12.4152 4 7.59419 7.27011 5.34726 12ZM27.6767 7.88261L27.1708 8.89443C26.832 9.57199 26.1395 10 25.382 10L19.4142 10L17.4885 11.9258L27.168 19.8454C27.7406 20.3139 28.0078 21.0601 27.8627 21.7855L26.376 29.219C29.7901 26.666 32 22.5911 32 18C32 14.0219 30.3408 10.4314 27.6767 7.88261ZM2 18C2 9.16344 9.16344 2 18 2C26.8366 2 34 9.16344 34 18C34 26.8366 26.8366 34 18 34C9.16344 34 2 26.8366 2 18Z" fill="currentColor"/>
</svg>
