<svg width="36" height="36" viewBox="0 0 36 36" fill="none" xmlns="http://www.w3.org/2000/svg">
<path fill-rule="evenodd" clip-rule="evenodd" d="M2.75628 4.1724L31.0406 32.4567L32.4548 31.0425L21.4137 20.0013L30.5295 10.8855C32.4821 8.93289 32.4821 5.76707 30.5295 3.81445L30.1863 3.4713C28.2337 1.51868 25.0679 1.51868 23.1153 3.4713L13.9994 12.5871L4.17049 2.75818L2.75628 4.1724ZM29.1153 9.4713C30.2868 8.29973 30.2868 6.40023 29.1153 5.22866L28.7721 4.88552C27.6006 3.71394 25.7011 3.71394 24.5295 4.88552L21.4142 8.0008L26 12.5866L29.1153 9.4713ZM24.5858 14.0008L20 9.41501L15.4137 14.0014L19.9994 18.5871L24.5858 14.0008Z" fill="currentColor"/>
<path d="M18.5869 22.8281L17.1727 21.4139L8.58578 30.0008L4 30.0008L4.00001 25.415L12.5869 16.8281L11.1727 15.4139L2 24.5866V32.0008L9.41421 32.0008L18.5869 22.8281Z" fill="currentColor"/>
</svg>
