<svg width="36" height="36" viewBox="0 0 36 36" fill="none" xmlns="http://www.w3.org/2000/svg">
<path fill-rule="evenodd" clip-rule="evenodd" d="M26.8789 19.707C28.0504 18.5358 29.9496 18.5358 31.1211 19.707L32.293 20.8789C33.4644 22.0504 33.4643 23.9495 32.293 25.1211L23.4141 34H18V28.5859L26.8789 19.707ZM29.707 21.1211C29.3166 20.7309 28.6834 20.7309 28.293 21.1211L20 29.4141V32H22.5859L30.8789 23.707C31.2692 23.3165 31.2693 22.6834 30.8789 22.293L29.707 21.1211Z" fill="currentColor"/>
<path d="M11.877 3.21875C15.1308 1.87096 18.7387 1.6335 22.1406 2.54492L21.6231 4.47656C18.6464 3.67909 15.4897 3.8871 12.6426 5.06641C9.79538 6.2458 7.41592 8.33107 5.87501 11C4.33419 13.6689 3.7169 16.7727 4.11915 19.8281C4.52153 22.8834 5.92057 25.7213 8.09962 27.9004C9.75157 29.5523 11.7833 30.753 14 31.4141V33.4902C11.2443 32.7786 8.71466 31.3436 6.68555 29.3145C4.19504 26.8239 2.59646 23.5799 2.13673 20.0879C1.67714 16.5961 2.38356 13.0501 4.14454 10C5.90554 6.95006 8.62325 4.56659 11.877 3.21875Z" fill="currentColor"/>
<path d="M14.1738 8.76172C16.2073 7.91951 18.4619 7.7703 20.5879 8.33984L20.0703 10.2734C18.3695 9.81771 16.5663 9.93568 14.9395 10.6094C13.3125 11.2833 11.9528 12.475 11.0723 14C10.1917 15.5251 9.8385 17.2989 10.0684 19.0449C10.2984 20.7907 11.0987 22.4111 12.3438 23.6562C12.8408 24.1533 13.3991 24.5767 14 24.9238V27.1621C12.8623 26.6654 11.8191 25.9597 10.9297 25.0703C9.37312 23.5137 8.37328 21.4872 8.08594 19.3047C7.79875 17.1224 8.23927 14.9063 9.33985 13C10.4405 11.0936 12.1401 9.60413 14.1738 8.76172Z" fill="currentColor"/>
<path d="M16.5859 16.5859C16.4003 16.7716 16.2529 16.9918 16.1524 17.2344C16.0518 17.477 16 17.7374 16 18C16 18.2626 16.0518 18.523 16.1524 18.7656C16.2529 19.0082 16.4003 19.2284 16.5859 19.4141C16.7716 19.5997 16.9918 19.7472 17.2344 19.8477C17.477 19.9482 17.7374 20 18 20C18.2626 20 18.523 19.9482 18.7656 19.8477C19.0082 19.7472 19.2284 19.5997 19.4141 19.4141L20.8281 20.8281C20.4568 21.1994 20.0163 21.4943 19.5313 21.6953C19.046 21.8963 18.5253 22 18 22C17.4747 22 16.9541 21.8963 16.4688 21.6953C15.9837 21.4943 15.5432 21.1994 15.1719 20.8281C14.8006 20.4568 14.5057 20.0163 14.3047 19.5312C14.1037 19.0459 14 18.5253 14 18C14 17.4747 14.1037 16.954 14.3047 16.4688C14.5057 15.9837 14.8006 15.5432 15.1719 15.1719L16.5859 16.5859Z" fill="currentColor"/>
<path d="M30 6H34V8H29.4141L18.707 18.707L17.293 17.293L28 6.58594V2H30V6Z" fill="currentColor"/>
</svg>
