<svg width="36" height="36" viewBox="0 0 36 36" fill="none" xmlns="http://www.w3.org/2000/svg">
<path d="M9.25216 10.7482C5.24679 10.7482 2 13.9941 2 17.9985C2 22.003 5.24679 25.2489 9.25216 25.2489H10.7461V10.7482H9.25216Z" fill="#42C9F2"/>
<path d="M26.7478 10.7482H25.2522V25.2489H26.7478C30.7532 25.2489 34 22.003 34 17.9985C34 13.9941 30.7532 10.7482 26.7478 10.7482Z" fill="#6666FF"/>
<path d="M25.2522 9.25035C25.2522 5.24593 22.0054 2 18 2C13.9946 2 10.7478 5.24593 10.7478 9.25035V10.7482H25.2522V9.25035Z" fill="#42C9F2"/>
<path d="M10.9715 28.4853C11.9279 32.3698 15.8524 34.7443 19.7382 33.7886C22.9807 32.991 25.2582 30.0813 25.2522 26.7433V25.248H14.2105L10.9706 28.4861L10.9715 28.4853Z" fill="#6666FF"/>
<path d="M10.7487 10.7482V26.7433C10.7513 27.3315 10.8252 27.9171 10.9706 28.487L14.2105 25.248H25.2522V10.7482H10.7487Z" fill="#000066"/>
</svg>
