<svg width="36" height="36" viewBox="0 0 36 36" fill="none" xmlns="http://www.w3.org/2000/svg">
<path fill-rule="evenodd" clip-rule="evenodd" d="M13.0503 4.05025C14.363 2.7375 16.1435 2 18 2C19.8565 2 21.637 2.7375 22.9497 4.05025C24.2625 5.36301 25 7.14349 25 9V11H27C28.8565 11 30.637 11.7375 31.9497 13.0503C33.2625 14.363 34 16.1435 34 18C34 19.8565 33.2625 21.637 31.9497 22.9497C30.637 24.2625 28.8565 25 27 25H25V27C25 28.8565 24.2625 30.637 22.9497 31.9497C21.637 33.2625 19.8565 34 18 34C16.1435 34 14.363 33.2625 13.0503 31.9497C11.9954 30.8949 11.312 29.5381 11.0842 28.0825C11.0285 27.7265 11 27.3647 11 27V25H9C7.14348 25 5.36301 24.2625 4.05025 22.9497C2.7375 21.637 2 19.8565 2 18C2 16.1435 2.7375 14.363 4.05025 13.0503C5.36301 11.7375 7.14348 11 9 11H11V9C11 7.14348 11.7375 5.36301 13.0503 4.05025ZM11 13H9C7.67392 13 6.40215 13.5268 5.46447 14.4645C4.52678 15.4021 4 16.6739 4 18C4 19.3261 4.52678 20.5979 5.46447 21.5355C6.40215 22.4732 7.67392 23 9 23H11V13ZM13 13H23V23H15.5858L13 25.5858V13ZM13.1599 28.2543C13.3817 29.1102 13.8286 29.8997 14.4645 30.5355C15.4021 31.4732 16.6739 32 18 32C19.3261 32 20.5979 31.4732 21.5355 30.5355C22.4732 29.5979 23 28.3261 23 27V25H16.4142L13.1599 28.2543ZM25 23H27C28.3261 23 29.5979 22.4732 30.5355 21.5355C31.4732 20.5979 32 19.3261 32 18C32 16.6739 31.4732 15.4021 30.5355 14.4645C29.5979 13.5268 28.3261 13 27 13H25V23ZM23 11H13V9C13 7.67392 13.5268 6.40215 14.4645 5.46447C15.4021 4.52678 16.6739 4 18 4C19.3261 4 20.5979 4.52678 21.5355 5.46447C22.4732 6.40215 23 7.67392 23 9V11Z" fill="currentColor"/>
</svg>
