<svg width="36" height="36" viewBox="0 0 36 36" fill="none" xmlns="http://www.w3.org/2000/svg">
<g clip-path="url(#clip0_896_27)">
<path d="M30.6872 7.76783C30.5671 7.70776 30.4269 7.74781 30.3668 7.78786C27.6837 9.50987 25.6213 9.24957 23.4988 8.88915C21.7768 8.60882 18.9935 7.84793 16.2303 6.90682C13.2468 5.90565 10.043 5.72544 7.45999 6.40624C6.37872 6.68657 5.73797 6.96689 5.07719 7.26725C4.87696 7.36736 4.3964 7.60765 3.95588 8.2484C3.59546 8.76901 3.67555 9.58997 3.67555 9.58997L3.85576 12.173C3.87579 12.173 3.89581 12.153 3.89581 12.153C4.6567 11.7125 6.97942 10.471 8.44113 10.0906C10.3033 9.58997 12.7662 9.75015 15.0088 10.511C17.9923 11.5122 20.9358 12.3132 22.878 12.6335C23.5388 12.7537 24.6201 13.3744 25.8816 13.3544C27.3633 13.3344 29.1454 12.6135 31.1077 11.6924L30.8674 7.96807C30.8474 7.98809 30.8274 7.8279 30.6872 7.76783Z" fill="#FF3F65"/>
<path d="M31.0644 11.2326C30.9243 11.2727 30.7841 11.3528 30.6439 11.4328C27.9608 13.1549 25.618 13.0547 23.4956 12.6943C21.7735 12.414 18.9903 11.6531 16.227 10.712C13.2435 9.71083 10.0398 9.53062 7.45677 10.2114C6.27539 10.5318 4.89377 11.1525 3.8125 11.6931L4.09283 15.858C5.01391 15.3374 7.07632 14.2562 8.43792 13.8957C10.3001 13.3951 12.763 13.5553 15.0056 14.3162C17.9891 15.3174 20.9326 16.1183 22.8748 16.4387C23.5356 16.5589 24.6169 17.1796 25.8783 17.1596C27.4202 17.1395 29.2823 16.3987 31.3448 15.3775L31.0644 11.2326Z" fill="#FF8D10"/>
<path d="M31.33 14.9555C31.0898 14.9955 30.8695 15.0957 30.6493 15.2158C27.9661 16.9378 25.6234 16.8377 23.5009 16.4773C21.7789 16.197 18.9956 15.4361 16.2324 14.495C13.2489 13.4938 10.0451 13.3136 7.46209 13.9944C6.38082 14.2747 5.11934 14.8354 4.07812 15.3359L4.35845 19.4808C5.35963 18.9402 7.20178 17.9991 8.44324 17.6787C10.3054 17.1781 12.7683 17.3383 15.0109 18.0992C17.9944 19.1004 20.9379 19.9013 22.8801 20.2217C23.5409 20.3418 24.6222 20.9625 25.8837 20.9425C27.5056 20.9225 29.4478 20.1416 31.5904 19.0203L31.33 14.9555Z" fill="#FFD65D"/>
<path d="M31.5703 18.7201C31.29 18.7402 30.9896 18.8403 30.7293 19.0005C28.0462 20.7225 25.7034 20.6224 23.5809 20.2619C21.8589 19.9816 19.0756 19.2207 16.3124 18.2796C13.3289 17.2785 10.1252 17.0982 7.54214 17.779C6.50092 18.0594 5.31953 18.56 4.31836 19.0405L4.59869 23.1654C5.63991 22.6047 7.3419 21.7437 8.52329 21.4433C10.3855 20.9427 12.8484 21.1029 15.091 21.8638C18.0745 22.865 21.0179 23.6659 22.9602 23.9863C23.621 24.1065 24.6221 24.9675 25.8836 24.9474C27.5255 24.9274 29.628 23.9062 31.8306 22.7248L31.5703 18.7201Z" fill="#00C14F"/>
<path d="M31.8305 22.5051C31.4501 22.485 31.0696 22.5851 30.7292 22.8054C28.0461 24.5274 25.7034 24.4273 23.5809 24.0669C21.8589 23.7866 19.0756 23.0257 16.3124 22.0846C13.3289 21.0834 10.1251 20.9032 7.54209 21.584C6.60099 21.8443 5.51972 22.2848 4.55859 22.7453L4.83892 26.8702C5.88014 26.3095 7.44197 25.5686 8.52324 25.2683C10.3854 24.7677 12.8483 24.9279 15.0909 25.6888C18.0744 26.69 21.0179 27.4909 22.9601 27.8113C23.6209 27.9314 24.8223 28.5722 26.0838 28.5722C27.8058 28.5521 29.7881 27.7112 32.0908 26.4096L31.8305 22.5051Z" fill="#2B7EFF"/>
<path d="M32.0879 26.3503C31.6273 26.2702 31.1468 26.3503 30.7263 26.6106C28.0431 28.3326 25.7004 28.2325 23.5779 27.8721C21.8559 27.5917 19.0726 26.8308 16.3094 25.8897C13.3259 24.8886 10.1221 24.7084 7.5391 25.3891C6.6781 25.6094 5.71697 26.0099 4.83594 26.4103L5.0562 29.6341C5.07622 30.0546 5.51673 30.2949 5.89718 30.1147C6.77821 29.6942 7.77939 29.2537 8.54028 29.0534C10.4025 28.5529 12.8653 28.713 15.108 29.4739C18.0915 30.4751 21.0349 31.276 22.9772 31.5964C23.638 31.7166 24.6592 31.8767 25.9407 31.8567C27.5826 31.8367 29.645 31.5163 31.8476 30.3349C32.168 30.1547 32.3482 29.8143 32.3281 29.4539L32.0879 26.3503Z" fill="#805FC6"/>
</g>
<defs>
<clipPath id="clip0_896_27">
<rect width="18" height="18" fill="white" transform="scale(2)"/>
</clipPath>
</defs>
</svg>
