<svg width="36" height="36" viewBox="0 0 36 36" fill="none" xmlns="http://www.w3.org/2000/svg">
<path fill-rule="evenodd" clip-rule="evenodd" d="M4 18C4 10.268 10.268 4 18 4C25.732 4 32 10.268 32 18C32 25.732 25.732 32 18 32C10.268 32 4 25.732 4 18ZM18 2C9.16344 2 2 9.16344 2 18C2 26.8366 9.16344 34 18 34C26.8366 34 34 26.8366 34 18C34 9.16344 26.8366 2 18 2ZM12 16C13.1046 16 14 15.1046 14 14C14 12.8954 13.1046 12 12 12C10.8954 12 10 12.8954 10 14C10 15.1046 10.8954 16 12 16ZM26 14C26 15.1046 25.1046 16 24 16C22.8954 16 22 15.1046 22 14C22 12.8954 22.8954 12 24 12C25.1046 12 26 12.8954 26 14ZM24.3507 25.1337C24.4394 25.2492 24.4594 25.3397 24.4612 25.4021C24.4631 25.4699 24.4443 25.5517 24.3886 25.6401C24.2734 25.8231 24.0165 26 23.6601 26L12.3407 26C11.9843 26 11.7274 25.8231 11.6122 25.6401C11.5565 25.5517 11.5376 25.4699 11.5396 25.4021C11.5414 25.3397 11.5614 25.2492 11.6501 25.1337C13.1141 23.2265 15.4138 22 18.0004 22C20.587 22 22.8867 23.2265 24.3507 25.1337ZM23.6601 28C24.684 28 25.5893 27.4868 26.081 26.7059C26.592 25.8944 26.6296 24.8179 25.9372 23.9159C24.111 21.5368 21.235 20 18.0004 20C14.7658 20 11.8898 21.5368 10.0636 23.9159C9.37122 24.8179 9.40877 25.8944 9.91977 26.7059C10.4115 27.4868 11.3168 28 12.3407 28L23.6601 28Z" fill="currentColor"/>
</svg>
