<svg width="36" height="36" viewBox="0 0 36 36" fill="none" xmlns="http://www.w3.org/2000/svg">
<g clip-path="url(#clip0_202_34)">
<path d="M18.5529 2.22739C18.4061 2.08173 18.2077 2 18.0009 2C17.794 2 17.5956 2.08173 17.4488 2.22739L13.336 6.33734V6.35736L24.4269 17.4462C24.5725 17.5931 24.6542 17.7915 24.6542 17.9983C24.6542 18.2052 24.5725 18.4036 24.4269 18.5504L13.3193 29.6426L17.4488 33.7726C17.5956 33.9183 17.794 34 18.0009 34C18.2077 34 18.4061 33.9183 18.5529 33.7726L33.7699 18.5538C33.8429 18.4812 33.9009 18.3949 33.9404 18.2999C33.98 18.2049 34.0003 18.1029 34.0003 18C34.0003 17.8971 33.98 17.7951 33.9404 17.7001C33.9009 17.6051 33.8429 17.5188 33.7699 17.4462L18.5529 2.22739Z" fill="#6EC3FF"/>
<path d="M15.0464 18.5505C15.192 18.4037 15.2737 18.2052 15.2737 17.9984C15.2737 17.7916 15.192 17.5931 15.0464 17.4463L8.63867 11.0378L13.3085 6.36743L24.3994 17.4563C24.545 17.6031 24.6268 17.8016 24.6268 18.0084C24.6268 18.2152 24.545 18.4137 24.3994 18.5605L13.3185 29.6427L8.64868 24.9723L15.0464 18.5505Z" fill="#6E50DC"/>
<path d="M15.0464 18.5538C15.1922 18.4064 15.274 18.2074 15.274 18C15.274 17.7926 15.1922 17.5936 15.0464 17.4462L8.63868 11.0378L2.22766 17.4462C2.08181 17.5936 2 17.7926 2 18C2 18.2074 2.08181 18.4064 2.22766 18.5538L8.63868 24.9622L15.0464 18.5538Z" fill="#362B77"/>
</g>
<defs>
<clipPath id="clip0_202_34">
<rect width="18" height="18" fill="white" transform="scale(2)"/>
</clipPath>
</defs>
</svg>
