<svg width="36" height="36" viewBox="0 0 36 36" fill="none" xmlns="http://www.w3.org/2000/svg">
<path fill-rule="evenodd" clip-rule="evenodd" d="M3 18.55C3 10.1896 9.55005 4 18 4C26.45 4 33 10.1896 33 18.55C33 26.9104 26.45 33.1 18 33.1C16.4822 33.1 15.0261 32.8996 13.658 32.5234C13.392 32.4502 13.1092 32.4709 12.8568 32.5822L9.87951 33.8965C9.10071 34.2403 8.22159 33.6865 8.19549 32.8354L8.1138 30.1672C8.10375 29.8384 7.95585 29.5312 7.71084 29.3119C4.7922 26.7018 3 22.923 3 18.55ZM13.399 15.8148L8.99275 22.8054C8.5699 23.4763 9.39454 24.2323 10.0263 23.7529L14.7593 20.1609C15.0795 19.9179 15.5219 19.9166 15.8434 20.1577L19.348 22.7862C20.3996 23.5749 21.9005 23.298 22.6014 22.1859L27.0077 15.1953C27.4305 14.5244 26.6058 13.7684 25.9741 14.2478L21.2411 17.8398C20.9209 18.0828 20.4785 18.0841 20.157 17.8429L16.6524 15.2145C15.6008 14.4258 14.0999 14.7027 13.399 15.8148Z" fill="currentColor"/>
</svg>
