<svg width="36" height="36" viewBox="0 0 36 36" fill="none" xmlns="http://www.w3.org/2000/svg">
<g clip-path="url(#clip0_97_744)">
<path d="M18 34C26.8366 34 34 26.8366 34 18C34 9.16344 26.8366 2 18 2C9.16344 2 2 9.16344 2 18C2 26.8366 9.16344 34 18 34Z" fill="#548CFF"/>
<path fill-rule="evenodd" clip-rule="evenodd" d="M12.113 15.193C12.7292 15.193 13.2287 15.6804 13.2287 16.313V24.1782C13.2287 24.7968 12.7468 25.2982 12.113 25.2982H10.4144C9.79831 25.2982 9.29883 24.8108 9.29883 24.1782V16.313C9.29883 15.6944 9.7807 15.193 10.4144 15.193H12.113ZM15.7853 24.1754C15.158 24.1754 14.6494 23.688 14.6494 23.0554V14.9317C14.6494 14.7749 14.6927 14.6279 14.767 14.5012C14.768 14.5 14.7702 14.4956 14.7725 14.4912C15.0831 13.9138 18.1409 11.1228 18.2813 10.1403C18.4099 9.23974 18.7389 7.86742 19.2733 7.64496L19.4241 7.61401H19.6117C20.4367 7.61401 21.1752 8.28202 21.2233 9.10288C21.2233 9.10288 21.667 12.3676 19.9828 14.0702H23.9126C23.959 14.0718 24.0058 14.0702 24.0529 14.0702C25.0606 14.0702 25.8775 14.8242 25.8775 15.7544C25.8775 16.3029 25.5934 16.7902 25.1537 17.0977C25.5885 17.3395 25.8775 17.7794 25.8775 18.2807C25.8775 18.8943 25.4444 19.4159 24.841 19.6067C25.2952 19.847 25.5968 20.295 25.5968 20.807C25.5968 21.4376 25.1394 21.971 24.5098 22.148C24.8288 22.3459 25.0354 22.6778 25.0354 23.0526C25.0354 23.6298 24.5455 24.1052 23.9152 24.1683L23.9126 24.1754H23.7722H15.7853Z" fill="#F9F9FA"/>
</g>
<defs>
<clipPath id="clip0_97_744">
<rect width="18" height="18" fill="white" transform="scale(2)"/>
</clipPath>
</defs>
</svg>
