<svg width="36" height="36" viewBox="0 0 36 36" fill="none" xmlns="http://www.w3.org/2000/svg">
<path fill-rule="evenodd" clip-rule="evenodd" d="M4.17646 15.7711C4.06033 16.4969 4 17.2414 4 18C4 25.732 10.268 32 18 32C25.732 32 32 25.732 32 18C32 16.7262 31.8299 15.4922 31.5112 14.3194C30.9285 14.5576 30.1026 14.8543 29.1122 15.0964C27.1343 15.5799 24.427 15.8632 21.6835 14.9487C17.4433 13.5353 14.6303 11.168 13.2363 9.76154C12.5911 10.8552 11.4476 12.4147 9.59959 13.8001C7.93087 15.0511 6.24126 15.533 4.96735 15.7005C4.68184 15.738 4.41666 15.7599 4.17646 15.7711ZM4.6654 13.7229C4.6791 13.7211 4.69286 13.7194 4.70669 13.7175C5.71621 13.5848 7.06176 13.2031 8.39993 12.1999C10.5923 10.5563 11.6216 8.63274 11.9469 7.92309C12.3116 7.12747 13.4067 6.94863 13.9936 7.63673C14.7367 8.508 17.5162 11.4514 22.316 13.0513C24.5725 13.8035 26.8652 13.5868 28.6373 13.1536C29.5173 12.9385 30.2507 12.6744 30.7614 12.4652C30.791 12.4531 30.8198 12.4412 30.8479 12.4294C28.6943 7.46919 23.7523 4 18 4C11.7597 4 6.47302 8.08278 4.6654 13.7229ZM2 18C2 9.16344 9.16344 2 18 2C26.8366 2 34 9.16344 34 18C34 26.8366 26.8366 34 18 34C9.16344 34 2 26.8366 2 18ZM10 20C10 18.8954 10.8954 18 12 18C13.1046 18 14 18.8954 14 20C14 21.1046 13.1046 22 12 22C10.8954 22 10 21.1046 10 20ZM22 20C22 18.8954 22.8954 18 24 18C25.1046 18 26 18.8954 26 20C26 21.1046 25.1046 22 24 22C22.8954 22 22 21.1046 22 20Z" fill="currentColor"/>
</svg>
