<svg width="36" height="36" viewBox="0 0 36 36" fill="none" xmlns="http://www.w3.org/2000/svg">
<path fill-rule="evenodd" clip-rule="evenodd" d="M8 10.1V4H10V10.1C12.2822 10.5633 14 12.581 14 15C14 17.419 12.2822 19.4367 10 19.9V32H8V19.9C5.71776 19.4367 4 17.419 4 15C4 12.581 5.71776 10.5633 8 10.1ZM17 20.1L17.0001 4H19.0001L19 20.1C21.2822 20.5633 23 22.581 23 25C23 27.419 21.2822 29.4367 19 29.9L19.0001 32L17.0001 32L17 29.9C14.7178 29.4367 13 27.419 13 25C13 22.581 14.7178 20.5633 17 20.1ZM26 6.10002V4H28V6.10002C30.2822 6.56329 32 8.58104 32 11C32 13.419 30.2822 15.4367 28 15.9V32H26V15.9C23.7178 15.4367 22 13.419 22 11C22 8.58104 23.7178 6.56329 26 6.10002ZM27 8C25.3431 8 24 9.34315 24 11C24 12.6569 25.3431 14 27 14C28.6569 14 30 12.6569 30 11C30 9.34315 28.6569 8 27 8ZM9 12C7.34315 12 6 13.3431 6 15C6 16.6569 7.34315 18 9 18C10.6569 18 12 16.6569 12 15C12 13.3431 10.6569 12 9 12ZM18 22C16.3431 22 15 23.3431 15 25C15 26.6569 16.3431 28 18 28C19.6569 28 21 26.6569 21 25C21 23.3431 19.6569 22 18 22Z" fill="currentColor"/>
</svg>
