<svg width="36" height="36" viewBox="0 0 36 36" fill="none" xmlns="http://www.w3.org/2000/svg">
<path fill-rule="evenodd" clip-rule="evenodd" d="M9 6C7.34315 6 6 7.34315 6 9V27C6 28.6569 7.34315 30 9 30H12V22C12 20.8954 12.8954 20 14 20H22C23.1046 20 24 20.8954 24 22V30H27C28.6569 30 30 28.6569 30 27V12.6569C30 11.8612 29.6839 11.0981 29.1213 10.5355L25.4645 6.87868C25.0594 6.47357 24.5503 6.19628 24 6.07278V12C24 13.1046 23.1046 14 22 14H14C12.8954 14 12 13.1046 12 12V6H9ZM14 6V12H22V6H14ZM22 30V22H14V30H22ZM4 9C4 6.23858 6.23858 4 9 4H23.3431C24.6692 4 25.941 4.52678 26.8787 5.46447L30.5355 9.12132C31.4732 10.059 32 11.3308 32 12.6569V27C32 29.7614 29.7614 32 27 32H9C6.23858 32 4 29.7614 4 27V9Z" fill="currentColor"/>
</svg>
