<svg width="36" height="36" viewBox="0 0 36 36" fill="none" xmlns="http://www.w3.org/2000/svg">
<path fill-rule="evenodd" clip-rule="evenodd" d="M4 9C4 7.34315 5.34315 6 7 6H12.7639C13.7556 6 14.6621 6.56027 15.1056 7.44721C15.8878 9.01173 17.4869 10 19.2361 10H29C30.6569 10 32 11.3431 32 13V16H34V13C34 10.2386 31.7614 8 29 8H19.2361C18.2444 8 17.3379 7.43973 16.8944 6.55279C16.1122 4.98827 14.5131 4 12.7639 4H7C4.23858 4 2 6.23858 2 9V25C2 27.7614 4.23858 30 7 30H18V28H7C5.34315 28 4 26.6569 4 25V9ZM12 8H6V10H12V8ZM34 20C32.9357 20 32.0655 20.8314 32.0035 21.8802L29.0169 23.3735C28.2836 22.5319 27.2039 22 26 22C23.7909 22 22 23.7909 22 26C22 28.2091 23.7909 30 26 30C27.2039 30 28.2836 29.4681 29.0169 28.6265L32.0035 30.1198C32.0655 31.1686 32.9357 32 34 32C35.1046 32 36 31.1046 36 30C36 28.8954 35.1046 28 34 28C33.5927 28 33.2138 28.1218 32.8978 28.3309L29.9121 26.838C29.9697 26.5678 30 26.2874 30 26C30 25.7126 29.9697 25.4322 29.9121 25.162L32.8978 23.6691C33.2138 23.8782 33.5927 24 34 24C35.1046 24 36 23.1046 36 22C36 20.8954 35.1046 20 34 20ZM24 26C24 24.8954 24.8954 24 26 24C27.1046 24 28 24.8954 28 26C28 27.1046 27.1046 28 26 28C24.8954 28 24 27.1046 24 26Z" fill="currentColor"/>
</svg>
