<svg width="36" height="36" viewBox="0 0 36 36" fill="none" xmlns="http://www.w3.org/2000/svg">
<path fill-rule="evenodd" clip-rule="evenodd" d="M7 6C5.34315 6 4 7.34315 4 9V25C4 26.6569 5.34315 28 7 28H29C30.6569 28 32 26.6569 32 25V13C32 11.3431 30.6569 10 29 10H19.2361C17.4869 10 15.8878 9.01173 15.1056 7.44721C14.6621 6.56027 13.7556 6 12.7639 6H7ZM2 9C2 6.23858 4.23858 4 7 4H12.7639C14.5131 4 16.1122 4.98827 16.8944 6.55279C17.3379 7.43973 18.2444 8 19.2361 8H29C31.7614 8 34 10.2386 34 13V25C34 27.7614 31.7614 30 29 30H7C4.23858 30 2 27.7614 2 25V9ZM6 8H12V10H6V8Z" fill="currentColor"/>
</svg>
