<svg width="36" height="36" viewBox="0 0 36 36" fill="none" xmlns="http://www.w3.org/2000/svg">
<path fill-rule="evenodd" clip-rule="evenodd" d="M4 9C4 7.34315 5.34315 6 7 6H12.7639C13.7556 6 14.6621 6.56027 15.1056 7.44721C15.8878 9.01173 17.4869 10 19.2361 10H29C30.6569 10 32 11.3431 32 13V20H34V13C34 10.2386 31.7614 8 29 8H19.2361C18.2444 8 17.3379 7.43973 16.8944 6.55279C16.1122 4.98827 14.5131 4 12.7639 4H7C4.23858 4 2 6.23858 2 9V25C2 27.7614 4.23858 30 7 30H20V28H7C5.34315 28 4 26.6569 4 25V9ZM12 8H6V10H12V8ZM28 24V28H24V30H28V34H30V30H34V28H30V24H28Z" fill="currentColor"/>
</svg>
