<svg width="36" height="36" viewBox="0 0 36 36" fill="none" xmlns="http://www.w3.org/2000/svg">
<path d="M4 9C4 7.34315 5.34315 6 7 6H12.7639C13.7556 6 14.6621 6.56027 15.1056 7.44721C15.8878 9.01173 17.4869 10 19.2361 10H29C30.6569 10 32 11.3431 32 13V25C32 26.6569 30.6569 28 29 28H22V30H29C31.7614 30 34 27.7614 34 25V13C34 10.2386 31.7614 8 29 8H19.2361C18.2444 8 17.3379 7.43973 16.8944 6.55279C16.1122 4.98827 14.5131 4 12.7639 4H7C4.23858 4 2 6.23858 2 9V18H4V9Z" fill="currentColor"/>
<path d="M12 8H6V10H12V8Z" fill="currentColor"/>
<path d="M9.50827 21.3432L14.1651 26L2 26.0001V28.0001L14.1651 28L9.50827 32.6569L10.9225 34.0711L17.9935 27L10.9225 19.929L9.50827 21.3432Z" fill="currentColor"/>
</svg>
