<svg width="36" height="36" viewBox="0 0 36 36" fill="none" xmlns="http://www.w3.org/2000/svg">
<path fill-rule="evenodd" clip-rule="evenodd" d="M20 4H32V16H30V7.41421L21.7429 15.6713C23.1536 17.3951 24 19.5987 24 22C24 27.5228 19.5228 32 14 32C8.47715 32 4 27.5228 4 22C4 16.4772 8.47715 12 14 12C16.4013 12 18.6049 12.8464 20.3287 14.2571L28.5858 6H20V4ZM14 14C9.58172 14 6 17.5817 6 22C6 26.4183 9.58172 30 14 30C18.4183 30 22 26.4183 22 22C22 17.5817 18.4183 14 14 14Z" fill="currentColor"/>
</svg>
