<svg width="36" height="36" viewBox="0 0 36 36" fill="none" xmlns="http://www.w3.org/2000/svg">
<path fill-rule="evenodd" clip-rule="evenodd" d="M13.0245 2.09608C13.9945 1.90315 14.9998 2.00217 15.9134 2.3806C16.743 2.72425 17.4632 3.28427 18 4C18.5368 3.28427 19.257 2.72425 20.0866 2.3806C21.0002 2.00217 22.0055 1.90315 22.9755 2.09608C23.9454 2.289 24.8363 2.76521 25.5355 3.46447C26.2348 4.16373 26.711 5.05465 26.9039 6.02455C27.0969 6.99446 26.9978 7.99979 26.6194 8.91342C26.4584 9.30218 26.2498 9.66691 26 10H29C30.6569 10 32 11.3431 32 13V17C32 18.3062 31.1652 19.4175 30 19.8293V29C30 31.7614 27.7614 34 25 34H11C8.23858 34 6 31.7614 6 29L6 19.8293C4.83481 19.4175 4 18.3062 4 17V13C4 11.3431 5.34315 10 7 10H10C9.75018 9.66691 9.54163 9.30218 9.3806 8.91342C9.00216 7.99979 8.90315 6.99446 9.09607 6.02455C9.289 5.05465 9.7652 4.16373 10.4645 3.46447C11.1637 2.76521 12.0546 2.289 13.0245 2.09608ZM7 12C6.44772 12 6 12.4477 6 13V17C6 17.5523 6.44772 18 7 18H17V12H7ZM8 20V29C8 30.6569 9.34315 32 11 32H17V20H8ZM14 10C13.4067 10 12.8266 9.82406 12.3333 9.49441C11.8399 9.16477 11.4554 8.69623 11.2284 8.14805C11.0013 7.59987 10.9419 6.99667 11.0576 6.41473C11.1734 5.83279 11.4591 5.29824 11.8787 4.87868C12.2982 4.45912 12.8328 4.1734 13.4147 4.05765C13.9967 3.94189 14.5999 4.0013 15.1481 4.22836C15.6962 4.45543 16.1648 4.83994 16.4944 5.33329C16.8241 5.82664 17 6.40666 17 7V10H14ZM19 7V10H22C22.5933 10 23.1734 9.82406 23.6667 9.49441C24.1601 9.16477 24.5446 8.69623 24.7716 8.14805C24.9987 7.59987 25.0581 6.99667 24.9424 6.41473C24.8266 5.83279 24.5409 5.29824 24.1213 4.87868C23.7018 4.45913 23.1672 4.1734 22.5853 4.05765C22.0033 3.94189 21.4001 4.0013 20.852 4.22836C20.3038 4.45543 19.8352 4.83994 19.5056 5.33329C19.1759 5.82664 19 6.40666 19 7ZM19 12V18H29C29.5523 18 30 17.5523 30 17V13C30 12.4477 29.5523 12 29 12H19ZM28 20H19V32H25C26.6569 32 28 30.6569 28 29V20Z" fill="currentColor"/>
</svg>
