<svg width="36" height="36" viewBox="0 0 36 36" fill="none" xmlns="http://www.w3.org/2000/svg">
<path fill-rule="evenodd" clip-rule="evenodd" d="M29.9554 13.1173C30.2405 9.55725 29.1541 6.02281 26.9188 3.23738L28.4786 1.9856C31.0333 5.16894 32.2748 9.2083 31.949 13.277C31.6232 17.3457 29.7548 21.136 26.7261 23.8723C24.2819 26.0804 21.2312 27.4674 18.0001 27.8745V31.9999H24.0001V33.9999H10.0001V31.9999H16.0001V27.9999C15.8857 27.9999 15.7712 27.9987 15.6566 27.9962C11.5759 27.9086 7.6829 26.2647 4.77441 23.401L6.17762 21.9759C8.72255 24.4816 12.1289 25.92 15.6996 25.9967C19.2702 26.0733 22.7352 24.7825 25.3853 22.3882C28.0354 19.994 29.6703 16.6774 29.9554 13.1173ZM16.0001 3.99991C11.5818 3.99991 8.00006 7.58163 8.00006 11.9999C8.00006 16.4182 11.5818 19.9999 16.0001 19.9999C20.4183 19.9999 24.0001 16.4182 24.0001 11.9999C24.0001 7.58163 20.4183 3.99991 16.0001 3.99991ZM6.00006 11.9999C6.00006 6.47706 10.4772 1.99991 16.0001 1.99991C21.5229 1.99991 26.0001 6.47706 26.0001 11.9999C26.0001 17.5228 21.5229 21.9999 16.0001 21.9999C10.4772 21.9999 6.00006 17.5228 6.00006 11.9999Z" fill="currentColor"/>
</svg>
