<svg width="36" height="36" viewBox="0 0 36 36" fill="none" xmlns="http://www.w3.org/2000/svg">
<g clip-path="url(#clip0_2499_19)">
<path d="M33.998 18.368C33.998 17.2804 33.908 16.1869 33.7161 15.1169H18.3203V21.278H27.1367C26.7709 23.2651 25.5954 25.0229 23.8741 26.1399V30.1376H29.1339C32.2227 27.351 33.998 23.2357 33.998 18.368Z" fill="#4285F4"/>
<path d="M18.3224 34.0001C22.7246 34.0001 26.4371 32.5833 29.142 30.1377L23.8822 26.14C22.4188 27.1159 20.5295 27.6685 18.3284 27.6685C14.0701 27.6685 10.4596 24.8525 9.16413 21.0665H3.73633V25.1876C6.50721 30.5904 12.1509 34.0001 18.3224 34.0001Z" fill="#34A853"/>
<path d="M9.1581 21.0664C8.47438 19.0793 8.47438 16.9276 9.1581 14.9406V10.8195H3.7363C1.42123 15.3403 1.42123 20.6666 3.7363 25.1875L9.1581 21.0664Z" fill="#FBBC04"/>
<path d="M18.3224 8.33267C20.6495 8.29739 22.8986 9.15571 24.5839 10.7313L29.244 6.16335C26.2932 3.44729 22.3768 1.95405 18.3224 2.00108C12.1509 2.00108 6.50721 5.41085 3.73633 10.8194L9.15813 14.9406C10.4476 11.1487 14.0641 8.33267 18.3224 8.33267Z" fill="#EA4335"/>
</g>
<defs>
<clipPath id="clip0_2499_19">
<rect width="18" height="18" fill="white" transform="scale(2)"/>
</clipPath>
</defs>
</svg>
