<svg width="36" height="36" viewBox="0 0 36 36" fill="none" xmlns="http://www.w3.org/2000/svg">
<g clip-path="url(#clip0_857_58)">
<path d="M10 9.28302C14.4151 9.28302 18 12.8679 18 17.283V18.0189H2.73585C2.33962 18.0189 2.01887 17.6981 2 17.283C2 12.8679 5.58491 9.28302 10 9.28302Z" fill="#F6B704"/>
<path d="M26.717 10C26.717 14.4151 23.1321 18 18.717 18H18V2.73585C18 2.33962 18.3208 2 18.717 2C23.1509 2 26.717 5.58491 26.717 10Z" fill="#E54335"/>
<path d="M26 26.7359C21.5849 26.7359 18 23.1509 18 18.7359V18H33.2642C33.6604 18 34 18.3208 34 18.717C34 23.1509 30.4151 26.7359 26 26.7359Z" fill="#4280EF"/>
<path d="M9.2832 26C9.2832 21.5849 12.8681 18 17.2832 18H18.0002V33.2642C18.0002 33.6604 17.6794 33.9811 17.2643 34C12.8492 34 9.2832 30.4151 9.2832 26Z" fill="#34A353"/>
</g>
<defs>
<clipPath id="clip0_857_58">
<rect width="18" height="18" fill="white" transform="scale(2)"/>
</clipPath>
</defs>
</svg>
