<svg width="36" height="36" viewBox="0 0 36 36" fill="none" xmlns="http://www.w3.org/2000/svg">
<path fill-rule="evenodd" clip-rule="evenodd" d="M17.4118 2.13483C17.7951 2.01691 18.2049 2.01691 18.5882 2.13483L30.5882 5.82714C31.4274 6.08535 32 6.86068 32 7.73869V11.0001C32 12.1047 31.1046 13.0001 30 13.0001H28V28.0001H32V30.0001H4V28.0001H8V13.0001H6C4.89543 13.0001 4 12.1047 4 11.0001V7.73869C4 6.86068 4.57265 6.08535 5.41183 5.82714L17.4118 2.13483ZM10 13.0001V28.0001H14V13.0001H10ZM16 13.0001V28.0001H20V13.0001H16ZM22 13.0001V28.0001H26V13.0001H22ZM18 4.04639L6 7.73869V11.0001H30V7.73869L18 4.04639ZM34 32.0001V34.0001H2V32.0001H34Z" fill="currentColor"/>
</svg>
