<svg width="36" height="36" viewBox="0 0 36 36" fill="none" xmlns="http://www.w3.org/2000/svg">
<path fill-rule="evenodd" clip-rule="evenodd" d="M8 12C8 10.8954 8.89543 10 10 10H12C13.1046 10 14 10.8954 14 12V17H22V12C22 10.8954 22.8954 10 24 10H26C27.1046 10 28 10.8954 28 12V13H30C31.1046 13 32 13.8954 32 15V17H34V19H32V21C32 22.1046 31.1046 23 30 23H28V24C28 25.1046 27.1046 26 26 26H24C22.8954 26 22 25.1046 22 24V19H14V24C14 25.1046 13.1046 26 12 26H10C8.89543 26 8 25.1046 8 24V23H6C4.89543 23 4 22.1046 4 21V19H2V17H4V15C4 13.8954 4.89543 13 6 13H8V12ZM10 24H12V12L10 12V24ZM8 15H6V21H8V15ZM28 21H30V15H28V21ZM26 12L24 12V24H26V12Z" fill="currentColor"/>
</svg>
