<svg width="36" height="36" viewBox="0 0 36 36" fill="none" xmlns="http://www.w3.org/2000/svg">
<path fill-rule="evenodd" clip-rule="evenodd" d="M11 4C9.8181 4 8.64778 4.23279 7.55585 4.68508C6.46392 5.13738 5.47177 5.80031 4.63604 6.63604C3.80031 7.47177 3.13738 8.46392 2.68508 9.55585C2.23279 10.6478 2 11.8181 2 13C2 14.1819 2.23279 15.3522 2.68508 16.4442C3.13738 17.5361 3.80031 18.5282 4.63604 19.364L17.2929 32.0208L18.7071 30.6066L6.05025 17.9497C5.40024 17.2997 4.88463 16.5281 4.53284 15.6788C4.18106 14.8295 4 13.9193 4 13C4 12.0807 4.18106 11.1705 4.53284 10.3212C4.88463 9.47194 5.40024 8.70026 6.05025 8.05025C6.70026 7.40024 7.47194 6.88463 8.32122 6.53284C9.17049 6.18106 10.0807 6 11 6C11.9193 6 12.8295 6.18106 13.6788 6.53284C14.5281 6.88463 15.2997 7.40024 15.9497 8.05025L18 10.1005L20.0503 8.05025C21.363 6.7375 23.1435 6 25 6C26.8565 6 28.637 6.7375 29.9497 8.05025C31.2625 9.36301 32 11.1435 32 13C32 13.9085 31.8234 14.7988 31.4892 15.625L33.3432 16.375C33.7729 15.3128 34 14.1681 34 13C34 10.6131 33.0518 8.32387 31.364 6.63604C29.6761 4.94821 27.387 4 25 4C22.6131 4 20.3239 4.94821 18.636 6.63604L18 7.27208L17.364 6.63604C16.5282 5.80031 15.5361 5.13738 14.4441 4.68508C13.3522 4.23279 12.1819 4 11 4ZM34 28C34 26.8954 33.1046 26 32 26V24C32 21.7909 30.2091 20 28 20C25.7909 20 24 21.7909 24 24V26C22.8954 26 22 26.8954 22 28V32C22 33.1046 22.8954 34 24 34H32C33.1046 34 34 33.1046 34 32V28ZM30 24V26H26V24C26 22.8954 26.8954 22 28 22C29.1046 22 30 22.8954 30 24ZM32 28V32H24V28H32Z" fill="currentColor"/>
</svg>
