<svg width="36" height="36" viewBox="0 0 36 36" fill="none" xmlns="http://www.w3.org/2000/svg">
<path fill-rule="evenodd" clip-rule="evenodd" d="M4 9C4 6.23858 6.23858 4 9 4H27C29.7614 4 32 6.23858 32 9V27C32 29.7614 29.7614 32 27 32H9C6.23858 32 4 29.7614 4 27V9ZM9 6C7.34315 6 6 7.34315 6 9V27C6 28.6569 7.34315 30 9 30H27C28.6569 30 30 28.6569 30 27V9C30 7.34315 28.6569 6 27 6H9ZM13 14C13 11.7909 14.7909 10 17 10H19C21.2091 10 23 11.7909 23 14V15C23 17.2091 21.2091 19 19 19V22H17V17H19C20.1046 17 21 16.1046 21 15V14C21 12.8954 20.1046 12 19 12H17C15.8954 12 15 12.8954 15 14V15H13V14ZM16 26C16 24.8954 16.8954 24 18 24C19.1046 24 20 24.8954 20 26C20 27.1046 19.1046 28 18 28C16.8954 28 16 27.1046 16 26Z" fill="currentColor"/>
</svg>
