<svg width="36" height="36" viewBox="0 0 36 36" fill="none" xmlns="http://www.w3.org/2000/svg">
<path d="M10 7.60742C8.17577 8.66064 6.66092 10.1755 5.6077 11.9997C4.55448 13.824 4 15.8933 4 17.9997C4 20.1062 4.55447 22.1755 5.60769 23.9997C6.66091 25.824 8.17577 27.3388 10 28.392L11 26.66C9.47981 25.7823 8.21743 24.5199 7.33975 22.9997C6.46206 21.4795 6 19.7551 6 17.9997C6 16.2444 6.46206 14.5199 7.33975 12.9997C8.21743 11.4795 9.47981 10.2172 11 9.33947L10 7.60742Z" fill="currentColor"/>
<path d="M10.8038 14.9999C11.3305 14.0877 12.0879 13.3303 13 12.8037L14 14.5358C13.3919 14.8868 12.887 15.3918 12.5359 15.9999C12.1848 16.6079 12 17.2977 12 17.9999C12 18.702 12.1848 19.3918 12.5359 19.9999C12.887 20.6079 13.3919 21.1129 14 21.464L13 23.196C12.0879 22.6694 11.3305 21.912 10.8038 20.9999C10.2772 20.0877 10 19.0531 10 17.9999C10 16.9466 10.2772 15.912 10.8038 14.9999Z" fill="currentColor"/>
<path d="M25.1962 14.9999C24.6695 14.0877 23.9121 13.3303 23 12.8037L22 14.5358C22.6081 14.8868 23.113 15.3918 23.4641 15.9999C23.8152 16.6079 24 17.2977 24 17.9999C24 18.702 23.8152 19.3918 23.4641 19.9999C23.113 20.6079 22.6081 21.1129 22 21.464L23 23.196C23.9121 22.6694 24.6695 21.912 25.1962 20.9999C25.7228 20.0877 26 19.0531 26 17.9999C26 16.9466 25.7228 15.912 25.1962 14.9999Z" fill="currentColor"/>
<path d="M30.3923 11.9997C29.3391 10.1755 27.8242 8.66064 26 7.60742L25 9.33947C26.5202 10.2172 27.7826 11.4795 28.6603 12.9997C29.5379 14.5199 30 16.2444 30 17.9997C30 19.7551 29.5379 21.4795 28.6603 22.9997C27.7826 24.5199 26.5202 25.7823 25 26.66L26 28.392C27.8242 27.3388 29.3391 25.824 30.3923 23.9997C31.4455 22.1755 32 20.1062 32 17.9997C32 15.8933 31.4455 13.824 30.3923 11.9997Z" fill="currentColor"/>
<path d="M18.0156 20.0278C19.1202 20.0278 20.0156 19.1324 20.0156 18.0278C20.0156 16.9233 19.1202 16.0278 18.0156 16.0278C16.9111 16.0278 16.0156 16.9233 16.0156 18.0278C16.0156 19.1324 16.9111 20.0278 18.0156 20.0278Z" fill="currentColor"/>
</svg>
