<svg width="36" height="36" viewBox="0 0 36 36" fill="none" xmlns="http://www.w3.org/2000/svg">
<path fill-rule="evenodd" clip-rule="evenodd" d="M12 3.6077C13.8242 2.55448 15.8936 2 18 2C20.1064 2 22.1758 2.55447 24 3.60769C25.8242 4.66091 27.3391 6.17577 28.3923 8C29.4455 9.82423 30 11.8936 30 14C30 14.9375 29.8902 15.8677 29.6754 16.7722C29.1144 19.1349 27.475 20.9611 25.9654 22.4619L24.8849 23.5362C24.3185 24.0993 24 24.865 24 25.6637V26H22V25.6637C22 24.3326 22.5308 23.0564 23.4748 22.1179L24.5553 21.0436C26.0537 19.554 27.3106 18.0743 27.7295 16.3102C27.9085 15.5564 28 14.7813 28 14C28 12.2446 27.5379 10.5202 26.6603 9C25.7826 7.47981 24.5202 6.21743 23 5.33975C21.4798 4.46206 19.7554 4 18 4C16.2446 4 14.5202 4.46206 13 5.33975C11.4798 6.21743 10.2174 7.47981 9.33975 9C8.46206 10.5202 8 12.2446 8 14C8 14.7813 8.09153 15.5564 8.2705 16.3102C8.68938 18.0743 9.94634 19.554 11.4447 21.0436L12.5252 22.1179C13.4692 23.0564 14 24.3326 14 25.6637V26H12V25.6637C12 24.865 11.6815 24.0993 11.1151 23.5362L10.0346 22.4619C8.52499 20.9611 6.8856 19.1349 6.3246 16.7722C6.10984 15.8677 6 14.9375 6 14C6 11.8936 6.55447 9.82423 7.60769 8C8.66091 6.17577 10.1758 4.66092 12 3.6077ZM24 30H12V28H24V30ZM22 34H14V32H22V34Z" fill="currentColor"/>
</svg>
