<svg width="36" height="36" viewBox="0 0 36 36" fill="none" xmlns="http://www.w3.org/2000/svg">
<path d="M24.0098 5.70703L17.3027 12.4191L18.7169 13.8344L23.0098 9.53829V23.707H25.0098V9.53829L29.3027 13.8344L30.7169 12.4191L24.0098 5.70703Z" fill="currentColor"/>
<path d="M5.2832 16.9995L11.9903 23.7148L18.6974 16.9996L17.2832 15.5836L12.9903 19.8817L12.9903 5.71484L10.9903 5.71484L10.9903 19.8817L6.69742 15.5836L5.2832 16.9995Z" fill="currentColor"/>
<path d="M6 28.7089V27.7089H8V28.7089C8 30.3657 9.34315 31.7089 11 31.7089H25C26.6569 31.7089 28 30.3657 28 28.7089V27.7089H30V28.7089C30 31.4703 27.7614 33.7089 25 33.7089H11C8.23858 33.7089 6 31.4703 6 28.7089Z" fill="currentColor"/>
</svg>
