<svg width="36" height="36" viewBox="0 0 36 36" fill="none" xmlns="http://www.w3.org/2000/svg">
<path fill-rule="evenodd" clip-rule="evenodd" d="M4 9C4 6.23858 6.23858 4 9 4H27C29.7614 4 32 6.23858 32 9V27C32 29.7614 29.7614 32 27 32H9C6.23858 32 4 29.7614 4 27V9ZM9 6C7.34315 6 6 7.34315 6 9V27C6 28.6569 7.34315 30 9 30H27C28.6569 30 30 28.6569 30 27V9C30 7.34315 28.6569 6 27 6H9ZM21.7071 15.1213C21.3166 14.7308 20.6834 14.7308 20.2929 15.1213L13.4142 22H18V24H10V16H12V20.5858L18.8787 13.7071C20.0503 12.5355 21.9497 12.5355 23.1213 13.7071L26.7071 17.2929L25.2929 18.7071L21.7071 15.1213Z" fill="currentColor"/>
</svg>
