<svg width="36" height="36" viewBox="0 0 36 36" fill="none" xmlns="http://www.w3.org/2000/svg">
<path fill-rule="evenodd" clip-rule="evenodd" d="M5 4C4.44772 4 4 4.44772 4 5V27C4 27.5523 4.44772 28 5 28H18V21C18 19.8954 18.8954 19 20 19H24C25.1046 19 26 19.8954 26 21V28H31C31.5523 28 32 27.5523 32 27V8.61803L20 14.618V8.61803L8 14.618V5C8 4.44772 7.55228 4 7 4H5ZM2 5C2 3.34315 3.34315 2 5 2H7C8.65685 2 10 3.34315 10 5V11.382L19.1056 6.82918C20.4354 6.16428 22 7.13127 22 8.61803V11.382L31.1056 6.82918C32.4354 6.16428 34 7.13127 34 8.61803V27C34 28.6569 32.6569 30 31 30H5C3.34315 30 2 28.6569 2 27V5ZM20 21V28H24V21H20Z" fill="currentColor"/>
</svg>
