<svg width="36" height="36" viewBox="0 0 36 36" fill="none" xmlns="http://www.w3.org/2000/svg">
<path fill-rule="evenodd" clip-rule="evenodd" d="M22 15C22 16.3957 21.2851 17.6245 20.2016 18.3402C22.2793 18.9901 24.0359 20.5191 24.8163 22.4723C24.9451 22.7948 24.8621 23.161 24.6123 23.4023C22.9493 25.0085 20.4657 26 18 26C15.5328 26 13.0502 25.0098 11.3874 23.4025C11.1376 23.1611 11.0548 22.7948 11.1838 22.4723C11.9647 20.5195 13.7206 18.9896 15.7978 18.3398C14.7146 17.6241 14 16.3955 14 15C14 12.7909 15.7909 11 18 11C20.2091 11 22 12.7909 22 15ZM20 15C20 16.1046 19.1046 17 18 17C16.8954 17 16 16.1046 16 15C16 13.8954 16.8954 13 18 13C19.1046 13 20 13.8954 20 15ZM13.4079 22.4975C14.6543 23.422 16.3285 24 18 24C19.6697 24 21.3447 23.4213 22.5919 22.4968C21.6749 21.0418 19.8982 20 17.9982 20C16.1004 20 14.3251 21.0419 13.4079 22.4975Z" fill="currentColor"/>
<path fill-rule="evenodd" clip-rule="evenodd" d="M3.52674 11.1791L1.54236 9.07921C0.9322 8.46299 0.481544 7.70721 0.229652 6.87734C-0.0249486 6.03854 -0.0686295 5.14994 0.102479 4.29024C0.273587 3.43055 0.654203 2.62629 1.21061 1.94872C1.76702 1.27114 2.48205 0.741167 3.29236 0.40573C4.10266 0.0702935 4.98324 -0.0602487 5.85609 0.0256672C6.61293 0.100164 7.3437 0.33541 8 0.714097C8.6563 0.33541 9.38707 0.100164 10.1439 0.0256672C11.0168 -0.0602487 11.8973 0.0702937 12.7076 0.40573C13.518 0.741167 14.233 1.27115 14.7894 1.94872C14.8766 2.05498 14.9596 2.16435 15.0381 2.27657C18.4646 1.63104 22.012 2.12214 25.1383 3.68065C28.3708 5.29205 30.9629 7.94973 32.4931 11.2214C34.0233 14.4931 34.4016 18.1862 33.5663 21.7001C32.731 25.2141 30.7314 28.342 27.8927 30.5752C25.054 32.8083 21.5432 34.0154 17.9314 33.9999C14.3196 33.9844 10.8193 32.7473 7.99986 30.4899C5.1804 28.2325 3.20768 25.0875 2.40258 21.5665C1.6042 18.075 2.0006 14.4174 3.52674 11.1791ZM13.0365 7.67199L13.02 7.68858L8 13.0009L2.97997 7.68859L2.96355 7.672C2.58227 7.28694 2.30076 6.81477 2.14343 6.29644C1.98442 5.77255 1.95714 5.21757 2.064 4.68065C2.17087 4.14373 2.4086 3.64132 2.75625 3.21797C3.10391 2.7946 3.55077 2.46335 4.05732 2.25365C4.56389 2.04396 5.11443 1.96233 5.66018 2.01605C6.13337 2.06263 6.59022 2.2097 7.00045 2.44641L8 3.02315L8.99955 2.44641C9.40978 2.20971 9.86663 2.06263 10.3398 2.01605C10.8856 1.96233 11.4361 2.04396 11.9427 2.25365C12.4492 2.46335 12.8961 2.7946 13.2437 3.21797C13.5914 3.64132 13.8291 4.14373 13.936 4.68065C14.0429 5.21758 14.0156 5.77255 13.8566 6.29644C13.6992 6.81477 13.4177 7.28693 13.0365 7.67199ZM14.4577 9.0792C15.0678 8.46298 15.5185 7.7072 15.7703 6.87734C16.025 6.03854 16.0686 5.14994 15.8975 4.29024C15.889 4.24766 15.8801 4.20521 15.8706 4.16291C18.724 3.72372 21.6508 4.17684 24.246 5.47057C27.0744 6.88054 29.3426 9.20601 30.6815 12.0687C32.0204 14.9314 32.3514 18.1629 31.6205 21.2376C30.8897 24.3123 29.14 27.0493 26.6561 29.0033C24.1723 30.9573 21.1003 32.0134 17.94 31.9999C14.7797 31.9863 11.7169 30.9039 9.24988 28.9287C6.78286 26.9534 5.05672 24.2016 4.35226 21.1207C3.71273 18.3238 3.94936 15.4052 5.01852 12.7578L8 15.9129L14.4577 9.0792Z" fill="currentColor"/>
</svg>
