<svg width="36" height="36" viewBox="0 0 36 36" fill="none" xmlns="http://www.w3.org/2000/svg">
<path fill-rule="evenodd" clip-rule="evenodd" d="M12.1214 3.46447L11.5859 4H11C8.23858 4 6 6.23858 6 9V29C6 31.7614 8.23858 34 11 34H18V32H11C9.34315 32 8 30.6569 8 29V9C8 7.34315 9.34315 6 11 6H11.807L12.8203 8.70225C13.1131 9.48285 13.8593 10 14.693 10H21.307C22.1407 10 22.8869 9.48285 23.1797 8.70225L24.193 6H25C26.6569 6 28 7.34315 28 9V16H30V9C30 6.23858 27.7614 4 25 4H24.4143L23.8788 3.46447C22.9411 2.52678 21.6693 2 20.3432 2H15.6569C14.3308 2 13.0591 2.52678 12.1214 3.46447ZM15.6569 4C14.8613 4 14.0982 4.31607 13.5356 4.87868L13.492 4.92234C13.5665 5.03896 13.6297 5.16452 13.6797 5.29775L14.693 8H21.307L22.3203 5.29775C22.3703 5.16448 22.4335 5.03889 22.5081 4.92224L22.4645 4.87868C21.9019 4.31607 21.1389 4 20.3432 4H15.6569ZM34 28C34 26.8954 33.1046 26 32 26V24C32 21.7909 30.2091 20 28 20C25.7909 20 24 21.7909 24 24V26C22.8954 26 22 26.8954 22 28V32C22 33.1046 22.8954 34 24 34H32C33.1046 34 34 33.1046 34 32V28ZM30 24V26H26V24C26 22.8954 26.8954 22 28 22C29.1046 22 30 22.8954 30 24ZM32 28V32H24V28H32Z" fill="currentColor"/>
</svg>
