<svg width="36" height="36" viewBox="0 0 36 36" fill="none" xmlns="http://www.w3.org/2000/svg">
<path fill-rule="evenodd" clip-rule="evenodd" d="M8 6C8 4.89543 8.89543 4 10 4C11.1046 4 12 4.89543 12 6C12 7.10457 11.1046 8 10 8C8.89543 8 8 7.10457 8 6ZM10 2C7.79086 2 6 3.79086 6 6C6 8.20914 7.79086 10 10 10C12.2091 10 14 8.20914 14 6C14 3.79086 12.2091 2 10 2ZM24 22C24 20.8954 24.8954 20 26 20C27.1046 20 28 20.8954 28 22C28 23.1046 27.1046 24 26 24C24.8954 24 24 23.1046 24 22ZM26 18C23.7909 18 22 19.7909 22 22C22 24.2091 23.7909 26 26 26C28.2091 26 30 24.2091 30 22C30 19.7909 28.2091 18 26 18ZM6 22C6 23.0506 6.20693 24.0909 6.60896 25.0615C7.011 26.0321 7.60028 26.914 8.34315 27.6569C9.08601 28.3997 9.96793 28.989 10.9385 29.391C11.9091 29.7931 12.9494 30 14 30V32C12.6868 32 11.3864 31.7413 10.1732 31.2388C8.95991 30.7362 7.85752 29.9997 6.92893 29.0711C6.00035 28.1425 5.26375 27.0401 4.7612 25.8268C4.25866 24.6136 4 23.3132 4 22H6ZM24 12V10H26V12H28V10H30V8H28V6H30V4H28V2H26V4H24V2H22V4H20V6H22V8H20V10H22V12H24ZM26 8H24V6H26V8ZM20 32C20 29.7909 21.7909 28 24 28H28C30.2091 28 32 29.7909 32 32V34H30V32C30 30.8954 29.1046 30 28 30H24C22.8954 30 22 30.8954 22 32V34H20V32ZM8 12C5.79086 12 4 13.7909 4 16V18H6V16C6 14.8954 6.89543 14 8 14H12C13.1046 14 14 14.8954 14 16V18H16V16C16 13.7909 14.2091 12 12 12H8Z" fill="currentColor"/>
</svg>
