<svg width="36" height="36" viewBox="0 0 36 36" fill="none" xmlns="http://www.w3.org/2000/svg">
<g clip-path="url(#clip0_5690_525)">
<path fill-rule="evenodd" clip-rule="evenodd" d="M31.8788 3.70701C32.0406 3.54525 32.3029 3.54525 32.4646 3.70701C32.6264 3.86877 32.6264 4.13104 32.4646 4.2928C32.3029 4.45456 32.0406 4.45456 31.8788 4.2928C31.7171 4.13104 31.7171 3.86877 31.8788 3.70701ZM33.8788 2.2928C32.936 1.34999 31.4074 1.34999 30.4646 2.2928C29.5218 3.23561 29.5218 4.7642 30.4646 5.70701C31.4074 6.64982 32.936 6.64982 33.8788 5.70701C34.8216 4.7642 34.8216 3.23561 33.8788 2.2928ZM16.8788 3.70701C17.0406 3.54525 17.3029 3.54525 17.4646 3.70701C17.6264 3.86877 17.6264 4.13104 17.4646 4.2928C17.3029 4.45456 17.0406 4.45456 16.8788 4.2928C16.7171 4.13104 16.7171 3.86877 16.8788 3.70701ZM18.8788 2.2928C17.936 1.34999 16.4074 1.34999 15.4646 2.2928C14.5218 3.23561 14.5218 4.7642 15.4646 5.70701C16.4074 6.64982 17.936 6.64982 18.8788 5.70701C19.8216 4.7642 19.8216 3.23561 18.8788 2.2928ZM26.5859 6.99991C25.8049 6.21886 24.5386 6.21886 23.7575 6.99991L2.17172 28.5857C1.39067 29.3667 1.39067 30.6331 2.17172 31.4141L4.75751 33.9999C5.53856 34.781 6.80489 34.781 7.58594 33.9999L29.1717 12.4141C29.9528 11.6331 29.9528 10.3667 29.1717 9.58569L26.5859 6.99991ZM25.1717 8.41412L27.7575 10.9999L21.5948 17.1626L19.009 14.5768L25.1717 8.41412ZM17.5948 15.991L20.1806 18.5768L6.17172 32.5857L3.58594 29.9999L17.5948 15.991ZM31.8788 18.707C32.0406 18.5453 32.3029 18.5453 32.4646 18.707C32.6264 18.8688 32.6264 19.131 32.4646 19.2928C32.3029 19.4546 32.0406 19.4546 31.8788 19.2928C31.7171 19.131 31.7171 18.8688 31.8788 18.707ZM33.8788 17.2928C32.936 16.35 31.4074 16.35 30.4646 17.2928C29.5218 18.2356 29.5218 19.7642 30.4646 20.707C31.4074 21.6498 32.936 21.6498 33.8788 20.707C34.8216 19.7642 34.8216 18.2356 33.8788 17.2928Z" fill="currentColor"/>
</g>
<defs>
<clipPath id="clip0_5690_525">
<rect width="18" height="18" fill="white" transform="scale(2)"/>
</clipPath>
</defs>
</svg>
