<svg width="36" height="36" viewBox="0 0 36 36" fill="none" xmlns="http://www.w3.org/2000/svg">
<path fill-rule="evenodd" clip-rule="evenodd" d="M10 6.14363C13.3617 4.20276 17.3143 3.55018 21.1214 4.30747C24.9286 5.06476 28.3306 7.18027 30.6937 10.2599C33.0567 13.3394 34.2196 17.1731 33.9657 21.0465C33.7119 24.9199 32.0585 28.5689 29.3137 31.3137L27.8995 29.8995C30.3012 27.4978 31.7479 24.3049 31.97 20.9157C32.1922 17.5264 31.1746 14.172 29.1069 11.4774C27.0393 8.78274 24.0625 6.93167 20.7313 6.26904C17.4 5.60641 13.9415 6.17742 11 7.87568L10 6.14363ZM15.968 18.5539L4.70711 7.29293L3.29289 8.70714L14.5538 19.9681C14.2019 20.5636 14 21.2582 14 22C14 24.2092 15.7909 26 18 26C20.2091 26 22 24.2092 22 22C22 19.7909 20.2091 18 18 18C17.2582 18 16.5635 18.202 15.968 18.5539ZM2.54519 24.1411C1.81827 21.4283 1.81827 18.5718 2.54519 15.8589L4.47704 16.3766C3.84099 18.7503 3.84099 21.2497 4.47704 23.6235C5.11309 25.9973 6.36278 28.1618 8.1005 29.8995L6.68629 31.3137C4.70032 29.3278 3.2721 26.854 2.54519 24.1411ZM18 20C16.8954 20 16 20.8955 16 22C16 23.1046 16.8954 24 18 24C19.1046 24 20 23.1046 20 22C20 20.8955 19.1046 20 18 20Z" fill="currentColor"/>
</svg>
