<svg width="36" height="36" viewBox="0 0 36 36" fill="none" xmlns="http://www.w3.org/2000/svg">
<path fill-rule="evenodd" clip-rule="evenodd" d="M6.33333 4C5.04467 4 4 5.04467 4 6.33333V29.6667C4 30.9553 5.04467 32 6.33333 32H29.6667C30.9553 32 32 30.9553 32 29.6667V6.33333C32 5.04467 30.9553 4 29.6667 4H6.33333Z" fill="#F9F9FA"/>
<path fill-rule="evenodd" clip-rule="evenodd" d="M4 6.33333C4 5.04467 5.04467 4 6.33333 4H29.6667C30.9553 4 32 5.04467 32 6.33333V29.6667C32 30.9553 30.9553 32 29.6667 32H6.33333C5.04467 32 4 30.9553 4 29.6667V6.33333ZM18.8931 14.4979H14.9124V27.8594H19.0603V21.2498C19.0603 19.506 19.3901 17.819 21.5515 17.819C23.6795 17.819 23.7099 19.8125 23.7099 21.3618V27.8594H27.8585V20.5304C27.8585 16.9316 27.0815 14.165 22.8792 14.165C20.8593 14.165 19.5044 15.2726 18.9507 16.3234H18.8931V14.4979ZM10.2286 7.8549C11.5578 7.8549 12.635 8.93445 12.635 10.2621C12.635 11.5913 11.5578 12.6701 10.2286 12.6701C8.89468 12.6701 7.81901 11.5913 7.81901 10.2621C7.81901 8.93445 8.89468 7.8549 10.2286 7.8549ZM12.3066 27.8592H8.14941V14.4977H12.3066V27.8592Z" fill="#1078B3"/>
</svg>
