<svg width="36" height="36" viewBox="0 0 36 36" fill="none" xmlns="http://www.w3.org/2000/svg">
<path fill-rule="evenodd" clip-rule="evenodd" d="M34 11H18V9H34V11ZM34 27H18V25H34V27Z" fill="currentColor"/>
<path d="M12 26C12 28.2091 10.2091 30 8 30C5.79086 30 4 28.2091 4 26C4 23.7909 5.79086 22 8 22C10.2091 22 12 23.7909 12 26Z" fill="currentColor"/>
<path d="M12 10C12 12.2091 10.2091 14 8 14C5.79086 14 4 12.2091 4 10C4 7.79086 5.79086 6 8 6C10.2091 6 12 7.79086 12 10Z" fill="currentColor"/>
</svg>
