<svg width="36" height="36" viewBox="0 0 36 36" fill="none" xmlns="http://www.w3.org/2000/svg">
<path fill-rule="evenodd" clip-rule="evenodd" d="M12.6424 5.06569C14.341 4.36212 16.1615 4 18 4C19.8385 4 21.659 4.36212 23.3576 5.06569C25.0561 5.76925 26.5995 6.80048 27.8995 8.1005C29.1995 9.40053 30.2307 10.9439 30.9343 12.6424C31.6379 14.341 32 16.1615 32 18V27C32 29.7614 29.7614 32 27 32H24C22.8954 32 22 31.1046 22 30V22C22 20.8954 22.8954 20 24 20H30V18C30 16.4241 29.6896 14.8637 29.0866 13.4078C28.4835 11.9519 27.5996 10.629 26.4853 9.51472C25.371 8.40042 24.0481 7.5165 22.5922 6.91345C21.1363 6.31039 19.5759 6 18 6C16.4241 6 14.8637 6.31039 13.4078 6.91345C11.9519 7.5165 10.629 8.40042 9.51472 9.51472C8.40041 10.629 7.5165 11.9519 6.91345 13.4078C6.31039 14.8637 6 16.4241 6 18V20H12C13.1046 20 14 20.8954 14 22V30C14 31.1046 13.1046 32 12 32H9C6.23858 32 4 29.7614 4 27V18C4 16.1615 4.36212 14.341 5.06569 12.6424C5.76925 10.9439 6.80048 9.40053 8.1005 8.10051C9.40052 6.80049 10.9439 5.76925 12.6424 5.06569ZM30 27V22H24V30H27C28.6569 30 30 28.6569 30 27ZM6 22V27C6 28.6569 7.34315 30 9 30H12V22H6Z" fill="currentColor"/>
</svg>
