<svg width="36" height="36" viewBox="0 0 36 36" fill="none" xmlns="http://www.w3.org/2000/svg">
<path fill-rule="evenodd" clip-rule="evenodd" d="M17 22V2H19V22H17ZM8.10052 8.1005C6.14258 10.0584 4.80921 12.553 4.26901 15.2687C3.72882 17.9845 4.00607 20.7994 5.06569 23.3576C6.12532 25.9157 7.91973 28.1022 10.222 29.6406C12.5243 31.1789 15.2311 32 18 32C20.7689 32 23.4757 31.1789 25.778 29.6406C28.0803 28.1022 29.8747 25.9157 30.9343 23.3576C31.9939 20.7994 32.2712 17.9845 31.731 15.2687C31.1908 12.553 29.8574 10.0584 27.8995 8.1005L29.3137 6.68629C31.5514 8.92393 33.0752 11.7749 33.6926 14.8786C34.3099 17.9823 33.9931 21.1993 32.7821 24.1229C31.5711 27.0466 29.5203 29.5454 26.8891 31.3035C24.2579 33.0616 21.1645 34 18 34C14.8355 34 11.7421 33.0616 9.11088 31.3035C6.4797 29.5454 4.42894 27.0465 3.21793 24.1229C2.00693 21.1993 1.69008 17.9822 2.30744 14.8786C2.92481 11.7749 4.44866 8.92393 6.6863 6.68629L8.10052 8.1005Z" fill="currentColor"/>
</svg>
