<svg width="36" height="36" viewBox="0 0 36 36" fill="none" xmlns="http://www.w3.org/2000/svg">
<g clip-path="url(#clip0_857_178)">
<path d="M14.2023 13.5541L14.2026 13.553L20.9203 17.4786L24.9233 15.8352L24.9235 15.8359C25.7369 15.4928 26.6139 15.3162 27.5001 15.3171C27.6477 15.3171 27.7936 15.3236 27.9389 15.3331C27.4576 13.5022 26.4416 11.8472 25.0144 10.5691C23.5871 9.29098 21.8101 8.44479 19.8992 8.13336C17.9884 7.82194 16.0259 8.05868 14.2504 8.81483C12.4748 9.57098 10.9626 10.814 9.89746 12.3928C9.93164 12.3923 9.96539 12.3902 9.9997 12.3902C11.4844 12.3883 12.9401 12.7914 14.2023 13.5541Z" fill="#0364B8"/>
<path d="M14.203 13.553L14.2027 13.554C12.9405 12.7914 11.4848 12.3882 10.0002 12.3902C9.96586 12.3902 9.93211 12.3923 9.89793 12.3927C8.4448 12.4103 7.02404 12.8138 5.78833 13.5599C4.55263 14.3061 3.54868 15.3666 2.88439 16.6276C2.2201 17.8886 1.92057 19.3023 2.01799 20.7169C2.11542 22.1314 2.60611 23.4934 3.43735 24.6563L9.36149 22.2242L11.995 21.143L17.8586 18.7358L20.9208 17.4786L14.203 13.553Z" fill="#0F78D4"/>
<path d="M27.9394 15.333C27.7942 15.3236 27.6483 15.317 27.5006 15.317C26.6144 15.3162 25.7375 15.4928 24.9241 15.8358L24.9239 15.8352L20.9209 17.4786L22.0817 18.1569L25.8867 20.3804L27.5468 21.3505L33.2233 24.6677C33.739 23.7336 34.0063 22.6881 34.0006 21.6271C33.995 20.566 33.7165 19.5234 33.1907 18.5945C32.665 17.6657 31.9087 16.8804 30.9913 16.3106C30.0738 15.7408 29.0245 15.4047 27.9394 15.333H27.9394Z" fill="#1490DF"/>
<path d="M27.5469 21.3506L25.8868 20.3805L22.0818 18.157L20.921 17.4787L17.8588 18.7358L11.9951 21.1431L9.36164 22.2243L3.4375 24.6564C4.17368 25.689 5.15509 26.5324 6.29791 27.1147C7.44074 27.6969 8.71103 28.0007 10.0003 28H27.5007C28.6741 28.0004 29.8256 27.6908 30.8332 27.1041C31.8407 26.5174 32.6667 25.6755 33.2233 24.6678L27.5469 21.3506Z" fill="#28A8EA"/>
</g>
<defs>
<clipPath id="clip0_857_178">
<rect width="18" height="18" fill="white" transform="scale(2)"/>
</clipPath>
</defs>
</svg>
