<svg width="36" height="36" viewBox="0 0 36 36" fill="none" xmlns="http://www.w3.org/2000/svg">
<path fill-rule="evenodd" clip-rule="evenodd" d="M12 8C12 4.68629 14.6863 2 18 2C21.3137 2 24 4.68629 24 8V19C24 22.3137 21.3137 25 18 25C14.6863 25 12 22.3137 12 19V8ZM18 4C15.7909 4 14 5.79086 14 8V19C14 21.2091 15.7909 23 18 23C20.2091 23 22 21.2091 22 19V8C22 5.79086 20.2091 4 18 4Z" fill="currentColor"/>
<path d="M8 19V16H10V19C10 23.4183 13.5817 27 18 27C22.4183 27 26 23.4183 26 19V16H28V19C28 24.1853 24.0533 28.4489 19 28.9506V32H24V34H12V32H17V28.9506C11.9467 28.4489 8 24.1853 8 19Z" fill="currentColor"/>
</svg>
