<svg width="36" height="36" viewBox="0 0 36 36" fill="none" xmlns="http://www.w3.org/2000/svg">
<path fill-rule="evenodd" clip-rule="evenodd" d="M10 9C10 6.23858 12.2386 4 15 4H29C31.7614 4 34 6.23858 34 9V19C34 21.7614 31.7614 24 29 24H15C12.2386 24 10 21.7614 10 19V9ZM15 6C13.3431 6 12 7.34315 12 9V19C12 20.6569 13.3431 22 15 22H29C30.6569 22 32 20.6569 32 19V9C32 7.34315 30.6569 6 29 6H15ZM6 18C4.89543 18 4 18.8954 4 20V27C4 28.6569 5.34315 30 7 30H18C19.1046 30 20 29.1046 20 28H22C22 30.2091 20.2091 32 18 32H7C4.23858 32 2 29.7614 2 27V20C2 17.7909 3.79086 16 6 16V18Z" fill="currentColor"/>
</svg>
