<svg width="36" height="36" viewBox="0 0 36 36" fill="none" xmlns="http://www.w3.org/2000/svg">
<path d="M12 3.16309C6.13634 5.53664 2 11.2853 2 18.0001C2 24.7148 6.13634 30.4635 12 32.837V30.6528C7.27011 28.4059 4 23.5848 4 18.0001C4 12.4153 7.27011 7.59424 12 5.34731V3.16309Z" fill="currentColor"/>
<path d="M24 30.6528C28.7299 28.4059 32 23.5848 32 18.0001C32 12.4153 28.7299 7.59424 24 5.34731V3.16309C29.8637 5.53664 34 11.2853 34 18.0001C34 24.7148 29.8637 30.4635 24 32.837V30.6528Z" fill="currentColor"/>
<path d="M18.0512 34H17.9488C17.9659 34 17.9829 34.0001 18 34.0001C18.0171 34.0001 18.0341 34 18.0512 34Z" fill="currentColor"/>
<path fill-rule="evenodd" clip-rule="evenodd" d="M18 26.0001C22.4183 26.0001 26 22.4183 26 18.0001C26 13.5818 22.4183 10.0001 18 10.0001C13.5817 10.0001 10 13.5818 10 18.0001C10 22.4183 13.5817 26.0001 18 26.0001ZM18 24.0001C21.3137 24.0001 24 21.3138 24 18.0001C24 14.6863 21.3137 12.0001 18 12.0001C14.6863 12.0001 12 14.6863 12 18.0001C12 21.3138 14.6863 24.0001 18 24.0001Z" fill="currentColor"/>
</svg>
