<svg width="36" height="36" viewBox="0 0 36 36" fill="none" xmlns="http://www.w3.org/2000/svg">
<path fill-rule="evenodd" clip-rule="evenodd" d="M6 7C6 4.23858 8.23858 2 11 2H21.3431C22.6692 2 23.941 2.52678 24.8787 3.46447L28.5355 7.12132C29.4732 8.059 30 9.33077 30 10.6569V29C30 31.7614 27.7614 34 25 34H11C8.23858 34 6 31.7614 6 29V7ZM11 4C9.34315 4 8 5.34315 8 7V29C8 30.6569 9.34315 32 11 32H25C26.6569 32 28 30.6569 28 29V12H23C21.3431 12 20 10.6569 20 9V4H11ZM22 4.07278V9C22 9.55228 22.4477 10 23 10H27.9272C27.8037 9.44969 27.5264 8.94065 27.1213 8.53553L23.4645 4.87868C23.0594 4.47357 22.5503 4.19628 22 4.07278ZM24 18H12V16H24V18ZM24 22H12V20H24V22ZM20 26H12V24H20V26Z" fill="currentColor"/>
</svg>
