<svg width="36" height="36" viewBox="0 0 36 36" fill="none" xmlns="http://www.w3.org/2000/svg">
<path fill-rule="evenodd" clip-rule="evenodd" d="M18 2C14.8174 2 11.7652 3.26428 9.51472 5.51472C7.26428 7.76515 6 10.8174 6 14V19.1716C6 19.4368 5.89464 19.6911 5.7071 19.8787L3.87868 21.7071C3.31607 22.2697 3 23.0328 3 23.8284V25C3 26.022 3.511 26.9246 4.29143 27.4663L5.78161 25.9761C5.33435 25.8765 5 25.4773 5 25V23.8284C5 23.5632 5.10535 23.3089 5.29289 23.1213L7.12132 21.2929C7.68393 20.7303 8 19.9672 8 19.1716V14C8 11.3478 9.05357 8.80429 10.9289 6.92893C12.8043 5.05357 15.3478 4 18 4C20.595 4 23.086 5.00864 24.9489 6.80881L26.3633 5.39443C24.1252 3.21928 21.1254 2 18 2ZM27.2395 10.1749L11.4144 26H30C30.5523 26 31 25.5523 31 25V23.8284C31 23.5632 30.8946 23.3089 30.7071 23.1213L28.8787 21.2929C28.3161 20.7303 28 19.9672 28 19.1716V14C28 12.6745 27.7369 11.3762 27.2395 10.1749ZM9.41436 28L3.70718 33.7072L2.29297 32.293L32.293 2.29297L33.7072 3.70718L28.749 8.66534C29.5642 10.3081 30 12.1316 30 14V19.1716C30 19.4368 30.1054 19.6911 30.2929 19.8787L32.1213 21.7071C32.6839 22.2697 33 23.0328 33 23.8284V25C33 26.6569 31.6568 28 30 28H9.41436ZM16 30C16 30.5304 16.2107 31.0391 16.5858 31.4142C16.9609 31.7893 17.4696 32 18 32C18.5304 32 19.0391 31.7893 19.4142 31.4142C19.7893 31.0391 20 30.5304 20 30H22C22 31.0609 21.5786 32.0783 20.8284 32.8284C20.0783 33.5786 19.0609 34 18 34C16.9391 34 15.9217 33.5786 15.1716 32.8284C14.4214 32.0783 14 31.0609 14 30H16Z" fill="currentColor"/>
</svg>
