<svg width="36" height="36" viewBox="0 0 36 36" fill="none" xmlns="http://www.w3.org/2000/svg">
<path d="M18 2C26.8366 2 34 9.16344 34 18C34 21.3923 32.9394 24.5345 31.1387 27.123L29.6992 25.6836C31.1512 23.4773 32 20.8386 32 18C32 10.268 25.732 4 18 4C10.268 4 4 10.268 4 18C4 25.732 10.268 32 18 32C20.7212 32 23.2591 31.2203 25.4082 29.877L26.8555 31.3242C24.3194 33.0131 21.2755 34 18 34C9.16344 34 2 26.8366 2 18C2 9.16344 9.16344 2 18 2Z" fill="currentColor"/>
<path fill-rule="evenodd" clip-rule="evenodd" d="M18 8C23.5228 8 28 12.4772 28 18C28 20.4585 27.1104 22.7078 25.6387 24.4492L29.8906 28.7031C29.444 29.199 28.9638 29.6629 28.459 30.0996L24.2012 25.8398C22.4963 27.1902 20.3437 28 18 28C12.4772 28 8 23.5228 8 18C8 12.4772 12.4772 8 18 8ZM18 10C13.5817 10 10 13.5817 10 18C10 22.4183 13.5817 26 18 26C22.4183 26 26 22.4183 26 18C26 13.5817 22.4183 10 18 10Z" fill="currentColor"/>
</svg>
