<svg width="36" height="36" viewBox="0 0 36 36" fill="none" xmlns="http://www.w3.org/2000/svg">
<path d="M20.584 8.33789C24.8543 9.477 28 13.3708 28 18C28 22.6327 24.8494 26.5282 20.5742 27.6641L20.0664 25.7285C23.4829 24.8174 26 21.7035 26 18C26 14.2956 23.4821 11.1799 20.0645 10.2695L20.584 8.33789Z" fill="currentColor"/>
<path d="M18 16C19.1046 16 20 16.8954 20 18C20 19.1046 19.1046 20 18 20C16.8954 20 16 19.1046 16 18C16 16.8954 16.8954 16 18 16Z" fill="currentColor"/>
<path fill-rule="evenodd" clip-rule="evenodd" d="M18 2C26.8366 2 34 9.16344 34 18C34 26.8366 26.8366 34 18 34C9.16344 34 2 26.8366 2 18C2 9.16344 9.16344 2 18 2ZM18 4C10.268 4 4 10.268 4 18C4 25.732 10.268 32 18 32C25.732 32 32 25.732 32 18C32 10.268 25.732 4 18 4Z" fill="currentColor"/>
</svg>
