<svg width="36" height="36" viewBox="0 0 36 36" fill="none" xmlns="http://www.w3.org/2000/svg">
<path fill-rule="evenodd" clip-rule="evenodd" d="M4 9C4 6.23858 6.23858 4 9 4H27C29.7614 4 32 6.23858 32 9V27C32 29.7614 29.7614 32 27 32H9C6.23858 32 4 29.7614 4 27V9ZM9 6C7.34315 6 6 7.34315 6 9V27C6 28.6569 7.34315 30 9 30H27C28.6569 30 30 28.6569 30 27V9C30 7.34315 28.6569 6 27 6H9ZM8 10C8 8.89543 8.89543 8 10 8H12C13.1046 8 14 8.89543 14 10V12C14 13.1046 13.1046 14 12 14H10C8.89543 14 8 13.1046 8 12V10ZM12 10H10V12H12V10ZM21 12V10H23V12H26V14H20V17H24C25.1046 17 26 17.8954 26 19V22C26 23.1046 25.1046 24 24 24H23V26H21V24H18V22H24V19H20C18.8954 19 18 18.1046 18 17V14C18 12.8954 18.8954 12 20 12H21ZM10 26L10 18H12V26H10Z" fill="currentColor"/>
</svg>
