<svg width="36" height="36" viewBox="0 0 36 36" fill="none" xmlns="http://www.w3.org/2000/svg">
<path fill-rule="evenodd" clip-rule="evenodd" d="M18.0352 11.6907C18.0424 11.9084 18.0511 12.1441 18.0616 12.3959C18.1235 13.8798 18.2471 15.9184 18.4939 18.1396C18.741 20.3635 19.1097 22.7533 19.6576 24.945C20.1516 26.9207 20.7773 28.6777 21.5537 30H32V32H4V30H19.2925C18.6377 28.6354 18.1245 27.0585 17.7174 25.43C17.1403 23.1217 16.759 20.6365 16.5061 18.3604C16.2529 16.0816 16.1265 13.9952 16.0634 12.4791C16.0534 12.2398 16.045 12.0146 16.0379 11.8049C15.6274 12.1132 15.1667 12.4975 14.7071 12.9571C13.3161 14.3481 12 16.3588 12 19H10C10 15.6412 11.6839 13.1519 13.2929 11.5429C13.5435 11.2923 13.7938 11.0614 14.0379 10.8501C13.8832 10.8554 13.7245 10.8629 13.5624 10.8731C11.65 10.9926 9.37591 11.4681 7.6 12.8L6.4 11.2C8.62409 9.53193 11.35 9.00742 13.4376 8.87695C13.9029 8.84787 14.3423 8.83802 14.7447 8.84033C14.5525 8.65328 14.3408 8.46073 14.1098 8.26822C12.7345 7.12213 10.7032 6 8 6V4C11.2968 4 13.7655 5.37787 15.3902 6.73178C16.0812 7.30762 16.625 7.88317 17.023 8.35608C17.4679 7.86956 18.0924 7.27655 18.9188 6.68627C20.8249 5.32476 23.7756 4 28 4V6C24.2244 6 21.6751 7.17524 20.0812 8.31373C19.8322 8.49165 19.6057 8.66923 19.4009 8.84203C19.905 8.83563 20.4633 8.84364 21.0555 8.87654C23.3652 9.00486 26.3595 9.51965 28.6 11.2L27.4 12.8C25.6405 11.4803 23.1348 10.9951 20.9445 10.8735C20.7416 10.8622 20.5429 10.8541 20.3493 10.8487C20.6124 11.0459 20.8814 11.2598 21.1508 11.4907C23.0031 13.0785 25 15.581 25 19H23C23 16.419 21.4969 14.4215 19.8492 13.0093C19.2148 12.4655 18.5776 12.0254 18.0352 11.6907Z" fill="currentColor"/>
</svg>
