<svg width="36" height="36" viewBox="0 0 36 36" fill="none" xmlns="http://www.w3.org/2000/svg">
<path fill-rule="evenodd" clip-rule="evenodd" d="M18 4C10.268 4 4 10.268 4 18C4 25.732 10.268 32 18 32C25.732 32 32 25.732 32 18C32 10.268 25.732 4 18 4ZM2 18C2 9.16344 9.16344 2 18 2C26.8366 2 34 9.16344 34 18C34 26.8366 26.8366 34 18 34C9.16344 34 2 26.8366 2 18ZM13 13.0597C13 11.816 14.3568 11.0479 15.4232 11.6877L23.657 16.628C24.6927 17.2495 24.6927 18.7505 23.657 19.372L15.4232 24.3123C14.3568 24.9521 13 24.184 13 22.9403V13.0597ZM15 13.7662V22.2338L22.0563 18L15 13.7662Z" fill="currentColor"/>
</svg>
