<svg width="36" height="36" viewBox="0 0 36 36" fill="none" xmlns="http://www.w3.org/2000/svg">
<path fill-rule="evenodd" clip-rule="evenodd" d="M6 7C6 4.23858 8.23858 2 11 2H21.3431C22.6692 2 23.941 2.52678 24.8787 3.46447L28.5355 7.12132C29.4732 8.059 30 9.33077 30 10.6569V14H28V12H23C21.3431 12 20 10.6569 20 9V4H11C9.34315 4 8 5.34315 8 7V14H6V7ZM23.7071 5.12132L26.8787 8.29289C27.3557 8.76994 27.6939 9.35992 27.8671 10H23C22.4477 10 22 9.55228 22 9V4.1329C22.6401 4.30612 23.2301 4.64427 23.7071 5.12132Z" fill="currentColor"/>
<path d="M6 34V32H30V34H6Z" fill="currentColor"/>
<path fill-rule="evenodd" clip-rule="evenodd" d="M2 18H6C7.10457 18 8 18.8954 8 20V22C8 23.1046 7.10457 24 6 24H4V28H2V18ZM4 20V22H6V20H4Z" fill="currentColor"/>
<path fill-rule="evenodd" clip-rule="evenodd" d="M10 18H14C15.1046 18 16 18.8954 16 20V22C16 23.1046 15.1046 24 14 24H12V28H10V18ZM12 20V22H14V20H12Z" fill="currentColor"/>
<path d="M18 20H20V28H22V20H24V18H18V20Z" fill="currentColor"/>
<path d="M26 18H28V18.7639L29 20.7639L30 18.7639V18H32V19.2361L30.118 23L32 26.7639V28H30V27.2361L29 25.2361L28 27.2361V28H26V26.7639L27.882 23L26 19.2361V18Z" fill="currentColor"/>
</svg>
