<svg width="36" height="36" viewBox="0 0 36 36" fill="none" xmlns="http://www.w3.org/2000/svg">
<path fill-rule="evenodd" clip-rule="evenodd" d="M12 10C12 6.68629 14.6863 4 18 4C21.3137 4 24 6.68629 24 10C24 13.3137 21.3137 16 18 16C14.6863 16 12 13.3137 12 10ZM18 2C13.5817 2 10 5.58172 10 10C10 14.4183 13.5817 18 18 18C22.4183 18 26 14.4183 26 10C26 5.58172 22.4183 2 18 2ZM8 31C8 26.0294 12.0294 22 17 22H18V20H17C10.9249 20 6 24.9249 6 31V34H8V31ZM34 28C34 26.8954 33.1046 26 32 26V24C32 21.7909 30.2091 20 28 20C25.7909 20 24 21.7909 24 24V26C22.8954 26 22 26.8954 22 28V32C22 33.1046 22.8954 34 24 34H32C33.1046 34 34 33.1046 34 32V28ZM30 24V26H26V24C26 22.8954 26.8954 22 28 22C29.1046 22 30 22.8954 30 24ZM32 28V32H24V28H32Z" fill="currentColor"/>
</svg>
