<svg width="36" height="36" viewBox="0 0 36 36" fill="none" xmlns="http://www.w3.org/2000/svg">
<path fill-rule="evenodd" clip-rule="evenodd" d="M4 4H6V2H8V4H30.3119H32.0114L31.186 5.48564L27.2971 12.4856L25.5488 11.5144L28.6124 6H8V22H12V24H8V34H6V24H4V22H6V6H4V4ZM20.9458 24H18.0709C18.4095 21.6326 19.9327 19.6474 22.0207 18.6638C21.9759 18.7689 21.9326 18.8758 21.8909 18.9842C21.3695 20.3399 21.0332 22.0876 20.9458 24ZM16 25C16 20.0294 20.0294 16 25 16C29.9706 16 34 20.0294 34 25C34 29.9706 29.9706 34 25 34C20.0294 34 16 29.9706 16 25ZM24.5422 18.3015C24.7977 18.0205 24.9538 18 25 18C25.0462 18 25.2023 18.0205 25.4578 18.3015C25.7136 18.5827 25.9898 19.0455 26.2424 19.7021C26.6642 20.799 26.9659 22.2948 27.0519 24H22.9481C23.0341 22.2948 23.3358 20.799 23.7576 19.7021C24.0102 19.0455 24.2864 18.5827 24.5422 18.3015ZM28.1091 18.9842C28.6305 20.3399 28.9668 22.0876 29.0542 24H31.9291C31.5905 21.6326 30.0673 19.6474 27.9793 18.6638C28.0241 18.7689 28.0674 18.8758 28.1091 18.9842ZM23.7576 30.2979C23.3358 29.201 23.0341 27.7052 22.9481 26H27.0519C26.9659 27.7052 26.6642 29.201 26.2424 30.2979C25.9898 30.9545 25.7136 31.4173 25.4578 31.6985C25.2023 31.9795 25.0462 32 25 32C24.9538 32 24.7977 31.9795 24.5422 31.6985C24.2864 31.4173 24.0102 30.9545 23.7576 30.2979ZM28.1091 31.0158C28.0674 31.1242 28.0241 31.2311 27.9793 31.3362C30.0673 30.3526 31.5905 28.3674 31.9291 26H29.0542C28.9668 27.9124 28.6305 29.6601 28.1091 31.0158ZM21.8909 31.0158C21.9326 31.1242 21.9759 31.2311 22.0207 31.3362C19.9327 30.3526 18.4095 28.3674 18.0709 26H20.9458C21.0332 27.9124 21.3695 29.6601 21.8909 31.0158Z" fill="currentColor"/>
</svg>
