<svg width="36" height="36" viewBox="0 0 36 36" fill="none" xmlns="http://www.w3.org/2000/svg">
<path fill-rule="evenodd" clip-rule="evenodd" d="M28 2V8H29C31.7614 8 34 10.2386 34 13V27C34 29.7614 31.7614 32 29 32H7C4.23858 32 2 29.7614 2 27V13C2 10.2386 4.23858 8 7 8H7.99926V6H9.99926V8H13V6H15V8H26V2H28ZM7 10C5.34315 10 4 11.3431 4 13V27C4 28.6569 5.34315 30 7 30H29C30.6569 30 32 28.6569 32 27V13C32 11.3431 30.6569 10 29 10H7ZM12 16H8V14H12V16ZM28 16H20V14H28V16ZM12 20C10.8954 20 10 20.8954 10 22C10 23.1046 10.8954 24 12 24C13.1046 24 14 23.1046 14 22C14 20.8954 13.1046 20 12 20ZM8 22C8 19.7909 9.79086 18 12 18C14.2091 18 16 19.7909 16 22C16 24.2091 14.2091 26 12 26C9.79086 26 8 24.2091 8 22ZM28 21H20V19H28V21ZM28 26H20V24H28V26Z" fill="currentColor"/>
</svg>
