<svg width="36" height="36" viewBox="0 0 36 36" fill="none" xmlns="http://www.w3.org/2000/svg">
<path d="M12 2H24V4H12V2Z" fill="currentColor"/>
<path d="M14 12H16V28H14V12Z" fill="currentColor"/>
<path d="M22 12H20V18H22V12Z" fill="currentColor"/>
<path d="M32 6V8H28V16H26V8H10V29C10 30.6569 11.3431 32 13 32H18V34H13C10.2386 34 8 31.7614 8 29V8H4V6H32Z" fill="currentColor"/>
<g clip-path="url(#clip0_6163_614)">
<path fill-rule="evenodd" clip-rule="evenodd" d="M32 26C33.1046 26 34 26.8954 34 28V32C34 33.1046 33.1046 34 32 34H24C22.8954 34 22 33.1046 22 32V28C22 26.8954 22.8954 26 24 26V24C24 21.7909 25.7909 20 28 20C30.2091 20 32 21.7909 32 24V26ZM30 26V24C30 22.8954 29.1046 22 28 22C26.8954 22 26 22.8954 26 24V26H30ZM32 32V28H24V32H32Z" fill="currentColor"/>
</g>
<defs>
<clipPath id="clip0_6163_614">
<rect width="6" height="7" fill="white" transform="matrix(2 0 0 2 22 20)"/>
</clipPath>
</defs>
</svg>
