<svg width="36" height="36" viewBox="0 0 36 36" fill="none" xmlns="http://www.w3.org/2000/svg">
<path fill-rule="evenodd" clip-rule="evenodd" d="M24.7071 1.29272L30.4142 6.99987L24.7071 12.707L23.2929 11.2928L26.5858 7.99987H18C15.6266 7.99987 13.3066 8.70366 11.3332 10.0222C9.35977 11.3408 7.8217 13.215 6.91345 15.4077C6.0052 17.6004 5.76756 20.0132 6.23058 22.341C6.69361 24.6687 7.83649 26.8069 9.51472 28.4852C11.193 30.1634 13.3312 31.3063 15.6589 31.7693C17.9867 32.2323 20.3995 31.9947 22.5922 31.0864C24.7849 30.1782 26.6591 28.6401 27.9776 26.6667C29.2962 24.6933 30 22.3732 30 19.9999H32C32 22.7688 31.1789 25.4756 29.6406 27.7779C28.1022 30.0801 25.9157 31.8746 23.3576 32.9342C20.7994 33.9938 17.9845 34.2711 15.2687 33.7309C12.553 33.1907 10.0584 31.8573 8.10051 29.8994C6.14258 27.9414 4.80921 25.4469 4.26901 22.7311C3.72882 20.0154 4.00607 17.2005 5.06569 14.6423C6.12532 12.0841 7.91973 9.89764 10.222 8.3593C12.5243 6.82096 15.2311 5.99987 18 5.99987H26.5858L23.2929 2.70693L24.7071 1.29272Z" fill="currentColor"/>
</svg>
