<svg width="36" height="36" viewBox="0 0 36 36" fill="none" xmlns="http://www.w3.org/2000/svg">
<path d="M6 7C6 4.23858 8.23858 2 11 2H25C27.7614 2 30 4.23858 30 7V20H28V14H15.6583L18.7337 17.3205L17.2664 18.6795L12.0061 13L17.2664 7.32049L18.7337 8.67951L15.6583 12H28V7C28 5.34315 26.6569 4 25 4H11C9.34315 4 8 5.34315 8 7V29C8 30.6569 9.34315 32 11 32H20V34H11C8.23858 34 6 31.7614 6 29V7Z" fill="currentColor"/>
<path d="M24 28H28V24H30V28H34V30H30V34H28V30H24V28Z" fill="currentColor"/>
<path d="M20 24H12V22H20V24Z" fill="currentColor"/>
<path d="M12 28H20V26H12V28Z" fill="currentColor"/>
</svg>
