<svg width="36" height="36" viewBox="0 0 36 36" fill="none" xmlns="http://www.w3.org/2000/svg">
<path fill-rule="evenodd" clip-rule="evenodd" d="M7.00008 3.58594L12.7072 9.29304L11.293 10.7073L8.00008 7.41436V27.0002C8.00008 28.657 9.34322 30.0002 11.0001 30.0002H18.0001V32.0002H11.0001C8.23865 32.0002 6.00008 29.7616 6.00008 27.0002V7.41436L2.70718 10.7073L1.29297 9.29304L7.00008 3.58594ZM25.0001 6.00015H18.0001V4.00015H25.0001C27.7615 4.00015 30.0001 6.23873 30.0001 9.00015V28.5859L33.293 25.293L34.7072 26.7073L29.0001 32.4144L23.293 26.7073L24.7072 25.293L28.0001 28.5859V9.00015C28.0001 7.3433 26.6569 6.00015 25.0001 6.00015Z" fill="currentColor"/>
</svg>
