<svg width="36" height="36" viewBox="0 0 36 36" fill="none" xmlns="http://www.w3.org/2000/svg">
<path fill-rule="evenodd" clip-rule="evenodd" d="M18 20C20.2091 20 22 18.2091 22 16C22 13.7909 20.2091 12 18 12C15.7909 12 14 13.7909 14 16C14 18.2091 15.7909 20 18 20ZM18 18C19.1046 18 20 17.1046 20 16C20 14.8954 19.1046 14 18 14C16.8954 14 16 14.8954 16 16C16 17.1046 16.8954 18 18 18Z" fill="currentColor"/>
<path fill-rule="evenodd" clip-rule="evenodd" d="M18 4C16.6953 4 15.5389 4.57213 14.5786 5.3724C13.6196 6.17158 12.8006 7.24176 12.1381 8.36798C10.83 10.5917 10 13.2672 10 15V17.7639L7.58063 22.6027C7.34715 23.0696 6.99585 23.4676 6.56145 23.7572L5.3359 24.5742C4.5013 25.1306 4 26.0673 4 27.0704V30H10.1697C10.5809 31.1667 11.6941 32 13 32H23C24.3059 32 25.4191 31.1667 25.8303 30H32V27.0704C32 26.0673 31.4987 25.1306 30.6641 24.5742L29.4386 23.7572C29.0042 23.4676 28.6529 23.0696 28.4194 22.6027L26 17.7639V15C26 13.2672 25.17 10.5917 23.8619 8.36798C23.1994 7.24176 22.3804 6.17158 21.4214 5.3724C20.4611 4.57213 19.3047 4 18 4ZM26 22.2361V28H30V27.0704C30 26.736 29.8329 26.4238 29.5547 26.2383L28.3292 25.4213C27.6052 24.9386 27.0197 24.2754 26.6305 23.4971L26 22.2361ZM24 29.0032V15C24 13.7328 23.33 11.4083 22.1381 9.38202C21.5506 8.38324 20.8696 7.51592 20.1411 6.90885C19.4139 6.30287 18.6953 6 18 6C17.3047 6 16.5861 6.30287 15.8589 6.90885C15.1304 7.51592 14.4494 8.38324 13.8619 9.38202C12.67 11.4083 12 13.7328 12 15V29.0032C12 29.5534 12.4457 30 13 30H23C23.5543 30 24 29.5534 24 29.0032ZM10 28V22.2361L9.36948 23.4971C8.98035 24.2754 8.39484 24.9386 7.67085 25.4213L6.4453 26.2383C6.1671 26.4238 6 26.736 6 27.0704V28H10Z" fill="currentColor"/>
</svg>
