<svg width="36" height="36" viewBox="0 0 36 36" fill="none" xmlns="http://www.w3.org/2000/svg">
<path fill-rule="evenodd" clip-rule="evenodd" d="M34 5.99854C34 3.79021 32.2098 2 30.0015 2C28.146 2 26.5858 3.26377 26.1345 4.9775L8.00029 4.9775C6.34343 4.9775 5.00029 6.32065 5.00029 7.9775L5.00029 14.1246C3.27499 14.568 2 16.1339 2 17.9976C2 20.2059 3.79021 21.9961 5.99854 21.9961C7.86156 21.9961 9.427 20.722 9.871 18.9976H17V27.9976C17 29.6544 18.3431 30.9976 20 30.9976H26.129C26.573 32.722 28.1384 33.9961 30.0015 33.9961C32.2098 33.9961 34 32.2059 34 29.9976C34 27.7892 32.2098 25.999 30.0015 25.999C28.1384 25.999 26.573 27.2731 26.129 28.9976H20C19.4477 28.9976 19 28.5498 19 27.9976V18.9976H26.129C26.573 20.722 28.1384 21.9961 30.0015 21.9961C32.2098 21.9961 34 20.2059 34 17.9976C34 15.7892 32.2098 13.999 30.0015 13.999C28.1384 13.999 26.573 15.2731 26.129 16.9976L9.871 16.9976C9.50944 15.5933 8.40425 14.4877 7.00029 14.1255L7.00029 7.9775C7.00029 7.42522 7.448 6.9775 8.00029 6.9775H26.1236C26.5603 8.71257 28.1309 9.99707 30.0015 9.99707C32.2098 9.99707 34 8.20687 34 5.99854ZM32 5.99854C32 4.89477 31.1052 4 30.0015 4C28.8977 4 28.0029 4.89477 28.0029 5.99854C28.0029 7.1023 28.8977 7.99707 30.0015 7.99707C31.1052 7.99707 32 7.1023 32 5.99854ZM5.99854 15.999C7.1023 15.999 7.99707 16.8938 7.99707 17.9976C7.99707 19.1013 7.1023 19.9961 5.99854 19.9961C4.89477 19.9961 4 19.1013 4 17.9976C4 16.8938 4.89477 15.999 5.99854 15.999ZM30.0015 15.999C31.1052 15.999 32 16.8938 32 17.9976C32 19.1013 31.1052 19.9961 30.0015 19.9961C28.8977 19.9961 28.0029 19.1013 28.0029 17.9976C28.0029 16.8938 28.8977 15.999 30.0015 15.999ZM30.0015 27.999C31.1052 27.999 32 28.8938 32 29.9976C32 31.1013 31.1052 31.9961 30.0015 31.9961C28.8977 31.9961 28.0029 31.1013 28.0029 29.9976C28.0029 28.8938 28.8977 27.999 30.0015 27.999Z" fill="currentColor"/>
</svg>
