<svg width="36" height="36" viewBox="0 0 36 36" fill="none" xmlns="http://www.w3.org/2000/svg">
<path d="M15.3165 9.39942C16.3485 8.34321 17.7853 7.68817 19.3744 7.68817C21.4867 7.68817 23.3297 8.84512 24.3111 10.5626C25.164 10.1883 26.108 9.98013 27.1013 9.98013C30.9112 9.98013 34 13.0404 34 16.8153C34 20.5906 30.9112 23.6509 27.1013 23.6509C26.6364 23.6509 26.1819 23.6052 25.7425 23.5179C24.8782 25.0322 23.2312 26.0552 21.3409 26.0552C20.5495 26.0552 19.801 25.8757 19.1346 25.5565C18.2585 27.5807 16.2172 29 13.8382 29C11.3607 29 9.24923 27.4602 8.43875 25.3008C8.08456 25.3747 7.71761 25.4132 7.34108 25.4132C4.39134 25.4132 2 23.0402 2 20.1124C2 18.1504 3.07442 16.4374 4.67077 15.5209C4.34211 14.7781 4.15932 13.9583 4.15932 13.0964C4.15932 9.7294 6.94222 7 10.3747 7C12.39 7 14.181 7.94114 15.3165 9.39942Z" fill="#00A1E0"/>
</svg>
