<svg width="36" height="36" viewBox="0 0 36 36" fill="none" xmlns="http://www.w3.org/2000/svg">
<path fill-rule="evenodd" clip-rule="evenodd" d="M8.4422 25.7242C9.52106 27.6863 11.6621 29 14.0983 29C16.3749 29 18.3924 27.8536 19.5276 26.1035C20.0376 26.2464 20.5762 26.3229 21.1321 26.3229C23.006 26.3229 24.6832 25.455 25.7328 24.0961C25.9959 24.1233 26.2627 24.1372 26.5325 24.1372C30.6185 24.1372 34 20.9447 34 16.923C34 12.9017 30.6185 9.70921 26.5325 9.70921C25.7571 9.70921 25.0078 9.82376 24.3026 10.0368C23.142 8.56688 21.3241 7.62561 19.2885 7.62561C17.8994 7.62561 16.6114 8.06429 15.5649 8.80993C14.3355 7.68498 12.6724 7 10.8513 7C7.12888 7 4.02436 9.88235 4.02436 13.5422C4.02436 14.1691 4.11684 14.7759 4.28895 15.3502C2.90362 16.4094 2 18.0559 2 19.9204C2 23.1701 4.72612 25.7393 8.00727 25.7393C8.15337 25.7393 8.29841 25.7342 8.4422 25.7242ZM14.0983 27C12.1788 27 10.5761 25.845 9.96891 24.2761L9.66455 23.4898L8.83808 23.6569C8.57157 23.7108 8.29397 23.7393 8.00727 23.7393C5.75764 23.7393 4 21.9939 4 19.9204C4 18.5274 4.78569 17.2906 5.99028 16.62L6.79681 16.1709L6.41361 15.3311C6.16315 14.7822 6.02436 14.1782 6.02436 13.5422C6.02436 11.0802 8.13779 9 10.8513 9C12.4355 9 13.8285 9.71655 14.7045 10.8074L15.4001 11.6737L16.1886 10.8911C16.9737 10.1119 18.0695 9.62561 19.2885 9.62561C20.9088 9.62561 22.3118 10.485 23.0551 11.7465L23.5007 12.5026L24.3083 12.1589C24.9857 11.8706 25.7377 11.7092 26.5325 11.7092C29.5901 11.7092 32 14.0809 32 16.923C32 19.7655 29.59 22.1372 26.5325 22.1372C26.1602 22.1372 25.7975 22.1017 25.4477 22.0343L24.7547 21.9008L24.3967 22.509C23.7668 23.5793 22.5511 24.3229 21.1321 24.3229C20.5379 24.3229 19.9798 24.1924 19.4849 23.9626L18.5643 23.5349L18.1505 24.4619C17.4928 25.9355 15.9409 27 14.0983 27Z" fill="currentColor"/>
</svg>
