<svg width="36" height="36" viewBox="0 0 36 36" fill="none" xmlns="http://www.w3.org/2000/svg">
<path d="M26 18C26 19.1046 25.1046 20 24 20C22.8954 20 22 19.1046 22 18C22 16.8954 22.8954 16 24 16C25.1046 16 26 16.8954 26 18Z" fill="currentColor"/>
<path d="M16 20C17.1046 20 18 19.1046 18 18C18 16.8954 17.1046 16 16 16C14.8954 16 14 16.8954 14 18C14 19.1046 14.8954 20 16 20Z" fill="currentColor"/>
<path d="M16.4645 24.5356C17.4022 25.4733 18.674 26.0001 20 26.0001C21.3261 26.0001 22.5979 25.4733 23.5356 24.5356L24.9498 25.9499C23.637 27.2626 21.8566 28.0001 20 28.0001C18.1435 28.0001 16.363 27.2626 15.0503 25.9499L16.4645 24.5356Z" fill="currentColor"/>
<path fill-rule="evenodd" clip-rule="evenodd" d="M6.08539 21.555C5.50478 21.0857 4.97134 20.5569 4.49447 19.9754C3.34736 18.5766 2.56292 16.9166 2.21062 15.1423C1.85832 13.3679 1.94905 11.5341 2.47476 9.80322C3.00048 8.07234 3.94495 6.49782 5.22452 5.21913C6.50409 3.94045 8.07927 2.99706 9.81052 2.47255C11.5418 1.94804 13.3757 1.85858 15.1497 2.21211C16.9238 2.56563 18.5833 3.35123 19.9813 4.49931C20.5605 4.97496 21.0873 5.50675 21.555 6.08539C28.5552 6.85894 34 12.7936 34 20C34 21.9099 33.617 23.7329 32.9227 25.3944C32.8743 25.5102 32.8201 25.8737 32.8535 26.5519C32.8844 27.1776 32.9798 27.9267 33.1072 28.6986C33.3613 30.2389 33.7272 31.7814 33.8886 32.4339C34.1056 33.3113 33.3145 34.1047 32.4365 33.8903C31.7816 33.7304 30.2311 33.3669 28.6868 33.1135C27.9129 32.9865 27.1626 32.8909 26.5376 32.8591C25.8577 32.8246 25.5009 32.8782 25.3944 32.9227C23.7329 33.617 21.9099 34 20 34C12.7936 34 6.85894 28.5552 6.08539 21.555ZM10.3904 4.38663C11.8069 3.95749 13.3074 3.88429 14.7589 4.17354C16.2104 4.46279 17.5682 5.10555 18.712 6.04489C18.7169 6.04896 18.7219 6.05304 18.7268 6.05712C12.0108 6.66255 6.66255 12.0108 6.05712 18.7268C6.05171 18.7203 6.04632 18.7137 6.04093 18.7071C5.10239 17.5627 4.46057 16.2045 4.17233 14.7528C3.88408 13.301 3.95831 11.8006 4.38844 10.3845C4.81857 8.96827 5.59132 7.68003 6.63825 6.63383C7.68517 5.58764 8.97395 4.81578 10.3904 4.38663ZM20 8C13.3726 8 8 13.3726 8 20C8 26.6274 13.3726 32 20 32C21.6405 32 23.2016 31.6714 24.6232 31.0773C25.1905 30.8403 25.9628 30.8274 26.639 30.8617C27.37 30.8988 28.2027 31.0073 29.0107 31.1399C29.9559 31.295 30.8974 31.4882 31.6512 31.6549C31.4835 30.904 31.2893 29.9667 31.1338 29.0241C31.0007 28.2171 30.8921 27.3841 30.8559 26.6504C30.8223 25.969 30.8381 25.1957 31.0773 24.6232C31.6714 23.2016 32 21.6405 32 20C32 13.3726 26.6274 8 20 8Z" fill="currentColor"/>
</svg>
