<svg width="36" height="36" viewBox="0 0 36 36" fill="none" xmlns="http://www.w3.org/2000/svg">
<path d="M22.1716 17.0001L19.8787 14.7072L21.2929 13.293L26 18.0001L21.2929 22.7072L19.8787 21.293L22.1716 19.0001H10V17.0001H22.1716Z" fill="currentColor"/>
<path d="M8 18.0001C8 19.6569 6.65685 21.0001 5 21.0001C3.34315 21.0001 2 19.6569 2 18.0001C2 16.3432 3.34315 15.0001 5 15.0001C6.65685 15.0001 8 16.3432 8 18.0001Z" fill="currentColor"/>
<path d="M31.0039 21.0001C32.6608 21.0001 34.0039 19.6569 34.0039 18.0001C34.0039 16.3432 32.6608 15.0001 31.0039 15.0001C29.3471 15.0001 28.0039 16.3432 28.0039 18.0001C28.0039 19.6569 29.3471 21.0001 31.0039 21.0001Z" fill="currentColor"/>
</svg>
