<svg width="36" height="36" viewBox="0 0 36 36" fill="none" xmlns="http://www.w3.org/2000/svg">
<g clip-path="url(#clip0_2499_272)">
<path d="M25.5845 32H10.4155C6.88155 32 4 29.1076 4 25.5845V10.4155C4 6.88155 6.88155 4 10.4155 4H25.5845C29.1076 4 32 6.88155 32 10.4155V25.5845C32 29.1076 29.1076 32 25.5845 32Z" fill="#7E3FDE"/>
<path d="M18.0062 30.0535C24.6602 30.0535 30.0543 24.6594 30.0543 18.0054C30.0543 11.3514 24.6602 5.95721 18.0062 5.95721C11.3522 5.95721 5.95801 11.3514 5.95801 18.0054C5.95801 24.6594 11.3522 30.0535 18.0062 30.0535Z" fill="#191224"/>
<path d="M21.5186 21.7786C20.192 22.866 18.7023 23.3444 16.9842 23.0073C15.9404 22.8007 15.0813 22.257 14.3093 21.5611C13.124 20.2562 12.7108 18.7448 13.0153 17.0159C13.4611 14.4496 16.0382 12.5902 18.6479 12.9491C21.3772 13.3188 23.3563 15.7328 23.1171 18.3751C22.9974 19.7017 22.4646 20.8326 21.5186 21.7786ZM15.7881 17.9728C15.7881 18.7557 15.7881 19.5277 15.7881 20.3106C15.7881 20.6803 15.886 20.8108 16.2666 20.6151C17.8106 19.8322 19.3656 19.0601 20.9206 18.2772C21.0402 18.212 21.225 18.1902 21.2141 18.0054C21.2033 17.8531 21.0619 17.8205 20.9532 17.7661C19.3873 16.9832 17.8215 16.2003 16.2557 15.4065C15.9077 15.2326 15.799 15.3522 15.799 15.7001C15.7881 16.4504 15.7881 17.2116 15.7881 17.9728Z" fill="#E42766"/>
<path d="M21.1245 27.8351C19.0367 29.0204 14.4371 29.14 11.0879 26.3345C7.71707 23.5074 6.48834 18.8208 8.17377 14.8953C7.40174 18.7446 8.1629 22.2025 10.9575 25.0079C13.7629 27.8134 17.1881 28.6398 21.1245 27.8351Z" fill="#352A42"/>
<path d="M9.52259 16.4721C9.42473 19.3428 10.2076 21.8438 12.3172 23.8989C14.4158 25.9541 16.9603 26.5848 19.8744 26.389C18.1455 27.2698 14.7203 26.9871 12.4694 25.2147C9.58784 22.9638 8.59832 19.3972 9.52259 16.4721Z" fill="#352A42"/>
<path d="M11.0881 17.8855C11.8819 22.0393 14.3394 24.3989 18.5801 24.8991C16.6229 25.3558 14.8722 24.9752 13.3607 23.7248C11.5231 22.2024 10.7293 20.256 11.0881 17.8855Z" fill="#352A42"/>
<path d="M14.8408 8.21881C16.9286 7.03357 21.5282 6.91396 24.8773 9.71939C28.2482 12.5466 29.4769 17.2332 27.7915 21.1586C28.5635 17.3093 27.8024 13.8514 25.0078 11.046C22.2132 8.24056 18.7771 7.41415 14.8408 8.21881Z" fill="#352A42"/>
<path d="M26.4427 19.5819C26.5405 16.7112 25.7576 14.2102 23.6481 12.1551C21.5495 10.0999 19.005 9.46923 16.0908 9.66496C17.8198 8.78418 21.245 9.0669 23.4959 10.8393C26.3883 13.0902 27.3778 16.6568 26.4427 19.5819Z" fill="#352A42"/>
<path d="M24.8885 18.1683C24.0947 14.0145 21.6373 11.6549 17.3965 11.1547C19.3538 10.698 21.1044 11.0786 22.6159 12.329C24.4536 13.8514 25.2365 15.7978 24.8885 18.1683Z" fill="#352A42"/>
<path d="M15.7882 17.9727C15.7882 17.2115 15.7882 16.4503 15.7882 15.6892C15.7882 15.3412 15.897 15.2216 16.2449 15.3956C17.8107 16.1894 19.3766 16.9723 20.9424 17.7552C21.0511 17.8096 21.2034 17.8422 21.2034 17.9944C21.2142 18.1793 21.0403 18.2119 20.9098 18.2663C19.3548 19.0492 17.7999 19.8103 16.2558 20.6041C15.8752 20.7999 15.7773 20.6694 15.7773 20.2997C15.7882 19.5276 15.7882 18.7556 15.7882 17.9727Z" fill="#FBFBFD"/>
</g>
<defs>
<clipPath id="clip0_2499_272">
<rect width="18" height="18" fill="white" transform="scale(2)"/>
</clipPath>
</defs>
</svg>
