<svg width="36" height="36" viewBox="0 0 36 36" fill="none" xmlns="http://www.w3.org/2000/svg">
<path fill-rule="evenodd" clip-rule="evenodd" d="M13.8589 2.54519C15.2095 2.18329 16.6017 2 18 2V4C16.7765 4 15.5583 4.16038 14.3765 4.47704L13.8589 2.54519ZM22.1411 2.54519C23.4917 2.90708 24.7891 3.44446 26 4.14359L25 5.87564C23.9404 5.26391 22.8053 4.7937 21.6235 4.47704L22.1411 2.54519ZM6.68629 6.68629C7.67501 5.69757 8.78907 4.84272 10 4.14359L11 5.87564C9.94044 6.48738 8.96564 7.23537 8.10051 8.1005L6.68629 6.68629ZM29.3137 6.68629C30.3024 7.67501 31.1573 8.78907 31.8564 10L30.1244 11C29.5126 9.94044 28.7646 8.96563 27.8995 8.1005L29.3137 6.68629ZM2.54519 13.8589C2.90708 12.5083 3.44446 11.2109 4.14359 10L5.87564 11C5.26391 12.0596 4.7937 13.1947 4.47704 14.3765L2.54519 13.8589ZM18 12C14.6863 12 12 14.6863 12 18C12 21.3137 14.6863 24 18 24C21.3137 24 24 21.3137 24 18C24 14.6863 21.3137 12 18 12ZM10 18C10 13.5817 13.5817 10 18 10C22.4183 10 26 13.5817 26 18C26 22.4183 22.4183 26 18 26C13.5817 26 10 22.4183 10 18ZM33.4548 13.8589C33.8167 15.2095 34 16.6017 34 18H32C32 16.7765 31.8396 15.5583 31.523 14.3765L33.4548 13.8589ZM2.54519 22.1411C2.18329 20.7905 2 19.3983 2 18H4C4 19.2235 4.16038 20.4417 4.47704 21.6235L2.54519 22.1411ZM6.68629 29.3137C5.69757 28.325 4.84272 27.2109 4.14359 26L5.87564 25C6.48738 26.0596 7.23538 27.0344 8.1005 27.8995L6.68629 29.3137ZM13.8589 33.4548C12.5083 33.0929 11.2109 32.5555 10 31.8564L11 30.1244C12.0596 30.7361 13.1947 31.2063 14.3765 31.523L13.8589 33.4548ZM22.1411 33.4548C20.7905 33.8167 19.3983 34 18 34V32C19.2235 32 20.4417 31.8396 21.6235 31.523L22.1411 33.4548Z" fill="currentColor"/>
</svg>
