<svg width="36" height="36" viewBox="0 0 36 36" fill="none" xmlns="http://www.w3.org/2000/svg">
<path fill-rule="evenodd" clip-rule="evenodd" d="M16 2H20V4H22.4788C23.8029 4 24.7615 5.26352 24.4049 6.5387L22.2429 14.2688C23.2795 14.7412 24 15.7865 24 17V18C24 19.2602 23.223 20.3388 22.122 20.7831L22.8764 26.0635C25.7747 26.4877 28 28.984 28 32V34H8V32C8 28.984 10.2253 26.4877 13.1236 26.0635L13.878 20.7831C12.777 20.3388 12 19.2602 12 18V17C12 15.7865 12.7205 14.7412 13.7571 14.2688L11.5951 6.5387C11.2385 5.26352 12.1971 4 13.5212 4H16V2ZM15.7587 14H20.2413L22.4788 6H13.5212L15.7587 14ZM15.8673 21L15.153 26H20.847L20.1327 21H15.8673ZM15 16C14.4477 16 14 16.4477 14 17V18C14 18.5523 14.4477 19 15 19H21C21.5523 19 22 18.5523 22 18V17C22 16.4477 21.5523 16 21 16H15ZM14 28C11.7909 28 10 29.7909 10 32H26C26 29.7909 24.2091 28 22 28H14Z" fill="currentColor"/>
</svg>
