<svg width="36" height="36" viewBox="0 0 36 36" fill="none" xmlns="http://www.w3.org/2000/svg">
<path fill-rule="evenodd" clip-rule="evenodd" d="M6 4C4.89543 4 4 4.89543 4 6C4 7.10457 4.89543 8 6 8C7.10457 8 8 7.10457 8 6C8 4.89543 7.10457 4 6 4ZM2 6C2 3.79086 3.79086 2 6 2C7.48056 2 8.77325 2.8044 9.46487 4H26.5351C27.2267 2.8044 28.5194 2 30 2C32.2091 2 34 3.79086 34 6C34 7.48056 33.1956 8.77325 32 9.46487V26.5351C33.1956 27.2267 34 28.5194 34 30C34 32.2091 32.2091 34 30 34C28.5194 34 27.2267 33.1956 26.5351 32H9.46487C8.77325 33.1956 7.48056 34 6 34C3.79086 34 2 32.2091 2 30C2 28.5194 2.8044 27.2267 4 26.5351V9.46487C2.8044 8.77325 2 7.48056 2 6ZM6 10V26C8.20914 26 10 27.7909 10 30H26C26 27.7909 27.7909 26 30 26V10C27.7909 10 26 8.20914 26 6H10C10 8.20914 8.20914 10 6 10ZM30 4C28.8954 4 28 4.89543 28 6C28 7.10457 28.8954 8 30 8C31.1046 8 32 7.10457 32 6C32 4.89543 31.1046 4 30 4ZM17 14H12V12H24V14H19V26H17V14ZM6 28C4.89543 28 4 28.8954 4 30C4 31.1046 4.89543 32 6 32C7.10457 32 8 31.1046 8 30C8 28.8954 7.10457 28 6 28ZM30 28C28.8954 28 28 28.8954 28 30C28 31.1046 28.8954 32 30 32C31.1046 32 32 31.1046 32 30C32 28.8954 31.1046 28 30 28Z" fill="currentColor"/>
</svg>
