<svg width="36" height="36" viewBox="0 0 36 36" fill="none" xmlns="http://www.w3.org/2000/svg">
<path fill-rule="evenodd" clip-rule="evenodd" d="M11 4V17C11 17.9193 11.1811 18.8295 11.5328 19.6788C11.8846 20.5281 12.4002 21.2997 13.0503 21.9497C13.7003 22.5998 14.4719 23.1154 15.3212 23.4672C16.1705 23.8189 17.0807 24 18 24C18.9193 24 19.8295 23.8189 20.6788 23.4672C21.5281 23.1154 22.2997 22.5998 22.9497 21.9497C23.5998 21.2997 24.1154 20.5281 24.4672 19.6788C24.8189 18.8295 25 17.9193 25 17V4H27V17C27 18.1819 26.7672 19.3522 26.3149 20.4441C25.8626 21.5361 25.1997 22.5282 24.364 23.364C23.5282 24.1997 22.5361 24.8626 21.4441 25.3149C20.3522 25.7672 19.1819 26 18 26C16.8181 26 15.6478 25.7672 14.5558 25.3149C13.4639 24.8626 12.4718 24.1997 11.636 23.364C10.8003 22.5282 10.1374 21.5361 9.68508 20.4441C9.23279 19.3522 9 18.1819 9 17V4H11ZM4 32V30H32V32H4Z" fill="currentColor"/>
</svg>
