<svg width="36" height="36" viewBox="0 0 36 36" fill="none" xmlns="http://www.w3.org/2000/svg">
<path d="M18.2457 34H18.2361C13.4617 33.968 9.79134 32.3936 7.32414 29.3216C5.13214 26.5856 3.99934 22.7808 3.96094 18.0128V17.9904C3.99934 13.2192 5.13214 9.4176 7.32734 6.6816C9.79134 3.6064 13.4649 2.032 18.2361 2H18.2457H18.2553C21.9161 2.0256 24.9785 2.9664 27.3561 4.7968C29.5929 6.5184 31.1673 8.9696 32.0345 12.0864L29.3145 12.8448C27.8425 7.5648 24.1177 4.8672 18.2425 4.8256C14.3641 4.8544 11.4297 6.0736 9.52254 8.448C7.74014 10.672 6.81854 13.8848 6.78334 18C6.81854 22.1152 7.74014 25.328 9.52574 27.552C11.4329 29.9296 14.3673 31.1488 18.2457 31.1744C21.7433 31.1488 24.0569 30.3328 25.9801 28.448C28.1753 26.2976 28.1369 23.6576 27.4329 22.0512C27.0201 21.104 26.2681 20.3168 25.2537 19.7184C24.9977 21.52 24.4249 22.9792 23.5417 24.08C22.3609 25.5488 20.6873 26.352 18.5689 26.4672C16.9657 26.5536 15.4201 26.176 14.2233 25.3984C12.8057 24.48 11.9769 23.0784 11.8873 21.4464C11.8009 19.8592 12.4313 18.4 13.6601 17.3376C14.8345 16.3232 16.4857 15.728 18.4377 15.616C19.8745 15.536 21.2217 15.6 22.4633 15.8048C22.2969 14.816 21.9641 14.0288 21.4649 13.4624C20.7801 12.6816 19.7209 12.2848 18.3193 12.2752C18.3065 12.2752 18.2937 12.2752 18.2809 12.2752C17.1545 12.2752 15.6249 12.5856 14.6521 14.0352L12.3097 12.464C13.6153 10.5248 15.7337 9.456 18.2809 9.456C18.3001 9.456 18.3193 9.456 18.3385 9.456C22.5977 9.4816 25.1353 12.0896 25.3881 16.64C25.5321 16.7008 25.6761 16.7648 25.8169 16.8288C27.8041 17.7632 29.2569 19.1776 30.0217 20.9216C31.0841 23.3504 31.1833 27.3088 27.9577 30.4672C25.4905 32.88 22.4985 33.9712 18.2553 34H18.2457ZM19.5833 18.4128C19.2601 18.4128 18.9337 18.4224 18.5977 18.4416C16.1497 18.5792 14.6233 19.7024 14.7097 21.2992C14.7993 22.9728 16.6457 23.7504 18.4217 23.6544C20.0537 23.568 22.1785 22.9312 22.5369 18.7072C21.6345 18.512 20.6457 18.4128 19.5833 18.4128Z" fill="black"/>
</svg>
