<svg width="36" height="36" viewBox="0 0 36 36" fill="none" xmlns="http://www.w3.org/2000/svg">
<path fill-rule="evenodd" clip-rule="evenodd" d="M17.5311 4C16.1521 4 14.9889 5.02688 14.8178 6.39527L14.037 12.6417L10.4648 18H6C4.89543 18 4 18.8954 4 20V30C4 31.1046 4.89543 32 6 32H18V30H12V19.3028L15.963 13.3583L16.8024 6.64334C16.8483 6.27581 17.1607 6 17.5311 6C18.8946 6 20 7.10535 20 8.46887V16H32V14H22V8.46887C22 6.00078 19.9992 4 17.5311 4ZM6 20H10V30H6V20ZM34 28C34 26.8954 33.1046 26 32 26V24C32 21.7909 30.2091 20 28 20C25.7909 20 24 21.7909 24 24V26C22.8954 26 22 26.8954 22 28V32C22 33.1046 22.8954 34 24 34H32C33.1046 34 34 33.1046 34 32V28ZM30 24V26H26V24C26 22.8954 26.8954 22 28 22C29.1046 22 30 22.8954 30 24ZM32 28V32H24V28H32Z" fill="currentColor"/>
</svg>
