<svg width="36" height="36" viewBox="0 0 36 36" fill="none" xmlns="http://www.w3.org/2000/svg">
<path fill-rule="evenodd" clip-rule="evenodd" d="M4 6C4 4.89543 4.89543 4 6 4H23C27.9706 4 32 8.02944 32 13V17C32 19.7614 29.7614 22 27 22H22V27.5311C22 29.9992 19.9992 32 17.5311 32C16.1521 32 14.9889 30.9731 14.8178 29.6047L14.037 23.3583L10.4648 18H6C4.89543 18 4 17.1046 4 16V6ZM12 16.6972L15.963 22.6417L16.8024 29.3567C16.8483 29.7242 17.1607 30 17.5311 30C18.8946 30 20 28.8946 20 27.5311V20H27C28.6569 20 30 18.6569 30 17V13C30 9.13401 26.866 6 23 6H12V16.6972ZM10 6H6V16H10V6Z" fill="currentColor"/>
</svg>
