<svg width="36" height="36" viewBox="0 0 36 36" fill="none" xmlns="http://www.w3.org/2000/svg">
<path fill-rule="evenodd" clip-rule="evenodd" d="M30.916 15.9941C31.6598 15.9944 32.1895 16.7187 31.9648 17.4277L30.7402 21.2812L32.8984 21.293C33.8026 21.2973 34.316 22.3297 33.7734 23.0527L25.873 33.5586C25.1964 34.4585 23.7653 33.8812 23.9023 32.7637L24.6992 26.2598L23.1016 26.248C22.3488 26.2424 21.824 25.5003 22.0703 24.7891L24.8594 16.7344C25.013 16.2918 25.4319 15.9941 25.9004 15.9941H30.916ZM24.3691 24.2578L25.8359 24.2695L26.957 24.2773L26.2949 29.6699L31.0957 23.2832L28.0117 23.2695L29.6875 17.9941H26.541L24.3691 24.2578Z" fill="currentColor"/>
<path d="M29 6C31.7614 6 34 8.23858 34 11V12H32V11C32 9.34315 30.6569 8 29 8H14V12H12V8H7C5.34315 8 4 9.34315 4 11V12.3496C4.09888 12.3846 4.19975 12.4168 4.29688 12.457C5.02453 12.7586 5.68523 13.2009 6.24219 13.7578C6.79914 14.3148 7.24145 14.9755 7.54297 15.7031C7.8445 16.4311 8 17.2121 8 18C8 18.7879 7.8445 19.5689 7.54297 20.2969C7.24145 21.0245 6.79914 21.6852 6.24219 22.2422C5.68523 22.7991 5.02453 23.2414 4.29688 23.543C4.19995 23.5831 4.09867 23.6135 4 23.6484V25C4 26.6569 5.34315 28 7 28H12V24H14V28H18V30H7C4.23858 30 2 27.7614 2 25V22C2.52529 22 3.04595 21.8963 3.53125 21.6953C4.01635 21.4943 4.45682 21.1994 4.82812 20.8281C5.19943 20.4568 5.4943 20.0163 5.69531 19.5312C5.89633 19.0459 6 18.5253 6 18C6 17.4747 5.89633 16.9541 5.69531 16.4688C5.4943 15.9837 5.19943 15.5432 4.82812 15.1719C4.45682 14.8006 4.01635 14.5057 3.53125 14.3047C3.04595 14.1037 2.52529 14 2 14V11C2 8.23858 4.23858 6 7 6H29Z" fill="currentColor"/>
<path d="M14 20H12V16H14V20Z" fill="currentColor"/>
</svg>
