<svg width="36" height="36" viewBox="0 0 36 36" fill="none" xmlns="http://www.w3.org/2000/svg">
<path d="M27.818 8.41425C26.0884 7.29042 24.8398 5.49205 24.4506 3.39587C24.3662 2.94317 24.3202 2.47716 24.3202 2H18.8004L18.7914 24.0482C18.6984 26.5169 16.6597 28.4985 14.1599 28.4985C13.3831 28.4985 12.6516 28.3049 12.0075 27.9672C10.5307 27.1927 9.51974 25.6496 9.51974 23.874C9.51974 21.3238 11.6015 19.2491 14.1599 19.2491C14.6378 19.2491 15.0959 19.3281 15.529 19.4632V15.1499V13.8467C15.0808 13.7862 14.6249 13.748 14.1599 13.748C8.55745 13.748 4 18.2905 4 23.874C4 27.3 5.71706 30.3316 8.33743 32.1652C9.98733 33.3194 11.995 34 14.1599 34C19.7627 34 24.3202 29.4575 24.3202 23.874V12.6941C26.4854 14.2428 29.1377 15.155 32 15.155V10.8794V9.65393C30.4582 9.65393 29.0223 9.19693 27.818 8.41425Z" fill="black"/>
</svg>
