<svg width="36" height="36" viewBox="0 0 36 36" fill="none" xmlns="http://www.w3.org/2000/svg">
<path d="M15.3796 2.21606C18.6775 1.66853 22.0641 2.16779 25.0638 3.64372C28.0634 5.11965 30.5254 7.4981 32.104 10.445C33.6826 13.392 34.2984 16.7593 33.865 20.0742L31.8819 19.815C32.2611 16.9144 31.7222 13.968 30.341 11.3894C28.9598 8.81084 26.8055 6.7297 24.1808 5.43826C21.5561 4.14682 18.5928 3.70997 15.7071 4.18906C12.8214 4.66814 10.1582 6.0391 8.09166 8.10939C6.02508 10.1797 4.65889 12.8453 4.18497 15.7318C3.71105 18.6184 4.15321 21.5809 5.44935 24.2033C6.74548 26.8257 8.83048 28.9762 11.4115 30.3528C13.9926 31.7294 16.94 32.263 19.8398 31.8786L20.1026 33.8613C16.7885 34.3006 13.4201 33.6908 10.4703 32.1175C7.52055 30.5442 5.13769 28.0865 3.65639 25.0895C2.1751 22.0925 1.66977 18.7067 2.2114 15.4078C2.75302 12.1089 4.31437 9.06248 6.67618 6.69644C9.03799 4.3304 12.0816 2.76359 15.3796 2.21606Z" fill="currentColor"/>
<path d="M22.2955 23.7069L17.0027 18.414L17.0026 7.99972L19.0026 7.99972L19.0027 17.5855L23.7097 22.2927L22.2955 23.7069Z" fill="currentColor"/>
<path d="M32.2931 24.2929L29.0001 27.5858L25.7071 24.2929L24.2929 25.7071L27.5858 29L24.2929 32.2929L25.7071 33.7071L29 30.4143L32.2929 33.7071L33.7071 32.2929L30.4143 29.0001L33.7073 25.7071L32.2931 24.2929Z" fill="currentColor"/>
</svg>
