<svg width="36" height="36" viewBox="0 0 36 36" fill="none" xmlns="http://www.w3.org/2000/svg">
<path fill-rule="evenodd" clip-rule="evenodd" d="M14 27.9999V6.47695L21.7947 9.59484C21.8625 9.62194 21.931 9.64647 22 9.66842V13.9999H24V9.60396C24.0848 9.57085 24.1684 9.53375 24.2505 9.49268L30 6.61792L30 13.9999H32V6.61792C32 5.13115 30.4354 4.16416 29.1056 4.82907L23.3561 7.70383C23.1006 7.83157 22.8027 7.84397 22.5375 7.73788L14.2053 4.405C13.4097 4.08675 12.5159 4.12393 11.7495 4.50715L5.65836 7.55271C4.64201 8.06088 4 9.09967 4 10.236V29.3819C4 30.8686 5.56463 31.8356 6.89443 31.1707L13.0249 28.1055C13.1638 28.036 13.3169 27.9999 13.4721 27.9999H14ZM12 6.61795V26.3818L6 29.3819V10.236C6 9.85722 6.214 9.51095 6.55279 9.34156L12 6.61795ZM20 26C20 22.6863 22.6863 20 26 20C29.3137 20 32 22.6863 32 26C32 29.3137 29.3137 32 26 32C22.6863 32 20 29.3137 20 26ZM26 18C21.5817 18 18 21.5817 18 26C18 30.4183 21.5817 34 26 34C30.4183 34 34 30.4183 34 26C34 21.5817 30.4183 18 26 18ZM27 25.5858V22H25V26.4142L27.2929 28.7071L28.7071 27.2929L27 25.5858Z" fill="currentColor"/>
</svg>
