<svg width="36" height="36" viewBox="0 0 36 36" fill="none" xmlns="http://www.w3.org/2000/svg">
<path fill-rule="evenodd" clip-rule="evenodd" d="M17 4.03516C9.73472 4.54791 4 10.6042 4 18C4 20.1936 4.50452 22.2694 5.40385 24.1177L12.3751 20.0928C12.1326 19.4412 12 18.7361 12 18C12 15.027 14.1623 12.559 17 12.083V4.03516ZM19 4.03516V12.083C21.8377 12.559 24 15.027 24 18C24 18.7361 23.8674 19.4412 23.6249 20.0928L30.5962 24.1177C31.4955 22.2694 32 20.1936 32 18C32 10.6042 26.2653 4.54791 19 4.03516ZM30.0031 25.2101L30.2587 24.7673C30.1761 24.9166 30.0909 25.0642 30.0031 25.2101ZM29.5946 25.8488L22.6236 21.8241C21.5231 23.1533 19.8604 24 18 24C16.1396 24 14.4769 23.1533 13.3764 21.8241L6.40541 25.8488C8.92315 29.5609 13.1767 32 18 32C22.8233 32 27.0769 29.5609 29.5946 25.8488ZM5.74127 24.7673L5.99698 25.2102C5.90914 25.0642 5.82388 24.9166 5.74127 24.7673ZM2 18C2 9.16344 9.16344 2 18 2C26.8366 2 34 9.16344 34 18C34 26.8366 26.8366 34 18 34C9.16344 34 2 26.8366 2 18ZM18 14C15.7909 14 14 15.7909 14 18C14 20.2091 15.7909 22 18 22C20.2091 22 22 20.2091 22 18C22 15.7909 20.2091 14 18 14Z" fill="currentColor"/>
</svg>
