<svg width="36" height="36" viewBox="0 0 36 36" fill="none" xmlns="http://www.w3.org/2000/svg">
<path d="M4 11C4 9.34315 5.34315 8 7 8H8.58579L12.2929 11.7071L13.7071 10.2929L9.41421 6H7C4.23858 6 2 8.23858 2 11V25C2 27.7614 4.23858 30 7 30H29C31.7614 30 34 27.7614 34 25V7H32V25C32 26.6569 30.6569 28 29 28H7C5.34315 28 4 26.6569 4 25V11Z" fill="currentColor"/>
<path d="M15.2929 7.70711L19.2929 11.7071L20.7071 10.2929L16.7071 6.29289L15.2929 7.70711Z" fill="currentColor"/>
<path d="M22.2929 7.70711L26.2929 11.7071L27.7071 10.2929L23.7071 6.29289L22.2929 7.70711Z" fill="currentColor"/>
<path fill-rule="evenodd" clip-rule="evenodd" d="M14 18L18 20L14 22L12 26L10 22L6 20L10 18L12 14L14 18ZM11.4907 19.4907L10.4721 20L11.4907 20.5093L12 21.5279L12.5093 20.5093L13.5279 20L12.5093 19.4907L12 18.4721L11.4907 19.4907Z" fill="currentColor"/>
<path d="M24 24L22.6667 21.3333L20 20L22.6667 18.6667L24 16L25.3333 18.6667L28 20L25.3333 21.3333L24 24Z" fill="currentColor"/>
</svg>
