<svg width="36" height="36" viewBox="0 0 36 36" fill="none" xmlns="http://www.w3.org/2000/svg">
<path fill-rule="evenodd" clip-rule="evenodd" d="M4 9C4 6.23858 6.23858 4 9 4H27C29.7614 4 32 6.23858 32 9V27C32 29.7614 29.7614 32 27 32H9C6.23858 32 4 29.7614 4 27V9ZM6.17071 8H29.8293C29.4175 6.83481 28.3062 6 27 6H9C7.69378 6 6.58254 6.83481 6.17071 8ZM30 10H6V27C6 28.6569 7.34315 30 9 30H27C28.6569 30 30 28.6569 30 27V10ZM18 13.5858L23.7071 19.2929L22.2929 20.7071L19 17.4142V26H17V17.4142L13.7071 20.7071L12.2929 19.2929L18 13.5858Z" fill="currentColor"/>
</svg>
