<svg width="36" height="36" viewBox="0 0 36 36" fill="none" xmlns="http://www.w3.org/2000/svg">
<path fill-rule="evenodd" clip-rule="evenodd" d="M5.37573 1.56982L16.0944 6.92916L19.4964 3.17096L20.17 3.49543C20.6718 3.73713 21.1343 4.0632 21.5356 4.46447C21.9859 4.91485 22.3415 5.44229 22.5895 6.01581C23.5159 6.06552 24.4318 6.23221 25.3154 6.51153C25.6175 6.60702 25.9159 6.71568 26.2096 6.83733C27.5441 7.39014 28.7568 8.20039 29.7782 9.22183C30.7997 10.2433 31.6099 11.4559 32.1627 12.7905C32.6457 13.9565 32.9284 15.0221 32.9887 16.5013C33.0763 18.6506 32.5053 20.178 31.8582 21.7403C31.1044 23.5601 29.9995 25.2137 28.6066 26.6066C27.2138 27.9995 25.5602 29.1044 23.7403 29.8582C21.9204 30.612 19.9699 31 18 31H12C10.7713 31 9.56417 31.3235 8.50003 31.9378C8.37133 32.0121 8.24527 32.0904 8.12201 32.1724L6.71056 30.8253C7.48132 29.541 8.49087 28.4036 9.6949 27.4798C11.7906 25.8717 14.3584 25 17 25C17.2502 25 17.4997 24.9906 17.748 24.972C17.9132 24.6749 18 24.3403 18 24C18 23.6489 17.9076 23.304 17.7321 23C17.7259 22.9893 17.7197 22.9787 17.7133 22.9682C16.8525 23.0452 15.9881 22.982 15.1533 22.7839C15.0335 22.9627 14.9019 23.1341 14.7592 23.2967C14.2536 23.8734 13.622 24.3259 12.9135 24.6194C12.2049 24.9129 11.4383 25.0395 10.673 24.9893C9.90772 24.9391 9.16422 24.7136 8.50003 24.3301C7.83585 23.9467 7.26877 23.4155 6.84269 22.7779C6.4166 22.1402 6.14292 21.413 6.04281 20.6526C5.9427 19.8923 6.01886 19.119 6.26538 18.3928C6.50909 17.6749 6.91285 17.0218 7.44598 16.4831L11.5822 11.9139L5.37573 1.56982ZM12.9848 10.3643L14.701 8.46851L10.6243 6.43019L12.9848 10.3643ZM19.7178 22.5242C19.9036 22.9923 20 23.4929 20 24C20 24.1851 19.9872 24.3693 19.9619 24.5513C20.8766 24.2677 21.7508 23.8526 22.5557 23.3147C24.2002 22.2159 25.482 20.6541 26.2388 18.8268C26.5267 18.132 26.7337 17.4106 26.8585 16.6766C27.0619 15.4806 27.047 14.2512 26.8079 13.0491C26.4592 11.2961 25.6478 9.67214 24.4627 8.34348C23.9838 8.20726 23.4945 8.111 22.9997 8.0557C22.9923 8.727 22.8499 9.38332 22.5877 9.98825C23.0794 10.3845 23.5236 10.8444 23.8958 11.3962C24.4554 12.2255 24.8195 13.2135 24.9766 14.4123C25.2383 16.4101 24.4986 18.3691 23.3469 19.8701C22.4107 21.0901 21.1485 22.0075 19.7178 22.5242ZM21.4369 11.6316C20.5097 12.5091 19.2802 13 18 13V11C18.7957 11 19.5587 10.6839 20.1214 10.1213C20.248 9.99467 20.3621 9.85791 20.463 9.71294C20.8102 9.21358 21 8.61655 21 8.00001C21 7.20436 20.684 6.4413 20.1214 5.87869C20.0549 5.81226 19.9857 5.74928 19.914 5.68985L8.89629 17.8611L8.87871 17.8787C8.55333 18.2041 8.30716 18.5999 8.15924 19.0357C8.01133 19.4714 7.96564 19.9354 8.0257 20.3916C8.08576 20.8478 8.24997 21.2841 8.50563 21.6667C8.76128 22.0493 9.10152 22.368 9.50003 22.5981C9.89855 22.8282 10.3446 22.9635 10.8038 22.9936C11.263 23.0237 11.7229 22.9477 12.1481 22.7716C12.5732 22.5956 12.9521 22.324 13.2556 21.978C13.46 21.7449 13.6265 21.4822 13.7497 21.1997L14.122 20.3464L14.9997 20.6568C15.9516 20.9934 16.9781 21.086 17.9837 20.9188C18.0461 20.9085 18.1084 20.8971 18.1706 20.8847C19.5983 20.6007 20.874 19.8074 21.7602 18.6526C22.6761 17.459 23.1699 16.0182 22.9935 14.6721C22.8711 13.7373 22.6009 13.0528 22.2379 12.5147C22.018 12.1889 21.7521 11.899 21.4369 11.6316ZM28.0612 10.347C28.373 11.0883 28.611 11.8625 28.7695 12.6589C29.0564 14.1015 29.0742 15.5767 28.8302 17.012C28.6804 17.8927 28.432 18.7584 28.0866 19.5922C27.1783 21.7849 25.6403 23.6591 23.6669 24.9776C22.0899 26.0314 20.2915 26.6924 18.4215 26.9155C17.9514 26.9716 17.4768 27 17 27C14.799 27 12.6595 27.7262 10.9132 29.0659C11.2727 29.0221 11.6356 29 12 29H18C19.7072 29 21.3977 28.6638 22.9749 28.0104C24.5521 27.3571 25.9853 26.3996 27.1924 25.1924C28.3996 23.9852 29.3572 22.5521 30.0105 20.9749C30.6321 19.4742 31.0596 18.2806 30.9904 16.5827C30.9409 15.3684 30.7201 14.5339 30.3149 13.5559C29.8627 12.4639 29.1997 11.4718 28.364 10.636C28.2652 10.5373 28.1643 10.4409 28.0612 10.347ZM16 14C16 14.1978 16.0587 14.3911 16.1686 14.5556C16.2784 14.72 16.4346 14.8482 16.6174 14.9239C16.8001 14.9996 17.0011 15.0194 17.1951 14.9808C17.3891 14.9422 17.5673 14.847 17.7071 14.7071L19.1214 16.1213C18.7018 16.5409 18.1672 16.8266 17.5853 16.9424C17.0034 17.0581 16.4002 16.9987 15.852 16.7716C15.3038 16.5446 14.8353 16.1601 14.5056 15.6667C14.176 15.1734 14 14.5934 14 14H16Z" fill="currentColor"/>
</svg>
