<svg width="36" height="36" viewBox="0 0 36 36" fill="none" xmlns="http://www.w3.org/2000/svg">
<path d="M31.1326 11.5466L24.7812 20.5445L23.3461 19.1094L29.6975 10.1116L25.8888 6.30281L16.8909 12.6542L15.4559 11.2192L24.4537 4.86773L23.2932 3.70718L24.7074 2.29297L33.7074 11.293L32.2932 12.7072L31.1326 11.5466Z" fill="currentColor"/>
<path fill-rule="evenodd" clip-rule="evenodd" d="M22.4429 23.8571L20.303 26.8886L21.7074 28.293L20.2932 29.7072L14.0003 23.4143L4.70738 32.7072L3.29317 31.293L12.5861 22.0001L6.29317 15.7072L7.70738 14.293L9.11176 15.6973L12.1432 13.5575L2.29297 3.70723L3.70718 2.29302L33.7072 32.293L32.293 33.7072L22.4429 23.8571ZM21.0078 22.422L13.5783 14.9925L10.5468 17.1324L18.8679 25.4535L21.0078 22.422Z" fill="currentColor"/>
</svg>
