<svg width="36" height="36" viewBox="0 0 36 36" fill="none" xmlns="http://www.w3.org/2000/svg">
<path d="M10 4V2H12V4H24V2H26V4H27C27.2403 4 27.4767 4.01695 27.708 4.04973L24 7.75769V6H12V8H10V6H9C7.34315 6 6 7.34315 6 9V10H21.7577L19.7577 12H6V25.7577L4.04973 27.708C4.01695 27.4767 4 27.2403 4 27V9C4 6.23858 6.23858 4 9 4H10Z" fill="currentColor"/>
<path fill-rule="evenodd" clip-rule="evenodd" d="M31.1717 6.2427L33.7072 3.70718L32.293 2.29297L2.29297 32.293L3.70718 33.7072L6.2427 31.1717C7.03312 31.6951 7.98096 32 9 32H27C29.7614 32 32 29.7614 32 27V9C32 7.98096 31.6951 7.03312 31.1717 6.2427ZM29.7077 7.70669L27.4144 10H30V9C30 8.53689 29.8951 8.0983 29.7077 7.70669ZM25.4144 12L7.70669 29.7077C8.0983 29.8951 8.53689 30 9 30H27C28.6569 30 30 28.6569 30 27V12H25.4144Z" fill="currentColor"/>
</svg>
