<svg width="36" height="36" viewBox="0 0 36 36" fill="none" xmlns="http://www.w3.org/2000/svg">
<path d="M18 2C16.6017 2 15.2095 2.18329 13.8589 2.54519L14.3765 4.47704C15.5583 4.16038 16.7765 4 18 4V2Z" fill="currentColor"/>
<path d="M26 4.14359C24.7891 3.44446 23.4917 2.90708 22.1411 2.54519L21.6235 4.47704C22.8053 4.7937 23.9404 5.26391 25 5.87564L26 4.14359Z" fill="currentColor"/>
<path d="M10 4.14359C8.78907 4.84272 7.67501 5.69757 6.68629 6.68629L8.10051 8.1005C8.96564 7.23537 9.94044 6.48738 11 5.87564L10 4.14359Z" fill="currentColor"/>
<path d="M31.8564 10C31.1573 8.78907 30.3024 7.67501 29.3137 6.68629L27.8995 8.1005C28.7646 8.96563 29.5126 9.94044 30.1244 11L31.8564 10Z" fill="currentColor"/>
<path d="M4.14359 10C3.44446 11.2109 2.90708 12.5083 2.54519 13.8589L4.47704 14.3765C4.7937 13.1947 5.26391 12.0596 5.87564 11L4.14359 10Z" fill="currentColor"/>
<path d="M34 18C34 16.6017 33.8167 15.2095 33.4548 13.8589L31.523 14.3765C31.8396 15.5583 32 16.7765 32 18H34Z" fill="currentColor"/>
<path d="M2 18C2 19.3983 2.18329 20.7905 2.54519 22.1411L4.47704 21.6235C4.16038 20.4417 4 19.2235 4 18H2Z" fill="currentColor"/>
<path d="M4.14359 26C4.84272 27.2109 5.69757 28.325 6.68629 29.3137L8.1005 27.8995C7.23538 27.0344 6.48738 26.0596 5.87564 25L4.14359 26Z" fill="currentColor"/>
<path d="M10 31.8564C11.2109 32.5555 12.5083 33.0929 13.8589 33.4548L14.3765 31.523C13.1947 31.2063 12.0596 30.7361 11 30.1244L10 31.8564Z" fill="currentColor"/>
<path d="M18 34C19.3983 34 20.7905 33.8167 22.1411 33.4548L21.6235 31.523C20.4417 31.8396 19.2235 32 18 32V34Z" fill="currentColor"/>
<path d="M11.293 12.7072L16.586 18.0002L11.2931 23.2931L12.7073 24.7073L18.0002 19.4144L23.293 24.7072L24.7072 23.293L19.4144 18.0002L24.7073 12.7073L23.2931 11.2931L18.0002 16.586L12.7072 11.293L11.293 12.7072Z" fill="currentColor"/>
</svg>
