<svg width="36" height="36" viewBox="0 0 36 36" fill="none" xmlns="http://www.w3.org/2000/svg">
<path fill-rule="evenodd" clip-rule="evenodd" d="M18 4C10.268 4 4 10.268 4 18C4 22.3074 5.94524 26.1604 9.00517 28.7286C9.14778 24.9884 12.2249 22 16 22H20C23.7751 22 26.8522 24.9884 26.9948 28.7286C30.0548 26.1604 32 22.3074 32 18C32 10.268 25.732 4 18 4ZM25 30.1271V29C25 26.2386 22.7614 24 20 24H16C13.2386 24 11 26.2386 11 29V30.127C13.0592 31.3182 15.45 32 18 32C20.55 32 22.9408 31.3182 25 30.1271ZM2 18C2 9.16344 9.16344 2 18 2C26.8366 2 34 9.16344 34 18C34 26.8366 26.8366 34 18 34C9.16344 34 2 26.8366 2 18ZM18 12C16.3431 12 15 13.3431 15 15C15 16.6569 16.3431 18 18 18C19.6569 18 21 16.6569 21 15C21 13.3431 19.6569 12 18 12ZM13 15C13 12.2386 15.2386 10 18 10C20.7614 10 23 12.2386 23 15C23 17.7614 20.7614 20 18 20C15.2386 20 13 17.7614 13 15Z" fill="currentColor"/>
</svg>
