<svg width="36" height="36" viewBox="0 0 36 36" fill="none" xmlns="http://www.w3.org/2000/svg">
<path fill-rule="evenodd" clip-rule="evenodd" d="M18 4C14.6863 4 12 6.68629 12 10C12 13.3137 14.6863 16 18 16C21.3137 16 24 13.3137 24 10C24 6.68629 21.3137 4 18 4ZM10 10C10 5.58172 13.5817 2 18 2C22.4183 2 26 5.58172 26 10C26 14.4183 22.4183 18 18 18C13.5817 18 10 14.4183 10 10ZM6 31C6 24.9249 10.9249 20 17 20H19C25.0751 20 30 24.9249 30 31V34H28V31C28 26.0294 23.9706 22 19 22H17C12.0294 22 8 26.0294 8 31V34H6V31Z" fill="currentColor"/>
</svg>
