<svg width="36" height="36" viewBox="0 0 36 36" fill="none" xmlns="http://www.w3.org/2000/svg">
<path d="M11 12C13.2004 12 15.0688 10.5786 15.7372 8.60396L22.0087 9.40968C22.0858 10.3605 22.4289 11.2361 22.9635 11.9619L20.601 14.5384C19.8587 14.1019 18.9937 13.8516 18.0703 13.8516C15.3089 13.8516 13.0703 16.0901 13.0703 18.8516C13.0703 20.2981 13.6846 21.6012 14.6666 22.5142C11.3626 23.5636 8.73509 26.1313 7.60347 29.3977C7.47757 29.7611 7.59635 30.1622 7.89439 30.4053C10.6496 32.6524 14.1675 34 18.0001 34C21.8327 34 25.3506 32.6524 28.1057 30.4053C28.3665 30.1926 28.4901 29.8589 28.4325 29.5353C28.4243 29.4891 28.4124 29.4431 28.3967 29.3977C27.2769 26.1656 24.6926 23.6176 21.4376 22.5478C22.4408 21.6333 23.0703 20.316 23.0703 18.8516C23.0703 17.7366 22.7054 16.7069 22.0885 15.8754L24.4463 13.3042C25.192 13.7462 26.0624 14 26.9922 14C29.7536 14 31.9922 11.7614 31.9922 9C31.9922 6.23858 29.7536 4 26.9922 4C24.7815 4 22.906 5.43465 22.2457 7.42369L15.9857 6.61946C15.7913 4.03581 13.6334 2 11 2C8.23858 2 6 4.23858 6 7C6 9.76142 8.23858 12 11 12Z" fill="currentColor"/>
</svg>
