<svg width="36" height="36" viewBox="0 0 36 36" fill="none" xmlns="http://www.w3.org/2000/svg">
<path fill-rule="evenodd" clip-rule="evenodd" d="M8 8C8 6.89543 8.89543 6 10 6C11.1046 6 12 6.89543 12 8C12 9.10457 11.1046 10 10 10C8.89543 10 8 9.10457 8 8ZM10 4C7.79086 4 6 5.79086 6 8C6 10.2091 7.79086 12 10 12C12.2091 12 14 10.2091 14 8C14 5.79086 12.2091 4 10 4ZM20 15C20 13.3431 21.3431 12 23 12C24.6569 12 26 13.3431 26 15C26 16.6569 24.6569 18 23 18C21.3431 18 20 16.6569 20 15ZM23 10C20.2386 10 18 12.2386 18 15C18 17.7614 20.2386 20 23 20C25.7614 20 28 17.7614 28 15C28 12.2386 25.7614 10 23 10ZM4 16H12C13.1046 16 14 16.8954 14 18L16 18C16 15.7909 14.2091 14 12 14H4V16ZM18 24H25C27.7614 24 30 26.2386 30 29V32H32V29C32 25.134 28.866 22 25 22H18V24ZM14 28C14 26.8954 13.1046 26 12 26V24C12 21.7909 10.2091 20 8 20C5.79086 20 4 21.7909 4 24V26C2.89543 26 2 26.8954 2 28V32C2 33.1046 2.89543 34 4 34H12C13.1046 34 14 33.1046 14 32V28ZM10 24V26H6V24C6 22.8954 6.89543 22 8 22C9.10457 22 10 22.8954 10 24ZM12 28V32H4V28H12Z" fill="currentColor"/>
</svg>
