<svg width="36" height="36" viewBox="0 0 36 36" fill="none" xmlns="http://www.w3.org/2000/svg">
<path fill-rule="evenodd" clip-rule="evenodd" d="M9 4C6.23858 4 4 6.23858 4 9V28C4 30.2091 5.79086 32 8 32H28C30.2091 32 32 30.2091 32 28V9C32 6.23858 29.7614 4 27 4H9ZM6 9C6 7.34315 7.34315 6 9 6H27C28.6569 6 30 7.34315 30 9V28C30 29.1046 29.1046 30 28 30H8C6.89543 30 6 29.1046 6 28V9ZM14 12L10 12V10L14 10V12ZM10 16H14V14H10V16ZM20 16C20 14.8954 20.8954 14 22 14C23.1046 14 24 14.8954 24 16C24 17.1046 23.1046 18 22 18C20.8954 18 20 17.1046 20 16ZM22 12C19.7909 12 18 13.7909 18 16C18 18.2091 19.7909 20 22 20C24.2091 20 26 18.2091 26 16C26 13.7909 24.2091 12 22 12ZM21 22C18.2386 22 16 24.2386 16 27V28H18V27C18 25.3431 19.3431 24 21 24H23C24.6569 24 26 25.3431 26 27V28H28V27C28 24.2386 25.7614 22 23 22H21Z" fill="currentColor"/>
</svg>
