<svg width="36" height="36" viewBox="0 0 36 36" fill="none" xmlns="http://www.w3.org/2000/svg">
<path fill-rule="evenodd" clip-rule="evenodd" d="M11 12C13.2004 12 15.0688 10.5786 15.7372 8.60396L22.0087 9.40968C22.0858 10.3605 22.4289 11.2361 22.9635 11.9619L20.601 14.5384C19.8587 14.1019 18.9937 13.8516 18.0703 13.8516C15.3089 13.8516 13.0703 16.0901 13.0703 18.8516C13.0703 20.298 13.6845 21.601 14.6663 22.5139C11.3621 23.5632 8.73419 26.131 7.6025 29.3977C7.4766 29.7611 7.59538 30.1622 7.89341 30.4053C10.6486 32.6524 14.1665 34 17.9991 34C21.8317 34 25.3496 32.6524 28.1048 30.4053C28.4028 30.1622 28.5216 29.7611 28.3957 29.3977C27.2761 26.1658 24.692 23.618 21.4373 22.548C22.4407 21.6335 23.0703 20.3161 23.0703 18.8516C23.0703 17.7366 22.7054 16.7069 22.0885 15.8754L24.4463 13.3042C25.192 13.7462 26.0624 14 26.9922 14C29.7536 14 31.9922 11.7614 31.9922 9C31.9922 6.23858 29.7536 4 26.9922 4C24.7815 4 22.906 5.43465 22.2457 7.42369L15.9857 6.61946C15.7913 4.03581 13.6334 2 11 2C8.23858 2 6 4.23858 6 7C6 9.76142 8.23858 12 11 12ZM14 7C14 8.65685 12.6569 10 11 10C9.34315 10 8 8.65685 8 7C8 5.34315 9.34315 4 11 4C12.6569 4 14 5.34315 14 7ZM17.9991 32C14.9247 32 12.0858 31.0112 9.77709 29.3327C11.1819 26.188 14.3372 24 17.9991 24C21.661 24 24.8163 26.188 26.2211 29.3327C23.9123 31.0112 21.0735 32 17.9991 32ZM18.0703 21.8516C19.7272 21.8516 21.0703 20.5084 21.0703 18.8516C21.0703 17.1947 19.7272 15.8516 18.0703 15.8516C16.4135 15.8516 15.0703 17.1947 15.0703 18.8516C15.0703 20.5084 16.4135 21.8516 18.0703 21.8516ZM29.9922 9C29.9922 10.6569 28.649 12 26.9922 12C25.3353 12 23.9922 10.6569 23.9922 9C23.9922 7.34315 25.3353 6 26.9922 6C28.649 6 29.9922 7.34315 29.9922 9Z" fill="currentColor"/>
</svg>
