<svg width="36" height="36" viewBox="0 0 36 36" fill="none" xmlns="http://www.w3.org/2000/svg">
<path fill-rule="evenodd" clip-rule="evenodd" d="M2 11C2 8.23858 4.23858 6 7 6H21C23.7614 6 26 8.23858 26 11V12L30.8 8.4C32.1185 7.41115 34 8.35191 34 10V26C34 27.6481 32.1185 28.5889 30.8 27.6L26 24V25C26 27.7614 23.7614 30 21 30H7C4.23858 30 2 27.7614 2 25V11ZM7 8C5.34315 8 4 9.34315 4 11V25C4 26.6569 5.34315 28 7 28H21C22.6569 28 24 26.6569 24 25V22.4C24 21.4111 25.1289 20.8467 25.92 21.44L32 26V10L25.92 14.56C25.1289 15.1533 24 14.5889 24 13.6V11C24 9.34315 22.6569 8 21 8H7ZM10 14.0197C10 12.7997 11.3106 12.0286 12.377 12.6211L19.5416 16.6013C20.6388 17.211 20.6388 18.789 19.5416 19.3987L12.377 23.3789C11.3106 23.9714 10 23.2003 10 21.9803V14.0197ZM12 14.6995V21.3005L17.9409 18L12 14.6995Z" fill="currentColor"/>
</svg>
