<svg width="36" height="36" viewBox="0 0 36 36" fill="none" xmlns="http://www.w3.org/2000/svg">
<path fill-rule="evenodd" clip-rule="evenodd" d="M32.293 2.29297L2.29297 32.293L3.70719 33.7072L9.61359 27.8008C11.8357 29.1006 14.6081 30 18 30C23.8419 30 27.8458 27.332 30.3665 24.5459C31.6219 23.1584 32.5139 21.7385 33.095 20.593C33.3855 20.0201 33.6024 19.508 33.7492 19.0939C33.8224 18.8874 33.881 18.6972 33.9226 18.5304C33.9592 18.3839 34 18.1892 34 18C34 17.8108 33.9592 17.6161 33.9226 17.4696C33.881 17.3028 33.8224 17.1126 33.7492 16.9061C33.6024 16.492 33.3855 15.9799 33.095 15.407C32.5139 14.2615 31.6219 12.8416 30.3665 11.4541C29.707 10.7252 28.946 10.0043 28.0771 9.33724L33.7072 3.70718L32.293 2.29297ZM26.6495 10.7649L22.8908 14.5236C23.5892 15.5044 24 16.7042 24 18C24 21.3137 21.3137 24 18 24C16.7042 24 15.5044 23.5892 14.5236 22.8908L11.0827 26.3317C12.9523 27.3313 15.2379 28 18 28C23.1581 28 26.6542 25.668 28.8835 23.2041C30.0031 21.9666 30.7986 20.699 31.3113 19.6882C31.5676 19.183 31.7492 18.7499 31.8641 18.4256C31.9218 18.263 31.9598 18.1358 31.9821 18.0462L31.9915 18.0068L31.993 18C31.9903 17.9875 31.9867 17.9722 31.9821 17.9538C31.9598 17.8642 31.9218 17.737 31.8641 17.5744C31.7492 17.2501 31.5676 16.817 31.3113 16.3118C30.7986 15.301 30.0031 14.0334 28.8835 12.7959C28.2456 12.0909 27.504 11.3967 26.6495 10.7649ZM15.9681 21.4462C16.5636 21.7981 17.2582 22 18 22C20.2091 22 22 20.2091 22 18C22 17.2582 21.7981 16.5636 21.4462 15.9681L15.9681 21.4462Z" fill="currentColor"/>
<path d="M18 8C19.8603 8 21.5044 8.30332 22.9508 8.80676L24.4994 7.2582C22.6489 6.48535 20.4917 6 18 6C12.1581 6 8.15425 8.66796 5.63346 11.4541C4.37814 12.8416 3.48612 14.2615 2.90505 15.407C2.61446 15.9799 2.39762 16.492 2.25083 16.9061C2.17763 17.1126 2.11897 17.3028 2.07736 17.4696C2.04079 17.6161 2 17.8108 2 18C2 18.1892 2.04079 18.3839 2.07736 18.5304C2.11897 18.6972 2.17763 18.8874 2.25083 19.0939C2.39762 19.508 2.61446 20.0201 2.90505 20.593C3.48612 21.7385 4.37814 23.1584 5.63346 24.5459C5.87759 24.8157 6.13562 25.0844 6.40788 25.3497L7.82209 23.9355C7.57403 23.6945 7.33898 23.4499 7.11654 23.2041C5.99686 21.9666 5.20138 20.699 4.6887 19.6882C4.43242 19.183 4.25082 18.7499 4.13589 18.4256C4.07823 18.263 4.04021 18.1358 4.01786 18.0462C4.01327 18.0278 4.00971 18.0125 4.00697 18C4.00971 17.9875 4.01327 17.9722 4.01786 17.9538C4.04021 17.8642 4.07823 17.737 4.13589 17.5744C4.25082 17.2501 4.43242 16.817 4.6887 16.3118C5.20138 15.301 5.99686 14.0334 7.11654 12.7959C9.34575 10.332 12.8419 8 18 8Z" fill="currentColor"/>
<path d="M14.0077 17.7499L12.2033 19.5543C12.0707 19.0586 12 18.5376 12 18C12 14.6863 14.6863 12 18 12C18.5375 12 19.0586 12.0707 19.5543 12.2033L17.7499 14.0077C15.74 14.1317 14.1317 15.74 14.0077 17.7499Z" fill="currentColor"/>
</svg>
