<svg width="36" height="36" viewBox="0 0 36 36" fill="none" xmlns="http://www.w3.org/2000/svg">
<path fill-rule="evenodd" clip-rule="evenodd" d="M32.293 2.29297L2.29297 32.293L3.70719 33.7072L9.61359 27.8008C11.8357 29.1006 14.6081 30 18 30V28C15.2379 28 12.9523 27.3313 11.0827 26.3317L14.5236 22.8908C15.5044 23.5892 16.7042 24 18 24V22C17.2582 22 16.5636 21.7981 15.9681 21.4462L21.4462 15.9681C21.7981 16.5636 22 17.2582 22 18L24 18C24 16.7043 23.5892 15.5044 22.8908 14.5236L26.6495 10.7649C27.504 11.3967 28.2456 12.0909 28.8835 12.7959C29.8908 13.9093 30.6357 15.047 31.1484 16H33.3801C33.2945 15.8114 33.1995 15.6131 33.095 15.407C32.5139 14.2615 31.6219 12.8416 30.3665 11.4541C29.707 10.7252 28.946 10.0043 28.0771 9.33724L33.7072 3.70718L32.293 2.29297ZM22.9508 8.80676C21.5044 8.30332 19.8603 8 18 8C12.8419 8 9.34575 10.332 7.11654 12.7959C5.99686 14.0334 5.20138 15.301 4.6887 16.3118C4.43242 16.817 4.25082 17.2501 4.13589 17.5744C4.07823 17.737 4.04021 17.8642 4.01786 17.9538C4.01327 17.9722 4.00971 17.9875 4.00697 18C4.00971 18.0125 4.01327 18.0278 4.01786 18.0462C4.04021 18.1358 4.07823 18.263 4.13589 18.4256C4.25082 18.7499 4.43242 19.183 4.6887 19.6882C5.20138 20.699 5.99686 21.9666 7.11654 23.2041C7.33898 23.4499 7.57403 23.6945 7.82209 23.9355L6.40788 25.3497C6.13562 25.0844 5.87759 24.8157 5.63346 24.5459C4.37814 23.1584 3.48612 21.7385 2.90505 20.593C2.61446 20.0201 2.39762 19.508 2.25083 19.0939C2.17763 18.8874 2.11897 18.6972 2.07736 18.5304C2.04079 18.3839 2 18.1892 2 18C2 17.8108 2.04079 17.6161 2.07736 17.4696C2.11897 17.3028 2.17763 17.1126 2.25083 16.9061C2.39762 16.492 2.61446 15.9799 2.90505 15.407C3.48612 14.2615 4.37814 12.8416 5.63346 11.4541C8.15425 8.66796 12.1581 6 18 6C20.4917 6 22.6489 6.48535 24.4994 7.2582L22.9508 8.80676ZM14.0077 17.7499L12.2033 19.5543C12.0707 19.0586 12 18.5376 12 18C12 14.6863 14.6863 12 18 12C18.5375 12 19.0586 12.0707 19.5543 12.2033L17.7499 14.0077C15.74 14.1317 14.1317 15.74 14.0077 17.7499ZM34 28C34 26.8954 33.1046 26 32 26V24C32 21.7909 30.2091 20 28 20C25.7909 20 24 21.7909 24 24V26C22.8954 26 22 26.8954 22 28V32C22 33.1046 22.8954 34 24 34H32C33.1046 34 34 33.1046 34 32V28ZM30 24V26H26V24C26 22.8954 26.8954 22 28 22C29.1046 22 30 22.8954 30 24ZM32 28V32H24V28H32Z" fill="currentColor"/>
</svg>
