<svg width="36" height="36" viewBox="0 0 36 36" fill="none" xmlns="http://www.w3.org/2000/svg">
<path fill-rule="evenodd" clip-rule="evenodd" d="M10.3907 15.7481L15.3502 14.9778L17.5607 10.2667C17.6457 10.1185 17.8158 10 17.9858 10C18.1842 10 18.3259 10.1185 18.4109 10.2667L20.6498 14.9778L25.6093 15.7185C25.7794 15.7481 25.9211 15.8667 25.9778 16.0444C26.0344 16.2222 25.9778 16.4296 25.8644 16.5481L22.2652 20.2222L23.1154 25.3481C23.1437 25.4074 23.1437 25.437 23.1437 25.4963C23.1437 25.763 22.9454 25.9704 22.6903 25.9704C22.6053 25.9704 22.5203 25.9407 22.4636 25.9111L18.0425 23.4815L13.5931 25.9407C13.5754 25.9469 13.5588 25.9531 13.5431 25.959C13.4832 25.9814 13.4337 26 13.3664 26C13.253 26 13.168 25.9704 13.083 25.9111C12.9129 25.7926 12.8563 25.6148 12.8846 25.437L13.7348 20.2519L10.1356 16.5778C10.0222 16.4296 9.96556 16.2519 10.0222 16.0741C10.0789 15.8963 10.2206 15.7778 10.3907 15.7481ZM13.6148 17.2713L16.7087 16.7907L17.9946 14.0502L19.3007 16.7985L22.3703 17.2569L20.126 19.5479L20.6364 22.6248L18.0397 21.1978L15.3639 22.6768L15.8723 19.5759L13.6148 17.2713Z" fill="currentColor"/>
<path fill-rule="evenodd" clip-rule="evenodd" d="M18 34C26.8366 34 34 26.8366 34 18C34 9.16344 26.8366 2 18 2C9.16344 2 2 9.16344 2 18C2 21.43 3.07931 24.6079 4.91683 27.2127L3.69953 31.7557C3.54014 32.3506 4.08447 32.8949 4.67932 32.7355L9.37359 31.4777C11.8628 33.0742 14.8233 34 18 34ZM6.16932 30.2657L7.09117 26.8253L6.5511 26.0598C4.94377 23.7813 4 21.0039 4 18C4 10.268 10.268 4 18 4C25.732 4 32 10.268 32 18C32 25.732 25.732 32 18 32C15.2174 32 12.63 31.1902 10.4533 29.7942L9.70951 29.3171L6.16932 30.2657Z" fill="currentColor"/>
</svg>
