<svg width="36" height="36" viewBox="0 0 36 36" fill="none" xmlns="http://www.w3.org/2000/svg">
<path fill-rule="evenodd" clip-rule="evenodd" d="M4 14H10.8284L16 8.82846V27.1716L10.8284 22H4V14ZM4 12H10L17.6586 4.34145C17.7846 4.21546 18 4.30469 18 4.48287V31.5172C18 31.6954 17.7846 31.7846 17.6586 31.6586L10 24H4C2.89543 24 2 23.1046 2 22V14C2 12.8955 2.89543 12 4 12ZM32.2932 13.293L29.0001 16.5859L25.7072 13.293L24.293 14.7072L27.5859 18.0001L24.293 21.293L25.7072 22.7072L29.0001 19.4143L32.293 22.7072L33.7072 21.293L30.4143 18.0001L33.7074 14.7072L32.2932 13.293Z" fill="currentColor"/>
</svg>
