<svg width="36" height="36" viewBox="0 0 36 36" fill="none" xmlns="http://www.w3.org/2000/svg">
<path fill-rule="evenodd" clip-rule="evenodd" d="M21.9985 2.50342V4.57905C27.7822 6.29971 31.9999 11.6572 31.9999 17.9997C31.9999 24.3422 27.7822 29.6997 21.9985 31.4204V33.496C28.9001 31.7203 33.9999 25.4556 33.9999 17.9997C33.9999 10.5438 28.9001 4.27911 21.9985 2.50342ZM21.9999 24.9292C24.3906 23.5459 25.999 20.9608 25.999 18C25.999 15.0392 24.3906 12.4541 21.9999 11.0708V8.83248C25.5313 10.3758 27.999 13.8997 27.999 18C27.999 22.1003 25.5313 25.6242 21.9999 27.1675V24.9292ZM7.99992 17.8645C7.99932 17.9096 7.99902 17.9548 7.99902 18C7.99902 18.0452 7.99932 18.0904 7.99992 18.1355V17.8645ZM18 8.00022V29.1716V29.7234V31.3172V31.5172C18 31.6953 17.7846 31.7846 17.6586 31.6586L17.5172 31.5172L16.3902 30.3902L16 30L10 24H4C2.89543 24 2 23.1046 2 22V14C2 12.8954 2.89543 12 4 12H10L16 6L16.3902 5.60979L17.5172 4.48284L17.6586 4.34142C17.7846 4.21543 18 4.30466 18 4.48284V4.68284V6.27659V6.82843V8L18.0656 8.00022H18ZM10 14H10.8284L11.4142 13.4142L16 8.82843V27.1716L11.4142 22.5858L10.8284 22H10H4V14H10Z" fill="currentColor"/>
</svg>
