<svg width="36" height="36" viewBox="0 0 36 36" fill="none" xmlns="http://www.w3.org/2000/svg">
<path fill-rule="evenodd" clip-rule="evenodd" d="M9.84836 5.65914C10.0413 4.69442 10.8884 4 11.8722 4C13.5996 4 15 5.40037 15 7.12781V10H18C19.6568 10 21 11.3431 21 13V15C21 15.3395 20.9758 15.6734 20.9291 16H25C28.866 16 32 19.134 32 23V25C32 26.6569 30.6568 28 29 28H26V30.8722C26 32.5996 24.5996 34 22.8722 34C21.8884 34 21.0413 33.3056 20.8484 32.3409L20.0582 28.3901L18.4648 26H16V24H19.5352L21.9418 27.6099L22.8095 31.9486C22.8155 31.9785 22.8417 32 22.8722 32C23.4951 32 24 31.4951 24 30.8722V26H29C29.5523 26 30 25.5523 30 25V23C30 20.2386 27.7614 18 25 18H20.3264C19.2029 20.3649 16.7924 22 14 22H5.99902C4.89446 22 3.99902 21.1046 3.99902 20V14C3.99902 12.8954 4.89446 12 5.99902 12H7.4648L9.0582 9.6099L9.84836 5.65914ZM11.8722 6C11.8417 6 11.8155 6.0215 11.8095 6.05137L10.9418 10.3901L8.53517 14H5.99902V20H14C16.7614 20 19 17.7614 19 15V13C19 12.4477 18.5523 12 18 12H13V7.12781C13 6.50494 12.4951 6 11.8722 6Z" fill="currentColor"/>
</svg>
