<svg width="36" height="36" viewBox="0 0 36 36" fill="none" xmlns="http://www.w3.org/2000/svg">
<path fill-rule="evenodd" clip-rule="evenodd" d="M16.212 3.23492C16.9501 1.76528 19.0478 1.76508 19.7863 3.23456L33.7899 31.1021C34.4583 32.4321 33.4914 34.0001 32.0029 34.0001L4.0026 34.0001C2.51426 34.0001 1.54735 32.4325 2.21535 31.1025L16.212 3.23492ZM32.0029 32.0001L17.9992 4.13257L4.00259 32.0001L32.0029 32.0001ZM18.999 14.0001V23.0001H16.999V14.0001H18.999ZM15.999 28.0001C15.999 26.8955 16.8944 26.0001 17.999 26.0001C19.1035 26.0001 19.999 26.8955 19.999 28.0001C19.999 29.1046 19.1035 30.0001 17.999 30.0001C16.8944 30.0001 15.999 29.1046 15.999 28.0001Z" fill="currentColor"/>
</svg>
