<svg width="36" height="36" viewBox="0 0 36 36" fill="none" xmlns="http://www.w3.org/2000/svg">
<path d="M9 6C7.34315 6 6 7.34315 6 9V27C6 28.6569 7.34315 30 9 30H27C28.6569 30 30 28.6569 30 27V12H32V27C32 29.7614 29.7614 32 27 32H9C6.23858 32 4 29.7614 4 27V9C4 6.23858 6.23858 4 9 4H12V6H9Z" fill="currentColor"/>
<path d="M26 6C26 7.10457 25.1046 8 24 8C22.8954 8 22 7.10457 22 6C22 4.89543 22.8954 4 24 4C25.1046 4 26 4.89543 26 6Z" fill="currentColor"/>
<path d="M20 6C20 7.10457 19.1046 8 18 8C16.8954 8 16 7.10457 16 6C16 4.89543 16.8954 4 18 4C19.1046 4 20 4.89543 20 6Z" fill="currentColor"/>
<path d="M32 6C32 7.10457 31.1046 8 30 8C28.8954 8 28 7.10457 28 6C28 4.89543 28.8954 4 30 4C31.1046 4 32 4.89543 32 6Z" fill="currentColor"/>
<path d="M14 16H12V17.0623L13.1172 26H16.8828L17.8828 18H18.1172L19.1172 26H22.8828L24 17.0623V16H22V16.9377L21.1172 24H20.8828L19.8828 16H16.1172L15.1172 24H14.8828L14 16.9377V16Z" fill="currentColor"/>
</svg>
