<svg width="36" height="36" viewBox="0 0 36 36" fill="none" xmlns="http://www.w3.org/2000/svg">
<path fill-rule="evenodd" clip-rule="evenodd" d="M12 16H14V16.9377L14.8828 24H15.1172L16.1172 16H19.8828L20.8828 24H21.1172L22 16.9377V16H24V17.0623L22.8828 26H19.1172L18.1172 18H17.8828L16.8828 26H13.1172L12 17.0623V16Z" fill="currentColor"/>
<path d="M6 9C6 7.34315 7.34315 6 9 6H12V4H9C6.23858 4 4 6.23858 4 9V27C4 29.7614 6.23858 32 9 32H27C29.7614 32 32 29.7614 32 27V12H30V27C30 28.6569 28.6569 30 27 30H9C7.34315 30 6 28.6569 6 27V9Z" fill="#F57E02"/>
<path d="M24 8C25.1046 8 26 7.10457 26 6C26 4.89543 25.1046 4 24 4C22.8954 4 22 4.89543 22 6C22 7.10457 22.8954 8 24 8Z" fill="#F57E02"/>
<path d="M20 6C20 7.10457 19.1046 8 18 8C16.8954 8 16 7.10457 16 6C16 4.89543 16.8954 4 18 4C19.1046 4 20 4.89543 20 6Z" fill="#F57E02"/>
<path d="M30 8C31.1046 8 32 7.10457 32 6C32 4.89543 31.1046 4 30 4C28.8954 4 28 4.89543 28 6C28 7.10457 28.8954 8 30 8Z" fill="#F57E02"/>
</svg>
