<svg width="36" height="36" viewBox="0 0 36 36" fill="none" xmlns="http://www.w3.org/2000/svg">
<path fill-rule="evenodd" clip-rule="evenodd" d="M11 2C8.23858 2 6 4.23858 6 7V14H8V7C8 5.34315 9.34315 4 11 4H20V9C20 10.6569 21.3431 12 23 12H28V14H30V10.6569C30 9.33077 29.4732 8.059 28.5355 7.12132L24.8787 3.46447C23.941 2.52678 22.6692 2 21.3431 2H11ZM26.8787 8.29289L23.7071 5.12132C23.2301 4.64427 22.6401 4.30612 22 4.1329V9C22 9.55228 22.4477 10 23 10H27.8671C27.6939 9.35992 27.3557 8.76994 26.8787 8.29289Z" fill="currentColor"/>
<path d="M6 32V34H30V32H6Z" fill="currentColor"/>
<path d="M18 20C18 18.8954 18.8954 18 20 18H24V20H20V22H22C23.1046 22 24 22.8954 24 24V26C24 27.1046 23.1046 28 22 28H18V26H22V24H20C18.8954 24 18 23.1046 18 22V20Z" fill="currentColor"/>
<path d="M10 18V28H16V26H12V18H10Z" fill="currentColor"/>
<path d="M2 18H4V18.7639L5 20.7639L6 18.7639V18H8V19.2361L6.11803 23L8 26.7639V28H6V27.2361L5 25.2361L4 27.2361V28H2V26.7639L3.88197 23L2 19.2361V18Z" fill="currentColor"/>
<path d="M26 18V19.2361L27.882 23L26 26.7639V28H28V27.2361L29 25.2361L30 27.2361V28H32V26.7639L30.118 23L32 19.2361V18H30V18.7639L29 20.7639L28 18.7639V18H26Z" fill="currentColor"/>
</svg>
