<svg width="36" height="36" viewBox="0 0 36 36" fill="none" xmlns="http://www.w3.org/2000/svg">
<g clip-path="url(#clip0_2499_71)">
<path d="M20 8.022C19.8483 8.29336 19.7183 8.52805 19.5883 8.76274C17.4936 12.4811 15.3989 16.2068 13.297 19.9252C13.2247 20.0572 13.1886 20.1892 13.1886 20.3359C13.1886 22.8148 13.1886 25.2937 13.1958 27.7726C13.1958 27.956 13.1525 28 12.9719 28C11.6573 27.9927 10.3355 27.9927 9.02087 28C8.84029 28 8.78973 27.9487 8.78973 27.7653C8.79695 25.2864 8.78973 22.8075 8.79695 20.3286C8.79695 20.1672 8.76084 20.0352 8.68138 19.8959C6.51445 16.0528 4.34751 12.2024 2.18058 8.35204C2.12279 8.25669 2.07223 8.15402 2 8.022C2.10112 8.022 2.16613 8.022 2.23114 8.022C3.66132 8.022 5.09872 8.022 6.52889 8.01467C6.69502 8.01467 6.7817 8.07334 6.86116 8.21269C8.18299 10.5376 9.51204 12.8625 10.8483 15.1801C10.8917 15.2534 10.9205 15.3414 11.0144 15.4074C11.13 15.2094 11.2384 15.0187 11.3467 14.828C12.6108 12.6205 13.8748 10.4129 15.1316 8.19802C15.2111 8.05134 15.305 8 15.4711 8C16.9013 8.00733 18.3242 8.00733 19.7544 8.00733C19.8194 8.022 19.8844 8.022 20 8.022Z" fill="#925EB1"/>
<path d="M33.9444 19.2843C33.6257 16.3018 32.0943 14.2191 29.5235 12.9709C28.1238 12.296 26.6271 12.1872 25.1165 12.3976C22.6981 12.7314 20.8826 14.0377 19.6215 16.1929C18.7969 17.608 18.5405 19.1755 18.6514 20.8155C18.8108 23.2175 19.864 25.0971 21.6934 26.5194C23.0585 27.5789 24.6245 28.0071 26.4538 27.9998C26.7587 27.9925 27.216 27.978 27.6665 27.8982C30.1679 27.4773 32.0181 26.0767 33.2099 23.7473C33.9167 22.3612 34.1107 20.8446 33.9444 19.2843ZM29.5582 22.129C28.9692 23.5078 27.9575 24.3133 26.4885 24.3786C25.0195 24.444 23.9108 23.7836 23.197 22.4338C23.1485 22.3467 23.107 22.2596 23.0654 22.1653C23.003 22.0202 22.9476 21.8678 22.906 21.7154C22.7605 21.2147 22.7051 20.6994 22.7051 20.1624C22.712 19.3569 22.8436 18.5949 23.197 17.9055C23.3148 17.6733 23.4534 17.4556 23.6197 17.2452C24.3612 16.309 25.3174 15.9099 26.4746 15.9389C28.3802 15.997 29.669 17.5935 29.87 19.4585C29.9739 20.3729 29.9254 21.28 29.5582 22.129Z" fill="#925EB1"/>
</g>
<defs>
<clipPath id="clip0_2499_71">
<rect width="18" height="18" fill="white" transform="scale(2)"/>
</clipPath>
</defs>
</svg>
