<svg width="36" height="36" viewBox="0 0 36 36" fill="none" xmlns="http://www.w3.org/2000/svg">
<g clip-path="url(#clip0_1812_224)">
<path d="M28.483 4H15.3149C11.6294 4 9.27728 6.74478 8.55498 9.93102C7.98084 12.2535 7.77712 13.3284 5.36946 23.0407V23.1559C5.36946 23.2134 5.36946 23.271 5.36946 23.271L3.03588 32.5611C3.03588 32.5611 2.46175 35.3058 5.90655 33.2137L12.3146 29.1637H22.7787C26.5198 29.1637 28.8164 26.4189 29.5387 23.1751C29.5387 23.1175 31.3166 15.9388 32.7612 9.95022C33.6502 6.09217 32.0204 4 28.483 4Z" fill="#FB713F"/>
<path d="M27.7587 10.9099C27.7031 11.8312 27.3327 12.6374 26.666 13.1748L17.4984 20.6222H24.888L23.7027 25.2672H13.1461C11.5903 25.2672 10.3495 24.0387 10.2754 22.4072C10.2754 22.2921 10.2754 22.1961 10.2754 22.0809C10.2754 21.2748 10.5902 20.5838 11.1644 20.0271L20.795 12.2535H13.2387L14.3869 7.78121H24.9065C26.4252 7.72363 27.7031 8.97126 27.7772 10.5836C27.7587 10.6987 27.7587 10.7947 27.7587 10.9099Z" fill="#F9F9FA"/>
</g>
<defs>
<clipPath id="clip0_1812_224">
<rect width="18" height="18" fill="white" transform="scale(2)"/>
</clipPath>
</defs>
</svg>
