<svg preserveAspectRatio="none" width="100%" height="100%" overflow="visible" style="display: block;" viewBox="0 0 14 14" fill="none" xmlns="http://www.w3.org/2000/svg">
<path id="Icon" fill-rule="evenodd" clip-rule="evenodd" d="M0 2.5C0 1.11929 1.11929 0 2.5 0H11.5C12.8807 0 14 1.11929 14 2.5V11.5C14 12.8807 12.8807 14 11.5 14H2.5C1.11929 14 0 12.8807 0 11.5V2.5ZM2.5 1C1.67157 1 1 1.67157 1 2.5V11.5C1 12.3284 1.67157 13 2.5 13H11.5C12.3284 13 13 12.3284 13 11.5V2.5C13 1.67157 12.3284 1 11.5 1H2.5ZM3 6V3H4V6H3ZM5 4C5 3.44772 5.44772 3 6 3H8C8.55229 3 9 3.44772 9 4V5C9 5.55228 8.55228 6 8 6H6C5.44772 6 5 5.55228 5 5V4ZM8 4H6V5H8V4ZM10 6V3H11V6H10ZM3 9C3 8.44772 3.44772 8 4 8H6C6.55228 8 7 8.44772 7 9V10C7 10.5523 6.55228 11 6 11H4C3.44772 11 3 10.5523 3 10V9ZM8 11V8H9V11H8ZM6 9H4V10H6V9ZM10 11V8H11V11H10Z" fill="var(--fill-0, #24242B)"/>
</svg>
