<svg width="18" height="18" viewBox="0 0 18 18" fill="none" xmlns="http://www.w3.org/2000/svg">
<path fill-rule="evenodd" clip-rule="evenodd" d="M2 4.5C2 3.11929 3.11929 2 4.5 2H13.5C14.8807 2 16 3.11929 16 4.5V13.5C16 14.8807 14.8807 16 13.5 16H4.5C3.11929 16 2 14.8807 2 13.5V4.5ZM4.5 3C3.67157 3 3 3.67157 3 4.5V13.5C3 14.3284 3.67157 15 4.5 15H13.5C14.3284 15 15 14.3284 15 13.5V4.5C15 3.67157 14.3284 3 13.5 3H4.5ZM5 8V5H6V8H5ZM7 6C7 5.44772 7.44772 5 8 5H10C10.5523 5 11 5.44772 11 6V7C11 7.55228 10.5523 8 10 8H8C7.44772 8 7 7.55228 7 7V6ZM10 6H8V7H10V6ZM12 8V5H13V8H12ZM5 11C5 10.4477 5.44772 10 6 10H8C8.55228 10 9 10.4477 9 11V12C9 12.5523 8.55228 13 8 13H6C5.44772 13 5 12.5523 5 12V11ZM10 13V10H11V13H10ZM8 11H6V12H8V11ZM12 13V10H13V13H12Z" fill="currentColor"/>
</svg>
