<svg width="36" height="36" viewBox="0 0 36 36" fill="none" xmlns="http://www.w3.org/2000/svg">
<path fill-rule="evenodd" clip-rule="evenodd" d="M18.0017 1.71143L34.6323 15.2238L33.3711 16.776L30.0017 14.0384V26.9999C30.0017 29.7613 27.7631 31.9999 25.0017 31.9999H11.0017C8.24026 31.9999 6.00169 29.7613 6.00169 26.9999V14.0384L2.63228 16.776L1.37109 15.2238L18.0017 1.71143ZM8.00169 12.4134V26.9999C8.00169 28.6568 9.34483 29.9999 11.0017 29.9999H14.0017V20.9999C14.0017 19.343 15.3448 17.9999 17.0017 17.9999H19.0017C20.6585 17.9999 22.0017 19.343 22.0017 20.9999V29.9999H25.0017C26.6585 29.9999 28.0017 28.6568 28.0017 26.9999V12.4134L18.0017 4.28837L8.00169 12.4134ZM17.0017 19.9999C16.4494 19.9999 16.0017 20.4476 16.0017 20.9999V29.9999H20.0017V20.9999C20.0017 20.4476 19.554 19.9999 19.0017 19.9999H17.0017Z" fill="currentColor"/>
</svg>
