<svg width="18" height="18" viewBox="0 0 18 18" fill="none" xmlns="http://www.w3.org/2000/svg">
<path fill-rule="evenodd" clip-rule="evenodd" d="M10.256 2.114C8.608 1.813 6.908 2.113 5.462 2.96C4.244 3.673 3.275 4.735 2.675 6L5 6V7H1V3H2V5.127C2.692 3.877 3.71 2.827 4.957 2.097C6.609 1.129 8.552 0.786 10.435 1.13C12.318 1.473 14.016 2.48 15.22 3.968C16.423 5.456 17.054 7.327 16.996 9.24C16.939 11.153 16.198 12.982 14.907 14.396C13.616 15.809 11.861 16.712 9.961 16.942C8.061 17.172 6.141 16.713 4.551 15.649C2.96 14.584 1.804 12.984 1.292 11.14L2.255 10.873C2.703 12.486 3.715 13.886 5.107 14.817C6.499 15.749 8.178 16.151 9.841 15.949C11.503 15.748 13.039 14.958 14.168 13.721C15.298 12.485 15.947 10.884 15.997 9.21C16.047 7.536 15.496 5.899 14.442 4.597C13.389 3.295 11.904 2.414 10.256 2.114ZM8.5 4L9.5 4L9.5 8.793L11.854 11.146L11.146 11.854L8.5 9.207L8.5 4Z" fill="currentColor" transform="translate(1, 1)"/>
</svg>
