<svg preserveAspectRatio="none" width="100%" height="100%" overflow="visible" style="display: block;" viewBox="0 0 14 14" fill="none" xmlns="http://www.w3.org/2000/svg">
<g id="Icon">
<path fill-rule="evenodd" clip-rule="evenodd" d="M7 0C6.76613 0 6.61119 0.136673 6.54505 0.204712C6.46793 0.28404 6.40794 0.377402 6.362 0.459279C6.26817 0.626518 6.17936 0.844057 6.09681 1.07625C5.9295 1.54682 5.7577 2.16496 5.60311 2.77657C5.25241 4.16402 4.16402 5.25241 2.77657 5.60311C2.16496 5.7577 1.54682 5.9295 1.07625 6.09681C0.844057 6.17936 0.626518 6.26817 0.459279 6.362C0.377402 6.40794 0.28404 6.46793 0.204712 6.54505C0.136673 6.61119 0 6.76613 0 7C0 7.23387 0.136673 7.38881 0.204712 7.45495C0.28404 7.53207 0.377402 7.59206 0.459279 7.638C0.626518 7.73183 0.844057 7.82064 1.07625 7.90319C1.54682 8.0705 2.16496 8.2423 2.77657 8.39689C4.16402 8.74759 5.25241 9.83598 5.60311 11.2234C5.7577 11.835 5.9295 12.4532 6.09681 12.9237C6.17936 13.1559 6.26817 13.3735 6.362 13.5407C6.40794 13.6226 6.46793 13.716 6.54505 13.7953C6.61119 13.8633 6.76613 14 7 14C7.23387 14 7.38881 13.8633 7.45495 13.7953C7.53207 13.716 7.59206 13.6226 7.638 13.5407C7.73183 13.3735 7.82064 13.1559 7.90319 12.9237C8.0705 12.4532 8.2423 11.835 8.39689 11.2234C8.74759 9.83598 9.83598 8.74759 11.2234 8.39689C11.835 8.2423 12.4532 8.0705 12.9237 7.90319C13.1559 7.82064 13.3735 7.73183 13.5407 7.638C13.6226 7.59206 13.716 7.53207 13.7953 7.45495C13.8633 7.38881 14 7.23387 14 7C14 6.76613 13.8633 6.61119 13.7953 6.54505C13.716 6.46793 13.6226 6.40794 13.5407 6.362C13.3735 6.26817 13.1559 6.17936 12.9237 6.09681C12.4532 5.9295 11.835 5.7577 11.2234 5.60311C9.83598 5.25241 8.74759 4.16402 8.39689 2.77657C8.2423 2.16496 8.0705 1.54682 7.90319 1.07625C7.82064 0.844057 7.73183 0.626518 7.638 0.459279C7.59206 0.377402 7.53207 0.28404 7.45495 0.204712C7.38881 0.136673 7.23387 0 7 0ZM6.57262 3.02163C6.7122 2.46942 6.86013 1.93599 7 1.52369C7.13987 1.93599 7.2878 2.46942 7.42738 3.02163C7.86813 4.76532 9.23468 6.13187 10.9784 6.57262C11.5306 6.7122 12.064 6.86013 12.4763 7C12.064 7.13987 11.5306 7.2878 10.9784 7.42738C9.23468 7.86813 7.86813 9.23468 7.42738 10.9784C7.2878 11.5306 7.13987 12.064 7 12.4763C6.86013 12.064 6.7122 11.5306 6.57262 10.9784C6.13187 9.23468 4.76532 7.86813 3.02163 7.42738C2.46942 7.2878 1.93599 7.13987 1.52369 7C1.93599 6.86013 2.46942 6.7122 3.02163 6.57262C4.76532 6.13187 6.13187 4.76532 6.57262 3.02163Z" fill="url(#paint0_linear_8028_13577)"/>
<path d="M1 0V1H0V2H1V3H2V2H3V1H2V0H1Z" fill="url(#paint1_linear_8028_13577)"/>
</g>
<defs>
<linearGradient id="paint0_linear_8028_13577" x1="1.75" y1="2.1875" x2="11.6667" y2="12.1042" gradientUnits="userSpaceOnUse">
<stop stop-color="#00A19A"/>
<stop offset="0.45" stop-color="#7C2DF0"/>
</linearGradient>
<linearGradient id="paint1_linear_8028_13577" x1="1.75" y1="2.1875" x2="11.6667" y2="12.1042" gradientUnits="userSpaceOnUse">
<stop stop-color="#00A19A"/>
<stop offset="0.45" stop-color="#7C2DF0"/>
</linearGradient>
</defs>
</svg>
