<svg preserveAspectRatio="none" width="100%" height="100%" overflow="visible" style="display: block;" viewBox="0 0 22.0003 22" fill="none" xmlns="http://www.w3.org/2000/svg">
<path id="Icon" fill-rule="evenodd" clip-rule="evenodd" d="M1.5 11C1.5 5.75329 5.75329 1.5 11 1.5C16.2467 1.5 20.5 5.75329 20.5 11H20.5003V12.493C20.5003 14.3111 19.2203 15.619 17.8337 15.619C16.447 15.619 15.167 14.3111 15.167 12.493V5.14282H13.667V5.74562C12.9302 5.19944 11.989 4.88086 10.9997 4.88086C8.79739 4.88086 6.83301 6.45967 6.83301 8.61366V11.9761V11.9761V13.2312C6.83301 15.4372 8.75989 17.1189 10.9997 17.1189C12.455 17.1189 13.7782 16.4089 14.5265 15.3065C15.2738 16.3945 16.4519 17.119 17.8337 17.119C20.221 17.119 22.0003 14.9562 22.0003 12.493V11H22C22 4.92485 17.0751 0 11 0C4.92487 0 0 4.92487 0 11C0 14.5687 1.07402 17.3389 2.953 19.2178C4.82973 21.0946 7.42742 22 10.3167 22H15.1V20.5H10.3167C7.73925 20.5 5.55361 19.6971 4.01366 18.1572C2.47598 16.6195 1.5 14.2646 1.5 11ZM13.667 11.9761V10.0237H13.6663V8.61366C13.6663 7.47294 12.5713 6.38086 10.9997 6.38086C9.42802 6.38086 8.33301 7.47294 8.33301 8.61366V11.9761V11.9761V13.2312C8.33301 14.4911 9.46551 15.6189 10.9997 15.6189C12.5338 15.6189 13.6663 14.4911 13.6663 13.2312V11.9761H13.667Z" fill="var(--fill-0, #24242B)"/>
</svg>
