<svg preserveAspectRatio="none" width="100%" height="100%" overflow="visible" style="display: block;" viewBox="0 0 22 22" fill="none" xmlns="http://www.w3.org/2000/svg">
<g id="Icon">
<path d="M11 0C10.0387 0 9.08154 0.126012 8.15299 0.374816L8.54122 1.8237C9.34315 1.60883 10.1698 1.5 11 1.5V0Z" fill="var(--fill-0, #24242B)"/>
<path d="M16.5 1.47372C15.6675 0.993068 14.7756 0.623619 13.847 0.374816L13.4588 1.8237C14.2607 2.03858 15.031 2.35765 15.75 2.77276L16.5 1.47372Z" fill="var(--fill-0, #24242B)"/>
<path d="M5.5 1.47372C4.66749 1.95437 3.90157 2.54208 3.22183 3.22182L4.28249 4.28248C4.86954 3.69543 5.53101 3.18787 6.25 2.77276L5.5 1.47372Z" fill="var(--fill-0, #24242B)"/>
<path d="M20.5263 5.5C20.0456 4.66748 19.4579 3.90157 18.7782 3.22182L17.7175 4.28248C18.3046 4.86954 18.8121 5.53101 19.2272 6.25L20.5263 5.5Z" fill="var(--fill-0, #24242B)"/>
<path d="M1.47372 5.5C0.993068 6.33251 0.62362 7.22444 0.374816 8.15299L1.8237 8.54122C2.03858 7.73929 2.35765 6.96899 2.77276 6.25L1.47372 5.5Z" fill="var(--fill-0, #24242B)"/>
<path d="M22 11C22 10.0387 21.874 9.08154 21.6252 8.15299L20.1763 8.54122C20.3912 9.34315 20.5 10.1698 20.5 11H22Z" fill="var(--fill-0, #24242B)"/>
<path d="M0 11C0 11.9613 0.126012 12.9185 0.374815 13.847L1.8237 13.4588C1.60883 12.6569 1.5 11.8302 1.5 11H0Z" fill="var(--fill-0, #24242B)"/>
<path d="M1.47372 16.5C1.95437 17.3325 2.54208 18.0984 3.22183 18.7782L4.28249 17.7175C3.69543 17.1305 3.18787 16.469 2.77276 15.75L1.47372 16.5Z" fill="var(--fill-0, #24242B)"/>
<path d="M5.5 20.5263C6.33251 21.0069 7.22444 21.3764 8.15299 21.6252L8.54122 20.1763C7.73929 19.9614 6.96899 19.6423 6.25 19.2272L5.5 20.5263Z" fill="var(--fill-0, #24242B)"/>
<path d="M11 22C11.9613 22 12.9185 21.874 13.847 21.6252L13.4588 20.1763C12.6569 20.3912 11.8302 20.5 11 20.5V22Z" fill="var(--fill-0, #24242B)"/>
<path d="M15.4707 7.21973L9.50103 13.1894L6.53136 10.2197L5.4707 11.2804L9.50103 15.3107L16.5314 8.28039L15.4707 7.21973Z" fill="var(--fill-0, #24242B)"/>
</g>
</svg>
