<svg preserveAspectRatio="none" width="100%" height="100%" overflow="visible" style="display: block;" viewBox="0 0 13.7122 11.4444" fill="none" xmlns="http://www.w3.org/2000/svg">
<path id="Icon" fill-rule="evenodd" clip-rule="evenodd" d="M4.81955 4.22218V1.77983L1.18045 5.72218L4.81955 9.66453V7.22218H5.81955C8.37739 7.22218 10.5454 7.73281 12.384 9.16556C12.0551 8.06574 11.5319 7.04138 10.7862 6.2202C9.72404 5.05049 8.14924 4.22218 5.81955 4.22218H4.81955ZM6.81955 8.25189C9.26903 8.40399 11.1974 9.15774 12.8073 10.9188C13.1411 11.2839 13.7745 11.0662 13.7072 10.5761C13.2123 6.97291 11.0162 3.22218 5.81955 3.22218V0.501007C5.81955 0.0458511 5.26087 -0.172583 4.95214 0.161866L0.132598 5.38304C-0.0441997 5.57457 -0.0441991 5.86979 0.132599 6.06132L4.95215 11.2825C5.26087 11.6169 5.81955 11.3985 5.81955 10.9434V8.22218C6.16231 8.22218 6.49549 8.23177 6.81955 8.25189Z" fill="url(#paint0_linear_8028_13579)"/>
<defs>
<linearGradient id="paint0_linear_8028_13579" x1="1.71402" y1="1.78818" x2="9.68975" y2="11.3444" gradientUnits="userSpaceOnUse">
<stop stop-color="#00A19A"/>
<stop offset="0.45" stop-color="#7C2DF0"/>
</linearGradient>
</defs>
</svg>
