<svg preserveAspectRatio="none" width="100%" height="100%" overflow="visible" style="display: block;" viewBox="0 0 19.0741 19.0741" fill="none" xmlns="http://www.w3.org/2000/svg">
<g id="Icon">
<path d="M11.3046 14.1335L9.18198 16.2561C7.42462 18.0134 4.57538 18.0134 2.81802 16.2561C1.06066 14.4987 1.06066 11.6495 2.81802 9.89211L4.9406 7.76953L3.87994 6.70887L1.75736 8.83145C-0.585787 11.1746 -0.585786 14.9736 1.75736 17.3167C4.10051 19.6599 7.89949 19.6599 10.2426 17.3167L12.3652 15.1942L11.3046 14.1335Z" fill="var(--fill-0, #24242B)"/>
<path d="M7.76903 4.9411L9.89211 2.81802C11.6495 1.06066 14.4987 1.06066 16.2561 2.81802C18.0134 4.57538 18.0134 7.42462 16.2561 9.18198L14.133 11.3051L15.1936 12.3657L17.3167 10.2426C19.6599 7.89949 19.6599 4.1005 17.3167 1.75736C14.9736 -0.585786 11.1746 -0.585787 8.83145 1.75736L6.70837 3.88044L7.76903 4.9411Z" fill="var(--fill-0, #24242B)"/>
<path fill-rule="evenodd" clip-rule="evenodd" d="M13.0729 7.01854L6.00182 14.0896L4.94116 13.029L12.0122 5.95788L13.0729 7.01854Z" fill="var(--fill-0, #24242B)"/>
</g>
</svg>
