<svg preserveAspectRatio="none" width="100%" height="100%" overflow="visible" style="display: block;" viewBox="0 0 16 16" fill="none" xmlns="http://www.w3.org/2000/svg">
<g id="Icon">
<path d="M8 0C7.30087 0 6.60476 0.0916451 5.92945 0.272593L6.18827 1.23852C6.77916 1.08019 7.38826 1 8 1V0Z" fill="var(--fill-0, #24242B)"/>
<path d="M12 1.0718C11.3945 0.722231 10.7459 0.453541 10.0706 0.272593L9.81173 1.23852C10.4026 1.39685 10.9702 1.63195 11.5 1.93782L12 1.0718Z" fill="var(--fill-0, #24242B)"/>
<path d="M4 1.0718C3.39454 1.42136 2.83751 1.84879 2.34315 2.34314L3.05025 3.05025C3.48282 2.61769 3.97022 2.24369 4.5 1.93782L4 1.0718Z" fill="var(--fill-0, #24242B)"/>
<path d="M14.9282 4C14.5786 3.39453 14.1512 2.8375 13.6569 2.34314L12.9497 3.05025C13.3823 3.48282 13.7563 3.97022 14.0622 4.5L14.9282 4Z" fill="var(--fill-0, #24242B)"/>
<path d="M1.0718 4C0.722232 4.60546 0.453542 5.25414 0.272593 5.92945L1.23852 6.18827C1.39685 5.59737 1.63195 5.02978 1.93782 4.5L1.0718 4Z" fill="var(--fill-0, #24242B)"/>
<path d="M16 8C16 7.30087 15.9084 6.60476 15.7274 5.92945L14.7615 6.18827C14.9198 6.77916 15 7.38826 15 8H16Z" fill="var(--fill-0, #24242B)"/>
<path d="M0 8C0 8.69913 0.091645 9.39524 0.272593 10.0706L1.23852 9.81173C1.08019 9.22084 1 8.61174 1 8H0Z" fill="var(--fill-0, #24242B)"/>
<path d="M1.0718 12C1.42136 12.6055 1.84879 13.1625 2.34315 13.6569L3.05025 12.9497C2.61769 12.5172 2.24369 12.0298 1.93782 11.5L1.0718 12Z" fill="var(--fill-0, #24242B)"/>
<path d="M4 14.9282C4.60546 15.2778 5.25414 15.5465 5.92945 15.7274L6.18827 14.7615C5.59737 14.6032 5.02978 14.368 4.5 14.0622L4 14.9282Z" fill="var(--fill-0, #24242B)"/>
<path d="M8 16C8.69913 16 9.39524 15.9084 10.0706 15.7274L9.81173 14.7615C9.22084 14.9198 8.61174 15 8 15V16Z" fill="var(--fill-0, #24242B)"/>
<path d="M11.1465 5.39648L7.00004 9.54293L4.85359 7.39648L4.14648 8.10359L7.00004 10.9571L11.8536 6.10359L11.1465 5.39648Z" fill="var(--fill-0, #24242B)"/>
</g>
</svg>
