<svg preserveAspectRatio="none" width="100%" height="100%" overflow="visible" style="display: block;" viewBox="0 0 18 18" fill="none" xmlns="http://www.w3.org/2000/svg">
<g id="Checkbox">
<path d="M0 6C0 2.68629 2.68629 0 6 0H12C15.3137 0 18 2.68629 18 6V12C18 15.3137 15.3137 18 12 18H6C2.68629 18 0 15.3137 0 12V6Z" fill="var(--fill-0, #0C4BFF)"/>
<path d="M6 0.5H12C15.0376 0.5 17.5 2.96243 17.5 6V12C17.5 15.0376 15.0376 17.5 12 17.5H6C2.96243 17.5 0.5 15.0376 0.5 12V6C0.5 2.96243 2.96243 0.5 6 0.5Z" stroke="var(--stroke-0, black)" stroke-opacity="0.1"/>
<path id="Checked" fill-rule="evenodd" clip-rule="evenodd" d="M12.6916 6.2898C12.2804 5.9034 11.6147 5.9034 11.2045 6.2898L7.66658 9.61418L6.79472 8.79593C6.38456 8.40954 5.71884 8.40954 5.30762 8.79593C4.89746 9.18134 4.89746 9.80688 5.30762 10.1933L6.92303 11.7102C7.33319 12.0966 7.99892 12.0966 8.41013 11.7102L12.6916 7.68714C13.1028 7.30174 13.1028 6.67619 12.6916 6.2898" fill="var(--fill-0, #F9F9FA)"/>
</g>
</svg>
