<svg preserveAspectRatio="none" width="100%" height="100%" overflow="visible" style="display: block;" viewBox="0 0 16 16" fill="none" xmlns="http://www.w3.org/2000/svg">
<path id="Icon" fill-rule="evenodd" clip-rule="evenodd" d="M8 1C4.13401 1 1 4.13401 1 8C1 10.3986 1.71732 12.1352 2.85355 13.2714C3.99129 14.4092 5.60394 15 7.5 15H11V16H7.5C5.39606 16 3.50871 15.3408 2.14645 13.9786C0.782683 12.6148 0 10.6014 0 8C0 3.58172 3.58172 0 8 0C12.4183 0 16 3.58172 16 8V10C16 11.6569 14.6569 13 13 13C11.8594 13 10.8674 12.3634 10.36 11.4262C9.73169 12.3723 8.69539 13 7.5 13C5.53507 13 4 11.304 4 9.28571V7.55556C4 5.60056 5.55839 4 7.5 4C8.48206 4 9.36608 4.40947 10 5.06718V4H11V10C11 11.1046 11.8954 12 13 12C14.1046 12 15 11.1046 15 10V8C15 4.13401 11.866 1 8 1ZM10 7.55556C10 6.13547 8.8721 5 7.5 5C6.1279 5 5 6.13547 5 7.55556V9.28571C5 10.8178 6.15122 12 7.5 12C8.84878 12 10 10.8178 10 9.28571V7.55556Z" fill="var(--fill-0, #24242B)"/>
</svg>
