<svg width="18" height="18" viewBox="0 0 18 18" fill="none" xmlns="http://www.w3.org/2000/svg">
<g transform="translate(1.6465, 2)">
<path fill-rule="evenodd" clip-rule="evenodd" d="M12.2071 1H10.7071V0H12.2071C13.5878 0 14.7071 1.11929 14.7071 2.5V11.5C14.7071 12.8807 13.5878 14 12.2071 14H10.7071V13H12.2071C13.0355 13 13.7071 12.3284 13.7071 11.5V2.5C13.7071 1.67157 13.0355 1 12.2071 1ZM11.7071 11H10.7071V3H11.7071V11ZM1.91421 7.5L4.06066 9.64645L3.35355 10.3536L0 7L3.35355 3.64645L4.06066 4.35355L1.91421 6.5H8.70711V7.5H1.91421Z" fill="currentColor"/>
</g>
</svg>
